<svg xmlns="http://www.w3.org/2000/svg" fill="none" viewBox="0 0 194 86" xmlns:v="https://vecta.io/nano"><style><![CDATA[.B{fill:#235162}.C{stroke:#235162}.D{stroke-miterlimit:10}.E{stroke-width:.4}.F{opacity:.99}]]></style><g class="B C D E"><path d="M9.592 55.414c-.261.283-.558.492-.892.626 1.421.209 2.501.726 3.24 1.551s1.11 1.835 1.11 3.026c0 1.445-.566 2.612-1.697 3.506s-2.617 1.339-4.459 1.339-3.284-.465-4.328-1.396S1 61.821 1 60.124v-.268l.24-.045c.29 2.219 1.189 3.655 2.697 4.31V51.125c-.03-.402-.177-.733-.446-.994a1.34 1.34 0 0 0-.968-.391h-.261v-.223h3.654c1.363 0 2.454.32 3.273.961s1.229 1.478 1.229 2.512-.275 1.842-.827 2.422l.001.002zm-4.241-5.18v14.29a10.85 10.85 0 0 0 1.653.112c1.393 0 2.476-.383 3.252-1.15s1.164-1.76 1.164-2.981c0-.655-.119-1.236-.359-1.742s-.54-.901-.902-1.184c-.957-.76-2.306-1.139-4.046-1.139h-.022l-.022-.201h.022a2.67 2.67 0 0 0 1.902-.748c.528-.499.794-1.268.794-2.311 0-1.965-1.051-2.947-3.153-2.947h-.283v.002zm15.074.916h-.066a1.46 1.46 0 0 0-.424-.994 1.3 1.3 0 0 0-.968-.413h-.283v-.223h1.74v1.629l.001.001zm0 12.37v1.629h-1.74v-.223h.283a1.3 1.3 0 0 0 .968-.413 1.46 1.46 0 0 0 .424-.994h.066l-.001.001zm1.348-14.001v15.63H20.36v-15.63h1.413zm-.064 1.631v-1.63h1.74v.223h-.283a1.3 1.3 0 0 0-.968.413 1.46 1.46 0 0 0-.424.994h-.066l.001-.001zm5.937 13.307v.692h-5.937v-.692h5.937zm1.327-2.925l-1.261 3.618h-3.61l.783-.692c.768 0 1.395-.123 1.881-.369a3.11 3.11 0 0 0 1.185-1.039 8.27 8.27 0 0 0 .804-1.519h.217v.001zm6.437-12.013v1.34h-.066c0-.328-.113-.596-.338-.804s-.496-.313-.815-.313h-.347v-.223h1.566zm1.348 0v9.825c0 1.072.192 2.017.576 2.836s.925 1.456 1.621 1.909 1.5.681 2.414.681c.972 0 1.819-.216 2.544-.648a4.5 4.5 0 0 0 1.697-1.797c.406-.767.609-1.664.609-2.69V49.519h1.023v10.115c0 1.162-.243 2.177-.728 3.048s-1.172 1.551-2.055 2.043-1.914.737-3.088.737-2.259-.242-3.165-.726-1.61-1.162-2.11-2.032-.751-1.886-.751-3.048V49.519h1.413zm1.502 0v.223h-.347a1.15 1.15 0 0 0-.815.313 1.05 1.05 0 0 0-.337.804h-.044v-1.34h1.544zm8.025 0v1.34h-.066c0-.328-.113-.596-.337-.804s-.496-.313-.815-.313h-.347v-.223h1.566zm2.459 0v.223h-.347a1.15 1.15 0 0 0-.815.313c-.224.209-.338.477-.338.804h-.043v-1.34h1.544zm7.325 1.631h-.066c0-.387-.138-.719-.413-.994a1.34 1.34 0 0 0-.979-.413h-.261l-.022-.223h1.74v1.629l.001.001zm0 12.37v1.629h-1.74v-.223h.283a1.3 1.3 0 0 0 .968-.413 1.46 1.46 0 0 0 .425-.994h.066l-.001.001zm1.349-14.001v15.63h-1.413v-15.63h1.413zm5.873 0v.693h-5.937v-.693h5.937zm-.936 7.592v.67h-5.003v-.67h5.003zm.936 7.345v.692h-5.937v-.692h5.937zm1.327-2.925l-1.261 3.618h-3.61l.783-.692c.768 0 1.395-.123 1.882-.369a3.11 3.11 0 0 0 1.185-1.039c.304-.447.572-.953.804-1.519h.217v.001zm-1.327-12.415v.648l-2.653-.246a8.13 8.13 0 0 0 1.011-.067l.989-.156c.304-.059.523-.119.653-.179zm-.936 6.565v1.474h-1.261v-.045a1.06 1.06 0 0 0 .74-.346 1.09 1.09 0 0 0 .304-.771v-.313h.217zm0 2.055v1.474h-.217v-.335a1.09 1.09 0 0 0-.304-.771c-.204-.216-.449-.324-.74-.324v-.045h1.261zm.936-7.592v1.786h-.217v-.402a1.3 1.3 0 0 0-.37-.927c-.247-.261-.551-.398-.913-.413v-.045h1.501v.001zm17.722 1.006h-.066a1.46 1.46 0 0 0-.424-.994 1.3 1.3 0 0 0-.968-.413h-.283v-.223h1.74v1.629l.001.001zm0 12.37v1.629h-1.74v-.223h.283a1.3 1.3 0 0 0 .968-.413 1.46 1.46 0 0 0 .424-.994h.066l-.001.001zm1.348-14.001v15.63h-1.413v-15.63h1.413zm-.064 1.631v-1.63h1.74v.223h-.283a1.3 1.3 0 0 0-.968.413 1.46 1.46 0 0 0-.424.994h-.066l.001-.001zm5.937 13.307v.692h-5.937v-.692h5.937zm1.327-2.925L88.3 65.15h-3.61l.783-.692c.768 0 1.395-.123 1.882-.369a3.11 3.11 0 0 0 1.185-1.039 8.27 8.27 0 0 0 .804-1.519h.217v.001z" class="F"/></g><g class="F"><path d="M96.808 63.519c-.102.298-.117.551-.043.759a.92.92 0 0 0 .359.48.91.91 0 0 0 .511.168h.196v.223H93.46v-.223h.196c.334 0 .678-.108 1.033-.324s.649-.577.881-1.083h1.24-.001zm4.676-14.314l.196 1.564-5.459 14.312h-1.306l5.567-13.576.402-.961.283-.782c.08-.253.12-.439.12-.559h.196l.001.001zm3.067 9.847v.67h-6.808v-.67h6.808zm-3.067-9.847l6.437 15.809h-1.849l-5.024-13.688.435-2.121h.001zm4.044 14.314h1.784c.217.506.507.867.87 1.083s.71.324 1.044.324h.173v.223h-4.893v-.223h.196c.275 0 .522-.123.74-.368s.247-.592.086-1.039z" class="B"/><path d="M101.48 49.206l.196 1.564-5.459 14.312h-1.306l5.567-13.576.402-.961.283-.782c.08-.253.12-.439.12-.559h.196l.001.001zm0 0l6.437 15.809h-1.849l-5.024-13.688.435-2.121h.001zM96.804 63.52c-.102.298-.117.551-.043.759a.92.92 0 0 0 .359.48.91.91 0 0 0 .511.168h.196v.223h-4.371v-.223h.196c.334 0 .678-.108 1.033-.324s.649-.577.881-1.083h1.24-.001zm7.743-4.466v.67h-6.808v-.67h6.808zm.977 4.466h1.784c.217.506.507.867.87 1.083s.71.324 1.044.324h.173v.223h-4.893v-.223h.196c.275 0 .522-.123.74-.368s.247-.592.086-1.039z" class="C D E"/></g><g class="B C D E"><path d="M127.3 58.896v3.685c-.334.447-.783.894-1.349 1.339s-1.258.815-2.078 1.106-1.779.436-2.881.436c-1.537-.015-2.893-.361-4.067-1.039a7.16 7.16 0 0 1-2.752-2.836c-.661-1.214-.989-2.631-.989-4.254s.33-3.044.989-4.265a7.13 7.13 0 0 1 2.752-2.847c1.174-.678 2.53-1.016 4.067-1.016.796 0 1.515.067 2.153.201a8.48 8.48 0 0 1 1.729.547c.515.231.981.488 1.402.771l.434 3.148h-.196c-.217-.864-.575-1.589-1.076-2.177a4.87 4.87 0 0 0-1.881-1.351c-.755-.312-1.61-.469-2.567-.469-1.217 0-2.291.313-3.219.938s-1.653 1.497-2.174 2.612-.783 2.419-.783 3.908.26 2.791.783 3.908 1.247 1.984 2.174 2.601 2.001.934 3.219.949a7.11 7.11 0 0 0 1.838-.235 7.27 7.27 0 0 0 1.665-.67 6.38 6.38 0 0 0 1.392-1.039l.021-3.953c0-.67-.37-1.005-1.109-1.005h-.348v-.223h4.263v.223h-.326c-.755 0-1.117.335-1.087 1.005l.001.001zm14.74-9.689c1.552 0 2.914.339 4.09 1.016a7.12 7.12 0 0 1 2.751 2.847c.66 1.22.989 2.642.989 4.265s-.33 3.044-.989 4.265a7.13 7.13 0 0 1-2.751 2.847c-1.175.678-2.538 1.016-4.09 1.016s-2.893-.339-4.067-1.016a7.13 7.13 0 0 1-2.751-2.847c-.66-1.22-.989-2.642-.989-4.265s.33-3.044.989-4.265a7.13 7.13 0 0 1 2.751-2.847c1.174-.678 2.531-1.016 4.067-1.016zm0 15.586c1.233 0 2.309-.313 3.229-.938s1.639-1.497 2.154-2.612.772-2.419.772-3.908-.259-2.791-.772-3.908-1.233-1.987-2.154-2.612-1.996-.938-3.229-.938-2.287.313-3.208.938-1.638 1.497-2.153 2.612-.772 2.419-.772 3.908.257 2.791.772 3.908 1.232 1.987 2.153 2.612 1.99.938 3.208.938zm21.71-15.586c1.552 0 2.914.339 4.09 1.016a7.12 7.12 0 0 1 2.751 2.847c.66 1.22.989 2.642.989 4.265s-.33 3.044-.989 4.265a7.13 7.13 0 0 1-2.751 2.847c-1.174.678-2.538 1.016-4.09 1.016s-2.892-.339-4.066-1.016a7.13 7.13 0 0 1-2.752-2.847c-.66-1.221-.989-2.642-.989-4.265s.33-3.044.989-4.265a7.13 7.13 0 0 1 2.752-2.847c1.174-.678 2.53-1.016 4.066-1.016zm0 15.586c1.233 0 2.309-.313 3.23-.938s1.638-1.497 2.153-2.612.772-2.419.772-3.908-.258-2.791-.772-3.908-1.232-1.987-2.153-2.612-1.997-.938-3.23-.938-2.287.313-3.208.938-1.638 1.497-2.153 2.612-.772 2.419-.772 3.908.257 2.791.772 3.908 1.233 1.987 2.153 2.612 1.99.938 3.208.938z" class="F"/></g><g class="F"><path d="M178.47 63.564v1.586h-1.806v-.223h.414a1.26 1.26 0 0 0 .935-.402 1.33 1.33 0 0 0 .391-.961h.066zm-.043-14.381l.957 1.251.021 14.714h-1.001V51.974c0-.76-.065-1.689-.196-2.791h.219zm0 0l12.636 13.844.196 2.434-12.636-13.822-.196-2.456zm.979 14.381a1.33 1.33 0 0 0 .391.961c.26.268.572.402.936.402h.413v.223h-1.805v-1.586h.066-.001zm9.113-14.046h1.806v1.585h-.044c-.015-.387-.149-.711-.402-.972s-.57-.391-.946-.391h-.413v-.223l-.001.001zm2.74 0v13.085l.044 1.374.152 1.484h-.196l-.979-1.184V49.518h.979zm1.74 0v.223h-.391a1.28 1.28 0 0 0-.936.391c-.26.261-.398.584-.413.972h-.066v-1.585h1.805l.001-.001z" class="B"/><path d="M178.42 49.184l.957 1.251.021 14.714h-1.001V51.975c0-.76-.065-1.689-.196-2.791h.219zl12.636 13.844.196 2.434M178.42 49.184l.196 2.456 12.636 13.822m0 0h.196l-.152-1.484-.044-1.374V49.519h-.979v14.759l.979 1.184zm-12.789-1.898v1.586h-1.806v-.223h.414a1.26 1.26 0 0 0 .935-.402 1.33 1.33 0 0 0 .391-.961h.066zm.936 0a1.33 1.33 0 0 0 .391.961c.26.268.572.402.936.402h.413v.223h-1.805v-1.586h.066-.001zm9.113-14.046h1.806v1.585h-.044c-.015-.387-.149-.711-.402-.972s-.57-.391-.946-.391h-.413v-.223l-.001.001zm4.48 0v.223h-.391a1.28 1.28 0 0 0-.936.391c-.26.261-.398.584-.413.972h-.066v-1.585h1.805l.001-.001z" class="C D E"/></g><g class="B"><path d="M36.937 76.658h1.34v5.431h3.842v1.175h-5.182v-6.606zm6.234 0h1.34v3.639c0 .299.041.565.123.799s.203.427.364.588.365.283.604.368.519.123.837.123.593-.041.833-.123a1.57 1.57 0 0 0 .604-.368 1.52 1.52 0 0 0 .368-.588c.082-.234.123-.5.123-.799v-3.639h1.34v3.8c0 .434-.073.828-.22 1.183a2.51 2.51 0 0 1-.638.913c-.279.254-.621.449-1.027.588s-.864.207-1.382.207-.981-.069-1.386-.207-.744-.334-1.023-.588-.492-.558-.638-.913-.22-.75-.22-1.183v-3.8zm10.047 3.25l-2.54-3.25h1.64l1.754 2.274 1.763-2.274h1.615l-2.587 3.238 2.675 3.369h-1.644l-1.881-2.375-1.923 2.375h-1.619l2.747-3.356zm5.076-3.25h1.34v3.639c0 .299.041.565.123.799s.203.427.364.588.365.283.604.368.518.123.837.123.593-.041.833-.123a1.57 1.57 0 0 0 .604-.368 1.52 1.52 0 0 0 .368-.588c.082-.234.123-.5.123-.799v-3.639h1.34v3.8c0 .434-.073.828-.22 1.183s-.359.659-.638.913-.621.449-1.027.588-.864.207-1.382.207-.98-.069-1.386-.207-.744-.334-1.023-.588a2.51 2.51 0 0 1-.638-.913c-.147-.355-.22-.75-.22-1.183v-3.8zm8.17 0h3.36c.507 0 .947.054 1.319.161s.68.257.926.457a1.83 1.83 0 0 1 .545.731c.121.287.182.613.182.976 0 .245-.03.479-.089.702a2.05 2.05 0 0 1-.275.609c-.121.186-.275.352-.461.499s-.404.263-.655.359l1.437 2.113h-1.64l-1.243-1.877h-.038l-2.029-.004v1.881h-1.34v-6.606zm3.394 3.567c.254 0 .475-.03.663-.089s.351-.142.478-.249.225-.237.287-.389.097-.327.097-.516c0-.369-.127-.654-.38-.854s-.635-.304-1.145-.304h-2.054v2.401h2.054zm6.551 1.403l-2.887-4.971h1.517l2.033 3.757 2.008-3.757h1.517l-2.849 4.962v1.644h-1.34v-1.636zm8.077-4.971h3.36c.507 0 .947.054 1.319.161s.68.257.926.457a1.83 1.83 0 0 1 .545.731c.121.287.182.613.182.976a2.72 2.72 0 0 1-.089.702 2.05 2.05 0 0 1-.275.609 2.08 2.08 0 0 1-.461.499c-.186.144-.404.263-.655.359l1.437 2.113h-1.64l-1.243-1.877h-.038l-2.029-.004v1.881h-1.34v-6.606zm3.394 3.567c.254 0 .475-.03.664-.089s.351-.142.478-.249.225-.237.287-.389.097-.327.097-.516c0-.369-.127-.654-.38-.854s-.635-.304-1.145-.304h-2.054v2.401h2.054zm4.527-3.567h5.626v1.175h-4.286v1.319h3.795v1.103h-3.795v1.839h4.374v1.171h-5.714v-6.606zm7.511 4.641l.727.368c.248.107.504.199.769.275s.542.13.832.169.605.059.934.059c.398 0 .736-.025 1.015-.076s.506-.125.68-.216.306-.203.385-.33a.75.75 0 0 0 .123-.414c0-.24-.101-.428-.301-.566s-.508-.211-.925-.211a4.69 4.69 0 0 0-.579.038l-.617.076-.613.08c-.2.022-.389.034-.567.034-.295 0-.58-.038-.853-.114s-.512-.19-.723-.342-.375-.342-.499-.57-.186-.495-.186-.799a2.05 2.05 0 0 1 .072-.537c.051-.177.13-.347.237-.507a2.07 2.07 0 0 1 .422-.452c.172-.141.379-.262.622-.363s.527-.18.845-.237.686-.089 1.095-.089a7.93 7.93 0 0 1 .892.051c.298.031.588.076.87.135s.558.131.82.216.506.173.731.275l-.587 1.082a5.92 5.92 0 0 0-.6-.224 6.64 6.64 0 0 0-.672-.182c-.234-.051-.476-.09-.727-.118s-.502-.046-.761-.046c-.369 0-.673.027-.913.08a1.94 1.94 0 0 0-.566.207c-.141.082-.24.175-.296.279s-.081.203-.081.304c0 .197.089.359.267.486s.448.186.811.186c.147 0 .314-.01.503-.03l.6-.072.643-.068.638-.034c.389 0 .733.044 1.031.131a2.14 2.14 0 0 1 .757.376c.203.161.356.356.461.588s.156.485.156.769a1.96 1.96 0 0 1-.266 1.019c-.175.296-.426.547-.753.752s-.715.358-1.175.465a6.94 6.94 0 0 1-1.534.156 8.14 8.14 0 0 1-1.09-.072c-.355-.045-.696-.11-1.023-.194s-.634-.19-.93-.309-.565-.254-.816-.397l.714-1.086zm8.178-4.641h1.348v6.606h-1.348v-6.606zm3.06 0h2.422c.707 0 1.321.076 1.843.228s.952.371 1.293.655.599.626.765 1.031.254.857.254 1.361c0 .479-.084.923-.25 1.331a2.8 2.8 0 0 1-.761 1.057c-.341.296-.772.528-1.293.697s-1.135.249-1.843.249l-2.43-.004v-6.606zm2.751 5.448c.401 0 .751-.051 1.053-.152a2.06 2.06 0 0 0 .752-.439 1.79 1.79 0 0 0 .457-.685c.101-.268.152-.566.152-.896 0-.324-.051-.616-.152-.875s-.254-.483-.457-.663-.451-.324-.752-.423-.652-.148-1.053-.148h-1.411v4.281h1.411zm5.17-5.448h5.625v1.175h-4.286v1.319h3.796v1.103h-3.796v1.839h4.375v1.171h-5.714v-6.606zm7.193 0h1.34l4.117 2.156v-2.156h1.34v6.606h-1.34v-3.031l-4.117-2.143v5.173h-1.34v-6.606zm8.263 3.263a3.25 3.25 0 0 1 .266-1.314c.178-.409.434-.762.77-1.061s.749-.538 1.234-.71 1.038-.258 1.652-.258a6.21 6.21 0 0 1 1.48.165c.45.107.869.272 1.255.495l-.617 1.014a2.13 2.13 0 0 0-.402-.203 3.34 3.34 0 0 0-.481-.148 4.46 4.46 0 0 0-.529-.097c-.18-.022-.359-.034-.537-.034-.428 0-.81.054-1.145.161a2.47 2.47 0 0 0-.85.444 1.91 1.91 0 0 0-.524.68c-.118.262-.177.551-.177.866 0 .327.062.627.186.9a2.03 2.03 0 0 0 .537.71c.236.197.524.352.862.465s.725.165 1.154.165c.194 0 .387-.014.579-.042s.376-.066.553-.114a4.81 4.81 0 0 0 .52-.177 4.32 4.32 0 0 0 .465-.228l.617 1.014c-.36.231-.777.413-1.251.545s-.976.194-1.509.194c-.679 0-1.275-.087-1.787-.262s-.942-.42-1.285-.727a3.03 3.03 0 0 1-.778-1.091c-.172-.42-.258-.871-.258-1.353zm8.348-3.263h5.625v1.175h-4.286v1.319h3.796v1.103h-3.796v1.839h4.375v1.171h-5.714v-6.606zm7.51 4.641l.727.368c.248.107.505.199.769.275a6.31 6.31 0 0 0 .833.169c.293.04.604.059.934.059.397 0 .736-.025 1.014-.076s.506-.125.681-.216.306-.203.385-.33.122-.265.122-.414a.65.65 0 0 0-.3-.566c-.2-.141-.509-.211-.926-.211a4.69 4.69 0 0 0-.579.038l-.617.076-.613.08c-.2.022-.388.034-.566.034-.296 0-.58-.038-.854-.114a2.28 2.28 0 0 1-.722-.342 1.7 1.7 0 0 1-.499-.57c-.124-.228-.186-.495-.186-.799 0-.18.024-.359.072-.537s.129-.347.236-.507.251-.314.423-.452.379-.262.621-.363.527-.18.846-.237.686-.089 1.094-.089a7.92 7.92 0 0 1 .892.051c.299.031.589.076.871.135a7.95 7.95 0 0 1 .82.216c.262.082.506.173.731.275l-.587 1.082a5.94 5.94 0 0 0-.601-.224 6.64 6.64 0 0 0-.672-.182c-.234-.051-.476-.09-.727-.118a6.12 6.12 0 0 0-.76-.046c-.37 0-.674.027-.913.08s-.426.123-.567.207-.239.175-.296.279-.08.203-.08.304c0 .197.089.359.266.486s.448.186.812.186a4.92 4.92 0 0 0 .503-.03l.6-.072.642-.068.639-.034c.389 0 .732.044 1.031.131s.554.213.756.376.357.356.461.588.157.485.157.769a1.95 1.95 0 0 1-.267 1.019c-.174.296-.425.547-.752.752s-.716.358-1.175.465-.971.156-1.534.156c-.372 0-.736-.024-1.091-.072s-.696-.11-1.023-.194a8.29 8.29 0 0 1-.929-.309c-.293-.121-.565-.254-.816-.397l.714-1.086z"/><path d="M36.937 76.658v.004h1.34v-.008h-1.34v.004zm1.34 0h-.004v5.431h.008v-5.431h-.004zm0 5.431v.004h3.842v-.008h-3.842v.004zm3.842 0h-.004v1.175h.008v-1.175h-.004zm0 1.175v-.004h-5.182v.008h5.182v-.004zm-5.182 0h.004v-6.606h-.008v6.606h.004zm7.697-2.168l-.004.001h0l.004-.001zm.364.588l-.003.003.003-.003zm.604.368l-.001.004.001-.004zm1.669 0l.001.004-.001-.004zm.604-.368l-.003-.003.003.003zm.368-.588l.004.001h0l-.004-.001zm-.423 2.046l-.001-.004.001.004zm-2.768 0l-.001.004.001-.004zm-1.881-6.484v.004h1.34v-.008h-1.34v.004zm1.34 0h-.004v3.639h.008v-3.639h-.004zm0 3.639h-.004c0 .299.041.566.123.8l.004-.001.004-.001c-.081-.233-.122-.499-.122-.797h-.004zm.123.799l-.004.001a1.55 1.55 0 0 0 .364.589l.003-.003.003-.003c-.16-.16-.281-.356-.362-.586l-.004.001zm.364.588l-.003.003a1.62 1.62 0 0 0 .606.369l.001-.004.001-.004a1.61 1.61 0 0 1-.603-.367l-.003.003zm.604.368l-.001.004c.24.082.519.123.838.123v-.008c-.318 0-.597-.041-.836-.122l-.001.004zm.837.123v.004a2.58 2.58 0 0 0 .834-.123l-.003-.008c-.239.082-.516.122-.831.122v.004zm.833-.123l.001.004c.243-.085.445-.208.606-.369l-.003-.003-.003-.003a1.57 1.57 0 0 1-.603.367l.001.004zm.604-.368l.003.003c.164-.161.287-.358.369-.589l-.004-.001-.004-.001c-.081.231-.204.426-.367.586l.003.003zm.368-.588l.004.001c.082-.234.123-.501.123-.8h-.008a2.41 2.41 0 0 1-.122.797l.004.001zm.123-.799h.004v-3.639h-.008v3.639h.004zm0-3.639v.004h1.34v-.008h-1.34v.004zm1.34 0h-.004v3.8h.008v-3.8h-.004zm0 3.8h-.004a3.07 3.07 0 0 1-.219 1.182l.004.002.004.001c.147-.356.22-.751.22-1.185h-.004zm-.22 1.183l-.004-.002a2.51 2.51 0 0 1-.637.912l.005.006c.279-.254.492-.559.639-.914l-.004-.001zm-.638.913l-.003-.003c-.279.253-.62.449-1.026.587l.003.008a2.89 2.89 0 0 0 1.028-.588l-.003-.003zm-1.027.588l-.001-.004c-.403.138-.863.207-1.381.207v.008a4.26 4.26 0 0 0 1.383-.207l-.001-.004zm-1.382.207v-.004c-.518 0-.98-.069-1.385-.207l-.003.008c.406.138.869.207 1.388.207v-.004zm-1.386-.207l.001-.004c-.403-.138-.743-.334-1.022-.587l-.005.006c.279.254.621.45 1.024.588l.001-.004zm-1.023-.588l.003-.003a2.51 2.51 0 0 1-.637-.912l-.004.002-.004.001a2.52 2.52 0 0 0 .639.914l.003-.003zm-.638-.913l.004-.002a3.07 3.07 0 0 1-.219-1.182h-.008a3.08 3.08 0 0 0 .22 1.185l.004-.001zm-.22-1.183h.004v-3.8h-.008v3.8h.004zm10.047-.549l.014.011-.011-.014-.003.002zm-2.54-3.25v.007l-.003-.004.003-.002zm1.64 0l.005-.004h-.005v.004zm1.754 2.274l.013-.01-.009.012-.003-.002zm1.763-2.274v-.007l-.003.004.003.002zm1.615 0l-.005-.004h.005v.004zm-2.587 3.238l-.014-.011.011.014.003-.002zm2.675 3.369v-.007l.003.004-.003.002zm-1.644 0l-.005.004h.005v-.004zm-1.881-2.375l-.014.011.011-.014.003.002zm-1.923 2.375v.006l.003-.004-.003-.002zm-1.619 0l.005.004h-.005v-.004zm2.747-3.356l.003-.002-2.54-3.25-.003.002-.003.002 2.54 3.25.003-.002zm-2.54-3.25v.004h1.64v-.008h-1.64v.004zm1.64 0l-.003.002 1.754 2.274.003-.002.003-.002-1.754-2.274-.003.002zm1.754 2.274l.003.002 1.763-2.274-.003-.002-.003-.002-1.763 2.274.003.002zm1.763-2.274v.004h1.615v-.008h-1.615v.004zm1.615 0l-.003-.002-2.587 3.238.006.005 2.587-3.238-.003-.002zm-2.587 3.238l-.003.002 2.675 3.368.003-.002.003-.002-2.675-3.369-.003.002zm2.675 3.369v-.004h-1.644v.008h1.644v-.004zm-1.644 0l.003-.002-1.881-2.375-.003.002-.003.002 1.881 2.375.003-.002zm-1.881-2.375l-.003-.002-1.923 2.375.003.003.003.002 1.923-2.375-.003-.002zm-1.923 2.375v-.004h-1.619v.008h1.619v-.004zm-1.619 0l.003.002 2.747-3.356-.003-.002-.003-.003-2.747 3.356.003.003zm9.286-2.168l-.004.001h0l.004-.001zm.364.588l-.003.003h0l.003-.003zm.604.368l-.001.004h0l.001-.004zm1.669 0l.001.004h0l-.001-.004zm.604-.368l-.003-.003.003.003zm.368-.588l.004.001h0l-.004-.001zm-.423 2.046l-.001-.004.001.004zm-2.768 0l-.001.004.001-.004zm-1.881-6.484v.004h1.34v-.008h-1.34v.004zm1.34 0h-.004v3.639h.008v-3.639h-.004zm0 3.639h-.004c0 .299.041.566.123.8l.008-.003a2.41 2.41 0 0 1-.122-.797h-.004zm.123.799l-.004.001a1.55 1.55 0 0 0 .364.589l.006-.006c-.16-.16-.281-.356-.363-.586l-.004.001zm.364.588l-.003.003c.164.161.366.284.606.369l.001-.004.001-.004a1.61 1.61 0 0 1-.603-.367l-.003.003zm.604.368l-.001.004c.24.082.519.123.838.123v-.008c-.318 0-.597-.041-.836-.122l-.001.004zm.837.123v.004a2.58 2.58 0 0 0 .834-.123l-.001-.004-.001-.004c-.239.082-.516.122-.831.122v.004zm.833-.123l.001.004c.243-.085.445-.208.606-.369l-.006-.006c-.16.16-.361.282-.603.367l.001.004zm.604-.368l.003.003c.164-.161.287-.358.369-.589l-.004-.001-.004-.001c-.081.231-.204.426-.367.586l.003.003zm.368-.588l.004.001c.082-.234.123-.501.123-.8h-.008c0 .298-.041.564-.122.797l.004.001zm.123-.799h.004v-3.639h-.008v3.639h.004zm0-3.639v.004h1.34v-.008h-1.34v.004zm1.34 0h-.004v3.8h.008v-3.8h-.004zm0 3.8h-.004a3.07 3.07 0 0 1-.219 1.182l.004.002.004.001a3.08 3.08 0 0 0 .22-1.185h-.004zm-.22 1.183l-.004-.002a2.51 2.51 0 0 1-.637.912l.003.003.003.003a2.52 2.52 0 0 0 .639-.914l-.004-.001zm-.638.913l-.003-.003c-.279.253-.62.449-1.026.587l.003.008a2.89 2.89 0 0 0 1.028-.588l-.003-.003zm-1.027.588l-.001-.004c-.402.138-.863.207-1.381.207v.008a4.26 4.26 0 0 0 1.383-.207l-.001-.004zm-1.382.207v-.004c-.518 0-.98-.069-1.385-.207l-.003.008c.406.138.869.207 1.388.207v-.004zm-1.386-.207l.001-.004c-.403-.138-.743-.334-1.021-.587l-.005.006c.279.254.621.45 1.024.588l.001-.004zm-1.023-.588l.003-.003a2.51 2.51 0 0 1-.637-.912l-.004.002-.004.001c.147.356.36.66.639.914l.003-.003zm-.638-.913l.004-.002a3.07 3.07 0 0 1-.219-1.182h-.008c0 .434.073.829.22 1.185l.004-.001zm-.22-1.183h.004v-3.8h-.008v3.8h.004zm12.849-3.639l-.001.004h0l.001-.004zm1.471 1.188l-.004.001h0l.004-.002zm.093 1.678l.004.001-.004-.001zm-.275.609l-.003-.002.003.002zm-.461.499l.002.003-.002-.003zm-.655.359l.006.016-.01-.014.003-.002zm1.437 2.113v-.007l.003.005-.003.002zm-1.64 0l-.006.004h.006v-.004zm-1.243-1.877l.006-.004h-.006v.004zm-.038 0v.004-.004zm-2.029-.004l-.004 1.92v-1.92h.004zm2.718-1.247l-.001-.004h0l.001.004zm.478-.249l-.002-.003h0l.002.003zm.287-.389l-.004-.002h0l.004.001zm-.283-1.369l-.002.003.002-.003zm-4.539-1.471v.004h3.36v-.008h-3.36v.004zm3.36 0v.004c.507 0 .946.053 1.318.16l.001-.004.001-.004c-.372-.107-.812-.161-1.32-.161v.004zm1.319.161l-.001.004c.371.104.68.256.924.456l.003-.003.002-.003c-.246-.201-.555-.353-.927-.457l-.001.004zm.926.457l-.003.003c.245.2.426.443.544.73l.007-.003c-.119-.288-.301-.532-.546-.733l-.002.003zm.545.731l-.004.002c.121.287.181.612.181.975h.008c0-.364-.061-.69-.182-.978l-.004.001zm.182.976h-.004c0 .245-.029.478-.089.701l.004.001.004.001c.059-.223.089-.457.089-.703h-.004zm-.089.702l-.004-.001a2.05 2.05 0 0 1-.274.608l.003.002.003.002c.124-.186.216-.39.275-.61l-.004-.001zm-.275.609l-.003-.002c-.121.186-.274.352-.46.498l.002.003.002.003c.186-.147.34-.313.462-.5l-.003-.002zm-.461.499l-.002-.003c-.186.143-.404.263-.654.359l.001.004.001.004c.251-.096.47-.216.656-.36l-.002-.003zm-.655.359l-.003.002 1.437 2.113.003-.002.003-.002-1.437-2.113-.003.002zm1.437 2.113v-.004h-1.64v.008h1.64v-.004zm-1.64 0l.003-.002-1.243-1.877-.003.002-.003.002 1.243 1.877.003-.002zm-1.243-1.877v-.004h-.038v.008h.038v-.004zm-.038 0v-.004l-2.029-.004v.004.004l2.029.004v-.004zm-2.029-.004H67.8v1.881h.008v-1.881h-.004zm0 1.881v-.004h-1.34v.008h1.34v-.004zm-1.34 0h.004v-6.606h-.008v6.606h.004zm3.394-3.039v.004a2.23 2.23 0 0 0 .665-.089l-.002-.008c-.188.059-.409.089-.662.089v.004zm.663-.089l.001.004a1.35 1.35 0 0 0 .479-.25L71 79.887l-.002-.003c-.126.107-.285.189-.476.249l.001.004zm.478-.249l.003.003a.98.98 0 0 0 .288-.39l-.007-.003a.97.97 0 0 1-.286.387l.002.003zm.287-.389l.004.001c.065-.156.098-.328.098-.517h-.008a1.32 1.32 0 0 1-.097.514l.004.002zm.097-.516h.004c0-.37-.127-.656-.382-.857l-.002.003-.002.003c.252.199.379.483.379.851h.004zm-.38-.854l.002-.003c-.255-.204-.638-.305-1.148-.305v.008c.51 0 .89.101 1.143.303l.002-.003zm-1.145-.304v-.004h-2.054v.008h2.054v-.004zm-2.054 0H67.8v2.401h.008v-2.401h-.004zm0 2.401v.004h2.054v-.008h-2.054v.004zm8.605 1.403h.005l-.001-.002-.004.002zm-2.887-4.971v.008l-.004-.006.004-.002zm1.517 0l.007-.004h-.007v.004zm2.033 3.757l.006-.004-.003.005-.004-.002zm2.008-3.757v-.008l-.004.007.004.002zm1.517 0l-.007-.004h.007v.004zm-2.849 4.962l-.004-.002v.002h.004zm-1.34.008l.004-.002-2.887-4.971-.007.004 2.887 4.971.003-.002zm-2.887-4.971v.004h1.517v-.008h-1.517v.004zm1.517 0l-.004.002 2.033 3.757.007-.004-2.033-3.757-.004.002zm2.033 3.757l.004.002 2.008-3.757-.004-.002-.004-.002-2.008 3.757.004.002zm2.008-3.757v.004h1.517v-.008h-1.517v.004zm1.517 0l-.004-.002-2.849 4.962.004.002.003.002 2.849-4.962-.003-.002zm-2.849 4.962h-.004v1.644h.008V81.62h-.004zm0 1.644v-.004h-1.34v.008h1.34v-.004zm-1.34 0h.004v-1.636h-.008v1.636h.004zm12.756-6.446l-.001.004.001-.004zm1.471 1.188l-.004.001h0l.004-.002zm.093 1.678l.004.001-.004-.001zm-.275.609l-.003-.002h0l.003.002zm-.461.499l.002.003h0l-.002-.003zm-.655.359l.006.016-.01-.014.003-.002zm1.437 2.113v-.007l.003.005-.003.002zm-1.64 0l-.006.004h.006v-.004zm-1.243-1.877l.006-.004h-.006v.004zm-.038 0v.004-.004zm-2.029-.004l-.004 1.92v-1.92h.004zm2.718-1.247l-.001-.004.001.004zm.478-.249l-.003-.003h0l.003.003zm.287-.389l-.004-.002h0l.004.001zm-.283-1.369l-.002.003.002-.003zm-4.539-1.471v.004h3.36v-.008h-3.36v.004zm3.36 0v.004c.507 0 .946.053 1.318.16l.001-.004.001-.004c-.372-.107-.812-.161-1.32-.161v.004zm1.319.161l-.001.004c.371.104.68.256.924.456l.005-.006c-.246-.201-.555-.353-.927-.457l-.001.004zm.926.457l-.002.003c.245.2.426.443.544.73l.007-.003c-.119-.288-.301-.532-.546-.733l-.002.003zm.545.731l-.004.002c.121.287.181.612.181.975h.008c0-.364-.061-.69-.182-.978l-.004.001zm.182.976h-.004a2.72 2.72 0 0 1-.089.701l.004.001.004.001c.059-.223.089-.457.089-.703h-.004zm-.089.702l-.004-.001a2.05 2.05 0 0 1-.274.608l.007.004a2.05 2.05 0 0 0 .275-.61l-.004-.001zm-.275.609l-.003-.002c-.121.186-.274.352-.46.498l.002.003.002.003c.186-.147.34-.313.462-.5l-.003-.002zm-.461.499l-.002-.003a2.55 2.55 0 0 1-.654.359l.001.004.001.004c.251-.096.47-.216.656-.36l-.002-.003zm-.655.359l-.003.002 1.437 2.113.003-.002.003-.002-1.437-2.113-.003.002zm1.437 2.113v-.004h-1.64v.008h1.64v-.004zm-1.64 0l.003-.002-1.243-1.876-.007.004 1.243 1.877.003-.002zm-1.243-1.877v-.004h-.038v.008h.038v-.004zm-.038 0v-.004l-2.029-.004v.004.004l2.029.004v-.004zm-2.029-.004h-.004v1.881h.008v-1.881h-.004zm0 1.881v-.004h-1.34v.008h1.34v-.004zm-1.34 0h.004v-6.606h-.008v6.606h.004zm3.394-3.039v.004a2.23 2.23 0 0 0 .665-.089l-.002-.008c-.188.059-.409.089-.662.089v.004zm.664-.089l.001.004a1.35 1.35 0 0 0 .479-.25l-.003-.003-.003-.003c-.126.107-.285.189-.476.249l.001.004zm.478-.249l.002.003a.98.98 0 0 0 .289-.39l-.007-.003a.97.97 0 0 1-.286.387l.003.003zm.287-.389l.004.001a1.33 1.33 0 0 0 .097-.517h-.008a1.32 1.32 0 0 1-.097.514l.004.002zm.097-.516h.004c0-.37-.127-.656-.382-.857l-.002.003-.002.003c.252.199.379.483.379.851h.004zm-.38-.854l.002-.003c-.255-.204-.638-.305-1.148-.305v.008c.51 0 .89.101 1.143.303l.002-.003zm-1.145-.304v-.004h-2.054v.008h2.054v-.004zm-2.054 0h-.004v2.401h.008v-2.401h-.004zm0 2.401v.004h2.054v-.008h-2.054v.004zm6.581-3.567v.004h5.626v-.008h-5.626v.004zm5.626 0h-.004v1.175h.008v-1.175h-.004zm0 1.175v-.004h-4.286v.008h4.286v-.004zm-4.286 0h-.004v1.319h.008v-1.319h-.004zm0 1.319v.004h3.795v-.008h-3.795v.004zm3.795 0h-.004v1.103h.008v-1.103h-.004zm0 1.103v-.004h-3.795v.008h3.795v-.004zm-3.795 0h-.004v1.839h.008v-1.839h-.004zm0 1.839v.004h4.374v-.008h-4.374v.004zm4.374 0h-.004v1.171h.008v-1.171h-.004zm0 1.171v-.004h-5.714v.008h5.714v-.004zm-5.714 0h.004v-6.606h-.008v6.606h.004zm7.511-1.965l.029-.052-.032.049.003.002zm.727.368l-.002.004.002-.004zm.769.275l-.001.004.001-.004zm.832.169v.004-.004zm1.949-.017l.001.004-.001-.004zm.68-.216l.002.004-.002-.004zm.385-.33l-.003-.002h0l.003.002zm-.178-.981l-.002.003.002-.003zm-1.504-.173v.004-.004zm-.617.076l-.001-.004.001.004zm-.613.08v.004-.004zm-1.42-.08l-.001.004h0l.001-.004zm-.723-.342l-.002.003.002-.003zm-.613-1.906l-.004-.001.004.001zm.237-.507l-.003-.002h0l.003.002zm.422-.452l.003.003h0l-.003-.003zm.622-.363l-.002-.004.002.004zm.845-.237l.001.004-.001-.004zm1.987-.038l-.001.004.001-.004zm.87.135l-.001.004.001-.004zm.82.216l-.001.004h0l.001-.004zm.731.275l-.047-.026.049.022-.002.004zm-.587 1.082l-.019.044.022-.042-.003-.002zm-.6-.224l-.002.004h.001l.001-.004zm-1.399-.3l-.001.004.001-.004zm-1.674.034l-.001-.004.001.004zm-.566.207l.002.003-.002-.003zm-.296.279l-.004-.002h0l.004.002zm.186.79l-.003.003.003-.003zm1.314.156l.001.004-.001-.004zm.6-.072v-.004.004zm.643-.068v.004-.004zm1.669.097l-.001.004.001-.004zm.757.376l-.003.003.003-.003zm.461.588l-.004.002.004-.002zm-.11 1.788l-.004-.002.004.002zm-.753.752l.002.003-.002-.003zm-1.175.465l.001.004-.001-.004zm-2.624.085v-.004.004zm-1.023-.194l-.001.004.001-.004zm-.93-.309l-.002.004h.001l.001-.004zm-.816-.397l.055.036-.056-.032.002-.004zm.714-1.086l-.002.004.727.368.002-.004.001-.004-.727-.368-.002.004zm.727.368l-.002.004a6.39 6.39 0 0 0 .77.275l.001-.004.001-.004c-.265-.076-.521-.168-.769-.275l-.001.004zm.769.275l-.001.004c.265.073.542.13.833.169v-.004l.001-.004a6.31 6.31 0 0 1-.832-.169l-.001.004zm.832.169v.004a7.02 7.02 0 0 0 .934.059v-.008a6.99 6.99 0 0 1-.933-.059l-.001.004zm.934.059v.004c.398 0 .736-.025 1.016-.076l-.002-.008c-.279.051-.616.076-1.014.076v.004zm1.015-.076l.001.004c.279-.054.506-.126.681-.216l-.002-.004-.002-.004c-.174.09-.4.162-.679.215l.001.004zm.68-.216l.002.004c.178-.093.307-.204.386-.331l-.006-.004a.96.96 0 0 1-.384.328l.002.004zm.385-.33l.003.002c.082-.127.124-.266.124-.416h-.008a.75.75 0 0 1-.122.412l.003.002zm.123-.414h.004c0-.241-.101-.431-.302-.57l-.003.003-.002.003a.65.65 0 0 1 .299.563h.004zm-.301-.566l.003-.003c-.201-.142-.511-.212-.928-.212v.008c.417 0 .724.07.923.211l.002-.003zm-.925-.211v-.004c-.184 0-.377.013-.58.038l.001.004v.004a4.67 4.67 0 0 1 .579-.038v-.004zm-.579.038l-.001-.004-.617.076.001.004v.004l.617-.076v-.004zm-.617.076l-.001-.004-.613.08.001.004v.004l.613-.08v-.004zm-.613.08l-.001-.004c-.2.023-.388.034-.566.034v.008c.178 0 .367-.011.567-.034v-.004zm-.567.034v-.004a3.16 3.16 0 0 1-.852-.114l-.002.008c.273.076.558.114.854.114v-.004zm-.853-.114l.001-.004a2.28 2.28 0 0 1-.722-.342l-.002.003-.002.003c.211.152.453.267.724.343l.001-.004zm-.723-.342l.002-.003c-.208-.152-.374-.341-.497-.569l-.004.002-.004.002c.124.229.291.419.5.572l.002-.003zm-.499-.57l.004-.002c-.124-.228-.186-.493-.186-.797h-.008c0 .305.062.572.186.801l.004-.002zm-.186-.799h.004a2.05 2.05 0 0 1 .072-.536l-.004-.001-.004-.001c-.048.178-.072.357-.072.538h.004zm.072-.537l.004.001a1.8 1.8 0 0 1 .236-.506l-.007-.004c-.107.161-.186.33-.237.508l.004.001zm.237-.507l.003.002a2.04 2.04 0 0 1 .422-.451l-.003-.003-.002-.003c-.172.138-.313.289-.424.453l.003.002zm.422-.452l.003.003c.172-.141.378-.261.62-.363l-.001-.004-.002-.004a2.5 2.5 0 0 0-.622.364l.002.003zm.622-.363l.001.004c.245-.101.527-.18.845-.236l-.001-.004-.001-.004a4.09 4.09 0 0 0-.846.237l.002.004zm.845-.237l.001.004c.321-.059.685-.089 1.094-.089v-.008c-.409 0-.774.03-1.096.089l.001.004zm1.095-.089v.004c.295 0 .593.017.891.051l.001-.004v-.004a7.91 7.91 0 0 0-.892-.051v.004zm.892.051l-.001.004a8.44 8.44 0 0 1 .87.135l.002-.008a8.53 8.53 0 0 0-.871-.135v.004zm.87.135l-.001.004a7.91 7.91 0 0 1 .82.215l.002-.008c-.262-.085-.535-.156-.82-.216l-.001.004zm.82.216l-.001.004c.262.082.505.173.731.275l.001-.004.002-.004a6.48 6.48 0 0 0-.732-.275l-.001.004zm.731.275l-.003-.002-.588 1.082.004.002.003.002.588-1.082-.004-.002zm-.587 1.082l.002-.004c-.187-.082-.387-.156-.601-.224l-.001.004-.001.004a5.95 5.95 0 0 1 .599.224l.002-.004zm-.6-.224l.001-.004a6.64 6.64 0 0 0-.672-.182l-.002.008c.234.051.457.111.671.182l.002-.004zm-.672-.182l.001-.004c-.234-.051-.477-.09-.728-.118v.004l-.001.004.727.118.001-.004zm-.727-.118v-.004c-.248-.031-.502-.046-.761-.046v.008a6.14 6.14 0 0 1 .76.046l.001-.004zm-.761-.046v-.004c-.369 0-.674.027-.914.08l.002.008c.239-.053.543-.08.912-.08v-.004zm-.913.08l-.001-.004c-.237.054-.426.123-.567.207l.002.004.002.003c.14-.084.328-.153.565-.207l-.001-.004zm-.566.207l-.002-.004c-.142.082-.241.175-.298.281l.004.002.003.002c.056-.103.154-.196.295-.277l-.002-.003zm-.296.279l-.004-.002a.65.65 0 0 0-.081.306h.008c0-.101.027-.201.08-.302l-.003-.002zm-.081.304h-.004a.58.58 0 0 0 .268.489l.003-.003.002-.003c-.176-.126-.265-.287-.265-.483h-.004zm.267.486l-.003.003c.179.125.45.187.814.187V79.3c-.363 0-.632-.062-.809-.185l-.002.003zm.811.186v.004a4.92 4.92 0 0 0 .504-.03l-.001-.004v-.004l-.503.03v.004zm.503-.03l.001.004.6-.072-.001-.004v-.004l-.6.072v.004zm.6-.072l.001.004.642-.068v-.004l-.001-.004-.642.068v.004zm.643-.068v.004l.638-.034v-.008c-.206 0-.419.011-.639.034l.001.004zm.638-.034v.004a3.67 3.67 0 0 1 1.03.131l.001-.004.001-.004c-.299-.088-.643-.131-1.032-.131v.004zm1.031.131l-.001.004c.301.087.553.212.755.375l.003-.003.002-.003c-.203-.164-.456-.29-.758-.377l-.001.004zm.757.376l-.003.003a1.55 1.55 0 0 1 .46.586l.004-.002.003-.002a1.55 1.55 0 0 0-.462-.589l-.002.003zm.461.588l-.004.002c.104.228.156.484.156.768h.008c0-.285-.052-.542-.157-.771l-.003.002zm.156.769h-.004c0 .38-.089.719-.266 1.017l.004.002.003.002c.178-.299.267-.64.267-1.021h-.004zm-.266 1.019l-.004-.002a2.22 2.22 0 0 1-.751.751l.002.003.002.003a2.23 2.23 0 0 0 .754-.754l-.003-.002zm-.753.752l-.002-.003c-.323.203-.715.358-1.174.465l.002.008c.46-.107.852-.262 1.176-.466l-.002-.003zm-1.175.465l-.001-.004c-.458.104-.97.156-1.533.156v.008c.564 0 1.076-.052 1.535-.156l-.001-.004zm-1.534.156v-.004a8.14 8.14 0 0 1-1.09-.072v.004l-.001.004c.355.048.719.072 1.091.072v-.004zm-1.09-.072v-.004a8.2 8.2 0 0 1-1.022-.194l-.001.004-.001.004c.327.085.668.15 1.023.195l.001-.004zm-1.023-.194l.001-.004a8.29 8.29 0 0 1-.929-.308l-.002.004-.001.004c.296.118.606.221.93.309l.001-.004zm-.93-.309l.002-.004c-.293-.121-.565-.253-.816-.397l-.002.003-.002.004a7.11 7.11 0 0 0 .816.397l.002-.004zm-.816-.397l.003.002.714-1.086-.003-.002-.003-.002-.714 1.086.003.002zm8.893-5.727v.004h1.348v-.008h-1.348v.004zm1.348 0h-.004v6.606h.008v-6.606h-.004zm0 6.606v-.004h-1.348v.008h1.348v-.004zm-1.348 0h.004v-6.606h-.008v6.606h.004zm8.618-5.723l-.003.003.003-.003zm.765 1.031l-.004.001.004-.001zm.004 2.692l.004.001-.004-.001zm-.761 1.057l.003.003h0l-.003-.003zm-1.293.697l.001.004-.001-.004zm-1.843.249v.004-.004zm-2.43-.004h-2.3l2.3.004v-.004zm3.804-1.31l.001.004-.001-.004zm.752-.439l-.002-.003h-.001l.003.003zm.457-2.456l-.004.001.004-.001zm-.457-.663l-.002.003.002-.003zm-4.556-1.737v.004h2.422v-.008h-2.422v.004zm2.422 0v.004c.707 0 1.321.076 1.841.228l.002-.004.001-.004c-.522-.152-1.137-.228-1.844-.228v.004zm1.843.228l-.002.004c.521.152.952.37 1.292.654l.003-.003.002-.003c-.341-.285-.773-.504-1.294-.656l-.001.004zm1.293.655l-.003.003a2.57 2.57 0 0 1 .764 1.03l.008-.003c-.167-.406-.422-.751-.767-1.033l-.002.003zm.765 1.031l-.004.001a3.48 3.48 0 0 1 .254 1.359h.008c0-.505-.085-.959-.254-1.362l-.004.002zm.254 1.361h-.004c0 .479-.084.922-.25 1.33l.008.003c.166-.409.25-.853.25-1.333h-.004zm-.25 1.331l-.004-.001c-.166.405-.419.757-.759 1.055l.002.003.003.003c.341-.299.595-.652.762-1.058l-.004-.001zm-.761 1.057l-.002-.003c-.341.296-.771.528-1.292.697l.002.008c.522-.169.954-.402 1.295-.698l-.003-.003zm-1.293.697l-.001-.004c-.521.166-1.135.249-1.842.249v.008c.708 0 1.323-.083 1.844-.25l-.001-.004zm-1.843.249v-.004l-2.43-.004v.004.004l2.43.004v-.004zm-2.43-.004h.004v-6.606h-.008v6.606h.004zm2.751-1.158v.004c.401 0 .752-.051 1.054-.152l-.002-.008c-.301.101-.652.152-1.052.152v.004zm1.053-.152l.001.004c.302-.104.553-.251.754-.44l-.006-.006c-.199.188-.449.335-.75.439l.001.004zm.752-.439l.003.003c.203-.189.356-.418.457-.686l-.003-.001-.004-.001a1.78 1.78 0 0 1-.455.683l.002.003zm.457-.685l.003.001c.102-.268.153-.567.153-.897h-.008c0 .329-.051.627-.152.895l.004.001zm.152-.896h.004a2.38 2.38 0 0 0-.153-.876l-.003.001-.004.001c.101.259.152.55.152.873h.004zm-.152-.875l.003-.001a1.69 1.69 0 0 0-.457-.665l-.003.003-.002.003c.202.18.354.401.455.662l.004-.001zm-.457-.663l.003-.003a2.04 2.04 0 0 0-.754-.424l-.002.008c.301.099.551.239.751.422l.002-.003zm-.752-.423l.001-.004c-.302-.099-.653-.148-1.054-.148v.008c.4 0 .751.049 1.052.148l.001-.004zm-1.053-.148v-.004h-1.411v.008h1.411v-.004zm-1.411 0h-.004v4.281h.008v-4.281h-.004zm0 4.281v.004h1.411v-.008h-1.411v.004zm6.581-5.448v.004h5.625v-.008h-5.625v.004zm5.625 0h-.004v1.175h.008v-1.175h-.004zm0 1.175v-.004h-4.286v.008h4.286v-.004zm-4.286 0h-.004v1.319h.008v-1.319h-.004zm0 1.319v.004h3.796v-.008h-3.796v.004zm3.796 0h-.004v1.103h.008v-1.103h-.004zm0 1.103v-.004h-3.796v.008h3.796v-.004zm-3.796 0h-.004v1.839h.008v-1.839h-.004zm0 1.839v.004h4.375v-.008h-4.375v.004zm4.375 0h-.004v1.171h.008v-1.171h-.004zm0 1.171v-.004h-5.714v.008h5.714v-.004zm-5.714 0h.004v-6.606h-.008v6.606h.004zm8.533-6.606l.002-.004h-.002v.004zm4.117 2.156l.004-.008v.008h-.004zm0 1.42h.008l-.006-.004-.002.004zm-4.117-2.143l-.004.008v-.008h.004zm-1.34-1.433v.004h1.34v-.008h-1.34v.004zm1.34 0l-.002.004 4.117 2.156.002-.004.002-.004-4.117-2.156-.002.004zm4.117 2.156h.004v-2.156h-.008v2.156h.004zm0-2.156v.004h1.34v-.008h-1.34v.004zm1.34 0h-.004v6.606h.008v-6.606h-.004zm0 6.606v-.004h-1.34v.008h1.34v-.004zm-1.34 0h.004v-3.031h-.008v3.031h.004zm0-3.031l.002-.004-4.117-2.143-.002.004-.002.004 4.117 2.143.002-.004zm-4.117-2.143h-.004v5.173h.008v-5.173h-.004zm0 5.173v-.004h-1.34v.008h1.34v-.004zm-1.34 0h.004v-6.606h-.008v6.606h.004zm8.529-4.658l.004.002-.004-.002zm.77-1.061l.002.003-.002-.003zm1.234-.71l-.002-.004.002.004zm3.132-.093l-.001.004.001-.004zm1.255.495l-.146-.089.148.085-.002.004zm-.617 1.014l.061-.093-.058.095-.003-.002zm-.402-.203l-.001.004.001-.004zm-.481-.148l-.001.004.001-.004zm-.529-.097v.004-.004zm-1.682.127l.001.004h0l-.001-.004zm-.85.444l.003.003-.003-.003zm-.524.68l-.003-.002h0l.003.002zm.009 1.767l-.004.002.004-.002zm.537.71l-.003.003.003-.003zm.862.465l-.001.004.001-.004zm2.286.008l.001.004-.001-.004zm.52-.177l.002.004-.002-.004zm.465-.228l.116-.07-.118.067.002.004zm.617 1.014l.093.145-.089-.147-.004.002zm-1.251.545l.001.004h0l-.001-.004zm-3.296-.068l-.002.004h0l.002-.004zm-1.285-.727l-.003.003.003-.003zm-.778-1.091l-.004.002.004-.002zm-.258-1.353h.004c0-.47.089-.908.266-1.313l-.004-.002-.003-.002c-.178.406-.267.845-.267 1.316h.004zm.266-1.314l.004.002c.177-.408.433-.761.768-1.059l-.002-.003-.003-.003c-.336.299-.593.653-.77 1.062l.003.002zm.77-1.061l.002.003c.338-.301.749-.537 1.233-.709l-.001-.004-.002-.004c-.485.172-.896.409-1.235.711l.003.003zm1.234-.71l.001.004c.487-.172 1.037-.258 1.651-.258v-.008c-.614 0-1.166.086-1.654.258l.002.004zm1.652-.258v.004c.538 0 1.031.055 1.479.165l.002-.008c-.449-.11-.942-.165-1.481-.165v.004zm1.48.165l-.001.004a4.65 4.65 0 0 1 1.254.494l.002-.003.002-.004c-.386-.223-.805-.388-1.256-.495l-.001.004zm1.255.495l-.003-.002-.618 1.014.004.002.003.002.617-1.014-.003-.002zm-.617 1.014l.002-.003c-.116-.076-.25-.144-.402-.203l-.002.004-.001.004c.152.059.285.127.401.203l.002-.003zm-.402-.203l.002-.004c-.15-.059-.311-.109-.483-.148v.004l-.001.004c.171.04.332.089.481.148l.001-.004zm-.481-.148v-.004a4.37 4.37 0 0 0-.528-.097l-.001.004v.004a4.39 4.39 0 0 1 .528.097l.001-.004zm-.529-.097l.001-.004c-.181-.023-.36-.034-.538-.034v.008c.178 0 .357.011.537.034v-.004zm-.537-.034v-.004c-.428 0-.81.054-1.146.161l.002.008c.335-.107.716-.16 1.144-.16v-.004zm-1.145.161l-.001-.004c-.336.104-.62.253-.851.445l.002.003.003.003c.231-.191.513-.339.848-.443l-.001-.004zm-.85.444l-.002-.003c-.229.189-.404.416-.525.682l.003.002.004.002c.121-.264.295-.491.523-.679l-.003-.003zm-.524.68l-.003-.002c-.119.263-.178.552-.178.868h.008a2.08 2.08 0 0 1 .177-.865l-.004-.002zm-.177.866h-.004a2.16 2.16 0 0 0 .186.902l.004-.002.003-.002a2.16 2.16 0 0 1-.185-.899h-.004zm.186.9l-.004.002c.124.274.304.511.538.711l.003-.003.002-.003c-.233-.2-.412-.436-.536-.709l-.003.002zm.537.71l-.003.003a2.63 2.63 0 0 0 .864.466l.002-.008a2.62 2.62 0 0 1-.861-.464l-.002.003zm.862.465l-.001.004c.341.11.726.165 1.155.165v-.008c-.428 0-.812-.055-1.153-.165l-.001.004zm1.154.165v.004a3.97 3.97 0 0 0 .579-.042v-.004l-.001-.004a3.97 3.97 0 0 1-.578.042v.004zm.579-.042v.004a4.78 4.78 0 0 0 .554-.114l-.001-.004-.001-.004c-.177.048-.361.086-.553.114l.001.004zm.553-.114l.001.004c.181-.051.354-.11.521-.178l-.002-.004-.001-.004a4.83 4.83 0 0 1-.52.177l.001.004zm.52-.177l.002.004a4.51 4.51 0 0 0 .465-.228l-.004-.007c-.143.082-.298.158-.464.228l.001.004zm.465-.228l-.003.002.617 1.014.003-.002.004-.002-.617-1.014-.004.002zm.617 1.014l-.002-.003c-.36.231-.777.412-1.25.545l.001.004.001.004a4.6 4.6 0 0 0 1.252-.546l-.002-.003zm-1.251.545l-.001-.004c-.473.129-.975.194-1.508.194v.008a5.69 5.69 0 0 0 1.51-.195l-.001-.004zm-1.509.194v-.004c-.678 0-1.274-.087-1.786-.262l-.001.004-.002.004c.514.175 1.11.262 1.789.262v-.004zm-1.787-.262l.001-.004c-.513-.177-.94-.419-1.284-.726l-.002.003-.003.003c.344.308.773.55 1.286.728l.002-.004zm-1.285-.727l.002-.003a3.02 3.02 0 0 1-.776-1.089l-.004.001-.004.002a3.04 3.04 0 0 0 .779 1.092l.003-.003zm-.778-1.091l.004-.001c-.172-.419-.258-.87-.258-1.351h-.008a3.54 3.54 0 0 0 .258 1.354l.004-.002zm8.09-4.615v.004h5.625v-.008h-5.625v.004zm5.625 0h-.004v1.175h.008v-1.175h-.004zm0 1.175v-.004h-4.286v.008h4.286v-.004zm-4.286 0h-.004v1.319h.008v-1.319h-.004zm0 1.319v.004h3.796v-.008h-3.796v.004zm3.796 0h-.004v1.103h.008v-1.103h-.004zm0 1.103v-.004h-3.796v.008h3.796v-.004zm-3.796 0h-.004v1.839h.008v-1.839h-.004zm0 1.839v.004h4.375v-.008h-4.375v.004zm4.375 0h-.004v1.171h.008v-1.171h-.004zm0 1.171v-.004h-5.714v.008h5.714v-.004zm-5.714 0h.004v-6.606h-.008v6.606h.004zm7.51-1.965l.029-.052-.032.049.003.002zm.727.368l-.001.004.001-.004zm.769.275l-.001.004.001-.004zm.833.169l-.001.004.001-.004zm1.948-.017l.001.004-.001-.004zm.681-.216l.002.004-.002-.004zm.385-.33l-.004-.002h0l.004.002zm-.178-.981l-.002.003.002-.003zm-1.505-.173l.001.004-.001-.004zm-.617.076v-.004.004zm-.613.08l.001.004-.001-.004zm-1.42-.08l-.001.004h0l.001-.004zm-.722-.342l-.003.003.003-.003zm-.613-1.906l-.004-.001.004.001zm.236-.507l-.003-.002h0l.003.002zm.423-.452l.003.003h0l-.003-.003zm.621-.363l-.001-.004.001.004zm.846-.237v.004-.004zm1.986-.038v.004-.004zm.871.135l-.001.004.001-.004zm.82.216l-.001.004h0l.001-.004zm.731.275l-.047-.026.049.022-.002.004zm-.587 1.082l-.02.044.023-.042-.003-.002zm-.601-.224l-.001.004.001-.004zm-1.399-.3v.004-.004zm-1.673.034l-.001-.004.001.004zm-.567.207l.002.003-.002-.003zm-.296.279l-.003-.002h0l.003.002zm.186.79l-.002.003.002-.003zm1.315.156v.004-.004zm.6-.072v-.004.004zm.642-.068l.001.004-.001-.004zm1.67.097l-.001.004.001-.004zm.757.376l-.003.003.003-.003zm.46.588l-.003.002.003-.002zm-.11 1.788l-.003-.002.003.002zm-.752.752l.002.003-.002-.003zm-1.175.465l.001.004-.001-.004zm-2.625.085l.001-.004-.001.004zm-1.023-.194l-.001.004.001-.004zm-.929-.309l-.002.004.002-.004zm-.816-.397l.054.036-.056-.032.002-.004zm.714-1.086l-.002.004.728.368.001-.004.002-.004-.727-.368-.002.004zm.727.368l-.001.004c.248.107.504.199.769.275l.001-.004.001-.004a6.42 6.42 0 0 1-.768-.275l-.002.004zm.769.275l-.001.004c.265.073.543.13.833.169l.002-.008c-.29-.039-.568-.096-.833-.169l-.001.004zm.833.169l-.001.004c.294.039.605.059.935.059v-.008a6.98 6.98 0 0 1-.933-.059l-.001.004zm.934.059v.004c.398 0 .736-.025 1.015-.076l-.001-.004v-.004c-.279.051-.617.076-1.014.076v.004zm1.014-.076l.001.004c.279-.054.507-.126.682-.216l-.002-.004-.002-.004c-.174.09-.401.162-.679.215v.004zm.681-.216l.002.004c.178-.093.307-.204.386-.331l-.003-.002-.004-.002c-.078.126-.206.235-.383.328l.002.004zm.385-.33l.003.002c.082-.127.123-.266.123-.416h-.008a.74.74 0 0 1-.122.412l.004.002zm.122-.414h.004c0-.241-.101-.431-.302-.57l-.004.007c.199.137.298.325.298.563h.004zm-.3-.566l.002-.003c-.201-.142-.51-.212-.928-.212v.008c.417 0 .725.07.924.211l.002-.003zm-.926-.211v-.004a4.67 4.67 0 0 0-.579.038v.004l.001.004c.203-.025.395-.038.578-.038v-.004zm-.579.038v-.004l-.617.076v.004l.001.004.617-.076-.001-.004zm-.617.076v-.004l-.613.08v.004l.001.004.613-.08-.001-.004zm-.613.08v-.004c-.2.023-.389.034-.566.034v.008c.178 0 .367-.011.567-.034l-.001-.004zm-.566.034v-.004a3.17 3.17 0 0 1-.853-.114l-.002.008a3.18 3.18 0 0 0 .855.114v-.004zm-.854-.114l.001-.004c-.27-.076-.51-.19-.721-.342l-.002.003-.003.003c.212.152.453.267.724.343l.001-.004zm-.722-.342l.002-.003c-.208-.152-.374-.341-.498-.569l-.003.002-.004.002c.125.229.291.419.5.572l.003-.003zm-.499-.57l.003-.002c-.123-.228-.185-.493-.185-.797h-.008c0 .305.062.572.186.801l.004-.002zm-.186-.799h.004a2.04 2.04 0 0 1 .072-.536l-.004-.001-.004-.001c-.048.178-.072.357-.072.538h.004zm.072-.537l.004.001a1.78 1.78 0 0 1 .236-.506l-.004-.002-.003-.002a1.82 1.82 0 0 0-.237.508l.004.001zm.236-.507l.004.002c.109-.163.25-.314.422-.451l-.003-.003-.002-.003c-.173.138-.314.289-.424.453l.003.002zm.423-.452l.003.003c.171-.141.378-.261.62-.363l-.002-.004-.001-.004a2.48 2.48 0 0 0-.622.364l.002.003zm.621-.363l.002.004c.245-.101.526-.18.844-.236v-.004l-.001-.004c-.319.056-.601.135-.846.237l.001.004zm.846-.237v.004c.321-.059.686-.089 1.094-.089v-.008c-.408 0-.774.03-1.095.089l.001.004zm1.094-.089v.004a7.93 7.93 0 0 1 .892.051v-.004l.001-.004c-.299-.034-.597-.051-.893-.051v.004zm.892.051v.004c.298.031.588.076.87.135l.002-.008c-.282-.059-.573-.104-.871-.135l-.001.004zm.871.135l-.001.004c.284.059.558.131.82.215l.002-.008a7.95 7.95 0 0 0-.82-.216l-.001.004zm.82.216l-.001.004c.262.082.505.173.73.275l.002-.004.002-.004c-.226-.102-.47-.193-.732-.275l-.001.004zm.731.275l-.004-.002-.587 1.082.004.002.003.002.588-1.082-.004-.002zm-.587 1.082l.001-.004c-.186-.082-.386-.156-.6-.224l-.002.004-.001.004a5.97 5.97 0 0 1 .6.224l.002-.004zm-.601-.224l.002-.004c-.215-.07-.439-.131-.673-.182l-.002.008c.234.051.458.111.672.182l.001-.004zm-.672-.182l.001-.004c-.234-.051-.476-.09-.727-.118l-.001.004v.004a7.19 7.19 0 0 1 .726.118l.001-.004zm-.727-.118l.001-.004c-.248-.031-.502-.046-.761-.046v.008a6.14 6.14 0 0 1 .76.046v-.004zm-.76-.046v-.004c-.37 0-.674.027-.914.08l.002.008c.239-.053.543-.08.912-.08v-.004zm-.913.08l-.001-.004c-.237.054-.426.123-.568.207l.002.004.002.003c.141-.084.329-.153.566-.207l-.001-.004zm-.567.207l-.002-.004c-.141.082-.24.175-.297.281l.003.002.004.002c.056-.103.154-.196.294-.277l-.002-.003zm-.296.279l-.003-.002a.65.65 0 0 0-.081.306h.008c0-.101.027-.201.08-.302l-.004-.002zm-.08.304h-.004a.58.58 0 0 0 .268.489l.002-.003.003-.003a.57.57 0 0 1-.265-.483h-.004zm.266.486l-.002.003c.179.125.45.187.814.187V79.3c-.363 0-.633-.062-.809-.185l-.003.003zm.812.186v.004c.147 0 .314-.01.503-.03v-.004l-.001-.004-.502.03v.004zm.503-.03v.004l.6-.072v-.004-.004l-.601.072.001.004zm.6-.072v.004l.643-.068-.001-.004v-.004l-.642.068v.004zm.642-.068l.001.004.638-.034v-.008c-.206 0-.419.011-.639.034v.004zm.639-.034v.004c.388 0 .732.044 1.03.131l.001-.004.001-.004c-.299-.088-.643-.131-1.032-.131v.004zm1.031.131l-.001.004c.301.087.553.212.755.375l.003-.003.002-.003c-.203-.164-.456-.29-.758-.377l-.001.004zm.757.376l-.003.003a1.56 1.56 0 0 1 .46.586l.003-.002.004-.002a1.57 1.57 0 0 0-.462-.589l-.002.003zm.46.588l-.003.002c.104.228.156.484.156.768h.008c0-.285-.053-.542-.157-.771l-.004.002zm.157.769h-.004c0 .38-.089.719-.266 1.017l.003.002.004.002c.178-.299.267-.64.267-1.021h-.004zm-.267 1.019l-.003-.002c-.174.295-.425.546-.751.751l.002.003.002.003a2.24 2.24 0 0 0 .754-.754l-.004-.002zm-.752.752l-.002-.003a3.85 3.85 0 0 1-1.174.465l.002.008c.46-.107.852-.262 1.176-.466l-.002-.003zm-1.175.465l-.001-.004c-.459.104-.97.156-1.533.156v.008a6.95 6.95 0 0 0 1.535-.156l-.001-.004zm-1.534.156v-.004a8.14 8.14 0 0 1-1.09-.072l-.001.004v.004c.355.048.719.072 1.091.072v-.004zm-1.091-.072l.001-.004c-.355-.045-.696-.11-1.023-.194l-.001.004-.001.004a8.23 8.23 0 0 0 1.024.195v-.004zm-1.023-.194l.002-.004c-.324-.087-.634-.19-.93-.308l-.001.004-.002.004c.296.118.606.221.93.309l.001-.004zm-.929-.309l.001-.004c-.293-.121-.565-.253-.815-.397l-.002.003-.002.004c.251.144.523.276.816.397l.002-.004zm-.816-.397l.003.002.715-1.086-.004-.002-.003-.002-.714 1.086.003.002z"/><g stroke-width=".08" class="C D"><path d="M95.197 20.04l.007.007-.001-.002.01-.006-.003.001-.002-.011v.003l-.01-.001.002.001-.005.009.002-.001z"/><path d="M103.49 25.864l3.02-1.492.799-.394-.414-.792-1.569-2.974c-.82-1.609-2.114-2.215-3.151-2.43.715-.783 1.411-2.037 1.13-3.827l-.487-3.333-.127-.881-.881.149-3.314.573c-1.784.282-2.76 1.327-3.285 2.246a4.45 4.45 0 0 0-3.29-2.257L88.6 9.884l-.878-.151-.131.884-.48 3.328a4.44 4.44 0 0 0 1.121 3.818c-1.038.214-2.339.819-3.163 2.431l-1.566 2.983-.415.788.8.398 3.018 1.484c1.609.82 3.013.549 3.978.114-.118 1.054.056 2.478 1.335 3.759l2.353 2.411.622.638.626-.638 2.344-2.411c1.277-1.277 1.453-2.695 1.337-3.748.966.437 2.374.712 3.988-.108l-.001-.001zm1.046-5.244l1.28 2.433-4.261-1.385-.811-1.54c-.208-.407-.472-.697-.751-.903.449-.168.871-.383 1.251-.639.011-.006.021-.015.031-.022.956.031 2.407.385 3.261 2.055zm-7.037-.803a2.75 2.75 0 0 1 .429-.143l.486-.065c.415-.01 1.147.103 1.561.915l.682 1.292-1.311.648c-.81.41-1.469.072-1.799-.179l-.38-.363c-.076-.091-.148-.187-.214-.293-.005-.01-.01-.021-.018-.028l-.565-1.179 1.127-.607.001.001zm-1.568-.774l-.23-1.26a2.73 2.73 0 0 1-.003-.452l.089-.484c.118-.397.453-1.058 1.353-1.201l1.439-.249.211 1.448c.14.898-.385 1.42-.727 1.655l-.461.248a2.56 2.56 0 0 1-.344.113c-.011.002-.024.004-.032.008l-1.296.173.002.001zm6.094-7.678l.395 2.721c.293 1.863-.684 3.003-1.441 3.588l-.044.001a5.88 5.88 0 0 0-1.367.212c.106-.331.148-.72.076-1.172l-.252-1.725 2.633-3.624v-.001zm-3.384-.025l2.71-.465-2.633 3.624-1.715.296c-.451.071-.809.233-1.091.435a5.98 5.98 0 0 0-.221-1.388l-.01-.036c.325-.9 1.11-2.171 2.962-2.466l-.001.001zm-3.446 8.689h.01v-.001l.002.011h.003l-.01.005v.002l-.007-.007-.002.002.005-.01h-.002l.001-.002zm-3.423-8.698c1.862.298 2.644 1.579 2.967 2.48l-.012.041a5.99 5.99 0 0 0-.221 1.366c-.281-.203-.639-.363-1.091-.434l-1.719-.293-2.633-3.624 2.71.465v-.002zm1.441 7.532a2.64 2.64 0 0 1-.428-.135l-.437-.236c-.341-.236-.864-.758-.722-1.657l.208-1.445 1.442.246c.897.145 1.232.805 1.35 1.203l.094.515a2.65 2.65 0 0 1 .001.362c-.002.011-.004.024-.002.032l-.237 1.285-1.269-.171h.001zm.814 1.546l-.554 1.154a2.71 2.71 0 0 1-.263.367l-.356.338c-.329.252-.989.59-1.801.177l-1.31-.644.68-1.296c.414-.806 1.142-.921 1.558-.912l.525.071a2.73 2.73 0 0 1 .342.11c.01.005.021.01.03.012l1.149.623zm-6.034-6.332l.395-2.721 2.633 3.624-.249 1.722a2.53 2.53 0 0 0 .077 1.172c-.462-.128-.93-.203-1.388-.218h-.038c-.755-.587-1.721-1.726-1.43-3.578h.001zm-2.13 6.529c.858-1.678 2.319-2.027 3.274-2.055l.036.025c.374.253.789.465 1.231.632a2.51 2.51 0 0 0-.75.903l-.81 1.544-4.261 1.385 1.279-2.433zm5.29 4.189c-.792.537-2.173 1.104-3.845.254l-2.466-1.216 4.261-1.385 1.562.77c.407.208.791.286 1.139.288a5.99 5.99 0 0 0-.637 1.253l-.012.035h-.001zm3.624 6.267l-1.918-1.969c-1.331-1.335-1.211-2.833-.942-3.75l.034-.027c.357-.278.687-.606.981-.974a2.51 2.51 0 0 0 .627.993l1.218 1.247v4.48zm-.604-6.335c-.639-.643-.523-1.373-.385-1.765l.228-.474c.063-.1.132-.199.212-.294a.11.11 0 0 0 .021-.025l.947-.901.926.884a2.63 2.63 0 0 1 .268.363l.213.444c.138.391.255 1.122-.389 1.766l-1.018 1.047-1.022-1.047-.001.001zm3.357 4.367l-1.918 1.969v-4.48l1.214-1.247c.323-.323.517-.664.627-.994a5.98 5.98 0 0 0 .995.993l.03.023c.266.918.379 2.408-.946 3.737h-.001zm1.69-4.334c-.154-.425-.365-.841-.624-1.235a2.52 2.52 0 0 0 1.139-.29l1.563-.773 4.261 1.385-2.465 1.216c-1.681.853-3.068.277-3.858-.263l-.014-.041h-.001zM92.324 8.177l.808.403a6.75 6.75 0 0 1 1.107.692l.585.449V7.4c-.001-.355-.081-.705-.231-1.014-.126-.259-.322-.49-.548-.758-.215-.254-.459-.543-.691-.906-.072-.122-.243-.335-.332-.696-.11-.443-.029-.919-.029-.919l-.908.78c-1.186 1.112-1.229 2.171-1.02 2.839.191.612.638 1.127 1.26 1.453l-.001-.001zm.027-3.353l.217.381c.273.429.55.756.772 1.02.186.22.347.411.423.566a1.4 1.4 0 0 1 .135.609v.561l-1.147-.601c-.396-.208-.69-.54-.806-.91-.164-.524-.026-1.072.404-1.625zm2.262.434l.592.748.586-.748.466-.624c.249-.379.993-1.529-.328-2.854l-.097-.101L95.205 1l-.633.678-.097.101c-1.321 1.326-.577 2.475-.328 2.854a14.32 14.32 0 0 0 .466.624zm.526-2.836l.064-.065.06.065c.804.808.453 1.353.208 1.727-.037.06-.139.194-.268.365l-.272-.365c-.245-.374-.596-.919.208-1.727zm.672 3.964c-.15.308-.23.658-.23 1.013v2.322l.584-.449a6.96 6.96 0 0 1 1.107-.692l.808-.403c.621-.325 1.068-.841 1.26-1.453.209-.668.166-1.727-1.02-2.839l-.908-.78s.081.477-.029.919c-.09.361-.261.574-.332.696-.232.363-.476.652-.691.906-.227.268-.422.5-.548.758l-.001.001zm.695 1.013c0-.216.048-.426.135-.609.076-.155.236-.345.423-.566.222-.263.499-.591.773-1.02l.217-.381c.429.552.569 1.1.404 1.625-.116.371-.409.702-.806.91l-1.147.601V7.4zm11.774 8.044c.207-.2.366-.457.551-.755.175-.283.374-.604.649-.937.093-.105.243-.334.558-.532.388-.242.866-.312.866-.312l-1.023-.623c-1.424-.784-2.444-.498-3.015-.093-.522.371-.875.956-.993 1.646l-.134.893a6.93 6.93 0 0 1-.316 1.267l-.245.695 2.208-.719a2.33 2.33 0 0 0 .893-.53h.001zm-1.713-.174l.217-1.276c.076-.442.3-.823.617-1.048.448-.319 1.012-.356 1.67-.118l-.295.324c-.323.393-.549.757-.73 1.05-.152.245-.283.457-.407.577-.146.141-.332.251-.537.318l-.534.174h-.001zm6.183-1.301l-.126-.061c-1.668-.847-2.533.216-2.815.57a14.62 14.62 0 0 0-.449.636l-.528.793.892.327.738.251c.437.12 1.76.472 2.613-1.194l.066-.124.452-.807-.84-.392h-.003zm-.493.888c-.52 1.014-1.147.849-1.578.731-.068-.017-.228-.071-.43-.142l.262-.372c.281-.348.69-.85 1.707-.336l.082.041-.044.078h.001zm-1.637 2.409c-.417-.109-.767-.251-1.075-.378-.325-.132-.605-.247-.891-.287a2.32 2.32 0 0 0-1.034.095l-2.209.717.607.418a6.91 6.91 0 0 1 1 .839l.633.643c.502.49 1.13.756 1.771.749.7-.007 1.693-.375 2.385-1.847l.461-1.105s-.428.224-.884.256c-.372.026-.627-.07-.765-.101h.001zm-1.208 1.873c-.388.004-.794-.173-1.114-.485l-.926-.905.534-.174c.204-.066.419-.087.621-.059.171.024.401.118.669.227.319.13.716.293 1.208.42l.429.089c-.392.579-.87.88-1.42.886h-.001zm-2.862 9.769c-.514-.383-1.179-.537-1.873-.435l-.89.148a6.88 6.88 0 0 1-1.302.091l-.738-.019 1.367 1.878c.209.288.478.524.78.686.254.135.549.207.889.291l1.091.327c.129.056.393.128.677.367a2.58 2.58 0 0 1 .565.727l.276-1.165c.306-1.597-.281-2.478-.844-2.896h.002zm-.322 2.113c-.474-.186-.89-.288-1.225-.37-.28-.069-.522-.128-.674-.209a1.41 1.41 0 0 1-.469-.413l-.33-.454 1.281-.188c.442-.065.875.031 1.187.263.442.328.651.852.628 1.552l-.399-.18.001-.001zm-.948 1.39c-.125-.047-.418-.136-.744-.231l-.918-.258-.035.95-.012.779c.021.453.096 1.82 1.944 2.116l.138.025.907.18.113-.922.019-.14c.289-1.848-.988-2.341-1.413-2.502l.001.001zm.497 2.374l-.014.09-.087-.017c-1.125-.182-1.161-.828-1.183-1.275-.005-.07-.002-.238.002-.453l.434.136c.418.159 1.022.393.847 1.519h.001zm-2.757.02c-.14-.344-.127-.617-.14-.758-.026-.43.002-.807.027-1.139.026-.35.047-.653-.002-.935a2.33 2.33 0 0 0-.411-.955l-1.364-1.879-.21.707a6.78 6.78 0 0 1-.489 1.21l-.416.8c-.311.628-.369 1.308-.164 1.915.223.663.88 1.494 2.493 1.697l1.194.097s-.346-.338-.517-.761l-.001-.001zm-1.061-.687l.047.435c-.672-.194-1.107-.555-1.281-1.077-.124-.368-.082-.809.117-1.21l.575-1.159.33.454a1.4 1.4 0 0 1 .248.573c.03.17.011.418-.01.706-.024.343-.056.77-.025 1.278l-.001-.001zm-11.988-3.063c-.201-.387-.365-.792-.489-1.21l-.21-.707-1.364 1.879a2.33 2.33 0 0 0-.411.954c-.05.283-.028.585-.002.935a8.09 8.09 0 0 1 .027 1.139c-.013.141 0 .414-.14.758-.172.423-.517.761-.517.761l1.194-.097c1.613-.203 2.27-1.034 2.493-1.697.205-.607.146-1.288-.164-1.915l-.416-.8-.001.001zm-.295 2.421c-.176.521-.61.882-1.281 1.077l.048-.435c.031-.508 0-.935-.026-1.278-.022-.288-.039-.537-.009-.706.035-.2.121-.398.248-.573l.33-.454.575 1.159c.199.401.241.842.117 1.21l-.001.001zM86.78 31.92l-.914.261-.744.231c-.424.159-1.701.653-1.413 2.502l.019.14.109.918.911-.177.138-.025c1.847-.296 1.922-1.663 1.943-2.116a14.85 14.85 0 0 0-.011-.779l-.038-.953v-.002zm-.871 1.662c-.022.447-.058 1.093-1.183 1.275l-.09.014-.01-.088c-.175-1.126.429-1.361.847-1.519.065-.027.227-.075.431-.138l.006.455h-.001zm-2.055-1.341c.284-.239.548-.311.677-.367a8.24 8.24 0 0 1 1.091-.327c.34-.084.635-.156.888-.291.302-.161.572-.398.781-.686l1.366-1.878-.737.019a6.92 6.92 0 0 1-1.302-.091l-.891-.148c-.693-.101-1.358.053-1.873.435-.562.418-1.149 1.299-.844 2.896l.276 1.164s.215-.433.565-.727h.002zm.554-2.593c.311-.232.745-.328 1.187-.263l1.28.188-.33.454a1.39 1.39 0 0 1-.469.413c-.152.081-.394.141-.674.209a9.08 9.08 0 0 0-1.225.37l-.399.18c-.023-.699.186-1.224.628-1.552l.001.001zm-.022-11.817l.607-.418-2.209-.717c-.338-.11-.696-.143-1.034-.095-.284.039-.565.154-.89.287-.308.126-.658.269-1.076.378-.138.031-.393.127-.764.101-.455-.032-.884-.256-.884-.256l.461 1.105c.691 1.472 1.685 1.84 2.385 1.847.641.007 1.27-.259 1.771-.749l.633-.643a6.8 6.8 0 0 1 1-.839h.001zm-2.278.822c-.32.312-.726.489-1.115.485-.55-.006-1.028-.307-1.42-.886l.429-.089c.492-.127.889-.29 1.208-.42.268-.11.498-.204.669-.227.202-.028.416-.008.621.059l.534.174-.926.905h-.001zm-2.161-2.169c.128-.036.418-.137.737-.251l.895-.331-.531-.789-.449-.636c-.283-.354-1.147-1.417-2.815-.57l-.126.061-.84.388.45.812.066.124c.852 1.666 2.176 1.314 2.614 1.194l-.001-.001zm-1.796-1.628l-.041-.082.08-.037c1.017-.514 1.427-.012 1.706.336.046.054.142.191.264.367l-.431.147c-.431.117-1.058.282-1.578-.731h.001zm2.775-1.105c.274.333.473.654.648.937.185.298.344.555.551.755a2.32 2.32 0 0 0 .892.531l2.208.719-.245-.695c-.145-.412-.251-.836-.315-1.267l-.134-.893c-.118-.691-.47-1.275-.993-1.646-.571-.405-1.591-.692-3.015.093l-1.023.623s.478.07.866.312c.315.197.465.425.558.532h.001zm2.079-.806c.316.225.542.607.616 1.048l.217 1.276-.534-.174a1.39 1.39 0 0 1-.537-.318c-.124-.119-.255-.331-.407-.577-.181-.293-.407-.657-.73-1.05l-.295-.324c.658-.238 1.221-.201 1.67.118h-.001z"/></g></g></svg>