
<svg fill="none" viewBox="0 0 194 86" xmlns="http://www.w3.org/2000/svg">
<path d="m9.5917 55.414c-0.26062 0.283-0.55847 0.4915-0.89232 0.6255 1.421 0.2085 2.5008 0.726 3.2404 1.5512 0.7397 0.8253 1.1095 1.8354 1.1095 3.0255 0 1.4446-0.5659 2.6123-1.6965 3.5058-1.1306 0.8936-2.6174 1.3391-4.4591 1.3391-1.8417 0-3.2838-0.4654-4.3276-1.3961-1.0437-0.9308-1.5662-2.2437-1.5662-3.9414v-0.2681l0.23952-0.0447c0.29041 2.2189 1.1889 3.6548 2.6968 4.31v-12.996c-0.02978-0.4021-0.17747-0.7335-0.44553-0.9941-0.26807-0.2606-0.59075-0.3909-0.96802-0.3909h-0.26062v-0.2234h3.6536c1.3627 0 2.4536 0.3202 3.2726 0.9606 0.81907 0.6403 1.2287 1.478 1.2287 2.5117 0 1.0338-0.2755 1.8416-0.82657 2.4224l0.00124 0.0025zm-4.2407-5.1799v14.29c0.47905 0.0745 1.0288 0.1117 1.6531 0.1117 1.3925 0 2.4759-0.3834 3.2515-1.1504 0.7757-0.7669 1.1641-1.7597 1.1641-2.9808 0-0.6553-0.1191-1.2361-0.3586-1.7424s-0.5399-0.901-0.9023-1.1839c-0.95682-0.7595-2.3058-1.1392-4.0458-1.1392h-0.02234l-0.02234-0.2011h0.02234c0.73966 0 1.3738-0.2494 1.9025-0.7483 0.52868-0.4989 0.79427-1.2683 0.79427-2.3107 0-1.9645-1.0512-2.9474-3.1535-2.9474h-0.28296v0.0025z" fill="#235162" opacity=".99" stroke="#235162" stroke-miterlimit="10" stroke-width=".4"/>
<path d="m20.425 51.15h-0.0657c-0.0149-0.3871-0.1564-0.7185-0.4245-0.994-0.268-0.2755-0.5907-0.4132-0.968-0.4132h-0.283v-0.2234h1.74v1.6294l0.0012 0.0012zm0 12.37v1.6295h-1.7399v-0.2234h0.283c0.3772 0 0.6999-0.1378 0.968-0.4133 0.268-0.2755 0.4095-0.6068 0.4244-0.994h0.0658l-0.0013 0.0012zm1.3478-14.001v15.63h-1.4135v-15.63h1.4135zm-0.0645 1.6306v-1.6294h1.7399v0.2234h-0.2829c-0.3773 0-0.7 0.1378-0.968 0.4133-0.2681 0.2755-0.4096 0.6068-0.4245 0.994h-0.0657l0.0012-0.0013zm5.9372 13.307v0.6925h-5.9372v-0.6925h5.9372zm1.3267-2.925-1.2609 3.6175h-3.6103l0.7831-0.6925c0.7683 0 1.395-0.1229 1.8815-0.3686 0.4852-0.2457 0.8811-0.5919 1.1852-1.0387 0.304-0.4468 0.5721-0.9531 0.8042-1.519h0.2172v0.0013z" fill="#235162" opacity=".99" stroke="#235162" stroke-miterlimit="10" stroke-width=".4"/>
<path d="m35.41 49.519v1.3402h-0.0657c0-0.3276-0.113-0.5956-0.3376-0.8041s-0.4964-0.3127-0.8154-0.3127h-0.3475v-0.2234h1.5662zm1.3478 0v9.8249c0 1.0722 0.1924 2.0166 0.5759 2.8357 0.3834 0.819 0.9245 1.4556 1.6208 1.9086 0.6962 0.4542 1.5004 0.6813 2.4138 0.6813 0.9718 0 1.8194-0.2159 2.5442-0.6478 0.7247-0.4319 1.2907-1.0312 1.6965-1.7969 0.4058-0.767 0.6093-1.6642 0.6093-2.6905v-10.115h1.0227v10.115c0 1.1616-0.2433 2.1767-0.7285 3.0479-0.4865 0.8711-1.1716 1.5512-2.0552 2.0426-0.8849 0.4915-1.9137 0.7372-3.0877 0.7372-1.1741 0-2.2588-0.242-3.1647-0.726-0.906-0.484-1.6097-1.1616-2.1098-2.0315-0.5002-0.8712-0.7508-1.8863-0.7508-3.0479v-10.138h1.4135zm1.5017 0v0.2234h-0.3475c-0.319 0-0.5907 0.1042-0.8154 0.3127-0.2246 0.2085-0.3375 0.4765-0.3375 0.8041h-0.0435v-1.3402h1.5439zm8.0246 0v1.3402h-0.0658c0-0.3276-0.1129-0.5956-0.3375-0.8041-0.2247-0.2085-0.4964-0.3127-0.8154-0.3127h-0.3475v-0.2234h1.5662zm2.4585 0v0.2234h-0.3475c-0.3189 0-0.5907 0.1042-0.8153 0.3127-0.2247 0.2085-0.3376 0.4765-0.3376 0.8041h-0.0434v-1.3402h1.5438z" fill="#235162" opacity=".99" stroke="#235162" stroke-miterlimit="10" stroke-width=".4"/>
<path d="m56.069 51.15h-0.0658c0-0.3872-0.1377-0.7186-0.4133-0.9941-0.2755-0.2755-0.6019-0.4132-0.9791-0.4132h-0.2607l-0.0223-0.2234h1.74v1.6294l0.0012 0.0013zm0 12.37v1.6294h-1.74v-0.2234h0.283c0.3773 0 0.7-0.1377 0.968-0.4132 0.2681-0.2755 0.4096-0.6069 0.4245-0.9941h0.0657l-0.0012 0.0013zm1.349-14.001v15.63h-1.4135v-15.63h1.4135zm5.8727 0v0.6925h-5.9372v-0.6925h5.9372zm-0.9358 7.5924v0.6701h-5.0027v-0.6701h5.0027zm0.9358 7.3454v0.6925h-5.9372v-0.6925h5.9372zm1.3267-2.925-1.261 3.6175h-3.6102l0.7831-0.6925c0.7682 0 1.395-0.1228 1.8815-0.3686 0.4852-0.2457 0.8811-0.5919 1.1852-1.0387 0.304-0.4467 0.5721-0.953 0.8042-1.5189h0.2172v0.0012zm-1.3267-12.415v0.6478l-2.6534-0.2457c0.319 0 0.6553-0.0223 1.0115-0.067 0.3549-0.0447 0.685-0.0968 0.9891-0.1564 0.304-0.0595 0.5225-0.1191 0.6528-0.1787zm-0.9358 6.5649v1.4743h-1.2609v-0.0447c0.2904-0.0149 0.5361-0.1303 0.7397-0.3462 0.2023-0.216 0.304-0.4729 0.304-0.7707v-0.3127h0.2172zm0 2.0551v1.4743h-0.2172v-0.3351c0-0.2979-0.1017-0.5547-0.304-0.7707-0.2036-0.2159-0.4493-0.3239-0.7397-0.3239v-0.0446h1.2609zm0.9358-7.5924v1.7858h-0.2172v-0.4021c0-0.3574-0.1229-0.6664-0.3698-0.927-0.247-0.2606-0.5511-0.3984-0.9135-0.4133v-0.0447h1.5005v0.0013z" fill="#235162" opacity=".99" stroke="#235162" stroke-miterlimit="10" stroke-width=".4"/>
<path d="m81.013 51.15h-0.0658c-0.0149-0.3871-0.1564-0.7185-0.4245-0.994-0.268-0.2755-0.5907-0.4132-0.968-0.4132h-0.2829v-0.2234h1.7399v1.6294l0.0013 0.0012zm0 12.37v1.6295h-1.74v-0.2234h0.283c0.3772 0 0.6999-0.1378 0.968-0.4133 0.268-0.2755 0.4095-0.6068 0.4244-0.994h0.0658l-0.0012 0.0012zm1.3477-14.001v15.63h-1.4135v-15.63h1.4135zm-0.0645 1.6306v-1.6294h1.74v0.2234h-0.283c-0.3773 0-0.7 0.1378-0.968 0.4133-0.2681 0.2755-0.4096 0.6068-0.4245 0.994h-0.0657l0.0012-0.0013zm5.9372 13.307v0.6925h-5.9372v-0.6925h5.9372zm1.3267-2.925-1.2609 3.6175h-3.6103l0.7831-0.6925c0.7683 0 1.395-0.1229 1.8815-0.3686 0.4852-0.2457 0.8811-0.5919 1.1852-1.0387 0.304-0.4468 0.5721-0.9531 0.8042-1.519h0.2172v0.0013z" fill="#235162" opacity=".99" stroke="#235162" stroke-miterlimit="10" stroke-width=".4"/>
<g opacity=".99">
<path d="m96.808 63.519c-0.1018 0.2978-0.1167 0.551-0.0434 0.7594 0.072 0.2085 0.1923 0.3686 0.3586 0.4803s0.3376 0.1675 0.5113 0.1675h0.1961v0.2234h-4.3709v-0.2234h0.196c0.3339 0 0.6777-0.1079 1.0326-0.3239 0.3549-0.2159 0.6491-0.577 0.8811-1.0833h1.2399-0.0013zm4.6764-14.314 0.196 1.5636-5.4594 14.312h-1.3056l5.567-13.576c0.159-0.3723 0.294-0.6924 0.402-0.9605 0.108-0.268 0.203-0.5287 0.283-0.7818 0.08-0.2532 0.12-0.4393 0.12-0.5585h0.196l1e-3 0.0013zm3.067 9.8472v0.6702h-6.8076v-0.6702h6.8076zm-3.067-9.8472 6.437 15.809h-1.849l-5.024-13.688 0.435-2.1208h1e-3zm4.044 14.314h1.784c0.217 0.5063 0.507 0.8674 0.87 1.0833 0.362 0.216 0.71 0.3239 1.044 0.3239h0.173v0.2234h-4.893v-0.2234h0.196c0.275 0 0.522-0.1228 0.74-0.3685 0.217-0.2457 0.247-0.592 0.086-1.0387z" fill="#235162"/>
<path d="m101.48 49.206 0.196 1.5636-5.4594 14.312h-1.3056l5.567-13.576c0.159-0.3723 0.294-0.6924 0.402-0.9605 0.108-0.268 0.203-0.5287 0.283-0.7818 0.08-0.2532 0.12-0.4393 0.12-0.5585h0.196l1e-3 0.0013zm0 0 6.437 15.809h-1.849l-5.024-13.688 0.435-2.1208h1e-3zm-4.6764 14.314c-0.1018 0.2978-0.1167 0.551-0.0434 0.7594 0.072 0.2085 0.1923 0.3686 0.3586 0.4803s0.3376 0.1675 0.5113 0.1675h0.1961v0.2234h-4.3709v-0.2234h0.196c0.3339 0 0.6777-0.1079 1.0326-0.3239 0.3549-0.2159 0.6491-0.577 0.8811-1.0833h1.2399-0.0013zm7.7434-4.4664v0.6702h-6.8076v-0.6702h6.8076zm0.977 4.4664h1.784c0.217 0.5063 0.507 0.8674 0.87 1.0833 0.362 0.216 0.71 0.3239 1.044 0.3239h0.173v0.2234h-4.893v-0.2234h0.196c0.275 0 0.522-0.1228 0.74-0.3685 0.217-0.2457 0.247-0.592 0.086-1.0387z" stroke="#235162" stroke-miterlimit="10" stroke-width=".4"/>
</g>
<path d="m127.3 58.896v3.6845c-0.334 0.4467-0.783 0.8935-1.349 1.339s-1.258 0.8153-2.078 1.1057c-0.819 0.2904-1.779 0.4356-2.881 0.4356-1.537-0.0149-2.893-0.3611-4.067-1.0387s-2.091-1.622-2.752-2.8357c-0.66-1.2136-0.989-2.6309-0.989-4.2541s0.33-3.0441 0.989-4.2653c0.661-1.2199 1.578-2.1692 2.752-2.8468s2.53-1.0164 4.067-1.0164c0.796 0 1.515 0.0671 2.153 0.2011s1.214 0.3164 1.729 0.5473c0.515 0.2308 0.981 0.4877 1.402 0.7706l0.434 3.1484h-0.196c-0.217-0.8637-0.575-1.5885-1.076-2.1767-0.5-0.5882-1.126-1.0387-1.881-1.3514-0.755-0.3128-1.61-0.4691-2.567-0.4691-1.217 0-2.291 0.3127-3.219 0.9382-0.928 0.6254-1.653 1.4966-2.174 2.6122-0.521 1.1157-0.783 2.4187-0.783 3.9079s0.26 2.791 0.783 3.9079c0.522 1.1169 1.247 1.9843 2.174 2.6011 0.928 0.618 2.001 0.9345 3.219 0.9494 0.638 0 1.251-0.0782 1.838-0.2346 0.587-0.1563 1.142-0.3797 1.665-0.6701 0.522-0.2904 0.985-0.6366 1.392-1.0387l0.021-3.9526c0-0.6701-0.37-1.0052-1.109-1.0052h-0.348v-0.2233h4.263v0.2233h-0.326c-0.755 0-1.117 0.3351-1.087 1.0052l1e-3 0.0013z" fill="#235162" opacity=".99" stroke="#235162" stroke-miterlimit="10" stroke-width=".4"/>
<path d="m142.04 49.207c1.552 0 2.914 0.3388 4.09 1.0164 1.174 0.6775 2.091 1.6269 2.751 2.8468 0.66 1.2211 0.989 2.6421 0.989 4.2653s-0.33 3.0441-0.989 4.2653c-0.66 1.2211-1.577 2.1692-2.751 2.8468-1.175 0.6776-2.538 1.0164-4.09 1.0164-1.551 0-2.893-0.3388-4.067-1.0164s-2.091-1.6257-2.751-2.8468c-0.66-1.2199-0.989-2.6421-0.989-4.2653s0.33-3.0442 0.989-4.2653c0.659-1.2199 1.577-2.1693 2.751-2.8468 1.174-0.6776 2.531-1.0164 4.067-1.0164zm0 15.586c1.233 0 2.309-0.3127 3.229-0.9382 0.921-0.6255 1.639-1.4966 2.154-2.6123 0.515-1.1169 0.772-2.4187 0.772-3.9079s-0.259-2.791-0.772-3.9079c-0.515-1.1168-1.233-1.9868-2.154-2.6122-0.92-0.6255-1.996-0.9382-3.229-0.9382-1.232 0-2.287 0.3127-3.208 0.9382-0.921 0.6254-1.638 1.4966-2.153 2.6122-0.515 1.1169-0.772 2.4187-0.772 3.9079s0.257 2.791 0.772 3.9079 1.232 1.9868 2.153 2.6123 1.99 0.9382 3.208 0.9382z" fill="#235162" opacity=".99" stroke="#235162" stroke-miterlimit="10" stroke-width=".4"/>
<path d="m163.75 49.207c1.552 0 2.914 0.3388 4.09 1.0164 1.174 0.6775 2.091 1.6269 2.751 2.8468 0.66 1.2211 0.989 2.6421 0.989 4.2653s-0.33 3.0441-0.989 4.2653c-0.66 1.2211-1.577 2.1692-2.751 2.8468s-2.538 1.0164-4.09 1.0164c-1.551 0-2.892-0.3388-4.066-1.0164s-2.092-1.6257-2.752-2.8468c-0.66-1.2199-0.989-2.6421-0.989-4.2653s0.33-3.0442 0.989-4.2653c0.659-1.2199 1.578-2.1693 2.752-2.8468 1.174-0.6776 2.53-1.0164 4.066-1.0164zm0 15.586c1.233 0 2.309-0.3127 3.23-0.9382s1.638-1.4966 2.153-2.6123c0.515-1.1169 0.772-2.4187 0.772-3.9079s-0.258-2.791-0.772-3.9079c-0.515-1.1168-1.232-1.9868-2.153-2.6122-0.921-0.6255-1.997-0.9382-3.23-0.9382-1.232 0-2.287 0.3127-3.208 0.9382-0.92 0.6254-1.638 1.4966-2.153 2.6122-0.515 1.1169-0.772 2.4187-0.772 3.9079s0.257 2.791 0.772 3.9079 1.233 1.9868 2.153 2.6123c0.921 0.6255 1.99 0.9382 3.208 0.9382z" fill="#235162" opacity=".99" stroke="#235162" stroke-miterlimit="10" stroke-width=".4"/>
<g opacity=".99">
<path d="m178.47 63.564v1.586h-1.806v-0.2234h0.414c0.362 0 0.674-0.134 0.935-0.402 0.261-0.2681 0.391-0.5883 0.391-0.9606h0.066zm-0.043-14.381 0.957 1.251 0.021 14.714h-1.001v-13.174c0-0.7595-0.065-1.689-0.196-2.791h0.219zm0 0 12.636 13.844 0.196 2.4336-12.636-13.822-0.196-2.456zm0.979 14.381c0 0.3723 0.13 0.6925 0.391 0.9606 0.26 0.268 0.572 0.402 0.936 0.402h0.413v0.2234h-1.805v-1.586h0.066-1e-3zm9.113-14.046h1.806v1.5847h-0.044c-0.015-0.3871-0.149-0.711-0.402-0.9716-0.253-0.2607-0.57-0.391-0.946-0.391h-0.413v-0.2233l-1e-3 0.0012zm2.74 0v13.085c0 0.4765 0.015 0.9345 0.044 1.3738 0.028 0.4393 0.079 0.9345 0.152 1.4842h-0.196l-0.979-1.1839v-14.759h0.979zm1.74 0v0.2234h-0.391c-0.362 0-0.674 0.1303-0.936 0.3909-0.26 0.2606-0.398 0.5845-0.413 0.9717h-0.066v-1.5848h1.805l1e-3 -0.0012z" fill="#235162"/>
<path d="m178.42 49.184 0.957 1.251 0.021 14.714h-1.001v-13.174c0-0.7595-0.065-1.689-0.196-2.791h0.219zl12.636 13.844 0.196 2.4336m-12.832-16.278 0.196 2.456 12.636 13.822m0 0h0.196c-0.073-0.5497-0.124-1.0449-0.152-1.4842-0.029-0.4393-0.044-0.8973-0.044-1.3738v-13.085h-0.979v14.759l0.979 1.1839zm-12.789-1.8975v1.586h-1.806v-0.2234h0.414c0.362 0 0.674-0.134 0.935-0.402 0.261-0.2681 0.391-0.5883 0.391-0.9606h0.066zm0.936 0c0 0.3723 0.13 0.6925 0.391 0.9606 0.26 0.268 0.572 0.402 0.936 0.402h0.413v0.2234h-1.805v-1.586h0.066-1e-3zm9.113-14.046h1.806v1.5847h-0.044c-0.015-0.3871-0.149-0.711-0.402-0.9716-0.253-0.2607-0.57-0.391-0.946-0.391h-0.413v-0.2233l-1e-3 0.0012zm4.48 0v0.2234h-0.391c-0.362 0-0.674 0.1303-0.936 0.3909-0.26 0.2606-0.398 0.5845-0.413 0.9717h-0.066v-1.5848h1.805l1e-3 -0.0012z" stroke="#235162" stroke-miterlimit="10" stroke-width=".4"/>
</g>
<path d="m36.937 76.658h1.3398v5.4312h3.8419v1.175h-5.1817v-6.6062zm6.2341 0h1.3399v3.6391c0 0.2987 0.0408 0.565 0.1225 0.7988 0.0817 0.2311 0.2029 0.4269 0.3635 0.5875 0.1634 0.1606 0.3649 0.2832 0.6044 0.3677 0.2395 0.0817 0.5185 0.1226 0.8369 0.1226 0.3156 0 0.5931-0.0409 0.8326-0.1226 0.2423-0.0845 0.4438-0.2071 0.6044-0.3677 0.1634-0.1606 0.286-0.3564 0.3677-0.5875 0.0817-0.2338 0.1226-0.5001 0.1226-0.7988v-3.6391h1.3398v3.7997c0 0.4339-0.0732 0.8284-0.2198 1.1835-0.1465 0.355-0.3592 0.6593-0.6382 0.9129-0.2789 0.2536-0.6213 0.4494-1.027 0.5875-0.403 0.1381-0.8637 0.2071-1.3821 0.2071-0.5185 0-0.9806-0.069-1.3863-0.2071-0.403-0.1381-0.7439-0.3339-1.0229-0.5875-0.2789-0.2536-0.4917-0.5579-0.6382-0.9129-0.1465-0.3551-0.2198-0.7496-0.2198-1.1835v-3.7997zm10.047 3.2503-2.5402-3.2503h1.6399l1.754 2.2739 1.7625-2.2739h1.6146l-2.5867 3.2376 2.6754 3.3686h-1.6441l-1.8808-2.3754-1.9231 2.3754h-1.6188l2.7473-3.3559zm5.0761-3.2503h1.3398v3.6391c0 0.2987 0.0409 0.565 0.1226 0.7988 0.0817 0.2311 0.2029 0.4269 0.3635 0.5875 0.1634 0.1606 0.3649 0.2832 0.6044 0.3677 0.2395 0.0817 0.5184 0.1226 0.8368 0.1226 0.3156 0 0.5931-0.0409 0.8327-0.1226 0.2423-0.0845 0.4437-0.2071 0.6043-0.3677 0.1635-0.1606 0.286-0.3564 0.3678-0.5875 0.0817-0.2338 0.1225-0.5001 0.1225-0.7988v-3.6391h1.3399v3.7997c0 0.4339-0.0733 0.8284-0.2198 1.1835-0.1466 0.355-0.3593 0.6593-0.6382 0.9129-0.279 0.2536-0.6213 0.4494-1.0271 0.5875-0.4029 0.1381-0.8636 0.2071-1.3821 0.2071-0.5184 0-0.9805-0.069-1.3863-0.2071-0.4029-0.1381-0.7439-0.3339-1.0228-0.5875-0.279-0.2536-0.4917-0.5579-0.6382-0.9129-0.1466-0.3551-0.2198-0.7496-0.2198-1.1835v-3.7997zm8.1699 0h3.3601c0.5072 0 0.9468 0.0536 1.3187 0.1606 0.372 0.1043 0.6805 0.2565 0.9257 0.4565 0.2451 0.2001 0.4268 0.4438 0.5452 0.7312 0.1211 0.2874 0.1817 0.6129 0.1817 0.9763 0 0.2452-0.0296 0.4791-0.0887 0.7017-0.0592 0.2197-0.1508 0.4226-0.2748 0.6086-0.1211 0.186-0.2747 0.3522-0.4607 0.4987-0.1859 0.1437-0.4043 0.2635-0.6551 0.3593l1.4371 2.1133h-1.6399l-1.2427-1.8766h-0.038l-2.0287-0.0043v1.8809h-1.3399v-6.6062zm3.394 3.5673c0.2536 0 0.4747-0.0296 0.6635-0.0888 0.1916-0.0592 0.3508-0.1423 0.4776-0.2494 0.1296-0.107 0.2255-0.2367 0.2874-0.3888 0.0648-0.155 0.0973-0.3269 0.0973-0.5157 0-0.3691-0.1268-0.6537-0.3804-0.8537-0.2536-0.2029-0.6354-0.3043-1.1454-0.3043h-2.0541v2.4007h2.0541zm6.5511 1.4032-2.8867-4.9705h1.5173l2.033 3.7575 2.0076-3.7575h1.5174l-2.8487 4.962v1.6442h-1.3399v-1.6357zm8.077-4.9705h3.3601c0.5072 0 0.9468 0.0536 1.3187 0.1606 0.3719 0.1043 0.6805 0.2565 0.9256 0.4565 0.2452 0.2001 0.4269 0.4438 0.5452 0.7312 0.1212 0.2874 0.1818 0.6129 0.1818 0.9763 0 0.2452-0.0296 0.4791-0.0888 0.7017-0.0591 0.2197-0.1507 0.4226-0.2747 0.6086-0.1212 0.186-0.2747 0.3522-0.4607 0.4987-0.186 0.1437-0.4043 0.2635-0.6551 0.3593l1.437 2.1133h-1.6399l-1.2426-1.8766h-0.038l-2.0288-0.0043v1.8809h-1.3398v-6.6062zm3.3939 3.5673c0.2536 0 0.4748-0.0296 0.6636-0.0888 0.1916-0.0592 0.3508-0.1423 0.4776-0.2494 0.1296-0.107 0.2254-0.2367 0.2874-0.3888 0.0648-0.155 0.0972-0.3269 0.0972-0.5157 0-0.3691-0.1268-0.6537-0.3804-0.8537-0.2536-0.2029-0.6354-0.3043-1.1454-0.3043h-2.0541v2.4007h2.0541zm4.5267-3.5673h5.6255v1.175h-4.2857v1.3187h3.7954v1.1031h-3.7954v1.8386h4.3745v1.1708h-5.7143v-6.6062zm7.5106 4.6408c0.2394 0.1353 0.4814 0.2578 0.7274 0.3677 0.248 0.1071 0.504 0.1987 0.769 0.2747 0.265 0.0733 0.542 0.1297 0.832 0.1691 0.293 0.0395 0.605 0.0592 0.934 0.0592 0.398 0 0.736-0.0254 1.015-0.0761 0.279-0.0535 0.506-0.1254 0.68-0.2156 0.178-0.0929 0.306-0.2028 0.385-0.3296 0.082-0.1268 0.123-0.2649 0.123-0.4142 0-0.2395-0.101-0.4283-0.301-0.5664-0.2-0.1409-0.508-0.2113-0.925-0.2113-0.183 0-0.376 0.0127-0.579 0.038-0.203 0.0226-0.409 0.0479-0.617 0.0761-0.206 0.0282-0.41 0.0549-0.613 0.0803-0.2 0.0225-0.389 0.0338-0.567 0.0338-0.295 0-0.58-0.038-0.853-0.1141-0.271-0.0761-0.512-0.1902-0.723-0.3424-0.2085-0.1521-0.3748-0.3423-0.4988-0.5705-0.1239-0.2283-0.1859-0.4945-0.1859-0.7989 0-0.1803 0.0239-0.3592 0.0718-0.5367 0.0507-0.1775 0.1296-0.3466 0.2367-0.5072 0.1099-0.1634 0.2512-0.3142 0.4222-0.4523 0.172-0.1408 0.379-0.262 0.622-0.3634 0.245-0.1015 0.527-0.1804 0.845-0.2367 0.321-0.0592 0.686-0.0888 1.095-0.0888 0.296 0 0.593 0.0169 0.892 0.0507 0.298 0.031 0.588 0.0761 0.87 0.1353 0.285 0.0591 0.558 0.131 0.82 0.2155 0.262 0.0817 0.506 0.1733 0.731 0.2748l-0.587 1.082c-0.186-0.0818-0.386-0.1564-0.6-0.224-0.214-0.0705-0.438-0.1311-0.672-0.1818s-0.476-0.0902-0.727-0.1183c-0.248-0.031-0.502-0.0465-0.761-0.0465-0.369 0-0.673 0.0267-0.913 0.0803-0.237 0.0535-0.425 0.1225-0.566 0.2071-0.141 0.0817-0.24 0.1747-0.296 0.2789-0.054 0.1015-0.081 0.2029-0.081 0.3043 0 0.1973 0.089 0.3593 0.267 0.4861 0.177 0.124 0.448 0.186 0.811 0.186 0.147 0 0.314-0.0099 0.503-0.0296 0.192-0.0226 0.392-0.0465 0.6-0.0719 0.212-0.0253 0.426-0.0479 0.643-0.0676 0.22-0.0225 0.432-0.0338 0.638-0.0338 0.389 0 0.733 0.0437 1.031 0.131 0.302 0.0874 0.554 0.2128 0.757 0.3762 0.203 0.1606 0.356 0.3564 0.461 0.5875 0.104 0.2282 0.156 0.4846 0.156 0.7692 0 0.3804-0.089 0.7199-0.266 1.0186-0.175 0.2959-0.426 0.5466-0.753 0.7523-0.324 0.2029-0.715 0.3579-1.175 0.465-0.459 0.1042-0.97 0.1563-1.534 0.1563-0.372 0-0.735-0.0239-1.09-0.0718-0.355-0.0451-0.696-0.1099-1.023-0.1944-0.324-0.0874-0.634-0.1902-0.93-0.3086-0.293-0.1211-0.5649-0.2536-0.8157-0.3973l0.7143-1.0862zm8.1784-4.6408h1.348v6.6062h-1.348v-6.6062zm3.06 0h2.422c0.707 0 1.321 0.0761 1.843 0.2283 0.521 0.1521 0.952 0.3705 1.293 0.6551 0.344 0.2818 0.599 0.6255 0.765 1.0313 0.169 0.4029 0.254 0.8566 0.254 1.3609 0 0.479-0.084 0.9228-0.25 1.3314-0.166 0.4057-0.42 0.758-0.761 1.0566-0.341 0.2959-0.772 0.5284-1.293 0.6974-0.521 0.1663-1.135 0.2494-1.843 0.2494l-2.43-0.0042v-6.6062zm2.751 5.4481c0.401 0 0.751-0.0507 1.053-0.1522 0.301-0.1042 0.552-0.2508 0.752-0.4395 0.203-0.1888 0.355-0.4171 0.457-0.6847 0.101-0.2677 0.152-0.5664 0.152-0.8961 0-0.324-0.051-0.6156-0.152-0.8749-0.102-0.262-0.254-0.4832-0.457-0.6635-0.2-0.1832-0.451-0.3241-0.752-0.4227-0.302-0.0986-0.652-0.1479-1.053-0.1479h-1.411v4.2815h1.411zm5.17-5.4481h5.625v1.175h-4.286v1.3187h3.796v1.1031h-3.796v1.8386h4.375v1.1708h-5.714v-6.6062zm7.193 0h1.34l4.117 2.1556v-2.1556h1.34v6.6062h-1.34v-3.0305l-4.117-2.1429v5.1734h-1.34v-6.6062zm8.263 3.2629c0-0.4705 0.089-0.9087 0.266-1.3144 0.178-0.4086 0.434-0.7622 0.77-1.0609 0.338-0.3015 0.749-0.5382 1.234-0.71 0.487-0.1719 1.038-0.2579 1.652-0.2579 0.539 0 1.032 0.055 1.48 0.1649 0.45 0.107 0.869 0.2719 1.255 0.4945l-0.617 1.0144c-0.116-0.0761-0.249-0.1437-0.402-0.2029-0.149-0.0592-0.31-0.1085-0.481-0.148-0.17-0.0422-0.346-0.0746-0.529-0.0972-0.18-0.0225-0.359-0.0338-0.537-0.0338-0.428 0-0.81 0.0536-1.145 0.1606-0.335 0.1043-0.618 0.2522-0.85 0.4438-0.228 0.1888-0.402 0.4156-0.524 0.6805-0.118 0.262-0.177 0.5509-0.177 0.8664 0 0.3269 0.062 0.627 0.186 0.9003s0.303 0.51 0.537 0.7101c0.236 0.1972 0.524 0.3522 0.862 0.4649 0.341 0.1099 0.725 0.1648 1.154 0.1648 0.194 0 0.387-0.0141 0.579-0.0422 0.191-0.0282 0.376-0.0663 0.553-0.1142 0.181-0.0507 0.354-0.1098 0.52-0.1775 0.167-0.0704 0.322-0.1465 0.465-0.2282l0.617 1.0144c-0.36 0.231-0.777 0.4128-1.251 0.5452-0.473 0.1296-0.976 0.1944-1.509 0.1944-0.679 0-1.275-0.0873-1.787-0.262-0.513-0.1775-0.942-0.4199-1.285-0.727-0.344-0.3099-0.603-0.6734-0.778-1.0905-0.172-0.4198-0.258-0.8706-0.258-1.3525zm8.348-3.2629h5.625v1.175h-4.286v1.3187h3.796v1.1031h-3.796v1.8386h4.375v1.1708h-5.714v-6.6062zm7.51 4.6408c0.24 0.1353 0.482 0.2578 0.727 0.3677 0.248 0.1071 0.505 0.1987 0.769 0.2747 0.265 0.0733 0.543 0.1297 0.833 0.1691 0.293 0.0395 0.604 0.0592 0.934 0.0592 0.397 0 0.736-0.0254 1.014-0.0761 0.279-0.0535 0.506-0.1254 0.681-0.2156 0.177-0.0929 0.306-0.2028 0.385-0.3296 0.081-0.1268 0.122-0.2649 0.122-0.4142 0-0.2395-0.1-0.4283-0.3-0.5664-0.2-0.1409-0.509-0.2113-0.926-0.2113-0.183 0-0.376 0.0127-0.579 0.038-0.202 0.0226-0.408 0.0479-0.617 0.0761-0.205 0.0282-0.41 0.0549-0.613 0.0803-0.2 0.0225-0.388 0.0338-0.566 0.0338-0.296 0-0.58-0.038-0.854-0.1141-0.27-0.0761-0.511-0.1902-0.722-0.3424-0.209-0.1521-0.375-0.3423-0.499-0.5705-0.124-0.2283-0.186-0.4945-0.186-0.7989 0-0.1803 0.024-0.3592 0.072-0.5367 0.05-0.1775 0.129-0.3466 0.236-0.5072 0.11-0.1634 0.251-0.3142 0.423-0.4523 0.172-0.1408 0.379-0.262 0.621-0.3634 0.246-0.1015 0.527-0.1804 0.846-0.2367 0.321-0.0592 0.686-0.0888 1.094-0.0888 0.296 0 0.594 0.0169 0.892 0.0507 0.299 0.031 0.589 0.0761 0.871 0.1353 0.284 0.0591 0.558 0.131 0.82 0.2155 0.262 0.0817 0.506 0.1733 0.731 0.2748l-0.587 1.082c-0.186-0.0818-0.387-0.1564-0.601-0.224-0.214-0.0705-0.438-0.1311-0.672-0.1818s-0.476-0.0902-0.727-0.1183c-0.248-0.031-0.501-0.0465-0.76-0.0465-0.37 0-0.674 0.0267-0.913 0.0803-0.237 0.0535-0.426 0.1225-0.567 0.2071-0.141 0.0817-0.239 0.1747-0.296 0.2789-0.053 0.1015-0.08 0.2029-0.08 0.3043 0 0.1973 0.089 0.3593 0.266 0.4861 0.178 0.124 0.448 0.186 0.812 0.186 0.146 0 0.314-0.0099 0.503-0.0296 0.191-0.0226 0.392-0.0465 0.6-0.0719 0.211-0.0253 0.425-0.0479 0.642-0.0676 0.22-0.0225 0.433-0.0338 0.639-0.0338 0.389 0 0.732 0.0437 1.031 0.131 0.301 0.0874 0.554 0.2128 0.756 0.3762 0.203 0.1606 0.357 0.3564 0.461 0.5875 0.104 0.2282 0.157 0.4846 0.157 0.7692 0 0.3804-0.089 0.7199-0.267 1.0186-0.174 0.2959-0.425 0.5466-0.752 0.7523-0.324 0.2029-0.716 0.3579-1.175 0.465-0.459 0.1042-0.971 0.1563-1.534 0.1563-0.372 0-0.736-0.0239-1.091-0.0718-0.355-0.0451-0.696-0.1099-1.023-0.1944-0.324-0.0874-0.634-0.1902-0.929-0.3086-0.293-0.1211-0.565-0.2536-0.816-0.3973l0.714-1.0862z" fill="#235162"/>
<path d="m36.937 76.658v4e-3h1.3398v-8e-3h-1.3398v4e-3zm1.3398 0h-4e-3v5.4312h8e-3v-5.4312h-4e-3zm0 5.4312v4e-3h3.8419v-8e-3h-3.8419v4e-3zm3.8419 0h-4e-3v1.175h8e-3v-1.175h-4e-3zm0 1.175v-4e-3h-5.1817v8e-3h5.1817v-4e-3zm-5.1817 0h4e-3v-6.6062h-8e-3v6.6062h4e-3zm7.6965-2.1683-0.0037 0.0013v1e-4l0.0037-0.0014zm0.3635 0.5875-0.0028 0.0029 0.0028-0.0029zm0.6044 0.3677-0.0013 0.0038 0.0013-0.0038zm1.6695 0 0.0013 0.0038-0.0013-0.0038zm0.6044-0.3677-0.0028-0.0028 0.0028 0.0028zm0.3677-0.5875 0.0038 0.0014v-1e-4l-0.0038-0.0013zm-0.4226 2.0457-0.0013-0.0038 0.0013 0.0038zm-2.7684 0-0.0013 0.0038 0.0013-0.0038zm-1.8809-6.4836v4e-3h1.3399v-8e-3h-1.3399v4e-3zm1.3399 0h-4e-3v3.6391h8e-3v-3.6391h-4e-3zm0 3.6391h-4e-3c0 0.299 0.0409 0.5658 0.1228 0.8001l0.0037-0.0013 0.0038-0.0013c-0.0815-0.2334-0.1223-0.4992-0.1223-0.7975h-4e-3zm0.1225 0.7988-0.0037 0.0014c0.0819 0.2315 0.2033 0.4279 0.3644 0.589l0.0028-0.0029 0.0028-0.0028c-0.1601-0.1602-0.281-0.3555-0.3625-0.586l-0.0038 0.0013zm0.3635 0.5875-0.0028 0.0029c0.1639 0.161 0.3659 0.2839 0.6059 0.3686l0.0013-0.0038 0.0014-0.0037c-0.2391-0.0844-0.44-0.2067-0.603-0.3668l-0.0028 0.0028zm0.6044 0.3677-0.0013 0.0038c0.24 0.0819 0.5194 0.1228 0.8382 0.1228v-8e-3c-0.3181 0-0.5966-0.0408-0.8356-0.1224l-0.0013 0.0038zm0.8369 0.1226v4e-3c0.3159 0 0.5939-0.0409 0.8339-0.1228l-0.0026-0.0076c-0.239 0.0816-0.5161 0.1224-0.8313 0.1224v4e-3zm0.8326-0.1226 0.0013 0.0038c0.2428-0.0847 0.4449-0.2076 0.6059-0.3686l-0.0028-0.0029-0.0028-0.0028c-0.1602 0.1601-0.3611 0.2824-0.6029 0.3668l0.0013 0.0037zm0.6044-0.3677 0.0028 0.0029c0.1639-0.1611 0.2868-0.3575 0.3687-0.589l-0.0038-0.0014-0.0038-0.0013c-0.0815 0.2305-0.2037 0.4258-0.3667 0.586l0.0028 0.0028zm0.3677-0.5875 0.0038 0.0013c0.0819-0.2343 0.1228-0.5011 0.1228-0.8001h-8e-3c0 0.2983-0.0408 0.5641-0.1224 0.7975l0.0038 0.0013zm0.1226-0.7988h4e-3v-3.6391h-8e-3v3.6391h4e-3zm0-3.6391v4e-3h1.3398v-8e-3h-1.3398v4e-3zm1.3398 0h-4e-3v3.7997h8e-3v-3.7997h-4e-3zm0 3.7997h-4e-3c0 0.4335-0.0732 0.8274-0.2195 1.1819l0.0037 0.0016 0.0037 0.0015c0.1468-0.3556 0.2201-0.7506 0.2201-1.185h-4e-3zm-0.2198 1.1835-0.0037-0.0016c-0.1463 0.3545-0.3587 0.6583-0.6372 0.9115l0.0054 6e-3c0.2794-0.254 0.4925-0.5589 0.6392-0.9144l-0.0037-0.0015zm-0.6382 0.9129-0.0027-3e-3c-0.2785 0.2532-0.6203 0.4488-1.0256 0.5867l0.0026 0.0076c0.4062-0.1382 0.749-0.3343 1.0284-0.5883l-0.0027-3e-3zm-1.027 0.5875-0.0013-0.0038c-0.4025 0.1379-0.8627 0.2069-1.3808 0.2069v8e-3c0.5188 0 0.9799-0.0691 1.3834-0.2073l-0.0013-0.0038zm-1.3821 0.2071v-4e-3c-0.5181 0-0.9798-0.069-1.385-0.2069l-0.0026 0.0076c0.4062 0.1382 0.8688 0.2073 1.3876 0.2073v-4e-3zm-1.3863-0.2071 0.0013-0.0038c-0.4025-0.1379-0.743-0.3335-1.0215-0.5867l-0.0054 6e-3c0.2795 0.254 0.6209 0.45 1.0243 0.5883l0.0013-0.0038zm-1.0229-0.5875 0.0027-3e-3c-0.2785-0.2532-0.4909-0.557-0.6372-0.9115l-0.0037 0.0016-0.0037 0.0015c0.1468 0.3555 0.3598 0.6604 0.6392 0.9144l0.0027-3e-3zm-0.6382-0.9129 0.0037-0.0016c-0.1463-0.3545-0.2195-0.7484-0.2195-1.1819h-8e-3c0 0.4344 0.0734 0.8294 0.2201 1.185l0.0037-0.0015zm-0.2198-1.1835h4e-3v-3.7997h-8e-3v3.7997h4e-3zm10.047-0.5494 0.0141 0.0115-0.011-0.014-0.0031 0.0025zm-2.5402-3.2503v0.0065l-0.0031-4e-3 0.0031-0.0025zm1.6399 0 0.0052-4e-3h-0.0052v4e-3zm1.754 2.2739 0.0126-0.0097-0.0094 0.0122-0.0032-0.0025zm1.7625-2.2739v-0.0065l-0.0031 0.0041 0.0031 0.0024zm1.6146 0-5e-3 -4e-3h5e-3v4e-3zm-2.5867 3.2376-0.014-0.0112 0.0109 0.0137 0.0031-0.0025zm2.6754 3.3686v-0.0065l0.0032 4e-3 -0.0032 0.0025zm-1.6441 0-0.0051 4e-3h0.0051v-4e-3zm-1.8808-2.3754-0.0144 0.0114 0.0113-0.0139 0.0031 0.0025zm-1.9231 2.3754v0.0063l0.0031-0.0038-0.0031-0.0025zm-1.6188 0 0.0049 4e-3h-0.0049v-4e-3zm2.7473-3.3559 0.0031-0.0025-2.5401-3.2502-0.0032 0.0024-0.0031 0.0025 2.5401 3.2502 0.0032-0.0024zm-2.5402-3.2503v4e-3h1.6399v-8e-3h-1.6399v4e-3zm1.6399 0-0.0031 0.0025 1.754 2.2739 0.0031-0.0025 0.0032-0.0024-1.754-2.2739-0.0032 0.0024zm1.754 2.2739 0.0032 0.0025 1.7625-2.2739-0.0032-0.0025-0.0031-0.0024-1.7625 2.2739 0.0031 0.0024zm1.7625-2.2739v4e-3h1.6146v-8e-3h-1.6146v4e-3zm1.6146 0-0.0032-0.0025-2.5866 3.2376 0.0062 5e-3 2.5867-3.2376-0.0031-0.0025zm-2.5867 3.2376-0.0031 0.0025 2.6754 3.3685 0.0031-0.0024 0.0032-0.0025-2.6755-3.3686-0.0031 0.0025zm2.6754 3.3686v-4e-3h-1.6441v8e-3h1.6441v-4e-3zm-1.6441 0 0.0031-0.0025-1.8808-2.3754-0.0031 0.0025-0.0032 0.0025 1.8809 2.3753 0.0031-0.0024zm-1.8808-2.3754-0.0031-0.0025-1.9231 2.3753 0.0031 0.0026 0.0031 0.0025 1.9231-2.3754-0.0031-0.0025zm-1.9231 2.3754v-4e-3h-1.6188v8e-3h1.6188v-4e-3zm-1.6188 0 0.0031 0.0025 2.7473-3.3559-0.0031-0.0025-0.0031-0.0026-2.7473 3.3559 0.0031 0.0026zm9.2858-2.1683-0.0038 0.0013v1e-4l0.0038-0.0014zm0.3635 0.5875-0.0029 0.0029h1e-4l0.0028-0.0029zm0.6044 0.3677-0.0014 0.0038h1e-4l0.0013-0.0038zm1.6695 0 0.0012 0.0038h1e-4l-0.0013-0.0038zm0.6043-0.3677-0.0028-0.0028 0.0028 0.0028zm0.3678-0.5875 0.0037 0.0014v-1e-4l-0.0037-0.0013zm-0.4227 2.0457-0.0013-0.0038 0.0013 0.0038zm-2.7684 0-0.0013 0.0038 0.0013-0.0038zm-1.8808-6.4836v4e-3h1.3398v-8e-3h-1.3398v4e-3zm1.3398 0h-4e-3v3.6391h8e-3v-3.6391h-4e-3zm0 3.6391h-4e-3c0 0.299 0.0409 0.5658 0.1228 0.8001l0.0076-0.0026c-0.0816-0.2334-0.1224-0.4992-0.1224-0.7975h-4e-3zm0.1226 0.7988-0.0038 0.0014c0.0819 0.2315 0.2034 0.4279 0.3644 0.589l0.0057-0.0057c-0.1602-0.1602-0.281-0.3555-0.3626-0.586l-0.0037 0.0013zm0.3635 0.5875-0.0028 0.0029c0.1638 0.161 0.3658 0.2839 0.6058 0.3686l0.0014-0.0038 0.0013-0.0037c-0.239-0.0844-0.44-0.2067-0.6029-0.3668l-0.0028 0.0028zm0.6044 0.3677-0.0013 0.0038c0.24 0.0819 0.5194 0.1228 0.8381 0.1228v-8e-3c-0.3181 0-0.5966-0.0408-0.8355-0.1224l-0.0013 0.0038zm0.8368 0.1226v4e-3c0.3159 0 0.5939-0.0409 0.8339-0.1228l-0.0012-0.0038-0.0013-0.0038c-0.239 0.0816-0.5161 0.1224-0.8314 0.1224v4e-3zm0.8327-0.1226 0.0013 0.0038c0.2428-0.0847 0.4448-0.2076 0.6059-0.3686l-0.0057-0.0057c-0.1601 0.1601-0.361 0.2824-0.6029 0.3668l0.0014 0.0037zm0.6043-0.3677 0.0029 0.0029c0.1638-0.1611 0.2867-0.3575 0.3686-0.589l-0.0037-0.0014-0.0038-0.0013c-0.0815 0.2305-0.2038 0.4258-0.3668 0.586l0.0028 0.0028zm0.3678-0.5875 0.0037 0.0013c0.0819-0.2343 0.1228-0.5011 0.1228-0.8001h-8e-3c0 0.2983-0.0408 0.5641-0.1223 0.7975l0.0038 0.0013zm0.1225-0.7988h4e-3v-3.6391h-8e-3v3.6391h4e-3zm0-3.6391v4e-3h1.3399v-8e-3h-1.3399v4e-3zm1.3399 0h-4e-3v3.7997h8e-3v-3.7997h-4e-3zm0 3.7997h-4e-3c0 0.4335-0.0732 0.8274-0.2195 1.1819l0.0037 0.0016 0.0037 0.0015c0.1467-0.3556 0.2201-0.7506 0.2201-1.185h-4e-3zm-0.2198 1.1835-0.0037-0.0016c-0.1463 0.3545-0.3587 0.6583-0.6372 0.9115l0.0027 3e-3 0.0026 3e-3c0.2794-0.254 0.4925-0.5589 0.6393-0.9144l-0.0037-0.0015zm-0.6382 0.9129-0.0027-3e-3c-0.2785 0.2532-0.6204 0.4488-1.0257 0.5867l0.0026 0.0076c0.4062-0.1382 0.749-0.3343 1.0284-0.5883l-0.0026-3e-3zm-1.0271 0.5875-0.0013-0.0038c-0.4024 0.1379-0.8627 0.2069-1.3808 0.2069v8e-3c0.5188 0 0.98-0.0691 1.3834-0.2073l-0.0013-0.0038zm-1.3821 0.2071v-4e-3c-0.5181 0-0.9797-0.069-1.385-0.2069l-0.0026 0.0076c0.4063 0.1382 0.8688 0.2073 1.3876 0.2073v-4e-3zm-1.3863-0.2071 0.0013-0.0038c-0.4025-0.1379-0.7429-0.3335-1.0214-0.5867l-0.0054 6e-3c0.2794 0.254 0.6208 0.45 1.0242 0.5883l0.0013-0.0038zm-1.0228-0.5875 0.0027-3e-3c-0.2785-0.2532-0.4909-0.557-0.6372-0.9115l-0.0037 0.0016-0.0037 0.0015c0.1467 0.3555 0.3598 0.6604 0.6392 0.9144l0.0027-3e-3zm-0.6382-0.9129 0.0037-0.0016c-0.1463-0.3545-0.2195-0.7484-0.2195-1.1819h-8e-3c0 0.4344 0.0733 0.8294 0.2201 1.185l0.0037-0.0015zm-0.2198-1.1835h4e-3v-3.7997h-8e-3v3.7997h4e-3zm12.849-3.6391-0.0011 0.0039h1e-4l1e-3 -0.0039zm1.4709 1.1877-0.0037 0.0015v1e-4l0.0037-0.0016zm0.093 1.678 0.0038 1e-3 -0.0038-1e-3zm-0.2748 0.6086-0.0033-0.0022 0.0033 0.0022zm-0.4607 0.4987 0.0025 0.0032-0.0025-0.0032zm-0.6551 0.3593 0.0062 0.0162-0.0095-0.014 0.0033-0.0022zm1.4371 2.1133v-0.0072l0.0033 0.0049-0.0033 0.0023zm-1.6399 0-0.0061 4e-3h0.0061v-4e-3zm-1.2427-1.8766 0.0061-4e-3h-0.0061v4e-3zm-0.038 0v4e-3 -4e-3zm-2.0287-0.0043-4e-3 1.92v-1.92h4e-3zm2.7176-1.2468-0.0011-0.0038h-1e-4l0.0012 0.0038zm0.4776-0.2494-0.0025-0.0031v1e-4l0.0025 3e-3zm0.2874-0.3888-0.0036-0.0016-1e-4 1e-4 0.0037 0.0015zm-0.2831-1.3694-0.0025 0.0031 0.0025-0.0031zm-4.5394-1.4709v4e-3h3.3601v-8e-3h-3.3601v4e-3zm3.3601 0v4e-3c0.507 0 0.9461 0.0535 1.3176 0.1605l0.0011-0.0039 0.0011-0.0038c-0.3723-0.1072-0.8123-0.1608-1.3198-0.1608v4e-3zm1.3187 0.1606-1e-3 0.0039c0.3715 0.1041 0.6795 0.2561 0.9241 0.4557l0.0026-0.0031 0.0025-0.0031c-0.2457-0.2005-0.5547-0.3528-0.9271-0.4572l-0.0011 0.0038zm0.9257 0.4565-0.0026 0.0031c0.2447 0.1997 0.426 0.4429 0.5441 0.7296l0.0074-3e-3c-0.1186-0.288-0.3008-0.5323-0.5464-0.7328l-0.0025 0.0031zm0.5452 0.7312-0.0037 0.0016c0.1209 0.2868 0.1814 0.6117 0.1814 0.9747h8e-3c0-0.3639-0.0606-0.6899-0.182-0.9778l-0.0037 0.0015zm0.1817 0.9763h-4e-3c0 0.2449-0.0295 0.4784-0.0886 0.7006l0.0039 0.0011 0.0038 1e-3c0.0593-0.223 0.0889-0.4572 0.0889-0.7027h-4e-3zm-0.0887 0.7017-0.0039-0.0011c-0.0591 0.2194-0.1505 0.4219-0.2742 0.6075l0.0033 0.0022 0.0034 0.0022c0.1242-0.1863 0.2159-0.3896 0.2752-0.6098l-0.0038-1e-3zm-0.2748 0.6086-0.0033-0.0022c-0.1209 0.1856-0.2742 0.3515-0.4598 0.4978l0.0024 0.0031 0.0025 0.0032c0.1863-0.1468 0.3402-0.3134 0.4616-0.4997l-0.0034-0.0022zm-0.4607 0.4987-0.0024-0.0031c-0.1856 0.1434-0.4036 0.263-0.6541 0.3586l0.0014 0.0038 0.0015 0.0037c0.251-0.0959 0.4698-0.2158 0.6561-0.3598l-0.0025-0.0032zm-0.6551 0.3593-0.0033 0.0022 1.437 2.1133 0.0034-0.0022 0.0033-0.0023-1.4371-2.1133-0.0033 0.0023zm1.4371 2.1133v-4e-3h-1.6399v8e-3h1.6399v-4e-3zm-1.6399 0 0.0033-0.0023-1.2426-1.8765-0.0034 0.0022-0.0033 0.0022 1.2426 1.8766 0.0034-0.0022zm-1.2427-1.8766v-4e-3h-0.038v8e-3h0.038v-4e-3zm-0.038 0v-4e-3l-2.0287-0.0043v4e-3l-1e-4 4e-3 2.0288 0.0043v-4e-3zm-2.0287-0.0043h-4e-3v1.8809h8e-3v-1.8809h-4e-3zm0 1.8809v-4e-3h-1.3399v8e-3h1.3399v-4e-3zm-1.3399 0h4e-3v-6.6062h-8e-3v6.6062h4e-3zm3.394-3.0389v4e-3c0.2539 0 0.4755-0.0297 0.6647-0.089l-0.0024-0.0076c-0.1883 0.059-0.409 0.0886-0.6623 0.0886v4e-3zm0.6635-0.0888 0.0012 0.0038c0.192-0.0593 0.3517-0.1426 0.479-0.2501l-0.0026-0.0031-0.0025-3e-3c-0.1264 0.1066-0.2851 0.1895-0.4762 0.2486l0.0011 0.0038zm0.4776-0.2494 0.0026 0.0031c0.1301-0.1075 0.2263-0.2376 0.2885-0.3904l-0.0074-3e-3c-0.0617 0.1515-0.1571 0.2806-0.2862 0.3872l0.0025 0.0031zm0.2874-0.3888 0.0037 0.0015c0.0651-0.1555 0.0976-0.3279 0.0976-0.5172h-8e-3c0 0.1884-0.0324 0.3597-0.0969 0.5141l0.0036 0.0016zm0.0973-0.5157h4e-3c0-0.3701-0.1273-0.6559-0.382-0.8569l-0.0024 0.0032-0.0025 0.0031c0.2525 0.1992 0.3789 0.4826 0.3789 0.8506h4e-3zm-0.3804-0.8537 0.0025-0.0031c-0.2546-0.2037-0.6375-0.3052-1.1479-0.3052v8e-3c0.5095 0 0.8903 0.1013 1.1429 0.3034l0.0025-0.0031zm-1.1454-0.3043v-4e-3h-2.0541v8e-3h2.0541v-4e-3zm-2.0541 0h-4e-3v2.4007h8e-3v-2.4007h-4e-3zm0 2.4007v4e-3h2.0541v-8e-3h-2.0541v4e-3zm8.6052 1.4032h0.0047l-0.0012-2e-3 -0.0035 2e-3zm-2.8867-4.9705v8e-3l-0.0035-6e-3 0.0035-2e-3zm1.5173 0 0.0074-4e-3h-0.0074v4e-3zm2.033 3.7575 0.0064-0.0035-0.0029 0.0053-0.0035-0.0018zm2.0076-3.7575v-0.0084l-0.0035 0.0066 0.0035 0.0018zm1.5174 0-7e-3 -4e-3h7e-3v4e-3zm-2.8487 4.962-4e-3 -0.0023v0.0023h4e-3zm-1.3399 0.0085 0.0035-2e-3 -2.8867-4.9705-7e-3 4e-3 2.8868 4.9705 0.0034-2e-3zm-2.8867-4.9705v4e-3h1.5173v-8e-3h-1.5173v4e-3zm1.5173 0-0.0035 0.0019 2.033 3.7575 7e-3 -0.0038-2.033-3.7575-0.0035 0.0019zm2.033 3.7575 0.0035 0.0018 2.0076-3.7574-0.0035-0.0019-0.0035-0.0018-2.0076 3.7574 0.0035 0.0019zm2.0076-3.7575v4e-3h1.5174v-8e-3h-1.5174v4e-3zm1.5174 0-0.0035-2e-3 -2.8487 4.962 0.0035 2e-3 0.0034 2e-3 2.8487-4.962-0.0034-2e-3zm-2.8487 4.962h-4e-3v1.6442h8e-3v-1.6442h-4e-3zm0 1.6442v-4e-3h-1.3399v8e-3h1.3399v-4e-3zm-1.3399 0h4e-3v-1.6357h-8e-3v1.6357h4e-3zm12.756-6.4456-0.0011 0.0039 0.0011-0.0039zm1.4708 1.1877-0.0037 0.0015 1e-4 1e-4 0.0036-0.0016zm0.093 1.678 0.0039 1e-3 -0.0039-1e-3zm-0.2747 0.6086-0.0033-0.0022h-1e-4l0.0034 0.0022zm-0.4607 0.4987 0.0024 0.0032h1e-4l-0.0025-0.0032zm-0.6551 0.3593 0.0062 0.0162-0.0095-0.014 0.0033-0.0022zm1.437 2.1133v-0.0072l0.0033 0.0049-0.0033 0.0023zm-1.6399 0-6e-3 4e-3h6e-3v-4e-3zm-1.2426-1.8766 6e-3 -4e-3h-6e-3v4e-3zm-0.038 0v4e-3 -4e-3zm-2.0288-0.0043-4e-3 1.92v-1.92h4e-3zm2.7177-1.2468-0.0012-0.0038 0.0012 0.0038zm0.4776-0.2494-0.0026-0.0031v1e-4l0.0026 3e-3zm0.2874-0.3888-0.0037-0.0016v1e-4l0.0037 0.0015zm-0.2832-1.3694-0.0025 0.0031 0.0025-0.0031zm-4.5393-1.4709v4e-3h3.3601v-8e-3h-3.3601v4e-3zm3.3601 0v4e-3c0.5069 0 0.9461 0.0535 1.3176 0.1605l0.0011-0.0039 0.0011-0.0038c-0.3724-0.1072-0.8123-0.1608-1.3198-0.1608v4e-3zm1.3187 0.1606-0.0011 0.0039c0.3715 0.1041 0.6796 0.2561 0.9242 0.4557l5e-3 -0.0062c-0.2456-0.2005-0.5547-0.3528-0.927-0.4572l-0.0011 0.0038zm0.9256 0.4565-0.0025 0.0031c0.2446 0.1997 0.426 0.4429 0.544 0.7296l0.0074-3e-3c-0.1186-0.288-0.3007-0.5323-0.5464-0.7328l-0.0025 0.0031zm0.5452 0.7312-0.0036 0.0016c0.1209 0.2868 0.1814 0.6117 0.1814 0.9747h8e-3c0-0.3639-0.0607-0.6899-0.1821-0.9778l-0.0037 0.0015zm0.1818 0.9763h-4e-3c0 0.2449-0.0296 0.4784-0.0886 0.7006l0.0038 0.0011 0.0039 1e-3c0.0593-0.223 0.0889-0.4572 0.0889-0.7027h-4e-3zm-0.0888 0.7017-0.0038-0.0011c-0.0591 0.2194-0.1505 0.4219-0.2742 0.6075l0.0066 0.0044c0.1243-0.1863 0.216-0.3896 0.2753-0.6098l-0.0039-1e-3zm-0.2747 0.6086-0.0034-0.0022c-0.1209 0.1856-0.2741 0.3515-0.4598 0.4978l0.0025 0.0031 0.0025 0.0032c0.1863-0.1468 0.3401-0.3134 0.4615-0.4997l-0.0033-0.0022zm-0.4607 0.4987-0.0024-0.0031c-0.1857 0.1434-0.4037 0.263-0.6541 0.3586l0.0014 0.0038 0.0014 0.0037c0.2511-0.0959 0.4698-0.2158 0.6561-0.3598l-0.0024-0.0032zm-0.6551 0.3593-0.0033 0.0022 1.437 2.1133 0.0033-0.0022 0.0033-0.0023-1.437-2.1133-0.0033 0.0023zm1.437 2.1133v-4e-3h-1.6399v8e-3h1.6399v-4e-3zm-1.6399 0 0.0033-0.0023-1.2426-1.8765-0.0066 0.0044 1.2426 1.8766 0.0033-0.0022zm-1.2426-1.8766v-4e-3h-0.038v8e-3h0.038v-4e-3zm-0.038 0v-4e-3l-2.0288-0.0043v4e-3 4e-3l2.0288 0.0043v-4e-3zm-2.0288-0.0043h-4e-3v1.8809h8e-3v-1.8809h-4e-3zm0 1.8809v-4e-3h-1.3398v8e-3h1.3398v-4e-3zm-1.3398 0h4e-3v-6.6062h-8e-3v6.6062h4e-3zm3.3939-3.0389v4e-3c0.2539 0 0.4755-0.0297 0.6648-0.089l-0.0024-0.0076c-0.1883 0.059-0.4091 0.0886-0.6624 0.0886v4e-3zm0.6636-0.0888 0.0012 0.0038c0.192-0.0593 0.3517-0.1426 0.479-0.2501l-0.0026-0.0031-0.0026-3e-3c-0.1263 0.1066-0.285 0.1895-0.4762 0.2486l0.0012 0.0038zm0.4776-0.2494 0.0025 0.0031c0.1302-0.1075 0.2264-0.2376 0.2886-0.3904l-0.0074-3e-3c-0.0617 0.1515-0.1571 0.2806-0.2863 0.3872l0.0026 0.0031zm0.2874-0.3888 0.0037 0.0015c0.065-0.1555 0.0975-0.3279 0.0975-0.5172h-8e-3c0 0.1884-0.0323 0.3597-0.0969 0.5141l0.0037 0.0016zm0.0972-0.5157h4e-3c0-0.3701-0.1272-0.6559-0.3819-0.8569l-0.0025 0.0032-0.0025 0.0031c0.2525 0.1992 0.3789 0.4826 0.3789 0.8506h4e-3zm-0.3804-0.8537 0.0025-0.0031c-0.2546-0.2037-0.6375-0.3052-1.1479-0.3052v8e-3c0.5096 0 0.8903 0.1013 1.1429 0.3034l0.0025-0.0031zm-1.1454-0.3043v-4e-3h-2.0541v8e-3h2.0541v-4e-3zm-2.0541 0h-4e-3v2.4007h8e-3v-2.4007h-4e-3zm0 2.4007v4e-3h2.0541v-8e-3h-2.0541v4e-3zm6.5808-3.5673v4e-3h5.6255v-8e-3h-5.6255v4e-3zm5.6255 0h-4e-3v1.175h8e-3v-1.175h-4e-3zm0 1.175v-4e-3h-4.2857v8e-3h4.2857v-4e-3zm-4.2857 0h-4e-3v1.3187h8e-3v-1.3187h-4e-3zm0 1.3187v4e-3h3.7954v-8e-3h-3.7954v4e-3zm3.7954 0h-4e-3v1.1031h8e-3v-1.1031h-4e-3zm0 1.1031v-4e-3h-3.7954v8e-3h3.7954v-4e-3zm-3.7954 0h-4e-3v1.8386h8e-3v-1.8386h-4e-3zm0 1.8386v4e-3h4.3745v-8e-3h-4.3745v4e-3zm4.3745 0h-4e-3v1.1708h8e-3v-1.1708h-4e-3zm0 1.1708v-4e-3h-5.7143v8e-3h5.7143v-4e-3zm-5.7143 0h4e-3v-6.6062h-8e-3v6.6062h4e-3zm7.5106-1.9654 0.0291-0.0515-0.0325 0.0493 0.0034 0.0022zm0.7274 0.3677-2e-3 0.0037 2e-3 -0.0037zm0.769 0.2747-1e-3 0.0039 1e-3 -0.0039zm0.832 0.1691v4e-3 -4e-3zm1.949-0.0169 1e-3 0.0039-1e-3 -0.0039zm0.68-0.2156 2e-3 0.0036-2e-3 -0.0036zm0.385-0.3296-3e-3 -0.0022v1e-4l3e-3 0.0021zm-0.178-0.9806-2e-3 0.0033 2e-3 -0.0033zm-1.504-0.1733v4e-3 -4e-3zm-0.617 0.0761-1e-3 -4e-3 1e-3 4e-3zm-0.613 0.0803v4e-3 -4e-3zm-1.42-0.0803-1e-3 0.0038v1e-4l1e-3 -0.0039zm-0.723-0.3424-2e-3 0.0033 2e-3 -0.0033zm-0.6129-1.9061-0.0038-0.0011 0.0038 0.0011zm0.2367-0.5072-0.0033-0.0023v1e-4l0.0033 0.0022zm0.4222-0.4523 3e-3 0.0032v-1e-4l-3e-3 -0.0031zm0.622-0.3634-2e-3 -0.0037 2e-3 0.0037zm0.845-0.2367 1e-3 0.0039-1e-3 -0.0039zm1.987-0.0381-1e-3 4e-3 1e-3 -4e-3zm0.87 0.1353-1e-3 0.0039 1e-3 -0.0039zm0.82 0.2155-1e-3 0.0038v1e-4l1e-3 -0.0039zm0.731 0.2748-0.047-0.0257 0.049 0.022-2e-3 0.0037zm-0.587 1.082-0.019 0.0439 0.022-0.042-3e-3 -0.0019zm-0.6-0.224-2e-3 0.0038h1e-3l1e-3 -0.0038zm-1.399-0.3001-1e-3 0.0039 1e-3 -0.0039zm-1.674 0.0338-1e-3 -0.0039 1e-3 0.0039zm-0.566 0.2071 2e-3 0.0034-2e-3 -0.0034zm-0.296 0.2789-4e-3 -0.0019v1e-4l4e-3 0.0018zm0.186 0.7904-3e-3 0.0033 3e-3 -0.0033zm1.314 0.1564 1e-3 4e-3 -1e-3 -4e-3zm0.6-0.0719v-0.0039 0.0039zm0.643-0.0676v4e-3 -4e-3zm1.669 0.0972-1e-3 0.0039 1e-3 -0.0039zm0.757 0.3762-3e-3 0.0031 3e-3 -0.0031zm0.461 0.5875-4e-3 0.0016 4e-3 -0.0016zm-0.11 1.7878-4e-3 -2e-3 4e-3 2e-3zm-0.753 0.7523 2e-3 0.0034-2e-3 -0.0034zm-1.175 0.465 1e-3 0.0039-1e-3 -0.0039zm-2.624 0.0845v-4e-3 4e-3zm-1.023-0.1944-1e-3 0.0038 1e-3 -0.0038zm-0.93-0.3086-2e-3 0.0037h1e-3l1e-3 -0.0037zm-0.8157-0.3973 0.0545 0.0359-0.0565-0.0324 2e-3 -0.0035zm0.7143-1.0862-2e-3 0.0035c0.2394 0.1353 0.4824 0.2579 0.7274 0.3679l2e-3 -0.0037 1e-3 -0.0036c-0.245-0.1099-0.487-0.2324-0.7265-0.3676l-0.0019 0.0035zm0.7274 0.3677-2e-3 0.0037c0.248 0.1071 0.505 0.1988 0.77 0.2749l1e-3 -0.0039 1e-3 -0.0038c-0.265-0.076-0.521-0.1676-0.769-0.2746l-1e-3 0.0037zm0.769 0.2747-1e-3 0.0039c0.265 0.0733 0.542 0.1297 0.833 0.1692v-4e-3l1e-3 -4e-3c-0.29-0.0394-0.567-0.0957-0.832-0.1689l-1e-3 0.0038zm0.832 0.1691v4e-3c0.293 0.0394 0.605 0.0592 0.934 0.0592v-8e-3c-0.329 0-0.64-0.0197-0.933-0.0592l-1e-3 4e-3zm0.934 0.0592v4e-3c0.398 0 0.736-0.0254 1.016-0.0762l-2e-3 -0.0078c-0.279 0.0506-0.616 0.076-1.014 0.076v4e-3zm1.015-0.0761 1e-3 0.0039c0.279-0.0536 0.506-0.1255 0.681-0.2159l-2e-3 -0.0036-2e-3 -0.0035c-0.174 0.0899-0.4 0.1617-0.679 0.2152l1e-3 0.0039zm0.68-0.2156 2e-3 0.0036c0.178-0.0932 0.307-0.2035 0.386-0.3311l-6e-3 -0.0042c-0.079 0.126-0.206 0.2354-0.384 0.3282l2e-3 0.0035zm0.385-0.3296 3e-3 0.0021c0.082-0.1274 0.124-0.2662 0.124-0.4163h-8e-3c0 0.1485-0.041 0.2858-0.122 0.412l3e-3 0.0022zm0.123-0.4142h4e-3c0-0.2409-0.101-0.4309-0.302-0.5697l-3e-3 0.0033-2e-3 0.0033c0.199 0.1373 0.299 0.3249 0.299 0.5631h4e-3zm-0.301-0.5664 3e-3 -0.0033c-0.201-0.1416-0.511-0.212-0.928-0.212v8e-3c0.417 0 0.724 0.0704 0.923 0.2106l2e-3 -0.0033zm-0.925-0.2113v-4e-3c-0.184 0-0.377 0.0127-0.58 0.0381l1e-3 0.0039v4e-3c0.203-0.0254 0.396-0.038 0.579-0.038v-4e-3zm-0.579 0.038-1e-3 -4e-3c-0.203 0.0226-0.408 0.048-0.617 0.0761l1e-3 4e-3v4e-3c0.209-0.0282 0.414-0.0536 0.617-0.0761v-4e-3zm-0.617 0.0761-1e-3 -4e-3c-0.206 0.0282-0.41 0.055-0.613 0.0803l1e-3 4e-3v4e-3c0.203-0.0254 0.408-0.0522 0.613-0.0803v-4e-3zm-0.613 0.0803-1e-3 -4e-3c-0.2 0.0226-0.388 0.0338-0.566 0.0338v8e-3c0.178 0 0.367-0.0113 0.567-0.0338v-4e-3zm-0.567 0.0338v-4e-3c-0.295 0-0.579-0.038-0.852-0.114l-2e-3 0.0078c0.273 0.0761 0.558 0.1142 0.854 0.1142v-4e-3zm-0.853-0.1141 1e-3 -0.0039c-0.27-0.0759-0.511-0.1898-0.722-0.3417l-2e-3 0.0032-2e-3 0.0033c0.211 0.1524 0.453 0.2668 0.724 0.3429l1e-3 -0.0038zm-0.723-0.3424 2e-3 -0.0032c-0.2077-0.1518-0.3735-0.3415-0.4972-0.5692l-0.0036 0.0019-0.0035 0.0019c0.1243 0.2287 0.2909 0.4194 0.5003 0.5719l2e-3 -0.0033zm-0.4988-0.5705 0.0036-0.0019c-0.1236-0.2276-0.1855-0.4932-0.1855-0.797h-8e-3c0 0.3049 0.0621 0.5719 0.1864 0.8008l0.0035-0.0019zm-0.1859-0.7989h4e-3c0-0.1799 0.0239-0.3585 0.0717-0.5357l-0.0039-1e-3 -0.0038-0.0011c-0.048 0.1779-0.072 0.3571-0.072 0.5378h4e-3zm0.0718-0.5367 0.0039 0.0011c0.0506-0.1771 0.1293-0.3458 0.2361-0.5061l-0.0066-0.0044c-0.1073 0.1609-0.1864 0.3303-0.2372 0.5083l0.0038 0.0011zm0.2367-0.5072 0.0033 0.0022c0.1097-0.163 0.2499-0.3135 0.4219-0.4513l-3e-3 -0.0032-2e-3 -0.0031c-0.172 0.1383-0.3134 0.2893-0.4235 0.4531l0.0033 0.0023zm0.4222-0.4523 3e-3 0.0031c0.172-0.1406 0.378-0.2615 0.62-0.3629l-1e-3 -0.0036-2e-3 -0.0037c-0.242 0.1015-0.45 0.2229-0.622 0.364l2e-3 0.0031zm0.622-0.3634 1e-3 0.0036c0.245-0.1013 0.527-0.1801 0.845-0.2364l-1e-3 -0.0039-1e-3 -4e-3c-0.318 0.0564-0.6 0.1354-0.846 0.237l2e-3 0.0037zm0.845-0.2367 1e-3 0.0039c0.321-0.0591 0.685-0.0887 1.094-0.0887v-8e-3c-0.409 0-0.774 0.0296-1.096 0.0888l1e-3 4e-3zm1.095-0.0888v4e-3c0.295 0 0.593 0.0169 0.891 0.0507l1e-3 -4e-3v-0.0039c-0.299-0.0339-0.596-0.0508-0.892-0.0508v4e-3zm0.892 0.0507-1e-3 4e-3c0.299 0.031 0.589 0.076 0.87 0.1352l2e-3 -0.0078c-0.282-0.0592-0.572-0.1043-0.871-0.1354v4e-3zm0.87 0.1353-1e-3 0.0039c0.285 0.0591 0.558 0.131 0.82 0.2154l2e-3 -0.0076c-0.262-0.0846-0.535-0.1564-0.82-0.2156l-1e-3 0.0039zm0.82 0.2155-1e-3 0.0039c0.262 0.0816 0.505 0.1731 0.731 0.2745l1e-3 -0.0036 2e-3 -0.0037c-0.226-0.1015-0.469-0.1931-0.732-0.2749l-1e-3 0.0038zm0.731 0.2748-3e-3 -2e-3 -0.588 1.082 4e-3 2e-3 3e-3 0.0019 0.588-1.082-4e-3 -0.0019zm-0.587 1.082 2e-3 -0.0037c-0.187-0.0818-0.387-0.1565-0.601-0.2242l-1e-3 0.0039-1e-3 0.0038c0.214 0.0676 0.413 0.1422 0.599 0.2238l2e-3 -0.0036zm-0.6-0.224 1e-3 -0.0038c-0.214-0.0705-0.438-0.1312-0.672-0.1819l-2e-3 0.0078c0.234 0.0507 0.457 0.1113 0.671 0.1816l2e-3 -0.0037zm-0.672-0.1818 1e-3 -0.0039c-0.234-0.0507-0.477-0.0902-0.728-0.1184v4e-3l-1e-3 0.0039c0.251 0.0282 0.493 0.0676 0.727 0.1183l1e-3 -0.0039zm-0.727-0.1183v-4e-3c-0.248-0.031-0.502-0.0465-0.761-0.0465v8e-3c0.259 0 0.512 0.0155 0.76 0.0464l1e-3 -0.0039zm-0.761-0.0465v-4e-3c-0.369 0-0.674 0.0267-0.914 0.0804l2e-3 0.0078c0.239-0.0535 0.543-0.0802 0.912-0.0802v-4e-3zm-0.913 0.0803-1e-3 -0.0039c-0.237 0.0536-0.426 0.1227-0.567 0.2075l2e-3 0.0035 2e-3 0.0034c0.14-0.0842 0.328-0.1531 0.565-0.2066l-1e-3 -0.0039zm-0.566 0.2071-2e-3 -0.0035c-0.142 0.082-0.241 0.1754-0.298 0.2805l4e-3 0.0019 3e-3 0.0019c0.056-0.1034 0.154-0.1959 0.295-0.2774l-2e-3 -0.0034zm-0.296 0.2789-4e-3 -0.0018c-0.054 0.1019-0.081 0.204-0.081 0.3061h8e-3c0-0.1007 0.027-0.2015 0.08-0.3024l-3e-3 -0.0019zm-0.081 0.3043h-4e-3c0 0.1987 0.09 0.3619 0.268 0.4894l3e-3 -0.0033 2e-3 -0.0033c-0.176-0.1261-0.265-0.287-0.265-0.4828h-4e-3zm0.267 0.4861-3e-3 0.0033c0.179 0.1246 0.45 0.1867 0.814 0.1867v-8e-3c-0.363 0-0.632-0.062-0.809-0.1853l-2e-3 0.0033zm0.811 0.186v4e-3c0.147 0 0.315-0.0099 0.504-0.0296l-1e-3 -4e-3v-4e-3c-0.189 0.0197-0.356 0.0296-0.503 0.0296v4e-3zm0.503-0.0296 1e-3 4e-3c0.191-0.0226 0.391-0.0465 0.6-0.0719l-1e-3 -4e-3v-0.0039c-0.209 0.0253-0.409 0.0493-0.6 0.0718v4e-3zm0.6-0.0719 1e-3 4e-3c0.211-0.0254 0.425-0.0479 0.642-0.0676v-4e-3l-1e-3 -4e-3c-0.217 0.0197-0.431 0.0423-0.642 0.0677v0.0039zm0.643-0.0676v4e-3c0.22-0.0225 0.433-0.0338 0.638-0.0338v-8e-3c-0.206 0-0.419 0.0113-0.639 0.0338l1e-3 4e-3zm0.638-0.0338v4e-3c0.389 0 0.732 0.0436 1.03 0.1309l1e-3 -0.0039 1e-3 -0.0038c-0.299-0.0875-0.643-0.1312-1.032-0.1312v4e-3zm1.031 0.131-1e-3 0.0039c0.301 0.0872 0.553 0.2124 0.755 0.3754l3e-3 -0.0031 2e-3 -0.0031c-0.203-0.1639-0.456-0.2895-0.758-0.3769l-1e-3 0.0038zm0.757 0.3762-3e-3 0.0031c0.203 0.1602 0.356 0.3556 0.46 0.586l4e-3 -0.0016 3e-3 -0.0017c-0.104-0.2316-0.258-0.428-0.462-0.589l-2e-3 0.0032zm0.461 0.5875-4e-3 0.0016c0.104 0.2277 0.156 0.4835 0.156 0.7676h8e-3c0-0.2851-0.052-0.5421-0.157-0.7709l-3e-3 0.0017zm0.156 0.7692h-4e-3c0 0.3797-0.089 0.7186-0.266 1.0166l4e-3 2e-3 3e-3 0.0021c0.178-0.2994 0.267-0.6397 0.267-1.0207h-4e-3zm-0.266 1.0186-4e-3 -2e-3c-0.174 0.2952-0.424 0.5456-0.751 0.751l2e-3 0.0033 2e-3 0.0034c0.328-0.206 0.579-0.4572 0.754-0.7537l-3e-3 -2e-3zm-0.753 0.7523-2e-3 -0.0034c-0.323 0.2026-0.715 0.3575-1.174 0.4645l2e-3 0.0078c0.46-0.1072 0.852-0.2623 1.176-0.4655l-2e-3 -0.0034zm-1.175 0.465-1e-3 -0.0039c-0.458 0.1041-0.97 0.1562-1.533 0.1562v8e-3c0.564 0 1.076-0.0521 1.535-0.1564l-1e-3 -0.0039zm-1.534 0.1563v-4e-3c-0.372 0-0.735-0.0239-1.09-0.0718v4e-3l-1e-3 4e-3c0.355 0.0479 0.719 0.0718 1.091 0.0718v-4e-3zm-1.09-0.0718v-4e-3c-0.355-0.045-0.695-0.1098-1.022-0.1943l-1e-3 0.0039-1e-3 0.0038c0.327 0.0846 0.668 0.1495 1.023 0.1946l1e-3 -4e-3zm-1.023-0.1944 1e-3 -0.0039c-0.324-0.0873-0.634-0.1901-0.929-0.3084l-2e-3 0.0037-1e-3 0.0037c0.296 0.1184 0.606 0.2213 0.93 0.3087l1e-3 -0.0038zm-0.93-0.3086 2e-3 -0.0037c-0.2934-0.1211-0.5651-0.2534-0.8157-0.397l-2e-3 0.0034-2e-3 0.0035c0.2509 0.1438 0.523 0.2763 0.8157 0.3975l2e-3 -0.0037zm-0.8157-0.3973 0.0033 0.0022 0.7143-1.0862-0.0033-0.0022-0.0034-0.0022-0.7143 1.0862 0.0034 0.0022zm8.8927-5.727v4e-3h1.348v-8e-3h-1.348v4e-3zm1.348 0h-4e-3v6.6062h8e-3v-6.6062h-4e-3zm0 6.6062v-4e-3h-1.348v8e-3h1.348v-4e-3zm-1.348 0h4e-3v-6.6062h-8e-3v6.6062h4e-3zm8.618-5.7228-3e-3 0.0031 3e-3 -0.0031zm0.765 1.0313-4e-3 0.0015 4e-3 -0.0015zm4e-3 2.6923 4e-3 0.0015-4e-3 -0.0015zm-0.761 1.0566 3e-3 0.0031v-1e-4l-3e-3 -3e-3zm-1.293 0.6974 1e-3 0.0038-1e-3 -0.0038zm-1.843 0.2494v4e-3 -4e-3zm-2.43-0.0042h-2.3l2.3 4e-3v-4e-3zm3.804-1.3103 1e-3 0.0038-1e-3 -0.0038zm0.752-0.4395-2e-3 -3e-3 -1e-3 1e-4 3e-3 0.0029zm0.457-2.4557-4e-3 0.0015 4e-3 -0.0015zm-0.457-0.6635-2e-3 0.0029 2e-3 -0.0029zm-4.556-1.7372v4e-3h2.422v-8e-3h-2.422v4e-3zm2.422 0v4e-3c0.707 0 1.321 0.0761 1.841 0.2281l2e-3 -0.0038 1e-3 -0.0039c-0.522-0.1523-1.137-0.2284-1.844-0.2284v4e-3zm1.843 0.2283-2e-3 0.0038c0.521 0.152 0.952 0.3702 1.292 0.6544l3e-3 -0.0031 2e-3 -0.0031c-0.341-0.285-0.773-0.5036-1.294-0.6559l-1e-3 0.0039zm1.293 0.6551-3e-3 0.0031c0.344 0.2813 0.598 0.6246 0.764 1.0297l8e-3 -3e-3c-0.167-0.4064-0.422-0.7507-0.767-1.0329l-2e-3 0.0031zm0.765 1.0313-4e-3 0.0015c0.169 0.4024 0.254 0.8555 0.254 1.3594h8e-3c0-0.5048-0.085-0.959-0.254-1.3625l-4e-3 0.0016zm0.254 1.3609h-4e-3c0 0.4786-0.084 0.9218-0.25 1.3299l8e-3 3e-3c0.166-0.4091 0.25-0.8534 0.25-1.3329h-4e-3zm-0.25 1.3314-4e-3 -0.0015c-0.166 0.4051-0.419 0.7568-0.759 1.0551l2e-3 3e-3 3e-3 3e-3c0.341-0.299 0.595-0.6517 0.762-1.0581l-4e-3 -0.0015zm-0.761 1.0566-2e-3 -3e-3c-0.341 0.2955-0.771 0.5277-1.292 0.6966l2e-3 0.0076c0.522-0.1692 0.954-0.4019 1.295-0.6981l-3e-3 -0.0031zm-1.293 0.6974-1e-3 -0.0038c-0.521 0.1661-1.135 0.2492-1.842 0.2492v8e-3c0.708 0 1.323-0.0832 1.844-0.2496l-1e-3 -0.0038zm-1.843 0.2494v-4e-3l-2.43-0.0042v4e-3 4e-3l2.43 0.0042v-4e-3zm-2.43-0.0042h4e-3v-6.6062h-8e-3v6.6062h4e-3zm2.751-1.1581v4e-3c0.401 0 0.752-0.0508 1.054-0.1524l-2e-3 -0.0076c-0.301 0.1013-0.652 0.152-1.052 0.152v4e-3zm1.053-0.1522 1e-3 0.0038c0.302-0.1044 0.553-0.2512 0.754-0.4404l-6e-3 -0.0058c-0.199 0.1883-0.449 0.3345-0.75 0.4386l1e-3 0.0038zm0.752-0.4395 3e-3 0.0029c0.203-0.1892 0.356-0.418 0.457-0.6862l-3e-3 -0.0014-4e-3 -0.0015c-0.101 0.2672-0.253 0.4949-0.455 0.6832l2e-3 3e-3zm0.457-0.6847 3e-3 0.0014c0.102-0.2682 0.153-0.5674 0.153-0.8975h-8e-3c0 0.3293-0.051 0.6275-0.152 0.8946l4e-3 0.0015zm0.152-0.8961h4e-3c0-0.3244-0.051-0.6166-0.153-0.8763l-3e-3 0.0014-4e-3 0.0015c0.101 0.2587 0.152 0.5498 0.152 0.8734h4e-3zm-0.152-0.8749 3e-3 -0.0014c-0.101-0.2626-0.254-0.4844-0.457-0.6651l-3e-3 3e-3 -2e-3 0.0029c0.202 0.1799 0.354 0.4006 0.455 0.6621l4e-3 -0.0015zm-0.457-0.6635 3e-3 -3e-3c-0.201-0.1836-0.452-0.3247-0.754-0.4235l-2e-3 0.0076c0.301 0.0985 0.551 0.2391 0.751 0.4218l2e-3 -0.0029zm-0.752-0.4227 1e-3 -0.0038c-0.302-0.0988-0.653-0.1481-1.054-0.1481v8e-3c0.4 0 0.751 0.0492 1.052 0.1477l1e-3 -0.0038zm-1.053-0.1479v-4e-3h-1.411v8e-3h1.411v-4e-3zm-1.411 0h-4e-3v4.2815h8e-3v-4.2815h-4e-3zm0 4.2815v4e-3h1.411v-8e-3h-1.411v4e-3zm6.581-5.4481v4e-3h5.625v-8e-3h-5.625v4e-3zm5.625 0h-4e-3v1.175h8e-3v-1.175h-4e-3zm0 1.175v-4e-3h-4.286v8e-3h4.286v-4e-3zm-4.286 0h-4e-3v1.3187h8e-3v-1.3187h-4e-3zm0 1.3187v4e-3h3.796v-8e-3h-3.796v4e-3zm3.796 0h-4e-3v1.1031h8e-3v-1.1031h-4e-3zm0 1.1031v-4e-3h-3.796v8e-3h3.796v-4e-3zm-3.796 0h-4e-3v1.8386h8e-3v-1.8386h-4e-3zm0 1.8386v4e-3h4.375v-8e-3h-4.375v4e-3zm4.375 0h-4e-3v1.1708h8e-3v-1.1708h-4e-3zm0 1.1708v-4e-3h-5.714v8e-3h5.714v-4e-3zm-5.714 0h4e-3v-6.6062h-8e-3v6.6062h4e-3zm8.533-6.6062 2e-3 -4e-3h-2e-3v4e-3zm4.117 2.1556 4e-3 -0.0077v0.0077h-4e-3zm0 1.4201h8e-3l-6e-3 -0.0035-2e-3 0.0035zm-4.117-2.1429-4e-3 0.0077v-0.0077h4e-3zm-1.34-1.4328v4e-3h1.34v-8e-3h-1.34v4e-3zm1.34 0-2e-3 0.0036 4.117 2.1555 2e-3 -0.0035 2e-3 -0.0036-4.117-2.1555-2e-3 0.0035zm4.117 2.1556h4e-3v-2.1556h-8e-3v2.1556h4e-3zm0-2.1556v4e-3h1.34v-8e-3h-1.34v4e-3zm1.34 0h-4e-3v6.6062h8e-3v-6.6062h-4e-3zm0 6.6062v-4e-3h-1.34v8e-3h1.34v-4e-3zm-1.34 0h4e-3v-3.0305h-8e-3v3.0305h4e-3zm0-3.0305 2e-3 -0.0035-4.117-2.1429-2e-3 0.0035-2e-3 0.0036 4.117 2.1429 2e-3 -0.0036zm-4.117-2.1429h-4e-3v5.1734h8e-3v-5.1734h-4e-3zm0 5.1734v-4e-3h-1.34v8e-3h1.34v-4e-3zm-1.34 0h4e-3v-6.6062h-8e-3v6.6062h4e-3zm8.529-4.6577 4e-3 0.0016-4e-3 -0.0016zm0.77-1.0609 2e-3 3e-3 -2e-3 -3e-3zm1.234-0.71-2e-3 -0.0038 2e-3 0.0038zm3.132-0.093-1e-3 0.0039 1e-3 -0.0039zm1.255 0.4945-0.146-0.0887 0.148 0.0852-2e-3 0.0035zm-0.617 1.0144 0.061-0.0933-0.058 0.0953-3e-3 -2e-3zm-0.402-0.2029-1e-3 0.0037 1e-3 -0.0037zm-0.481-0.148-1e-3 0.0039 1e-3 -0.0039zm-0.529-0.0972v4e-3 -4e-3zm-1.682 0.1268 1e-3 0.0039v-1e-4l-1e-3 -0.0038zm-0.85 0.4438 3e-3 0.0031-3e-3 -0.0031zm-0.524 0.6805-3e-3 -0.0017v1e-4l3e-3 0.0016zm9e-3 1.7667-4e-3 0.0017 4e-3 -0.0017zm0.537 0.7101-3e-3 3e-3 3e-3 -3e-3zm0.862 0.4649-1e-3 0.0038 1e-3 -0.0038zm2.286 0.0084 1e-3 0.0039-1e-3 -0.0039zm0.52-0.1775 2e-3 0.0037-2e-3 -0.0037zm0.465-0.2282 0.116-0.0705-0.118 0.067 2e-3 0.0035zm0.617 1.0144 0.093 0.145-0.089-0.1471-4e-3 0.0021zm-1.251 0.5452 1e-3 0.0039v-1e-4l-1e-3 -0.0038zm-3.296-0.0676-2e-3 0.0037v1e-4l2e-3 -0.0038zm-1.285-0.727-3e-3 3e-3 3e-3 -3e-3zm-0.778-1.0905-4e-3 0.0016 4e-3 -0.0016zm-0.258-1.3525h4e-3c0-0.47 0.089-0.9076 0.266-1.3128l-4e-3 -0.0016-3e-3 -0.0016c-0.178 0.4063-0.267 0.845-0.267 1.316h4e-3zm0.266-1.3144 4e-3 0.0016c0.177-0.4081 0.433-0.7612 0.768-1.0595l-2e-3 -3e-3 -3e-3 -3e-3c-0.336 0.2991-0.593 0.6532-0.77 1.0623l3e-3 0.0016zm0.77-1.0609 2e-3 3e-3c0.338-0.3011 0.749-0.5375 1.233-0.7093l-1e-3 -0.0037-2e-3 -0.0038c-0.485 0.172-0.896 0.4089-1.235 0.7108l3e-3 3e-3zm1.234-0.71 1e-3 0.0037c0.487-0.1717 1.037-0.2576 1.651-0.2576v-8e-3c-0.614 0-1.166 0.086-1.654 0.2581l2e-3 0.0038zm1.652-0.2579v4e-3c0.538 0 1.031 0.055 1.479 0.1648l2e-3 -0.0078c-0.449-0.11-0.942-0.165-1.481-0.165v4e-3zm1.48 0.1649-1e-3 0.0039c0.45 0.1069 0.868 0.2716 1.254 0.494l2e-3 -0.0034 2e-3 -0.0035c-0.386-0.2228-0.805-0.3878-1.256-0.4949l-1e-3 0.0039zm1.255 0.4945-3e-3 -0.0021-0.618 1.0144 4e-3 0.0021 3e-3 2e-3 0.617-1.0143-3e-3 -0.0021zm-0.617 1.0144 2e-3 -0.0034c-0.116-0.0762-0.25-0.144-0.402-0.2032l-2e-3 0.0037-1e-3 0.0037c0.152 0.0591 0.285 0.1266 0.401 0.2025l2e-3 -0.0033zm-0.402-0.2029 2e-3 -0.0037c-0.15-0.0593-0.311-0.1087-0.483-0.1481v0.0038l-1e-3 0.0039c0.171 0.0395 0.332 0.0887 0.481 0.1478l1e-3 -0.0037zm-0.481-0.148v-0.0038c-0.169-0.0423-0.345-0.0748-0.528-0.0973l-1e-3 0.0039v4e-3c0.183 0.0225 0.359 0.0549 0.528 0.0971l1e-3 -0.0039zm-0.529-0.0972 1e-3 -0.0039c-0.181-0.0226-0.36-0.0339-0.538-0.0339v8e-3c0.178 0 0.357 0.0113 0.537 0.0338v-4e-3zm-0.537-0.0338v-4e-3c-0.428 0-0.81 0.0536-1.146 0.1608l2e-3 0.0076c0.335-0.1069 0.716-0.1604 1.144-0.1604v-4e-3zm-1.145 0.1606-1e-3 -0.0038c-0.336 0.1044-0.62 0.2526-0.851 0.4445l2e-3 0.0031 3e-3 0.0031c0.231-0.1912 0.513-0.3389 0.848-0.443l-1e-3 -0.0039zm-0.85 0.4438-2e-3 -0.0031c-0.229 0.1892-0.404 0.4165-0.525 0.6819l3e-3 0.0017 4e-3 0.0017c0.121-0.2643 0.295-0.4907 0.523-0.6791l-3e-3 -0.0031zm-0.524 0.6805-3e-3 -0.0016c-0.119 0.2626-0.178 0.552-0.178 0.868h8e-3c0-0.315 0.059-0.6033 0.177-0.8648l-4e-3 -0.0016zm-0.177 0.8664h-4e-3c0 0.3274 0.062 0.6281 0.186 0.902l4e-3 -0.0017 3e-3 -0.0016c-0.123-0.2728-0.185-0.5723-0.185-0.8987h-4e-3zm0.186 0.9003-4e-3 0.0017c0.124 0.2738 0.304 0.511 0.538 0.7114l3e-3 -3e-3 2e-3 -0.0031c-0.233-0.1997-0.412-0.4359-0.536-0.7086l-3e-3 0.0016zm0.537 0.7101-3e-3 3e-3c0.237 0.1976 0.525 0.3528 0.864 0.4657l2e-3 -0.0076c-0.338-0.1126-0.625-0.2673-0.861-0.4642l-2e-3 0.0031zm0.862 0.4649-1e-3 0.0038c0.341 0.11 0.726 0.165 1.155 0.165v-8e-3c-0.428 0-0.812-0.0549-1.153-0.1646l-1e-3 0.0038zm1.154 0.1648v4e-3c0.194 0 0.388-0.0141 0.579-0.0423v-0.0039l-1e-3 -4e-3c-0.191 0.0281-0.384 0.0422-0.578 0.0422v4e-3zm0.579-0.0422v0.0039c0.192-0.0282 0.377-0.0663 0.554-0.1142l-1e-3 -0.0039-1e-3 -0.0038c-0.177 0.0478-0.361 0.0858-0.553 0.114l1e-3 4e-3zm0.553-0.1142 1e-3 0.0039c0.181-0.0508 0.354-0.11 0.521-0.1777l-2e-3 -0.0037-1e-3 -0.0037c-0.166 0.0676-0.339 0.1267-0.52 0.1774l1e-3 0.0038zm0.52-0.1775 2e-3 0.0037c0.166-0.0705 0.321-0.1466 0.465-0.2284l-4e-3 -7e-3c-0.143 0.0816-0.298 0.1577-0.464 0.228l1e-3 0.0037zm0.465-0.2282-3e-3 0.0021 0.617 1.0143 3e-3 -2e-3 4e-3 -0.0021-0.617-1.0144-4e-3 0.0021zm0.617 1.0144-2e-3 -0.0034c-0.36 0.2308-0.777 0.4124-1.25 0.5447l1e-3 0.0039 1e-3 0.0038c0.474-0.1325 0.891-0.3144 1.252-0.5457l-2e-3 -0.0033zm-1.251 0.5452-1e-3 -0.0039c-0.473 0.1295-0.975 0.1943-1.508 0.1943v8e-3c0.533 0 1.037-0.0648 1.51-0.1945l-1e-3 -0.0039zm-1.509 0.1944v-4e-3c-0.678 0-1.274-0.0873-1.786-0.2618l-1e-3 0.0038-2e-3 0.0038c0.514 0.1748 1.11 0.2622 1.789 0.2622v-4e-3zm-1.787-0.262 1e-3 -0.0038c-0.513-0.1774-0.94-0.4195-1.284-0.7262l-2e-3 3e-3 -3e-3 3e-3c0.344 0.3075 0.773 0.5501 1.286 0.7277l2e-3 -0.0037zm-1.285-0.727 2e-3 -3e-3c-0.343-0.3095-0.602-0.6725-0.776-1.089l-4e-3 0.0015-4e-3 0.0016c0.175 0.4176 0.435 0.7815 0.779 1.0919l3e-3 -3e-3zm-0.778-1.0905 4e-3 -0.0015c-0.172-0.4193-0.258-0.8696-0.258-1.351h-8e-3c0 0.4824 0.086 0.9337 0.258 1.3541l4e-3 -0.0016zm8.09-4.6154v4e-3h5.625v-8e-3h-5.625v4e-3zm5.625 0h-4e-3v1.175h8e-3v-1.175h-4e-3zm0 1.175v-4e-3h-4.286v8e-3h4.286v-4e-3zm-4.286 0h-4e-3v1.3187h8e-3v-1.3187h-4e-3zm0 1.3187v4e-3h3.796v-8e-3h-3.796v4e-3zm3.796 0h-4e-3v1.1031h8e-3v-1.1031h-4e-3zm0 1.1031v-4e-3h-3.796v8e-3h3.796v-4e-3zm-3.796 0h-4e-3v1.8386h8e-3v-1.8386h-4e-3zm0 1.8386v4e-3h4.375v-8e-3h-4.375v4e-3zm4.375 0h-4e-3v1.1708h8e-3v-1.1708h-4e-3zm0 1.1708v-4e-3h-5.714v8e-3h5.714v-4e-3zm-5.714 0h4e-3v-6.6062h-8e-3v6.6062h4e-3zm7.51-1.9654 0.029-0.0515-0.032 0.0493 3e-3 0.0022zm0.727 0.3677-1e-3 0.0037 1e-3 -0.0037zm0.769 0.2747-1e-3 0.0039 1e-3 -0.0039zm0.833 0.1691-1e-3 4e-3 1e-3 -4e-3zm1.948-0.0169 1e-3 0.0039-1e-3 -0.0039zm0.681-0.2156 2e-3 0.0036-2e-3 -0.0036zm0.385-0.3296-4e-3 -0.0022v1e-4l4e-3 0.0021zm-0.178-0.9806-2e-3 0.0033 2e-3 -0.0033zm-1.505-0.1733 1e-3 4e-3 -1e-3 -4e-3zm-0.617 0.0761v-4e-3 4e-3zm-0.613 0.0803 1e-3 4e-3 -1e-3 -4e-3zm-1.42-0.0803-1e-3 0.0038v1e-4l1e-3 -0.0039zm-0.722-0.3424-3e-3 0.0033 3e-3 -0.0033zm-0.613-1.9061-4e-3 -0.0011 4e-3 0.0011zm0.236-0.5072-3e-3 -0.0023v1e-4l3e-3 0.0022zm0.423-0.4523 3e-3 0.0032v-1e-4l-3e-3 -0.0031zm0.621-0.3634-1e-3 -0.0037 1e-3 0.0037zm0.846-0.2367v0.0039-0.0039zm1.986-0.0381v4e-3 -4e-3zm0.871 0.1353-1e-3 0.0039 1e-3 -0.0039zm0.82 0.2155-1e-3 0.0038v1e-4l1e-3 -0.0039zm0.731 0.2748-0.047-0.0257 0.049 0.022-2e-3 0.0037zm-0.587 1.082-0.02 0.0439 0.023-0.042-3e-3 -0.0019zm-0.601-0.224-1e-3 0.0038 1e-3 -0.0038zm-1.399-0.3001v0.0039-0.0039zm-1.673 0.0338-1e-3 -0.0039 1e-3 0.0039zm-0.567 0.2071 2e-3 0.0034-2e-3 -0.0034zm-0.296 0.2789-3e-3 -0.0019v1e-4l3e-3 0.0018zm0.186 0.7904-2e-3 0.0033 2e-3 -0.0033zm1.315 0.1564v4e-3 -4e-3zm0.6-0.0719v-0.0039 0.0039zm0.642-0.0676 1e-3 4e-3 -1e-3 -4e-3zm1.67 0.0972-1e-3 0.0039 1e-3 -0.0039zm0.757 0.3762-3e-3 0.0031 3e-3 -0.0031zm0.46 0.5875-3e-3 0.0016 3e-3 -0.0016zm-0.11 1.7878-3e-3 -2e-3 3e-3 2e-3zm-0.752 0.7523 2e-3 0.0034-2e-3 -0.0034zm-1.175 0.465 1e-3 0.0039-1e-3 -0.0039zm-2.625 0.0845 1e-3 -4e-3 -1e-3 4e-3zm-1.023-0.1944-1e-3 0.0038 1e-3 -0.0038zm-0.929-0.3086-2e-3 0.0037 2e-3 -0.0037zm-0.816-0.3973 0.054 0.0359-0.056-0.0324 2e-3 -0.0035zm0.714-1.0862-2e-3 0.0035c0.24 0.1353 0.482 0.2579 0.728 0.3679l1e-3 -0.0037 2e-3 -0.0036c-0.245-0.1099-0.487-0.2324-0.727-0.3676l-2e-3 0.0035zm0.727 0.3677-1e-3 0.0037c0.248 0.1071 0.504 0.1988 0.769 0.2749l1e-3 -0.0039 1e-3 -0.0038c-0.264-0.076-0.52-0.1676-0.768-0.2746l-2e-3 0.0037zm0.769 0.2747-1e-3 0.0039c0.265 0.0733 0.543 0.1297 0.833 0.1692l2e-3 -8e-3c-0.29-0.0394-0.568-0.0957-0.833-0.1689l-1e-3 0.0038zm0.833 0.1691-1e-3 4e-3c0.294 0.0394 0.605 0.0592 0.935 0.0592v-8e-3c-0.329 0-0.641-0.0197-0.933-0.0592l-1e-3 4e-3zm0.934 0.0592v4e-3c0.398 0 0.736-0.0254 1.015-0.0762l-1e-3 -0.0039v-0.0039c-0.279 0.0506-0.617 0.076-1.014 0.076v4e-3zm1.014-0.0761 1e-3 0.0039c0.279-0.0536 0.507-0.1255 0.682-0.2159l-2e-3 -0.0036-2e-3 -0.0035c-0.174 0.0899-0.401 0.1617-0.679 0.2152v0.0039zm0.681-0.2156 2e-3 0.0036c0.178-0.0932 0.307-0.2035 0.386-0.3311l-3e-3 -0.0021-4e-3 -0.0021c-0.078 0.126-0.206 0.2354-0.383 0.3282l2e-3 0.0035zm0.385-0.3296 3e-3 0.0021c0.082-0.1274 0.123-0.2662 0.123-0.4163h-8e-3c0 0.1485-0.04 0.2858-0.122 0.412l4e-3 0.0022zm0.122-0.4142h4e-3c0-0.2409-0.101-0.4309-0.302-0.5697l-4e-3 0.0066c0.199 0.1373 0.298 0.3249 0.298 0.5631h4e-3zm-0.3-0.5664 2e-3 -0.0033c-0.201-0.1416-0.51-0.212-0.928-0.212v8e-3c0.417 0 0.725 0.0704 0.924 0.2106l2e-3 -0.0033zm-0.926-0.2113v-4e-3c-0.183 0-0.376 0.0127-0.579 0.0381v0.0039l1e-3 4e-3c0.203-0.0254 0.395-0.038 0.578-0.038v-4e-3zm-0.579 0.038v-4e-3c-0.203 0.0226-0.409 0.048-0.617 0.0761v4e-3l1e-3 4e-3c0.208-0.0282 0.414-0.0536 0.617-0.0761l-1e-3 -4e-3zm-0.617 0.0761v-4e-3c-0.206 0.0282-0.41 0.055-0.613 0.0803v4e-3l1e-3 4e-3c0.203-0.0254 0.407-0.0522 0.613-0.0803l-1e-3 -4e-3zm-0.613 0.0803v-4e-3c-0.2 0.0226-0.389 0.0338-0.566 0.0338v8e-3c0.178 0 0.367-0.0113 0.567-0.0338l-1e-3 -4e-3zm-0.566 0.0338v-4e-3c-0.295 0-0.58-0.038-0.853-0.114l-2e-3 0.0078c0.274 0.0761 0.559 0.1142 0.855 0.1142v-4e-3zm-0.854-0.1141 1e-3 -0.0039c-0.27-0.0759-0.51-0.1898-0.721-0.3417l-2e-3 0.0032-3e-3 0.0033c0.212 0.1524 0.453 0.2668 0.724 0.3429l1e-3 -0.0038zm-0.722-0.3424 2e-3 -0.0032c-0.208-0.1518-0.374-0.3415-0.498-0.5692l-3e-3 0.0019-4e-3 0.0019c0.125 0.2287 0.291 0.4194 0.5 0.5719l3e-3 -0.0033zm-0.499-0.5705 3e-3 -0.0019c-0.123-0.2276-0.185-0.4932-0.185-0.797h-8e-3c0 0.3049 0.062 0.5719 0.186 0.8008l4e-3 -0.0019zm-0.186-0.7989h4e-3c0-0.1799 0.024-0.3585 0.072-0.5357l-4e-3 -1e-3 -4e-3 -0.0011c-0.048 0.1779-0.072 0.3571-0.072 0.5378h4e-3zm0.072-0.5367 4e-3 0.0011c0.05-0.1771 0.129-0.3458 0.236-0.5061l-4e-3 -0.0022-3e-3 -0.0022c-0.107 0.1609-0.186 0.3303-0.237 0.5083l4e-3 0.0011zm0.236-0.5072 4e-3 0.0022c0.109-0.163 0.25-0.3135 0.422-0.4513l-3e-3 -0.0032-2e-3 -0.0031c-0.173 0.1383-0.314 0.2893-0.424 0.4531l3e-3 0.0023zm0.423-0.4523 3e-3 0.0031c0.171-0.1406 0.378-0.2615 0.62-0.3629l-2e-3 -0.0036-1e-3 -0.0037c-0.243 0.1015-0.45 0.2229-0.622 0.364l2e-3 0.0031zm0.621-0.3634 2e-3 0.0036c0.245-0.1013 0.526-0.1801 0.844-0.2364v-0.0039l-1e-3 -4e-3c-0.319 0.0564-0.601 0.1354-0.846 0.237l1e-3 0.0037zm0.846-0.2367v0.0039c0.321-0.0591 0.686-0.0887 1.094-0.0887v-8e-3c-0.408 0-0.774 0.0296-1.095 0.0888l1e-3 4e-3zm1.094-0.0888v4e-3c0.296 0 0.593 0.0169 0.892 0.0507v-4e-3l1e-3 -0.0039c-0.299-0.0339-0.597-0.0508-0.893-0.0508v4e-3zm0.892 0.0507v4e-3c0.298 0.031 0.588 0.076 0.87 0.1352l2e-3 -0.0078c-0.282-0.0592-0.573-0.1043-0.871-0.1354l-1e-3 4e-3zm0.871 0.1353-1e-3 0.0039c0.284 0.0591 0.558 0.131 0.82 0.2154l2e-3 -0.0076c-0.262-0.0846-0.536-0.1564-0.82-0.2156l-1e-3 0.0039zm0.82 0.2155-1e-3 0.0039c0.262 0.0816 0.505 0.1731 0.73 0.2745l2e-3 -0.0036 2e-3 -0.0037c-0.226-0.1015-0.47-0.1931-0.732-0.2749l-1e-3 0.0038zm0.731 0.2748-4e-3 -2e-3 -0.587 1.082 4e-3 2e-3 3e-3 0.0019 0.588-1.082-4e-3 -0.0019zm-0.587 1.082 1e-3 -0.0037c-0.186-0.0818-0.386-0.1565-0.6-0.2242l-2e-3 0.0039-1e-3 0.0038c0.214 0.0676 0.414 0.1422 0.6 0.2238l2e-3 -0.0036zm-0.601-0.224 2e-3 -0.0038c-0.215-0.0705-0.439-0.1312-0.673-0.1819l-2e-3 0.0078c0.234 0.0507 0.458 0.1113 0.672 0.1816l1e-3 -0.0037zm-0.672-0.1818 1e-3 -0.0039c-0.234-0.0507-0.476-0.0902-0.727-0.1184l-1e-3 4e-3v0.0039c0.251 0.0282 0.493 0.0676 0.726 0.1183l1e-3 -0.0039zm-0.727-0.1183 1e-3 -4e-3c-0.248-0.031-0.502-0.0465-0.761-0.0465v8e-3c0.259 0 0.512 0.0155 0.76 0.0464v-0.0039zm-0.76-0.0465v-4e-3c-0.37 0-0.674 0.0267-0.914 0.0804l2e-3 0.0078c0.239-0.0535 0.543-0.0802 0.912-0.0802v-4e-3zm-0.913 0.0803-1e-3 -0.0039c-0.237 0.0536-0.426 0.1227-0.568 0.2075l2e-3 0.0035 2e-3 0.0034c0.141-0.0842 0.329-0.1531 0.566-0.2066l-1e-3 -0.0039zm-0.567 0.2071-2e-3 -0.0035c-0.141 0.082-0.24 0.1754-0.297 0.2805l3e-3 0.0019 4e-3 0.0019c0.056-0.1034 0.154-0.1959 0.294-0.2774l-2e-3 -0.0034zm-0.296 0.2789-3e-3 -0.0018c-0.054 0.1019-0.081 0.204-0.081 0.3061h8e-3c0-0.1007 0.027-0.2015 0.08-0.3024l-4e-3 -0.0019zm-0.08 0.3043h-4e-3c0 0.1987 0.09 0.3619 0.268 0.4894l2e-3 -0.0033 3e-3 -0.0033c-0.177-0.1261-0.265-0.287-0.265-0.4828h-4e-3zm0.266 0.4861-2e-3 0.0033c0.179 0.1246 0.45 0.1867 0.814 0.1867v-8e-3c-0.363 0-0.633-0.062-0.809-0.1853l-3e-3 0.0033zm0.812 0.186v4e-3c0.147 0 0.314-0.0099 0.503-0.0296v-4e-3l-1e-3 -4e-3c-0.188 0.0197-0.356 0.0296-0.502 0.0296v4e-3zm0.503-0.0296v4e-3c0.192-0.0226 0.392-0.0465 0.6-0.0719v-4e-3 -0.0039c-0.209 0.0253-0.409 0.0493-0.601 0.0718l1e-3 4e-3zm0.6-0.0719v4e-3c0.212-0.0254 0.426-0.0479 0.643-0.0676l-1e-3 -4e-3v-4e-3c-0.217 0.0197-0.431 0.0423-0.642 0.0677v0.0039zm0.642-0.0676 1e-3 4e-3c0.22-0.0225 0.432-0.0338 0.638-0.0338v-8e-3c-0.206 0-0.419 0.0113-0.639 0.0338v4e-3zm0.639-0.0338v4e-3c0.388 0 0.732 0.0436 1.03 0.1309l1e-3 -0.0039 1e-3 -0.0038c-0.299-0.0875-0.643-0.1312-1.032-0.1312v4e-3zm1.031 0.131-1e-3 0.0039c0.301 0.0872 0.553 0.2124 0.755 0.3754l3e-3 -0.0031 2e-3 -0.0031c-0.203-0.1639-0.456-0.2895-0.758-0.3769l-1e-3 0.0038zm0.757 0.3762-3e-3 0.0031c0.202 0.1602 0.356 0.3556 0.46 0.586l3e-3 -0.0016 4e-3 -0.0017c-0.105-0.2316-0.259-0.428-0.462-0.589l-2e-3 0.0032zm0.46 0.5875-3e-3 0.0016c0.104 0.2277 0.156 0.4835 0.156 0.7676h8e-3c0-0.2851-0.053-0.5421-0.157-0.7709l-4e-3 0.0017zm0.157 0.7692h-4e-3c0 0.3797-0.089 0.7186-0.266 1.0166l3e-3 2e-3 4e-3 0.0021c0.178-0.2994 0.267-0.6397 0.267-1.0207h-4e-3zm-0.267 1.0186-3e-3 -2e-3c-0.174 0.2952-0.425 0.5456-0.751 0.751l2e-3 0.0033 2e-3 0.0034c0.327-0.206 0.579-0.4572 0.754-0.7537l-4e-3 -2e-3zm-0.752 0.7523-2e-3 -0.0034c-0.324 0.2026-0.715 0.3575-1.174 0.4645l2e-3 0.0078c0.46-0.1072 0.852-0.2623 1.176-0.4655l-2e-3 -0.0034zm-1.175 0.465-1e-3 -0.0039c-0.459 0.1041-0.97 0.1562-1.533 0.1562v8e-3c0.564 0 1.075-0.0521 1.535-0.1564l-1e-3 -0.0039zm-1.534 0.1563v-4e-3c-0.372 0-0.735-0.0239-1.09-0.0718l-1e-3 4e-3v4e-3c0.355 0.0479 0.719 0.0718 1.091 0.0718v-4e-3zm-1.091-0.0718 1e-3 -4e-3c-0.355-0.045-0.696-0.1098-1.023-0.1943l-1e-3 0.0039-1e-3 0.0038c0.327 0.0846 0.669 0.1495 1.024 0.1946v-4e-3zm-1.023-0.1944 2e-3 -0.0039c-0.324-0.0873-0.634-0.1901-0.93-0.3084l-1e-3 0.0037-2e-3 0.0037c0.296 0.1184 0.606 0.2213 0.93 0.3087l1e-3 -0.0038zm-0.929-0.3086 1e-3 -0.0037c-0.293-0.1211-0.565-0.2534-0.815-0.397l-2e-3 0.0034-2e-3 0.0035c0.251 0.1438 0.523 0.2763 0.816 0.3975l2e-3 -0.0037zm-0.816-0.3973 3e-3 0.0022 0.715-1.0862-4e-3 -0.0022-3e-3 -0.0022-0.714 1.0862 3e-3 0.0022z" fill="#235162"/>
<path d="m95.197 20.04 0.0072 0.0072-1e-3 -0.0021 0.0103-0.0062-0.0031 0.0011-2e-3 -0.0114v0.0031l-0.0104-1e-3 0.0021 1e-3 -0.0052 0.0093 0.0021-1e-3z" fill="#235162" stroke="#235162" stroke-miterlimit="10" stroke-width=".08"/>
<path d="m103.49 25.864 3.02-1.4924 0.799-0.394-0.414-0.7922-1.569-2.9744c-0.82-1.6092-2.114-2.2153-3.151-2.4304 0.715-0.7829 1.411-2.0374 1.13-3.8266l-0.487-3.3332-0.127-0.88117-0.881 0.14893-3.3135 0.57294c-1.784 0.2823-2.7603 1.3269-3.2847 2.2463-0.5243-0.9215-1.5016-1.9712-3.2898-2.2566l-3.3208-0.56781-0.878-0.151-0.1314 0.88421-0.4799 3.3281c-0.2823 1.783 0.4085 3.0344 1.1211 3.8183-1.0383 0.2141-2.3394 0.8191-3.1626 2.4314l-1.5658 2.9827-0.4147 0.7881 0.8005 0.3981 3.0178 1.4841c1.6092 0.8201 3.0126 0.5492 3.9776 0.1138-0.1179 1.0538 0.0558 2.4779 1.3351 3.7593l2.3528 2.4108 0.6216 0.6381 0.6257-0.6381 2.3445-2.4108c1.2773-1.2772 1.4531-2.6951 1.3373-3.7479 0.9662 0.4374 2.3742 0.7125 3.9882-0.1076l-1e-3 -1e-3zm1.046-5.2435 1.28 2.4335-4.261-1.3848-0.811-1.5399c-0.208-0.4075-0.472-0.6971-0.751-0.9029 0.449-0.1675 0.871-0.3826 1.251-0.6391 0.011-0.0062 0.021-0.0145 0.031-0.0217 0.956 0.031 2.407 0.3847 3.261 2.0549zm-7.0365-0.8035c0.1407-0.06 0.2844-0.1076 0.4292-0.1428l0.4861-0.0651c0.4147-0.0104 1.1469 0.1034 1.5606 0.9153l0.6816 1.2917-1.3114 0.6484c-0.8098 0.4096-1.4686 0.0724-1.7985-0.1789l-0.3796-0.363c-0.0755-0.091-0.1479-0.1872-0.214-0.2927-0.0052-0.0103-0.0104-0.0207-0.0176-0.0279l-0.5647-1.179 1.1273-0.6071 1e-3 0.0011zm-1.5678-0.7736-0.2296-1.2597c-0.0145-0.152-0.0145-0.3041-0.0031-0.4519l0.0889-0.4841c0.1179-0.3971 0.453-1.058 1.3527-1.2007l1.4386-0.2492 0.211 1.4479c0.1396 0.8977-0.3847 1.4199-0.727 1.6547l-0.4613 0.2482c-0.1096 0.0445-0.2244 0.0828-0.3444 0.1127-0.0114 0.0021-0.0238 0.0042-0.032 0.0083l-1.2959 0.1727 0.0021 0.0011zm6.0943-7.678 0.395 2.721c0.293 1.8626-0.684 3.0033-1.441 3.5877-0.015 0-0.03 0-0.044 1e-3 -0.452 0.0145-0.912 0.0869-1.367 0.212 0.1055-0.3309 0.1479-0.7198 0.0765-1.1717l-0.2524-1.7251 2.6329-3.6239v-1e-3zm-3.3837-0.0248 2.7097-0.4654-2.6332 3.6239-1.7147 0.2957c-0.4509 0.0714-0.8087 0.2327-1.0911 0.4354-0.0206-0.4788-0.0941-0.9463-0.2213-1.3879-0.0031-0.0113-0.0072-0.0238-0.0103-0.0362 0.3247-0.8997 1.1097-2.1708 2.9619-2.4665l-1e-3 1e-3zm-3.446 8.6894h0.0104v-1e-3l2e-3 0.0113h0.0031l-0.0103 0.0052v0.0021l-0.0072-0.0073-0.0021 0.0021 0.0052-0.0103h-0.0021l1e-3 -0.0021zm-3.4232-8.6977c1.8616 0.2979 2.6445 1.5792 2.9671 2.48-0.0041 0.0135-0.0082 0.028-0.0124 0.0414-0.1251 0.4344-0.1985 0.8946-0.2213 1.3662-0.2813-0.2027-0.6391-0.363-1.0911-0.4344l-1.7188-0.2926-2.6331-3.6239 2.7096 0.4654v-0.0021zm1.4407 7.5321c-0.149-0.033-0.2917-0.0796-0.4282-0.1354l-0.4375-0.2358c-0.3413-0.2358-0.8635-0.7581-0.7218-1.6568l0.2078-1.4448 1.4417 0.2461c0.8967 0.1448 1.2318 0.8046 1.3497 1.2028l0.0941 0.515c0.0082 0.1179 0.0093 0.2389 1e-3 0.362-0.0021 0.0114-0.0041 0.0238-0.0021 0.0321l-0.2368 1.2855-1.269-0.1707h0.0011zm0.8139 1.5462-0.5544 1.1542c-0.0786 0.1313-0.1665 0.2544-0.2626 0.3671l-0.3558 0.3382c-0.3289 0.2523-0.9887 0.5905-1.8006 0.1768l-1.3103-0.6443 0.6795-1.2958c0.4136-0.8057 1.1417-0.9215 1.5575-0.9122l0.5254 0.0714c0.1137 0.0289 0.2285 0.0641 0.3423 0.1096 0.0103 0.0052 0.0207 0.0103 0.03 0.0124l1.149 0.6226zm-6.0336-6.3325 0.3951-2.721 2.6331 3.6239-0.2493 1.722c-0.0713 0.4509-0.0279 0.8408 0.0766 1.1717-0.4623-0.1282-0.9298-0.2027-1.3879-0.2182h-0.0383c-0.755-0.5874-1.7209-1.7261-1.4303-3.5784h1e-3zm-2.1305 6.529c0.8584-1.6785 2.3187-2.0271 3.2743-2.055 0.0125 0.0083 0.0249 0.0166 0.0362 0.0248 0.3744 0.2534 0.7891 0.4654 1.2308 0.6319-0.2793 0.2058-0.543 0.4954-0.7498 0.9029l-0.8098 1.5441-4.261 1.3848 1.2793-2.4335zm5.29 4.1885c-0.7922 0.5368-2.1729 1.1035-3.8452 0.2544l-2.4655-1.2162 4.2609-1.3848 1.5617 0.7695c0.4075 0.2078 0.7911 0.2864 1.1386 0.2885-0.2647 0.4002-0.4798 0.8212-0.637 1.2535-0.0042 0.0113-0.0083 0.0238-0.0124 0.0351h-0.0011zm3.6239 6.2673-1.9185-1.9691c-1.331-1.3352-1.211-2.8327-0.9421-3.75 0.0113-0.0094 0.0238-0.0176 0.0341-0.0269 0.3568-0.2782 0.6867-0.6061 0.9815-0.9743 0.1085 0.3289 0.303 0.6692 0.6267 0.9929l1.2183 1.2472v4.4802zm-0.604-6.3355c-0.6391-0.6433-0.5233-1.3735-0.3847-1.7654l0.2275-0.4737c0.0631-0.1003 0.1324-0.1986 0.212-0.2937 0.0083-0.0083 0.0166-0.0166 0.0207-0.0248l0.9473-0.9008 0.9256 0.8842c0.1014 0.1148 0.1903 0.2369 0.2679 0.363l0.2131 0.4437c0.1385 0.3909 0.2554 1.1221-0.3889 1.7664l-1.0177 1.0467-1.0218-1.0467-1e-3 0.0011zm3.357 4.3674-1.9184 1.9692v-4.4802l1.2141-1.2473c0.3227-0.3227 0.5172-0.6639 0.6268-0.9939 0.2989 0.3755 0.6329 0.7105 0.9949 0.9929 0.0093 0.0072 0.0196 0.0155 0.03 0.0227 0.2658 0.9184 0.3785 2.4077-0.9463 3.7366h-0.0011zm1.6899-4.3343c-0.1541-0.4251-0.365-0.8408-0.6236-1.2349 0.3465-2e-3 0.7302-0.0817 1.1387-0.2896l1.5625-0.7725 4.261 1.3848-2.465 1.2162c-1.681 0.8532-3.068 0.2772-3.858-0.2627-0.0052-0.0134-0.0094-0.0279-0.0145-0.0413h-0.0011z" fill="#235162" stroke="#235162" stroke-miterlimit="10" stroke-width=".08"/>
<path d="m92.324 8.1774 0.8077 0.40334c0.3899 0.19443 0.7612 0.4261 1.1066 0.69189l0.5854 0.44884v-2.3218c-0.0011-0.35473-0.0807-0.70533-0.2307-1.0135-0.1261-0.25856-0.3216-0.49022-0.5481-0.75808-0.2151-0.25441-0.4592-0.54296-0.6908-0.90596-0.0724-0.12204-0.2431-0.33509-0.332-0.69603-0.1097-0.44264-0.029-0.91941-0.029-0.91941l-0.908 0.7798c-1.1863 1.1118-1.2287 2.1708-1.0198 2.8389 0.1914 0.61226 0.6382 1.1273 1.2597 1.4531l-1e-3 -0.00104zm0.0269-3.3529c0.061 0.1117 0.1323 0.23787 0.2172 0.38059 0.273 0.4292 0.5502 0.75601 0.7725 1.0197 0.1862 0.22029 0.3475 0.41058 0.423 0.56571 0.0889 0.18306 0.1355 0.393 0.1355 0.60915v0.56054l-1.147-0.60087c-0.3961-0.20788-0.6898-0.53986-0.8056-0.91011-0.1644-0.52434-0.0259-1.0725 0.4044-1.6247z" fill="#235162" stroke="#235162" stroke-miterlimit="10" stroke-width=".08"/>
<path d="m94.613 5.2579c0.2172 0.2813 0.4571 0.58226 0.5916 0.74773 0.1293-0.16651 0.3692-0.46643 0.5864-0.74773 0.2079-0.26786 0.393-0.51297 0.4664-0.62363 0.2493-0.37852 0.9929-1.5286-0.3278-2.8544l-0.0972-0.10136-0.6278-0.67844-0.6329 0.67844-0.0973 0.10136c-1.3206 1.3258-0.577 2.4748-0.3278 2.8544 0.0734 0.11066 0.2585 0.35577 0.4664 0.62363zm0.5264-2.8358 0.0642-0.06516 0.0599 0.06516c0.8036 0.80772 0.453 1.3527 0.2079 1.7271-0.0372 0.05998-0.1386 0.19443-0.2678 0.36507-0.1335-0.17064-0.2358-0.30509-0.272-0.36507-0.2451-0.37439-0.5957-0.91941 0.2078-1.7271z" fill="#235162" stroke="#235162" stroke-miterlimit="10" stroke-width=".08"/>
<path d="m95.811 6.3861c-0.15 0.30819-0.2296 0.65776-0.2296 1.0135v2.3218l0.5843-0.44885c0.3465-0.26476 0.7167-0.49642 1.1066-0.69188l0.8077-0.40334c0.6205-0.32475 1.0683-0.84081 1.2597-1.4531 0.2089-0.6681 0.1665-1.7271-1.0198-2.8389l-0.908-0.77979s0.0807 0.47677-0.0289 0.91941c-0.09 0.36094-0.2607 0.57399-0.332 0.69602-0.2317 0.36301-0.4758 0.65155-0.6909 0.90597-0.2265 0.26786-0.4219 0.49952-0.5481 0.75808l-1e-3 0.00103zm0.6949 1.0135c0-0.21615 0.0476-0.42609 0.1355-0.60915 0.0755-0.15513 0.2358-0.34542 0.423-0.56571 0.2224-0.26269 0.4995-0.59053 0.7726-1.0197 0.0848-0.14272 0.1561-0.26889 0.2172-0.38059 0.4292 0.55227 0.5688 1.1004 0.4043 1.6248-0.1158 0.37128-0.4095 0.70222-0.8056 0.9101l-1.147 0.60087v-0.56054z" fill="#235162" stroke="#235162" stroke-miterlimit="10" stroke-width=".08"/>
<path d="m108.28 15.443c0.207-0.1996 0.366-0.4572 0.551-0.755 0.175-0.2834 0.374-0.604 0.649-0.937 0.093-0.1055 0.243-0.3341 0.558-0.5316 0.388-0.242 0.866-0.3123 0.866-0.3123l-1.023-0.6226c-1.424-0.7839-2.444-0.4975-3.015-0.0931-0.522 0.3713-0.875 0.9556-0.993 1.6465l-0.134 0.8925c-0.065 0.4313-0.171 0.8553-0.316 1.2669l-0.245 0.695 2.208-0.7188c0.338-0.1096 0.647-0.2937 0.893-0.5305h1e-3zm-1.713-0.1738 0.217-1.2762c0.076-0.4416 0.3-0.8232 0.617-1.0477 0.448-0.3185 1.012-0.3557 1.67-0.1179-0.087 0.0921-0.185 0.1997-0.295 0.3238-0.323 0.393-0.549 0.757-0.73 1.0497-0.152 0.2451-0.283 0.4571-0.407 0.5771-0.146 0.1406-0.332 0.2513-0.537 0.3175l-0.534 0.1737h-1e-3z" fill="#235162" stroke="#235162" stroke-miterlimit="10" stroke-width=".08"/>
<path d="m112.75 13.968-0.126-0.061c-1.668-0.847-2.533 0.2162-2.815 0.5699-0.083 0.1044-0.258 0.3557-0.449 0.636-0.2 0.2937-0.411 0.6143-0.528 0.7932 0.198 0.0714 0.557 0.2069 0.892 0.3269 0.319 0.1148 0.61 0.2151 0.738 0.2513 0.437 0.1199 1.76 0.4716 2.613-1.1935l0.066-0.1241 0.452-0.8067-0.84-0.392h-3e-3zm-0.493 0.8884c-0.52 1.0135-1.147 0.8491-1.578 0.7312-0.068-0.0165-0.228-0.0714-0.43-0.1417 0.121-0.1799 0.217-0.3185 0.262-0.3723 0.281-0.3485 0.69-0.8501 1.707-0.3361l0.082 0.0414-0.044 0.0775h1e-3z" fill="#235162" stroke="#235162" stroke-miterlimit="10" stroke-width=".08"/>
<path d="m110.62 17.265c-0.417-0.1086-0.767-0.2513-1.075-0.3775-0.325-0.1324-0.605-0.2472-0.891-0.2865-0.339-0.0476-0.697-0.0145-1.034 0.0952l-2.209 0.7167 0.607 0.4178c0.359 0.2472 0.694 0.5285 1 0.8387l0.633 0.6433c0.502 0.4902 1.13 0.756 1.771 0.7488 0.7-0.0073 1.693-0.3754 2.385-1.8471l0.461-1.1046s-0.428 0.2245-0.884 0.2565c-0.372 0.0259-0.627-0.0703-0.765-0.1013h1e-3zm-1.208 1.8729c-0.388 0.0042-0.794-0.1727-1.114-0.485l-0.926-0.905 0.534-0.1737c0.204-0.0662 0.419-0.0869 0.621-0.0589 0.171 0.0237 0.401 0.1178 0.669 0.2275 0.319 0.1303 0.716 0.2927 1.208 0.4199 0.163 0.0362 0.304 0.0651 0.429 0.0889-0.392 0.5792-0.87 0.8801-1.42 0.8863h-1e-3z" fill="#235162" stroke="#235162" stroke-miterlimit="10" stroke-width=".08"/>
<path d="m106.55 28.907c-0.514-0.3827-1.179-0.5368-1.873-0.4354l-0.89 0.1479c-0.43 0.0713-0.867 0.1023-1.302 0.091l-0.738-0.0187 1.367 1.8782c0.209 0.2875 0.478 0.5243 0.78 0.6857 0.254 0.1354 0.549 0.2068 0.889 0.2906 0.324 0.0796 0.69 0.1696 1.091 0.3268 0.129 0.0558 0.393 0.1282 0.677 0.3671 0.35 0.2937 0.565 0.7271 0.565 0.7271l0.276-1.1646c0.306-1.5968-0.281-2.4779-0.844-2.8957h2e-3zm-0.322 2.1128c-0.474-0.1861-0.89-0.2885-1.225-0.3702-0.28-0.0693-0.522-0.1282-0.674-0.2089-0.179-0.0952-0.341-0.2379-0.469-0.4127l-0.33-0.454 1.281-0.1882c0.442-0.0652 0.875 0.031 1.187 0.2627 0.442 0.3278 0.651 0.8522 0.628 1.5523-0.115-0.0548-0.247-0.1137-0.399-0.1799l1e-3 -0.0011z" fill="#235162" stroke="#235162" stroke-miterlimit="10" stroke-width=".08"/>
<path d="m105.28 32.41c-0.125-0.0465-0.418-0.1355-0.744-0.2306-0.341-0.1003-0.711-0.2017-0.918-0.2575-7e-3 0.2109-0.025 0.5946-0.035 0.9504-0.011 0.3392-0.017 0.6453-0.012 0.7788 0.021 0.4529 0.096 1.8202 1.944 2.1159l0.138 0.0249 0.907 0.1799 0.113-0.9215 0.019-0.1396c0.289-1.8481-0.988-2.3414-1.413-2.5017l1e-3 1e-3zm0.497 2.3735-0.014 0.09-0.087-0.0166c-1.125-0.182-1.161-0.8284-1.183-1.2751-5e-3 -0.0704-2e-3 -0.2379 2e-3 -0.453 0.209 0.06 0.369 0.1086 0.434 0.1355 0.418 0.1592 1.022 0.393 0.847 1.5192h1e-3z" fill="#235162" stroke="#235162" stroke-miterlimit="10" stroke-width=".08"/>
<path d="m103.02 34.804c-0.14-0.3443-0.127-0.6174-0.14-0.758-0.026-0.4303 2e-3 -0.8067 0.027-1.1387 0.026-0.3496 0.047-0.6526-2e-3 -0.9349-0.06-0.3372-0.202-0.6671-0.411-0.9546l-1.364-1.8791-0.21 0.7074c-0.124 0.4178-0.287 0.8232-0.489 1.21l-0.416 0.8005c-0.3111 0.6277-0.369 1.3082-0.1642 1.9153 0.2232 0.6629 0.8802 1.4944 2.4932 1.6971l1.194 0.0973s-0.346-0.3382-0.517-0.7612l-1e-3 -0.0011zm-1.061-0.6867c0.015 0.1655 0.032 0.3093 0.047 0.4354-0.672-0.1944-1.107-0.5553-1.281-1.0766-0.124-0.3682-0.082-0.8087 0.117-1.21l0.575-1.1593 0.33 0.454c0.127 0.1747 0.212 0.3723 0.248 0.5729 0.03 0.1696 0.011 0.4178-0.01 0.7064-0.024 0.3433-0.056 0.7705-0.025 1.2783l-1e-3 -0.0011z" fill="#235162" stroke="#235162" stroke-miterlimit="10" stroke-width=".08"/>
<path d="m89.971 31.054c-0.2007-0.3868-0.3651-0.7922-0.4892-1.21l-0.21-0.7074-1.3641 1.8792c-0.2089 0.2875-0.3506 0.6174-0.4106 0.9545-0.0496 0.2834-0.0279 0.5854-2e-3 0.935 0.0248 0.3319 0.0527 0.7084 0.0269 1.1386-0.0135 0.1407 0 0.4137-0.1397 0.7581-0.1716 0.423-0.5171 0.7612-0.5171 0.7612l1.1935-0.0972c1.6134-0.2028 2.2701-1.0343 2.4935-1.6972 0.2048-0.6071 0.1458-1.2876-0.1644-1.9153l-0.4158-0.8005-1e-3 1e-3zm-0.2948 2.4211c-0.1758 0.5212-0.6102 0.8822-1.2814 1.0766 0.0166-0.1262 0.0321-0.2699 0.0476-0.4354 0.031-0.5078 0-0.9349-0.0258-1.2783-0.0218-0.2875-0.0394-0.5367-0.0094-0.7063 0.0352-0.1996 0.121-0.3982 0.2483-0.573l0.3299-0.454 0.575 1.1593c0.1986 0.4013 0.241 0.8419 0.1169 1.2101l-0.0011 1e-3z" fill="#235162" stroke="#235162" stroke-miterlimit="10" stroke-width=".08"/>
<path d="m86.78 31.92c-0.2027 0.059-0.573 0.1603-0.9143 0.2606-0.3257 0.0941-0.6184 0.1841-0.7436 0.2307-0.424 0.1592-1.7012 0.6525-1.4127 2.5017l0.0186 0.1396 0.1086 0.9184 0.9112-0.1769 0.1385-0.0248c1.8471-0.2958 1.9216-1.663 1.9433-2.116 0.0052-0.1334 0-0.4395-0.0114-0.7787-0.0103-0.3558-0.0279-0.7395-0.0382-0.9525v-0.0021zm-0.8708 1.662c-0.0217 0.4468-0.0579 1.0931-1.1832 1.2752l-0.0899 0.0144-0.0104-0.0879c-0.1748-1.1262 0.4292-1.361 0.847-1.5192 0.0652-0.0269 0.2265-0.0755 0.4313-0.1376 0.0083 0.2172 0.0114 0.3848 0.0062 0.4551h-1e-3z" fill="#235162" stroke="#235162" stroke-miterlimit="10" stroke-width=".08"/>
<path d="m83.854 32.241c0.2844-0.2389 0.5481-0.3113 0.6774-0.3671 0.4012-0.1572 0.7684-0.2483 1.0911-0.3269 0.3402-0.0837 0.635-0.1561 0.8883-0.2906 0.302-0.1613 0.572-0.3981 0.7809-0.6856l1.3662-1.8782-0.7374 0.0186c-0.4365 0.0114-0.8719-0.0196-1.3021-0.091l-0.8905-0.1479c-0.6929-0.1013-1.3579 0.0528-1.8729 0.4354-0.5616 0.4179-1.149 1.299-0.8439 2.8958l0.2761 1.1645s0.2151-0.4333 0.5647-0.727h0.0021zm0.5543-2.5928c0.3113-0.2316 0.7446-0.3278 1.1873-0.2626l1.2803 0.1882-0.3299 0.454c-0.1272 0.1748-0.2885 0.3175-0.4685 0.4126-0.152 0.0807-0.394 0.1407-0.6743 0.209-0.334 0.0817-0.7508 0.184-1.2245 0.3702-0.152 0.0662-0.2844 0.1262-0.3992 0.1799-0.0228-0.6991 0.1862-1.2244 0.6278-1.5523l1e-3 1e-3z" fill="#235162" stroke="#235162" stroke-miterlimit="10" stroke-width=".08"/>
<path d="m84.386 17.831 0.6071-0.4178-2.2091-0.7167c-0.3382-0.1097-0.696-0.1428-1.0342-0.0952-0.2844 0.0393-0.5647 0.1541-0.8904 0.2865-0.3082 0.1262-0.6578 0.2689-1.0756 0.3775-0.1376 0.031-0.393 0.1272-0.7643 0.1013-0.455-0.032-0.8842-0.2565-0.8842-0.2565l0.4612 1.1046c0.6909 1.4717 1.6847 1.8398 2.3849 1.8471 0.6412 0.0072 1.27-0.2586 1.7706-0.7488l0.6329-0.6433c0.3061-0.3113 0.6402-0.5915 1.0001-0.8387h1e-3zm-2.2784 0.8222c-0.3195 0.3123-0.726 0.4892-1.1148 0.485-0.5502-0.0062-1.028-0.3071-1.42-0.8863 0.1251-0.0238 0.2668-0.0527 0.4292-0.0889 0.4923-0.1272 0.8894-0.2896 1.208-0.4199 0.2678-0.1097 0.4984-0.2038 0.6691-0.2275 0.2017-0.028 0.4157-0.0083 0.6215 0.0589l0.5337 0.1737-0.9256 0.905h-0.0011z" fill="#235162" stroke="#235162" stroke-miterlimit="10" stroke-width=".08"/>
<path d="m79.947 16.484c0.1283-0.0362 0.4179-0.1365 0.7374-0.2513 0.3351-0.119 0.695-0.2555 0.8946-0.331-0.1179-0.1748-0.3299-0.4954-0.5305-0.7891-0.1903-0.2803-0.3661-0.5316-0.4489-0.636-0.2833-0.3537-1.1469-1.4169-2.8151-0.5699l-0.1262 0.061-0.8397 0.3879 0.4499 0.8118 0.0661 0.1241c0.8522 1.6661 2.176 1.3135 2.6135 1.1935l-0.0011-1e-3zm-1.7964-1.6279-0.0413-0.0817 0.0796-0.0372c1.0166-0.514 1.4272-0.0124 1.7064 0.3361 0.0455 0.0538 0.1417 0.1913 0.2638 0.3671-0.2038 0.0745-0.363 0.1304-0.4313 0.1469-0.4313 0.1169-1.058 0.2823-1.5782-0.7312h1e-3z" fill="#235162" stroke="#235162" stroke-miterlimit="10" stroke-width=".08"/>
<path d="m80.926 13.751c0.2741 0.333 0.4727 0.6536 0.6485 0.937 0.1851 0.2978 0.3444 0.5553 0.5512 0.7549 0.2461 0.2379 0.5554 0.421 0.8925 0.5306l2.2081 0.7188-0.2452-0.695c-0.1447-0.4116-0.2513-0.8357-0.3154-1.2669l-0.1344-0.8925c-0.1179-0.6909-0.4696-1.2752-0.9929-1.6465-0.5709-0.4054-1.5906-0.6919-3.0147 0.0931l-1.0228 0.6226s0.4778 0.0703 0.8656 0.3123c0.3154 0.1965 0.4654 0.4251 0.5585 0.5316h1e-3zm2.0788-0.8057c0.3164 0.2245 0.5419 0.6071 0.6164 1.0477l0.2171 1.2762-0.5336-0.1737c-0.2048-0.0662-0.3909-0.1769-0.5368-0.3175-0.1241-0.119-0.2554-0.331-0.4074-0.5771-0.181-0.2927-0.4075-0.6568-0.7302-1.0498-0.1096-0.1241-0.2079-0.2316-0.2947-0.3237 0.6577-0.2378 1.2214-0.2006 1.6702 0.1179h-1e-3z" fill="#235162" stroke="#235162" stroke-miterlimit="10" stroke-width=".08"/>
</svg>
