<svg width="462" height="528" viewBox="0 0 462 528" fill="none" xmlns="http://www.w3.org/2000/svg">
<path d="M434.486 0.80957H27.5139V4.325C27.4971 9.76738 25.0166 14.9827 20.6145 18.831C16.2124 22.6794 10.2467 24.8479 4.02126 24.8625H0V503.738H4.02126C10.2521 503.748 16.2242 505.917 20.6281 509.771C25.032 513.624 27.5083 518.847 27.5139 524.294V527.81H434.486V524.294C434.492 518.844 436.971 513.618 441.379 509.764C445.788 505.91 451.765 503.743 458 503.738H462V24.8625H458C451.769 24.8576 445.795 22.6929 441.387 18.8429C436.979 14.993 434.497 9.77208 434.486 4.325V0.80957ZM430.465 4.325C430.465 10.7042 433.364 16.8222 438.524 21.333C443.683 25.8438 450.682 28.3779 457.979 28.3779V500.186C450.682 500.186 443.683 502.72 438.524 507.231C433.364 511.741 430.465 517.859 430.465 524.239H31.5351C31.5351 521.08 30.8234 517.952 29.4407 515.034C28.058 512.116 26.0314 509.464 23.4765 507.231C20.9216 504.997 17.8885 503.225 14.5504 502.017C11.2122 500.808 7.63443 500.186 4.02126 500.186V28.3779C7.63443 28.3779 11.2122 27.7558 14.5504 26.547C17.8885 25.3382 20.9216 23.5665 23.4765 21.333C26.0314 19.0995 28.058 16.4479 29.4407 13.5297C30.8234 10.6114 31.5351 7.48368 31.5351 4.325H430.465Z" fill="#1A4A5B"/>
</svg>
