<svg width="22" height="22" viewBox="0 0 22 22" fill="none" xmlns="http://www.w3.org/2000/svg">
<g clip-path="url(#clip0_268_85)">
<path d="M2.97 0.18335C2.16335 0.18335 1.43 0.476697 0.88 1.0267C0.293348 1.61335 0 2.34665 0 3.11665C0 3.92331 0.33 4.65665 0.88 5.20665C1.43 5.75665 2.2 6.08665 2.93335 6.05C2.93335 6.05 2.97 6.05 3.0067 6.05C3.74004 6.05 4.4367 5.75665 4.9867 5.20665C5.5367 4.65665 5.8667 3.92331 5.8667 3.11665C5.90335 2.34665 5.57335 1.61331 5.02335 1.06331C4.47335 0.476654 3.74 0.18335 2.97 0.18335ZM4.47335 4.69335C4.07 5.0967 3.52 5.35335 2.93335 5.3167C2.38335 5.3167 1.7967 5.0967 1.39335 4.69335C0.953348 4.29 0.733348 3.70335 0.733348 3.1167C0.733348 2.53004 0.953348 1.98004 1.39335 1.54004C1.7967 1.1367 2.3467 0.916697 2.97 0.916697C3.52 0.916697 4.07 1.1367 4.47335 1.54004C4.91335 1.98004 5.13335 2.53004 5.13335 3.1167C5.13335 3.70335 4.91335 4.29 4.47335 4.69335Z" fill="url(#paint0_linear_268_85)"/>
<path d="M4.4 6.78333H1.43C0.843349 6.78333 0.366653 7.25998 0.366653 7.88332V20.7167C0.366653 21.3033 0.880001 21.8167 1.46665 21.8167H4.4C4.98665 21.8167 5.5 21.3033 5.5 20.7533V7.88332C5.5 7.29663 4.98665 6.78333 4.4 6.78333ZM4.76665 20.7533C4.76665 20.9367 4.58331 21.0833 4.4 21.0833H1.46665C1.28331 21.0833 1.1 20.9 1.1 20.7167V7.88332C1.1 7.69998 1.24665 7.51667 1.43 7.51667H4.4C4.58335 7.51667 4.76665 7.70002 4.76665 7.88332V20.7533Z" fill="url(#paint1_linear_268_85)"/>
<path d="M16.8667 6.41663H16.0967C14.6667 6.41663 13.31 7.03997 12.43 8.02997V7.51663C12.43 7.14997 12.0633 6.78328 11.6967 6.78328H8.03C7.7 6.78328 7.29665 7.07663 7.29665 7.47993V21.1566C7.29665 21.5599 7.7 21.8166 8.03 21.8166H12.0633C12.3933 21.8166 12.7967 21.5599 12.7967 21.1566V13.2366C12.7967 12.0266 13.6767 11.0732 14.8133 11.0732C15.4 11.0732 15.95 11.2932 16.3533 11.6966C16.72 12.0266 16.8667 12.5399 16.8667 13.1999V21.0833C16.8667 21.4499 17.2333 21.8166 17.6 21.8166H21.2667C21.6333 21.8166 22 21.45 22 21.0833V11.6233C22 8.68997 19.7633 6.41663 16.8667 6.41663ZM21.2667 21.0466L21.23 21.0833H17.6367L17.6 13.2C17.6 12.32 17.38 11.66 16.9033 11.1833C16.3533 10.6333 15.62 10.34 14.85 10.34C13.31 10.3766 12.1 11.6233 12.1 13.2366V21.0833H8.06665V7.51663H11.6967L11.7333 7.55328V9.86328L12.7233 8.87328L12.76 8.83663C13.4933 7.80997 14.7766 7.14997 16.1333 7.14997H16.9033C19.36 7.14997 21.2667 9.12997 21.2667 11.6233V21.0466Z" fill="url(#paint2_linear_268_85)"/>
</g>
<defs>
<linearGradient id="paint0_linear_268_85" x1="2.93473" y1="0.18335" x2="2.93473" y2="6.05277" gradientUnits="userSpaceOnUse">
<stop stop-color="#B5E0FF"/>
<stop offset="1" stop-color="white"/>
</linearGradient>
<linearGradient id="paint1_linear_268_85" x1="2.93333" y1="6.78333" x2="2.93333" y2="21.8167" gradientUnits="userSpaceOnUse">
<stop stop-color="#B5E0FF"/>
<stop offset="1" stop-color="white"/>
</linearGradient>
<linearGradient id="paint2_linear_268_85" x1="14.6483" y1="6.41663" x2="14.6483" y2="21.8166" gradientUnits="userSpaceOnUse">
<stop stop-color="#B5E0FF"/>
<stop offset="1" stop-color="white"/>
</linearGradient>
<clipPath id="clip0_268_85">
<rect width="22" height="22" fill="white"/>
</clipPath>
</defs>
</svg>
