<svg xmlns="http://www.w3.org/2000/svg" width="46" height="46" viewBox="0 0 46 46" fill="none">
  <g clip-path="url(#clip0_268_169)">
    <path d="M7.29004 1.21509H38.6857C39.4835 1.21509 40.2735 1.37222 41.0105 1.67752C41.7476 1.98282 42.4173 2.4303 42.9814 2.99442C43.5455 3.55854 43.993 4.22824 44.2983 4.96529C44.6036 5.70235 44.7607 6.49232 44.7607 7.2901V38.6858C44.7607 40.297 44.1207 41.8422 42.9814 42.9815C41.8421 44.1207 40.2969 44.7608 38.6857 44.7608H7.29004C6.49226 44.7608 5.70229 44.6036 4.96523 44.2983C4.22818 43.9931 3.55847 43.5456 2.99436 42.9815C1.85507 41.8422 1.21503 40.297 1.21503 38.6858V7.2901C1.21503 5.67891 1.85507 4.1337 2.99436 2.99442C4.13364 1.85513 5.67885 1.21509 7.29004 1.21509Z" stroke="#194A5B" stroke-miterlimit="10"/>
    <path d="M20.5687 27.6171V34.9071H22.5977C22.865 34.9071 22.9379 34.8342 22.9379 34.5669C22.9379 32.4892 22.9379 30.4116 22.9379 28.3218C22.9379 27.6535 22.9379 27.6535 22.2575 27.6535L20.5687 27.6171ZM33.3383 34.8463V34.5183C33.3383 28.0383 33.3383 21.5825 33.3383 15.1511C33.3383 14.896 33.2776 14.8109 33.0103 14.8109H26.4979C26.2184 14.8109 26.1577 14.896 26.1577 15.1633V34.5304C26.1517 34.6356 26.1517 34.7411 26.1577 34.8463H33.3383ZM25.2343 34.8463V9.62286H12.6711V34.8342H19.6452V34.4211C19.6452 31.9911 19.6452 29.5611 19.6452 27.1311C19.6452 26.8516 19.7303 26.7787 20.0097 26.7787C21.2248 26.7787 22.3426 26.7787 23.5211 26.7787C23.7884 26.7787 23.8492 26.8638 23.8492 27.1189C23.8492 29.0022 23.8492 30.8854 23.8492 32.7687V34.6519C23.8492 34.7856 23.8492 34.9314 24.0314 34.9314H25.2464M34.2496 34.9314H35.6468C35.8534 34.9314 35.9263 34.9314 35.9263 35.2108C35.9263 35.952 36.0235 35.8183 35.3066 35.8183H10.5935C10.0103 35.8183 10.0832 35.9034 10.0832 35.308V34.9435C10.5327 34.9435 10.958 34.9435 11.3832 34.9435C11.8085 34.9435 11.7477 34.8706 11.7477 34.579V9.16116C11.7477 8.67516 11.7477 8.72376 12.173 8.72376H25.7446C26.1577 8.72376 26.1577 8.72376 26.1577 9.14901V13.924H34.2374L34.2496 34.9314Z" fill="#194A5B"/>
    <path d="M16.3301 27.6171H15.3702C15.2123 27.6171 15.1394 27.6171 15.1394 27.8358V29.7433C15.1394 29.9134 15.1394 29.9742 15.3702 29.9742H17.3142C17.46 29.9742 17.5329 29.9742 17.5329 29.7676C17.5329 29.1237 17.5329 28.4797 17.5329 27.8236C17.5329 27.6414 17.4479 27.6049 17.2899 27.6171H16.3301ZM18.3956 30.8611H14.5805C14.3496 30.8611 14.2646 30.8004 14.2767 30.5574C14.2767 29.3424 14.2767 28.2003 14.2767 27.0096C14.2767 26.7909 14.2767 26.7058 14.5683 26.7058C15.7833 26.7058 16.9983 26.7058 18.2133 26.7058C18.3713 26.7058 18.5049 26.7058 18.5049 26.9367C18.5049 28.1517 18.5049 29.4517 18.5049 30.7153C18.5049 30.7153 18.5049 30.7761 18.5049 30.849" fill="#194A5B"/>
    <path d="M17.4346 22.2711H15.1868C15.1868 22.2711 15.0532 22.3804 15.0532 22.4412C15.0532 23.0973 15.0532 23.7534 15.0532 24.4217C15.0668 24.4664 15.0919 24.5067 15.126 24.5387C15.1601 24.5707 15.202 24.5932 15.2476 24.6039H17.2523C17.3131 24.6039 17.4224 24.5189 17.4224 24.4703C17.4224 23.7413 17.4224 23.0244 17.4224 22.2589M14.1662 25.5152V21.4084H18.3215C18.3215 21.4935 18.3215 21.5907 18.3215 21.6879C18.3215 22.9029 18.3215 24.0329 18.3215 25.1993C18.3215 25.4544 18.2486 25.5273 17.9935 25.5273H14.1662" fill="#194A5B"/>
    <path d="M22.8408 22.271H20.6538C20.6538 22.271 20.5201 22.3804 20.5201 22.4411C20.5201 23.0972 20.5201 23.7533 20.5201 24.4216C20.5337 24.4644 20.5573 24.5033 20.589 24.535C20.6207 24.5667 20.6596 24.5903 20.7024 24.6038H22.7193C22.7801 24.6038 22.8894 24.5188 22.8894 24.4702C22.8894 23.7412 22.8894 23.0243 22.8894 22.2589M23.7156 25.5151H19.5724V21.3962H23.7156V25.5151Z" fill="#194A5B"/>
    <path d="M15.0532 16.9372C15.0532 17.6784 15.0532 18.3952 15.0532 19.1121C15.0532 19.1121 15.1747 19.27 15.2354 19.27H17.2402C17.2817 19.2619 17.3203 19.243 17.3523 19.2153C17.3842 19.1876 17.4084 19.152 17.4224 19.1121C17.4224 18.3952 17.4224 17.6784 17.4224 16.9372H15.0532ZM18.3094 20.1449H14.1662V16.0503H18.3094V20.1449Z" fill="#194A5B"/>
    <path d="M20.4594 16.9372C20.4594 17.6783 20.4594 18.3952 20.4594 19.112C20.4594 19.112 20.5809 19.27 20.6417 19.27H22.6464C22.6879 19.2618 22.7265 19.2429 22.7585 19.2152C22.7905 19.1875 22.8147 19.152 22.8287 19.112C22.8287 18.3952 22.8287 17.6783 22.8287 16.9372H20.4594ZM19.5724 16.0381H23.7156V20.1448H19.5724V16.0381Z" fill="#194A5B"/>
    <path d="M17.4346 11.6034H15.0046C15.0046 12.3324 15.0046 13.0493 15.0046 13.754C15.0229 13.7968 15.0512 13.8345 15.0872 13.8641C15.1231 13.8937 15.1656 13.9143 15.2111 13.9241H17.1916C17.2523 13.9241 17.3738 13.8269 17.3738 13.7662C17.3738 13.0493 17.3738 12.3324 17.3738 11.6034M14.1055 10.7043H18.2608V14.7989H14.1662L14.1055 10.7043Z" fill="#194A5B"/>
    <path d="M20.4607 11.5912C20.4607 12.3323 20.4607 13.0492 20.4607 13.766C20.4607 13.766 20.5822 13.924 20.6429 13.924H22.6477C22.6892 13.9158 22.7278 13.8969 22.7598 13.8692C22.7918 13.8415 22.8159 13.806 22.83 13.766C22.83 13.0492 22.83 12.3323 22.83 11.5912H20.4607ZM23.7169 10.7042V14.7988H23.4739H19.8289C19.6588 14.7988 19.5373 14.7988 19.5373 14.5679C19.5373 13.3529 19.5373 12.065 19.5373 10.8136C19.5373 10.8136 19.5373 10.7407 19.5373 10.6799L23.7169 10.7042Z" fill="#194A5B"/>
    <path d="M29.8643 29.9742C30.1802 29.9742 30.4961 29.9742 30.8241 29.9742C31.1522 29.9742 31.0428 29.9134 31.0428 29.7433V27.8358C31.0428 27.6778 31.0428 27.6171 30.8363 27.6171H28.8558C28.71 27.6171 28.6493 27.6778 28.6493 27.8236C28.6493 28.4676 28.6493 29.0994 28.6493 29.7433C28.6493 29.9377 28.7343 29.9863 28.9044 29.9742C29.0745 29.962 29.5484 29.9742 29.8643 29.9742ZM31.9055 30.8611H28.0539C27.8231 30.8611 27.7502 30.7882 27.7502 30.5574C27.7502 29.3424 27.7502 28.1881 27.7502 27.0096C27.7502 26.7787 27.8231 26.7058 28.0539 26.7058C29.2689 26.7058 30.4839 26.7058 31.6989 26.7058C31.8569 26.7058 31.9784 26.7058 31.9784 26.9367V30.7153C31.9852 30.7596 31.9852 30.8047 31.9784 30.849" fill="#194A5B"/>
    <path d="M30.9443 22.271H28.7695C28.6115 22.271 28.5629 22.3439 28.5629 22.4897C28.5629 23.1458 28.5629 23.7898 28.5629 24.4337C28.5711 24.4804 28.5926 24.5236 28.625 24.5582C28.6574 24.5927 28.6992 24.617 28.7452 24.6281H30.7499C30.8107 24.6281 30.92 24.5309 30.92 24.4702C30.92 23.7533 30.92 23.0365 30.92 22.2832M31.8313 25.5151H27.676V21.3962H31.8313V25.5151Z" fill="#194A5B"/>
    <path d="M28.5881 16.9372V19.2822H30.3741C30.9695 19.2822 30.9695 19.2822 30.9695 18.6868V16.9372H28.5881ZM31.8321 16.0503V20.1692H28.0049C27.7497 20.1692 27.6525 20.1692 27.6525 19.8533C27.6525 18.6382 27.6525 17.5083 27.6525 16.3297C27.6525 16.2447 27.6525 16.1596 27.6525 16.0503H31.8321Z" fill="#194A5B"/>
  </g>
  <defs>
    <clipPath id="clip0_268_169">
      <rect width="46" height="46" fill="white"/>
    </clipPath>
  </defs>
</svg>