<svg width="47" height="45" viewBox="0 0 47 45" fill="none" xmlns="http://www.w3.org/2000/svg">
<path d="M33.8703 31.9573L37.6479 30.0873L38.6468 29.5946L38.1292 28.6028L36.1677 24.8756C35.1431 22.8599 33.5216 22.0995 32.2254 21.8317C33.1195 20.8507 33.9901 19.2784 33.6393 17.0378L33.0318 12.8629L32.8714 11.7576L31.7697 11.944L27.6242 12.6615C25.3932 13.015 24.1718 14.3238 23.5151 15.4762C22.8605 14.3216 21.637 13.0064 19.3995 12.6487L15.2455 11.9375L14.1481 11.749L13.9834 12.8565L13.3845 17.0271C13.0315 19.2613 13.8957 20.8293 14.7877 21.8103C13.4893 22.0781 11.8615 22.8364 10.8304 24.8563L8.87106 28.5921L8.35126 29.5796L9.35234 30.0787L13.1278 31.938C15.1407 32.9641 16.8968 32.6256 18.1033 32.0815C17.9557 33.4011 18.1739 35.1854 19.7739 36.792L22.7172 39.8123L23.4937 40.6113L24.2766 39.8123L27.2093 36.792C28.8071 35.1918 29.0275 33.4161 28.882 32.0965C30.0906 32.6449 31.851 32.9876 33.8703 31.9616V31.9573ZM35.1794 25.3897L36.7794 28.4379L31.4489 26.7028L30.435 24.7728C30.1761 24.263 29.8446 23.8988 29.4959 23.6418C30.0585 23.4319 30.5868 23.1641 31.0617 22.8407C31.0746 22.8321 31.0874 22.8235 31.1002 22.8149C32.296 22.8535 34.112 23.2969 35.1794 25.3897ZM26.3772 24.3829C26.5526 24.308 26.7322 24.248 26.9141 24.2052L27.5216 24.1238C28.0392 24.1109 28.9569 24.2523 29.4745 25.2719L30.3259 26.8892L28.6852 27.701C27.6713 28.213 26.8478 27.7931 26.4349 27.4761L25.96 27.022C25.8659 26.9084 25.7739 26.7864 25.6927 26.6557C25.6862 26.6428 25.6798 26.63 25.6713 26.6214L24.9654 25.1455L26.375 24.3851L26.3772 24.3829ZM24.4156 23.4126L24.129 21.8339C24.1119 21.6432 24.1098 21.4526 24.1247 21.2684L24.236 20.6622C24.3836 20.1652 24.8028 19.3362 25.928 19.1584L27.7269 18.8478L27.9922 20.6622C28.1654 21.7868 27.5109 22.4401 27.0831 22.7357L26.5055 23.0463C26.3686 23.102 26.2253 23.1513 26.0756 23.1877C26.0606 23.1898 26.0456 23.192 26.0371 23.1984L24.4156 23.4147V23.4126ZM32.0393 13.7947L32.5334 17.2027C32.8992 19.5355 31.6756 20.9664 30.7302 21.6968C30.7131 21.6968 30.6938 21.6968 30.6767 21.6968C30.112 21.7161 29.5366 21.806 28.9654 21.9624C29.0981 21.549 29.1515 21.0606 29.0617 20.4951L28.7451 18.3337L32.0393 13.7926V13.7947ZM27.8061 13.7626L31.1965 13.1799L27.9023 17.7211L25.7568 18.0917C25.1921 18.1817 24.7451 18.383 24.3921 18.6379C24.3664 18.0381 24.2745 17.4512 24.114 16.8986C24.1098 16.8836 24.1055 16.8686 24.1012 16.8536C24.5076 15.7269 25.4895 14.1353 27.8061 13.7647V13.7626ZM23.4958 24.6486H23.5087V24.6614H23.5151L23.5023 24.6678L23.4916 24.6614H23.4894L23.4958 24.6507V24.6486ZM19.2134 13.7519C21.5429 14.1246 22.5226 15.7311 22.9247 16.8579C22.9204 16.875 22.914 16.8921 22.9097 16.9093C22.7536 17.4534 22.6616 18.0296 22.6338 18.6208C22.2809 18.368 21.8338 18.1667 21.2691 18.0767L19.1193 17.7104L15.8252 13.1692L19.2156 13.7519H19.2134ZM21.0167 23.1898C20.8306 23.147 20.6509 23.0913 20.4819 23.0206L19.9343 22.725C19.5065 22.4294 18.8541 21.776 19.0316 20.6493L19.2926 18.8393L21.0958 19.1477C22.2167 19.3298 22.6359 20.1566 22.7835 20.6536L22.9012 21.2984C22.9119 21.4462 22.914 21.5983 22.9012 21.7525C22.899 21.7675 22.8969 21.7825 22.899 21.7932L22.6039 23.404L21.0167 23.1898ZM22.0327 25.1263L21.3397 26.5721C21.2413 26.7371 21.13 26.8913 21.0103 27.0327L20.5653 27.4568C20.1546 27.7717 19.3289 28.1958 18.3129 27.6775L16.6744 26.8699L17.5257 25.2462C18.0434 24.2373 18.9546 24.0916 19.4744 24.1045L20.1311 24.1923C20.2744 24.2287 20.4177 24.2737 20.5589 24.3294C20.5717 24.3358 20.5846 24.3422 20.5974 24.3444L22.0349 25.1241L22.0327 25.1263ZM14.4861 17.192L14.9802 13.784L18.2744 18.3252L17.9621 20.4822C17.8722 21.0478 17.9257 21.5361 18.0583 21.9496C17.4808 21.7889 16.8968 21.6947 16.3214 21.6754C16.3064 21.6754 16.2893 21.6754 16.2744 21.6754C15.3289 20.9407 14.1225 19.514 14.4861 17.192ZM11.8208 25.3726C12.8946 23.2712 14.7214 22.8321 15.9171 22.7978C15.9321 22.8085 15.9471 22.8192 15.9621 22.8299C16.4305 23.147 16.9482 23.4126 17.5022 23.6225C17.1535 23.8796 16.8241 24.2437 16.5631 24.7535L15.5492 26.6878L10.2187 28.4229L11.8187 25.3747L11.8208 25.3726ZM18.437 30.6207C17.4466 31.2933 15.7182 32.0023 13.6262 30.9398L10.5417 29.4168L15.8722 27.6817L17.8252 28.6457C18.3343 28.9049 18.8156 29.0055 19.2498 29.0077C18.9182 29.5089 18.6487 30.0359 18.4541 30.5778C18.4498 30.5928 18.4434 30.6078 18.4391 30.6228L18.437 30.6207ZM22.9718 38.4713L20.5717 36.0058C18.9054 34.3329 19.0573 32.4586 19.3931 31.3083C19.4081 31.2976 19.4231 31.2868 19.4359 31.2761C19.883 30.9291 20.2937 30.5157 20.6637 30.0552C20.8006 30.4686 21.0423 30.8927 21.4488 31.2997L22.9718 32.8613V38.4735V38.4713ZM22.2145 30.5328C21.4145 29.7274 21.56 28.8127 21.7332 28.3222L22.0177 27.7289C22.0969 27.6025 22.1825 27.4804 22.283 27.3626C22.2937 27.3519 22.3044 27.3411 22.3087 27.3304L23.4937 26.2016L24.6531 27.309C24.7793 27.4525 24.8905 27.6068 24.9889 27.7631L25.2542 28.3179C25.4274 28.8085 25.575 29.7231 24.7686 30.5307L23.4958 31.8416L22.2167 30.5307L22.2145 30.5328ZM26.4157 36.0058L24.0156 38.4713V32.8591L25.5344 31.2976C25.9387 30.8927 26.1825 30.4664 26.3173 30.053C26.6916 30.5243 27.1087 30.9441 27.5622 31.2954C27.575 31.304 27.5879 31.3147 27.6007 31.3233C27.9344 32.4735 28.0734 34.3393 26.4157 36.0037V36.0058ZM28.5291 30.5757C28.3365 30.0423 28.0734 29.5239 27.7483 29.0291C28.1825 29.027 28.6617 28.9263 29.1729 28.6671L31.128 27.6989L36.4586 29.434L33.374 30.957C31.2713 32.0259 29.5366 31.304 28.5483 30.6292C28.5419 30.6121 28.5355 30.595 28.5312 30.5778L28.5291 30.5757Z" fill="#EDE7D3"/>
<path d="M19.8973 9.79985L20.9069 10.3054C21.3947 10.5496 21.8588 10.8388 22.2909 11.1708L23.0225 11.732V8.82307C23.0225 8.37752 22.9219 7.9384 22.7337 7.55282C22.5754 7.22937 22.3316 6.94019 22.0492 6.60389C21.7797 6.28472 21.4759 5.92485 21.185 5.46859C21.0952 5.3165 20.8813 5.04875 20.77 4.59677C20.6331 4.04197 20.7337 3.44434 20.7337 3.44434L19.5978 4.42112C18.1133 5.81346 18.0598 7.13941 18.323 7.97696C18.5625 8.74382 19.1208 9.38858 19.8973 9.79772V9.79985ZM19.9294 5.59926C20.0064 5.73849 20.0962 5.89701 20.2011 6.0748C20.5433 6.61246 20.8898 7.02159 21.1679 7.35147C21.4011 7.6278 21.6021 7.86556 21.6963 8.06049C21.8075 8.28969 21.8674 8.55317 21.8674 8.82307V9.52567L20.4321 8.77381C19.9358 8.51462 19.5679 8.09905 19.4246 7.63422C19.2192 6.97661 19.3925 6.29115 19.9294 5.59926Z" fill="#EDE7D3"/>
<path d="M22.7652 6.14333C23.0368 6.49677 23.3363 6.87163 23.5053 7.08155C23.6679 6.87377 23.9673 6.49677 24.239 6.14333C24.5 5.80702 24.731 5.5007 24.8229 5.36147C25.1353 4.88807 26.0657 3.44646 24.4123 1.78635L24.2903 1.65997L23.5053 0.80957L22.7138 1.65997L22.5919 1.78635C20.9405 3.44646 21.8689 4.88807 22.1812 5.36147C22.2732 5.5007 22.5042 5.80702 22.7652 6.14333ZM23.4219 2.58963L23.5031 2.50824L23.578 2.58963C24.5834 3.60283 24.1449 4.28401 23.839 4.75312C23.7919 4.82809 23.6657 4.99518 23.5031 5.20938C23.3363 4.99518 23.208 4.82809 23.163 4.75312C22.8572 4.28401 22.4186 3.60283 23.424 2.58963H23.4219Z" fill="#EDE7D3"/>
<path d="M24.2608 7.55557C24.0726 7.94114 23.9742 8.38026 23.9742 8.82582V11.7347L24.7057 11.1735C25.1378 10.8415 25.602 10.5502 26.0897 10.3081L27.0994 9.8026C27.8758 9.39561 28.4363 8.7487 28.6737 7.98184C28.9347 7.14429 28.8812 5.81835 27.3988 4.426L26.263 3.44922C26.263 3.44922 26.3635 4.04686 26.2266 4.60165C26.1154 5.05363 25.9015 5.32139 25.8116 5.47348C25.5207 5.92974 25.217 6.2896 24.9475 6.60877C24.6651 6.94508 24.4191 7.23425 24.263 7.55771L24.2608 7.55557ZM25.1293 8.82582C25.1293 8.55591 25.1892 8.29244 25.3004 8.06324C25.3945 7.87045 25.5956 7.63054 25.8288 7.35421C26.1068 7.02434 26.4534 6.6152 26.7956 6.07754C26.9004 5.8976 26.9903 5.74123 27.0673 5.602C27.6042 6.29388 27.7774 6.97935 27.5721 7.63696C27.4266 8.10179 27.0609 8.51735 26.5646 8.77655L25.1293 9.52841V8.82582Z" fill="#EDE7D3"/>
<path d="M39.8553 18.9014C40.1141 18.6508 40.3131 18.3295 40.5462 17.9546C40.7644 17.599 41.0147 17.1985 41.3569 16.7807C41.4746 16.6479 41.6607 16.363 42.0564 16.1146C42.542 15.8125 43.1388 15.7226 43.1388 15.7226L41.8596 14.9429C40.0778 13.9596 38.8029 14.3195 38.0884 14.8272C37.4339 15.292 36.9932 16.0246 36.8478 16.89L36.6809 18.0082C36.5996 18.548 36.467 19.0792 36.2852 19.5954L35.9772 20.4673L38.7387 19.5676C39.1622 19.4305 39.5473 19.1992 39.8553 18.9014ZM37.7141 18.6851L37.9858 17.0871C38.0799 16.5344 38.3601 16.0567 38.758 15.774C39.3184 15.3756 40.0243 15.3284 40.8478 15.6262C40.7387 15.7418 40.6168 15.8768 40.4799 16.0332C40.0756 16.5258 39.7933 16.9821 39.5665 17.3484C39.3761 17.6569 39.2114 17.9225 39.0574 18.0703C38.8735 18.2459 38.6424 18.3852 38.3858 18.4687L37.7184 18.6851H37.7141Z" fill="#EDE7D3"/>
<path d="M45.4475 17.0549L45.2892 16.9777C43.2015 15.9174 42.1213 17.2476 41.7662 17.6911C41.6635 17.8217 41.4432 18.1366 41.2058 18.4879C40.9555 18.8563 40.6903 19.2569 40.5448 19.4818C40.7929 19.5718 41.2421 19.741 41.6614 19.891C42.0614 20.0345 42.4229 20.1609 42.5833 20.2058C43.1309 20.3558 44.7866 20.7971 45.8518 18.7107L45.9352 18.5565L46.5 17.5454L45.4475 17.0549ZM44.8293 18.1666C44.1791 19.4368 43.394 19.2291 42.855 19.0834C42.7694 19.062 42.5705 18.9934 42.3181 18.9056C42.47 18.6807 42.5897 18.5072 42.6475 18.4408C42.9983 18.0038 43.5095 17.3762 44.7823 18.0188L44.885 18.0702L44.8315 18.1666H44.8293Z" fill="#EDE7D3"/>
<path d="M42.7847 21.1849C42.2628 21.05 41.8243 20.87 41.4392 20.7115C41.0328 20.5466 40.682 20.4009 40.3248 20.3516C39.9012 20.2917 39.452 20.3345 39.0306 20.4716L36.267 21.3691L37.0263 21.8939C37.4755 22.2045 37.8948 22.5558 38.2777 22.9457L39.0691 23.7511C39.6959 24.3659 40.4831 24.6979 41.2852 24.6893C42.1601 24.6808 43.4029 24.2181 44.2692 22.3759L44.8468 20.9921C44.8468 20.9921 44.3099 21.2728 43.7409 21.3135C43.2767 21.3456 42.958 21.2256 42.7847 21.1871V21.1849ZM41.2745 23.5305C40.789 23.5369 40.2799 23.3141 39.8799 22.9221L38.7226 21.789L39.39 21.5726C39.6467 21.4891 39.9162 21.4634 40.1665 21.4998C40.3804 21.5298 40.6692 21.6476 41.0029 21.7847C41.4007 21.9475 41.897 22.151 42.5152 22.3095C42.7184 22.3545 42.8959 22.3909 43.0521 22.4209C42.5601 23.1471 41.9633 23.5241 41.2745 23.5305Z" fill="#EDE7D3"/>
<path d="M37.6921 35.7704C37.0482 35.2906 36.2161 35.0978 35.3498 35.2263L34.2354 35.4127C33.6963 35.5027 33.1509 35.5412 32.6054 35.5262L31.6835 35.5027L33.3926 37.8547C33.6535 38.2145 33.9915 38.5123 34.3701 38.7136C34.6867 38.8829 35.0568 38.9728 35.4825 39.0778C35.8867 39.1763 36.3466 39.2898 36.8472 39.4869C37.0097 39.5576 37.3392 39.6476 37.6942 39.9475C38.1306 40.3159 38.4001 40.8578 38.4001 40.8578L38.7467 39.3991C39.1296 37.3984 38.3937 36.2952 37.6921 35.7704ZM37.2878 38.4159C36.6953 38.1824 36.1755 38.0539 35.7563 37.9511C35.4054 37.8654 35.1017 37.7904 34.9113 37.6897C34.6867 37.5698 34.4835 37.392 34.3252 37.1735L33.9124 36.6058L35.5145 36.3702C36.0686 36.2888 36.6097 36.4088 36.9991 36.7001C37.5509 37.1114 37.814 37.769 37.7841 38.6451C37.6408 38.5765 37.4761 38.5016 37.2835 38.4202L37.2878 38.4159Z" fill="#EDE7D3"/>
<path d="M36.1113 40.1576C35.9551 40.0997 35.5872 39.9883 35.1808 39.8684C34.7529 39.742 34.2909 39.6156 34.0321 39.5449C34.0235 39.8084 34.0021 40.2904 33.9893 40.7359C33.9765 41.16 33.9679 41.5435 33.9765 41.7106C34.0021 42.2782 34.0963 43.9919 36.4064 44.3624L36.5797 44.3946L37.7156 44.6195L37.8567 43.4649L37.8803 43.2914C38.2418 40.9758 36.6439 40.3568 36.1134 40.1576H36.1113ZM36.7337 43.1307L36.7166 43.2443L36.6075 43.2229C35.2 42.9958 35.1551 42.184 35.1273 41.6249C35.1209 41.5371 35.1251 41.3271 35.1294 41.0572C35.3904 41.1322 35.5915 41.1922 35.6727 41.2264C36.1947 41.4257 36.9519 41.7191 36.7316 43.1307H36.7337Z" fill="#EDE7D3"/>
<path d="M33.2801 43.1562C33.1047 42.7236 33.1218 42.383 33.1047 42.2073C33.0726 41.6675 33.1068 41.1963 33.1367 40.7807C33.1688 40.3416 33.1966 39.9646 33.1346 39.609C33.0597 39.187 32.8822 38.7736 32.6212 38.4137L30.9143 36.0596L30.6511 36.9442C30.495 37.4669 30.2918 37.9746 30.0394 38.4608L29.5196 39.4633C29.1303 40.2495 29.0575 41.102 29.3142 41.8624C29.5945 42.6936 30.4159 43.7346 32.433 43.9895L33.9261 44.1116C33.9261 44.1116 33.494 43.6875 33.2801 43.1584V43.1562ZM31.9538 42.2973C31.9731 42.5051 31.9945 42.685 32.0137 42.8435C31.1731 42.5993 30.6298 42.1473 30.4094 41.494C30.2533 41.0335 30.3068 40.4808 30.5549 39.9774L31.2736 38.5251L31.6865 39.0927C31.8447 39.3112 31.9517 39.5597 31.9966 39.8103C32.0351 40.0224 32.0116 40.3351 31.9838 40.695C31.9517 41.1256 31.9132 41.6611 31.9517 42.2973H31.9538Z" fill="#EDE7D3"/>
<path d="M16.9563 38.4608C16.7039 37.9767 16.5006 37.4691 16.3445 36.9442L16.0814 36.0596L14.3744 38.4137C14.1134 38.7736 13.9359 39.187 13.861 39.609C13.799 39.9646 13.8268 40.3416 13.8589 40.7807C13.8888 41.1963 13.9252 41.6675 13.891 42.2073C13.8739 42.383 13.891 42.7257 13.7156 43.1562C13.5017 43.6853 13.0696 44.1095 13.0696 44.1095L14.5627 43.9874C16.5798 43.7346 17.4033 42.6914 17.6814 41.8603C17.9381 41.0999 17.8654 40.2473 17.4761 39.4612L16.9563 38.4587V38.4608ZM16.5862 41.494C16.3659 42.1473 15.8226 42.5993 14.9819 42.8435C15.0012 42.685 15.0225 42.5051 15.0418 42.2973C15.0803 41.6611 15.0418 41.1256 15.0097 40.695C14.984 40.3351 14.9605 40.0224 14.9969 39.8103C15.0418 39.5597 15.1488 39.3112 15.307 39.0927L15.7199 38.5251L16.4386 39.9774C16.6867 40.4808 16.7402 41.0313 16.5841 41.494H16.5862Z" fill="#EDE7D3"/>
<path d="M12.9645 39.5422C12.7121 39.615 12.2479 39.7435 11.8201 39.8678C11.4136 39.9856 11.0457 40.0991 10.8896 40.157C10.3591 40.3562 8.7612 40.9752 9.1227 43.2908L9.14624 43.4643L9.28313 44.6146L10.4233 44.3918L10.5965 44.3597C12.9089 43.9891 13.0008 42.2755 13.0265 41.7078C13.0329 41.5407 13.0265 41.1573 13.0137 40.7332C13.0008 40.2876 12.9794 39.8078 12.9645 39.54V39.5422ZM11.8757 41.6243C11.8479 42.1834 11.803 42.9952 10.3954 43.2223L10.2821 43.2394L10.2692 43.1302C10.0511 41.7185 10.8061 41.4251 11.3281 41.2258C11.4094 41.1916 11.6104 41.1316 11.8671 41.0523C11.8778 41.3244 11.8821 41.5343 11.8735 41.6221L11.8757 41.6243Z" fill="#EDE7D3"/>
<path d="M9.30452 39.9453C9.66174 39.6454 9.99116 39.5554 10.1516 39.4847C10.6543 39.2877 11.112 39.1741 11.5163 39.0756C11.942 38.9707 12.3099 38.8807 12.6286 38.7115C13.0072 38.5101 13.3452 38.2124 13.6062 37.8525L15.3153 35.5005L14.3934 35.5241C13.8479 35.5369 13.3024 35.5005 12.7634 35.4105L11.6489 35.2242C10.7826 35.0957 9.95051 35.2906 9.30666 35.7683C8.6029 36.2909 7.86921 37.3962 8.2521 39.3969L8.59863 40.8557C8.59863 40.8557 8.86815 40.3137 9.30452 39.9453ZM9.99758 36.6979C10.3869 36.4066 10.9281 36.2866 11.4821 36.368L13.0842 36.6037L12.6714 37.1713C12.5131 37.3898 12.3099 37.5697 12.0853 37.6876C11.8949 37.7882 11.5933 37.8632 11.2404 37.9489C10.8211 38.0517 10.3013 38.1802 9.7088 38.4137C9.51842 38.4972 9.35372 38.5722 9.20826 38.6386C9.18045 37.7625 9.44142 37.1049 9.9933 36.6936L9.99758 36.6979Z" fill="#EDE7D3"/>
<path d="M9.97234 21.894L10.7317 21.3692L7.96804 20.4717C7.5445 20.3346 7.09744 20.2938 6.6739 20.3517C6.31882 20.401 5.96587 20.5445 5.55945 20.7116C5.17442 20.8701 4.73591 21.0479 4.21398 21.185C4.04071 21.2235 3.72199 21.3456 3.25781 21.3113C2.68882 21.2706 2.15192 20.99 2.15192 20.99L2.72946 22.3738C3.59365 24.2181 4.83645 24.6787 5.71346 24.6872C6.51561 24.6958 7.30065 24.3638 7.92953 23.749L8.72098 22.9436C9.10388 22.5537 9.52313 22.2024 9.97234 21.8918V21.894ZM7.12096 22.9243C6.72096 23.3163 6.21186 23.537 5.7263 23.5327C5.03752 23.5262 4.44072 23.1471 3.94873 22.4231C4.10489 22.3931 4.28243 22.3567 4.48564 22.3117C5.10169 22.151 5.59795 21.9497 5.99795 21.7847C6.33165 21.6476 6.62042 21.5298 6.83433 21.4998C7.08674 21.4656 7.35412 21.4891 7.61081 21.5727L8.2782 21.789L7.12096 22.9222V22.9243Z" fill="#EDE7D3"/>
<path d="M4.41442 20.2058C4.57485 20.1608 4.9385 20.0344 5.33636 19.8909C5.75562 19.741 6.20482 19.5717 6.45509 19.4754C6.3075 19.2569 6.04225 18.8542 5.79198 18.4879C5.55455 18.1366 5.33422 17.8217 5.23155 17.691C4.87646 17.2476 3.79624 15.9152 1.70851 16.9777L1.55022 17.0548L0.499939 17.5411L1.06251 18.5585L1.14593 18.7128C2.21333 20.7992 3.86682 20.3579 4.41442 20.2079V20.2058ZM2.16627 18.1666L2.11493 18.0637L2.21547 18.0166C3.48821 17.3718 3.99945 18.0016 4.35026 18.4386C4.40801 18.505 4.5278 18.6785 4.68181 18.8991C4.42726 18.9934 4.22833 19.0619 4.14277 19.0833C3.60372 19.2312 2.81868 19.4368 2.16841 18.1666H2.16627Z" fill="#EDE7D3"/>
<path d="M5.64225 16.7827C5.9845 17.2004 6.23477 17.601 6.45296 17.9566C6.68398 18.3293 6.88505 18.6527 7.14388 18.9034C7.4519 19.2011 7.83908 19.4303 8.26047 19.5695L11.022 20.4692L10.714 19.5974C10.5322 19.0833 10.3995 18.552 10.3183 18.0101L10.1514 16.8919C10.0038 16.0266 9.56316 15.294 8.91075 14.8291C8.1963 14.3215 6.92141 13.9616 5.13957 14.9448L3.86041 15.7245C3.86041 15.7245 4.45935 15.8123 4.94278 16.1165C5.33851 16.3629 5.52461 16.6499 5.64225 16.7827ZM8.24122 15.7738C8.63695 16.0565 8.9193 16.5342 9.01342 17.0869L9.28509 18.6849L8.61769 18.4685C8.361 18.385 8.12785 18.2479 7.94603 18.0701C7.79202 17.9201 7.62731 17.6545 7.43693 17.3482C7.21019 16.9819 6.92783 16.5257 6.52355 16.033C6.38665 15.8766 6.26472 15.7417 6.15563 15.626C6.97917 15.3282 7.68506 15.3754 8.2455 15.7738H8.24122Z" fill="#EDE7D3"/>
</svg>
