<svg xmlns="http://www.w3.org/2000/svg" width="46" height="46" viewBox="0 0 46 46" fill="none">
  <g clip-path="url(#clip0_268_211)">
    <path d="M7.29004 1.21484H38.6857C39.4835 1.21484 40.2735 1.37198 41.0105 1.67728C41.7476 1.98257 42.4173 2.43006 42.9814 2.99417C43.5455 3.55829 43.993 4.228 44.2983 4.96505C44.6036 5.7021 44.7607 6.49207 44.7607 7.28986V38.6855C44.7607 40.2967 44.1207 41.8419 42.9814 42.9812C41.8421 44.1205 40.2969 44.7605 38.6857 44.7605H7.29004C6.49226 44.7605 5.70229 44.6034 4.96523 44.2981C4.22818 43.9928 3.55847 43.5453 2.99436 42.9812C1.85507 41.8419 1.21503 40.2967 1.21503 38.6855V7.28986C1.21503 5.67866 1.85507 4.13346 2.99436 2.99417C4.13364 1.85489 5.67885 1.21484 7.29004 1.21484Z" stroke="#194A5B" stroke-width="1.5" stroke-miterlimit="10"/>
    <path d="M28.9646 24.3848C29.3771 24.4202 29.7909 24.333 30.154 24.1341C30.5171 23.9353 30.8134 23.6336 31.0058 23.267C31.1273 23.0361 31.2002 22.781 31.3338 22.5623C31.4675 22.3436 31.3946 22.1249 31.1637 22.0034C30.884 21.8447 30.568 21.7613 30.2464 21.7613C29.9248 21.7613 29.6088 21.8447 29.3291 22.0034C29.2386 22.0627 29.1608 22.1394 29.1003 22.2291C29.0398 22.3188 28.9978 22.4197 28.9767 22.5258C28.9767 23.1333 28.9767 23.7408 28.9767 24.3726M13.8864 28.7223C13.7892 29.0261 13.7163 29.2934 13.6312 29.5728H20.0465C19.9736 29.342 19.9007 29.1354 19.8521 28.9289C19.8035 28.7223 19.7306 28.7223 19.5726 28.7223H13.8864ZM12.8658 26.1101H20.0343V25.8306C20.0343 25.4297 19.925 25.3082 19.524 25.2839H13.1209H12.8658V26.1101ZM16.851 26.997H12.0517C11.9386 27.0081 11.828 27.0368 11.7237 27.0821C11.7237 27.2036 11.8087 27.3737 11.9059 27.4344C12.151 27.5777 12.412 27.6919 12.6835 27.7746C12.9102 27.8294 13.143 27.8539 13.3761 27.8475C15.6724 27.8475 17.981 27.8475 20.2895 27.8475C20.8106 27.8822 21.3283 27.741 21.7596 27.4466C21.8568 27.3737 21.8811 27.2157 21.954 27.0942C21.8455 27.0467 21.731 27.0141 21.6138 26.997H16.851ZM31.346 24.4091C31.74 24.3749 32.1171 24.2334 32.4363 23.9999C32.7555 23.7664 33.0045 23.4499 33.1563 23.0847C34.2822 20.6547 35.4081 18.1964 36.534 15.7096C36.534 15.6367 36.5948 15.5638 36.6312 15.4788C36.3265 15.4212 36.0113 15.4723 35.7404 15.6233C35.4695 15.7743 35.2602 16.0155 35.1489 16.305C34.1648 18.4434 33.1928 20.5818 32.2086 22.7081C31.9413 23.2913 31.6376 23.838 31.346 24.4091ZM37.1172 16.7788H37.02L36.8864 17.0461C35.9144 19.1481 34.9545 21.2622 33.9947 23.3642C33.761 23.9573 33.3466 24.4619 32.8101 24.8065C32.2737 25.151 31.6424 25.318 31.0058 25.2839H25.7813C25.6754 25.2666 25.5667 25.2831 25.4707 25.3311C25.3748 25.379 25.2964 25.4561 25.2467 25.5512C25.1373 25.782 25.2467 25.9521 25.4046 26.1101C25.8285 26.5592 26.3474 26.9079 26.9234 27.1307C28.2862 27.6645 29.7671 27.824 31.2123 27.5924C32.1105 27.5175 32.9724 27.2045 33.7092 26.6855C34.4461 26.1665 35.0311 25.4604 35.4041 24.6399L35.6228 24.1782C36.2439 22.7212 36.653 21.1828 36.8378 19.6098C36.9593 18.6743 37.0322 17.7265 37.1294 16.791M37.992 16.7181C37.9313 17.3985 37.8827 18.0789 37.8098 18.7472C37.6556 20.9282 37.0995 23.062 36.1695 25.0409C35.7836 25.8705 35.2194 26.6048 34.5171 27.1914C34.3713 27.3008 34.4199 27.4101 34.5171 27.5316C34.8452 28.5644 35.1611 29.585 35.4891 30.6056L35.562 30.8243C35.5848 30.8799 35.5956 30.9396 35.5936 30.9997C35.5916 31.0597 35.577 31.1186 35.5506 31.1726C35.5242 31.2265 35.4866 31.2743 35.4404 31.3127C35.3943 31.3511 35.3405 31.3792 35.2826 31.3953C35.226 31.4157 35.1657 31.4235 35.1058 31.4182C35.0459 31.4128 34.9879 31.3945 34.9358 31.3644C34.8838 31.3343 34.8389 31.2932 34.8043 31.244C34.7698 31.1948 34.7464 31.1386 34.7358 31.0794C34.4928 30.3261 34.262 29.5607 34.019 28.8074C33.9096 28.4672 33.8003 28.1148 33.6788 27.7625C32.7765 28.1852 31.8049 28.4404 30.8114 28.5158C29.819 28.5961 28.8202 28.5306 27.8468 28.3214C27.701 28.7345 27.5795 29.1476 27.4337 29.5971H32.0628C32.1187 29.5987 32.1737 29.6113 32.2247 29.6341C32.2757 29.6569 32.3217 29.6896 32.36 29.7302C32.3984 29.7708 32.4284 29.8186 32.4483 29.8708C32.4681 29.9231 32.4776 29.9787 32.4759 30.0345C32.4728 30.1452 32.4266 30.2503 32.3472 30.3274C32.2678 30.4045 32.1614 30.4477 32.0507 30.4476C31.7955 30.4476 31.5282 30.4476 31.2731 30.4476C30.0581 30.4476 28.7823 30.4476 27.5309 30.4476C27.2514 30.4476 27.0813 30.4476 27.0449 30.8C27.0242 30.914 26.9874 31.0245 26.9355 31.128C26.8971 31.2317 26.8198 31.3164 26.72 31.364C26.6201 31.4116 26.5057 31.4185 26.4009 31.3832C26.3489 31.3666 26.3007 31.34 26.2591 31.3047C26.2175 31.2694 26.1832 31.2262 26.1584 31.1777C26.1335 31.1291 26.1185 31.0761 26.1143 31.0217C26.11 30.9673 26.1166 30.9126 26.1336 30.8607C26.1336 30.7271 26.1944 30.6056 26.2308 30.4598H21.3708L21.4802 30.8364C21.5077 30.8931 21.5226 30.9552 21.5239 31.0182C21.5252 31.0812 21.5129 31.1438 21.4878 31.2016C21.4627 31.2594 21.4254 31.3111 21.3784 31.3532C21.3314 31.3952 21.2759 31.4266 21.2157 31.4452C21.1554 31.4639 21.0919 31.4692 21.0294 31.461C20.9669 31.4527 20.9069 31.4311 20.8536 31.3975C20.8002 31.3639 20.7548 31.3192 20.7203 31.2664C20.6859 31.2136 20.6632 31.1539 20.654 31.0916C20.654 31.0916 20.5689 30.6177 20.4231 30.5327C20.2773 30.4476 20.01 30.5327 19.7792 30.5327C17.7866 30.5327 15.7818 30.5327 13.777 30.5327C13.5462 30.5327 13.4125 30.5327 13.3761 30.8121C13.3583 30.9463 13.3215 31.0772 13.2667 31.2009C13.2307 31.3069 13.1544 31.3943 13.0543 31.4443C12.9543 31.4944 12.8385 31.503 12.7321 31.4682C12.6776 31.4531 12.6268 31.427 12.5829 31.3914C12.5389 31.3559 12.5027 31.3117 12.4765 31.2615C12.4503 31.2114 12.4346 31.1565 12.4306 31.1C12.4265 31.0436 12.434 30.987 12.4527 30.9336C12.6471 30.2654 12.8658 29.6093 13.0723 28.9532C13.0694 28.9046 13.0694 28.8559 13.0723 28.8074C12.826 28.7663 12.5825 28.7095 12.3433 28.6373C12.028 28.526 11.7264 28.3793 11.4442 28.1999C11.2529 28.0683 11.1062 27.8815 11.0237 27.6645C10.9412 27.4474 10.9268 27.2103 10.9825 26.9849C11.1283 26.5353 11.4564 26.3166 12.0639 26.2559C12.0639 26.2559 12.0639 26.1587 12.0639 26.0979V22.6959C12.0724 22.5352 12.03 22.3759 11.9427 22.2407C11.8555 22.1054 11.7278 22.0011 11.5779 21.9426C11.3239 21.8283 11.0485 21.7691 10.7699 21.7691C10.4913 21.7691 10.2159 21.8283 9.96193 21.9426C9.81502 21.9983 9.68919 22.0985 9.60205 22.2292C9.5149 22.3599 9.47081 22.5146 9.47593 22.6716V29.4513C9.47593 29.4513 9.47593 29.5242 9.47593 29.585H13.9957C14.1034 29.6001 14.2008 29.657 14.2668 29.7435C14.3327 29.8299 14.3619 29.9388 14.3481 30.0467C14.3481 30.1498 14.3071 30.2487 14.2342 30.3216C14.1613 30.3945 14.0624 30.4355 13.9593 30.4355C13.1452 30.4355 9.81613 30.4355 9.00208 30.4355C8.74693 30.4355 8.60113 30.2411 8.60113 29.9373V22.9146C8.57251 22.6825 8.59105 22.4469 8.65565 22.2222C8.72025 21.9974 8.82957 21.7879 8.97707 21.6064C9.12456 21.4249 9.30718 21.275 9.514 21.1657C9.72081 21.0565 9.94755 20.9901 10.1806 20.9706H10.3264V19.3668C10.3082 19.1407 10.3351 18.9133 10.4054 18.6977C10.4758 18.4821 10.5883 18.2826 10.7363 18.1108C10.8844 17.939 11.0651 17.7983 11.268 17.6969C11.4708 17.5955 11.6918 17.5354 11.9181 17.52C12.5134 17.4592 15.235 17.52 15.8304 17.52C15.8862 17.52 15.9415 17.531 15.9931 17.5524C16.0447 17.5737 16.0916 17.6051 16.1311 17.6446C16.1706 17.684 16.2019 17.7309 16.2233 17.7825C16.2446 17.8341 16.2556 17.8894 16.2556 17.9453C16.2556 18.0011 16.2446 18.0564 16.2233 18.108C16.2019 18.1596 16.1706 18.2065 16.1311 18.2459C16.0916 18.2854 16.0447 18.3168 15.9931 18.3381C15.9415 18.3595 15.8862 18.3705 15.8304 18.3705H12.5134C12.2838 18.3681 12.055 18.3967 11.833 18.4556C11.7257 18.469 11.6222 18.5037 11.5284 18.5575C11.4347 18.6114 11.3526 18.6835 11.287 18.7694C11.2214 18.8554 11.1736 18.9536 11.1463 19.0582C11.1191 19.1629 11.113 19.2719 11.1283 19.379V20.9463C11.4011 21.0228 11.6689 21.1162 11.9302 21.2258C12.21 21.3551 12.4461 21.5629 12.61 21.8239C12.7739 22.0848 12.8586 22.3878 12.8536 22.6959V24.4455H19.3053C19.6594 24.4933 20.0089 24.5706 20.3502 24.6764C20.4348 24.6888 20.5208 24.6888 20.6054 24.6764C20.9032 24.5806 21.2078 24.5075 21.5166 24.4577C22.0877 24.4577 22.6466 24.4577 23.2176 24.4577C23.57 24.4577 23.7765 24.6278 23.7644 24.9072C23.7522 25.1867 23.57 25.3203 23.2298 25.3203H21.6746C20.9456 25.3203 20.8727 25.4054 20.9091 26.183H21.6989C21.9167 26.1587 22.1365 26.206 22.3251 26.3178C22.5136 26.4296 22.6606 26.5998 22.7438 26.8026C22.8315 27.0077 22.8529 27.2351 22.805 27.453C22.7571 27.6709 22.6422 27.8683 22.4765 28.0176C22.067 28.4121 21.5359 28.6563 20.9699 28.7102H20.6904C20.7755 28.9775 20.8362 29.2205 20.9213 29.4635C20.9419 29.495 20.9687 29.5219 21 29.5428C21.0313 29.5637 21.0665 29.578 21.1035 29.585H26.4495L26.9355 28.0662L26.3645 27.8111C25.7161 27.5342 25.1356 27.1197 24.6635 26.5961C24.4897 26.4124 24.3776 26.179 24.3427 25.9285C24.3079 25.6781 24.352 25.423 24.4691 25.1988C24.5679 24.9632 24.7386 24.7648 24.9567 24.6317C25.1748 24.4987 25.4293 24.4378 25.6841 24.4577H28.1141V22.7202C28.1049 22.3288 28.2319 21.9464 28.4735 21.6384C28.7151 21.3303 29.0561 21.1157 29.4384 21.0314L29.8272 20.9342C29.8272 20.3145 29.8272 19.7192 29.8272 19.0509C29.8119 18.9196 29.7574 18.796 29.6706 18.6963C29.5839 18.5966 29.4691 18.5254 29.3412 18.492C29.063 18.3974 28.7723 18.3442 28.4786 18.3341H22.2699C22.08 18.316 21.8888 18.316 21.6989 18.3341C21.581 18.3446 21.4665 18.3787 21.3621 18.4342C21.2576 18.4897 21.1653 18.5655 21.0906 18.6572C21.0159 18.7489 20.9602 18.8546 20.927 18.9681C20.8937 19.0817 20.8835 19.2007 20.897 19.3182V22.8417C20.9179 22.9413 20.9025 23.0451 20.8534 23.1343C20.8044 23.2235 20.725 23.2921 20.6297 23.3277C20.3138 23.4614 20.0465 23.2427 20.0343 22.8539V19.4397C20.0343 18.7472 19.8035 18.4313 19.0988 18.3584C18.3941 18.2855 17.9931 18.3584 17.4342 18.3584H15.4294C15.3167 18.3584 15.2085 18.3135 15.1287 18.2338C15.049 18.154 15.0042 18.0459 15.0042 17.9331C15.0042 17.8203 15.049 17.7122 15.1287 17.6324C15.2085 17.5527 15.3167 17.5078 15.4294 17.5078C16.6444 17.5078 17.9202 17.5078 19.1717 17.5078C19.676 17.5215 20.1552 17.7306 20.5082 18.0911C20.8007 17.8462 21.1402 17.6638 21.5059 17.5552C21.8716 17.4465 22.2556 17.4139 22.6344 17.4592C24.5784 17.4592 26.5224 17.4592 28.4664 17.4592C28.8811 17.4715 29.2912 17.5494 29.6814 17.6901C29.9911 17.8039 30.2561 18.014 30.4376 18.2896C30.6191 18.5651 30.7075 18.8915 30.6899 19.221V20.8734L31.9049 21.3594C32.5853 19.8407 33.29 18.2247 34.019 16.7059C34.1648 16.4143 34.2863 16.1106 34.4321 15.819C34.6604 15.3432 35.0471 14.9617 35.526 14.74C36.0049 14.5183 36.546 14.4702 37.0565 14.604C37.2815 14.6707 37.4856 14.794 37.6494 14.962C37.8131 15.13 37.9311 15.3372 37.992 15.5638V16.7181Z" fill="#194A5B"/>
  </g>
  <defs>
    <clipPath id="clip0_268_211">
      <rect width="46" height="46" fill="white"/>
    </clipPath>
  </defs>
</svg>