<svg width="46" height="46" viewBox="0 0 46 46" fill="none" xmlns="http://www.w3.org/2000/svg">
<g clip-path="url(#clip0_268_186)">
<path d="M38.6938 1.21753H7.30467C3.94243 1.21753 1.2168 3.94316 1.2168 7.30541V38.6945C1.2168 42.0567 3.94243 44.7824 7.30467 44.7824H38.6938C42.056 44.7824 44.7816 42.0567 44.7816 38.6945V7.30541C44.7816 3.94316 42.056 1.21753 38.6938 1.21753Z" stroke="#194A5B" stroke-miterlimit="10"/>
<path d="M26.6754 25.1185H17.0444V28.9417L17.3975 28.7712C17.7484 28.5904 18.1103 28.4318 18.4811 28.2964C19.0869 28.1114 19.7247 28.0548 20.3537 28.1303C20.9827 28.2057 21.5889 28.4116 22.1338 28.7347C22.6654 29.0597 23.2763 29.2316 23.8993 29.2316C24.5223 29.2316 25.1332 29.0597 25.6648 28.7347C25.9327 28.6008 26.2127 28.4912 26.4806 28.3451C26.5536 28.3451 26.6632 28.2112 26.6632 28.1381C26.6632 27.1519 26.6632 26.1535 26.6632 25.1185M26.6632 20.2482H17.0444V23.9009H26.6267L26.6632 20.2482ZM17.0444 19.1767H26.6754V18.8236C26.6754 17.9957 26.6754 17.1677 26.6754 16.3276C26.676 15.4951 26.9867 14.6926 27.547 14.0768C28.1073 13.461 28.8769 13.0759 29.7057 12.9969C30.5345 12.9178 31.363 13.1503 32.0296 13.6491C32.6962 14.1478 33.1531 14.8771 33.3112 15.6945C33.3442 15.8591 33.3645 16.026 33.372 16.1937C33.3891 16.3046 33.3831 16.4179 33.3544 16.5265C33.3257 16.635 33.2749 16.7365 33.2052 16.8245C33.1355 16.9125 33.0484 16.9852 32.9493 17.0379C32.8502 17.0907 32.7413 17.1225 32.6293 17.1312C32.5185 17.1432 32.4063 17.1317 32.3002 17.0973C32.1941 17.063 32.0965 17.0066 32.0137 16.9318C31.931 16.8571 31.8649 16.7658 31.8199 16.6637C31.7749 16.5617 31.752 16.4513 31.7527 16.3398C31.742 15.9024 31.5659 15.4853 31.2599 15.1726C30.9538 14.8599 30.5406 14.6749 30.1036 14.6548C29.6665 14.6348 29.2381 14.7811 28.9047 15.0644C28.5713 15.3478 28.3577 15.7469 28.3069 16.1815C28.3009 16.2869 28.3009 16.3926 28.3069 16.4981C28.3069 20.2401 28.3069 23.9781 28.3069 27.7119C28.3069 28.0163 28.4043 28.1016 28.7087 28.1746C29.2581 28.3063 29.7926 28.494 30.3038 28.7347C30.8375 29.0216 31.4277 29.1879 32.0327 29.2217C32.4345 29.2217 32.6537 29.4409 32.6415 29.7697C32.6293 30.0984 32.398 30.2932 31.9962 30.2932C31.2109 30.2805 30.4426 30.0622 29.768 29.6601C29.2392 29.3399 28.6329 29.1706 28.0147 29.1706C27.3965 29.1706 26.7902 29.3399 26.2614 29.6601C25.5632 30.0749 24.7662 30.2938 23.9541 30.2938C23.142 30.2938 22.3449 30.0749 21.6468 29.6601C21.0949 29.3296 20.4637 29.1551 19.8204 29.1551C19.1772 29.1551 18.546 29.3296 17.9941 29.6601C17.3226 30.0492 16.5602 30.2541 15.7842 30.2541C15.0081 30.2541 14.2458 30.0492 13.5743 29.6601C12.9667 29.3552 12.2935 29.2047 11.614 29.2217C11.5431 29.2218 11.473 29.2075 11.4078 29.1797C11.3427 29.1519 11.2838 29.1111 11.2349 29.0599C11.1859 29.0087 11.1479 28.948 11.1231 28.8817C11.0982 28.8153 11.0871 28.7446 11.0904 28.6738C11.0998 28.5328 11.1633 28.4009 11.2677 28.3056C11.372 28.2103 11.5092 28.159 11.6505 28.1624C12.476 28.1618 13.287 28.3803 14.0004 28.7956C14.3155 28.9577 14.6459 29.0882 14.9867 29.1852C15.1299 29.2226 15.277 29.2431 15.425 29.2461V16.4007C15.3905 15.9461 15.4492 15.4892 15.5975 15.0581C15.7459 14.627 15.9807 14.2307 16.2876 13.8935C16.5944 13.5564 16.967 13.2854 17.3823 13.0973C17.7976 12.9092 18.2469 12.8079 18.7027 12.7996C19.1586 12.7913 19.6113 12.8762 20.0332 13.0491C20.4551 13.2219 20.8372 13.4791 21.1562 13.8049C21.4751 14.1306 21.7242 14.5181 21.8881 14.9435C22.0521 15.3689 22.1274 15.8234 22.1095 16.2789C22.1178 16.3884 22.1036 16.4985 22.0677 16.6023C22.0318 16.7061 21.9751 16.8015 21.9009 16.8825C21.8267 16.9635 21.7368 17.0284 21.6365 17.0733C21.5363 17.1182 21.4279 17.142 21.318 17.1434C21.2083 17.1434 21.0996 17.1216 20.9984 17.0792C20.8971 17.0369 20.8053 16.9748 20.7282 16.8966C20.6512 16.8184 20.5905 16.7257 20.5496 16.6238C20.5087 16.522 20.4885 16.413 20.4901 16.3033C20.5022 16.065 20.4649 15.8268 20.3805 15.6037C20.2961 15.3806 20.1664 15.1774 19.9996 15.0068C19.8328 14.8362 19.6326 14.702 19.4114 14.6126C19.1902 14.5232 18.953 14.4805 18.7145 14.4872C18.476 14.494 18.2416 14.55 18.0258 14.6517C17.81 14.7535 17.6177 14.8988 17.4608 15.0785C17.3039 15.2583 17.186 15.4685 17.1143 15.696C17.0426 15.9236 17.0188 16.1635 17.0444 16.4007V19.1767Z" fill="#194A5B"/>
<path d="M31.8281 32.9963C31.1188 32.9704 30.4277 32.7651 29.8191 32.3997C29.2673 32.0693 28.636 31.8948 27.9928 31.8948C27.3495 31.8948 26.7183 32.0693 26.1664 32.3997C25.4989 32.7939 24.7378 33.0018 23.9626 33.0018C23.1874 33.0018 22.4263 32.7939 21.7588 32.3997C21.1865 32.0513 20.5294 31.867 19.8594 31.867C19.1894 31.867 18.5323 32.0513 17.96 32.3997C17.2907 32.789 16.5303 32.994 15.7561 32.994C14.982 32.994 14.2216 32.789 13.5523 32.3997C12.9898 32.0594 12.3469 31.8745 11.6894 31.864C11.6155 31.8673 11.5416 31.8555 11.4723 31.8295C11.403 31.8034 11.3397 31.7636 11.2862 31.7124C11.2327 31.6612 11.1901 31.5997 11.1611 31.5315C11.1321 31.4634 11.1171 31.3901 11.1172 31.3161C11.1218 31.2409 11.1413 31.1673 11.1744 31.0997C11.2076 31.032 11.2537 30.9715 11.3103 30.9218C11.3669 30.872 11.4327 30.8339 11.504 30.8096C11.5754 30.7853 11.6508 30.7754 11.726 30.7803C12.4886 30.7706 13.2389 30.9729 13.8933 31.3648C14.3093 31.6268 14.7765 31.7971 15.2636 31.8643C15.7507 31.9315 16.2466 31.894 16.718 31.7544C17.08 31.6262 17.4303 31.4674 17.7652 31.2796C18.4123 30.9236 19.139 30.7369 19.8776 30.7369C20.6163 30.7369 21.3429 30.9236 21.9901 31.2796C22.4196 31.542 22.8976 31.7151 23.3956 31.7883C23.8935 31.8615 24.4011 31.8334 24.888 31.7057C25.215 31.6032 25.5295 31.4644 25.8255 31.2917C26.4934 30.9117 27.2487 30.7119 28.0171 30.7119C28.7856 30.7119 29.5408 30.9117 30.2088 31.2917C30.7922 31.6384 31.4542 31.8311 32.1325 31.8518C32.2028 31.8501 32.2727 31.8628 32.3378 31.8893C32.4029 31.9157 32.4619 31.9553 32.511 32.0056C32.5602 32.0559 32.5984 32.1158 32.6234 32.1815C32.6483 32.2472 32.6595 32.3173 32.6561 32.3875C32.6561 32.5264 32.6009 32.6596 32.5028 32.7578C32.4046 32.8559 32.2714 32.9111 32.1325 32.9111H31.8525" fill="#194A5B"/>
</g>
<defs>
<clipPath id="clip0_268_186">
<rect width="46" height="46" fill="white"/>
</clipPath>
</defs>
</svg>
