<svg width="22" height="22" viewBox="0 0 22 22" fill="none" xmlns="http://www.w3.org/2000/svg">
<g clip-path="url(#clip0_268_96)">
<path d="M15.4319 3.93244H17.5846V0.00227H13.6725C13.3462 -0.0113088 9.36805 -0.0873502 8.33696 3.84463C8.32203 3.88582 7.99251 4.82095 7.99251 7.00533L4.41539 7.0162V11.1383L7.99704 11.1279V22.0005H13.468V11.1374H17.089V7.00443H13.468V5.70403C13.468 4.89563 13.8088 3.93244 15.4319 3.93244ZM16.1837 7.90923V10.2317H12.5627V21.0947H8.90229V10.2199L5.32065 10.2303V7.91874L8.9118 7.90833L8.90229 7.448C8.85522 5.13417 9.18519 4.16102 9.20012 4.1144C10.09 0.727833 13.4879 0.898021 13.6336 0.907074L16.6794 0.907979V3.02764H15.4319C13.3168 3.02764 12.5632 4.40996 12.5632 5.70358V7.90923H16.1837Z" fill="url(#paint0_linear_268_96)"/>
</g>
<defs>
<linearGradient id="paint0_linear_268_96" x1="11" y1="-0.00012207" x2="11" y2="22.0005" gradientUnits="userSpaceOnUse">
<stop stop-color="#fff"/>
<stop offset="1" stop-color="#fff"/>
</linearGradient>
<clipPath id="clip0_268_96">
<rect width="22" height="22" fill="#fff"/>
</clipPath>
</defs>
</svg>
