<svg width="55" height="52" viewBox="0 0 55 52" fill="none" xmlns="http://www.w3.org/2000/svg">
<path d="M27.4654 28.3631L27.4758 28.3735L27.4743 28.3705L27.4892 28.3616L27.4847 28.3631L27.4818 28.3467V28.3511L27.4669 28.3497L27.4698 28.3511L27.4624 28.3646L27.4654 28.3631Z" fill="#EDE7D3" stroke="#EDE7D3" stroke-width="0.1152" stroke-miterlimit="10"/>
<path d="M39.4099 36.7509L43.7586 34.6019L44.9098 34.0345L44.3141 32.8938L42.0549 28.6107C40.8739 26.2934 39.0108 25.4207 37.5171 25.1109C38.5462 23.9835 39.5484 22.1771 39.1433 19.6006L38.4434 14.8008L38.2602 13.5319L36.9914 13.7464L32.2198 14.5714C29.6508 14.978 28.245 16.4821 27.4899 17.8061C26.7348 16.4792 25.3275 14.9676 22.7526 14.5565L17.9706 13.7389L16.7062 13.5215L16.517 14.7948L15.826 19.5872C15.4195 22.1547 16.4143 23.9567 17.4404 25.0856C15.9452 25.3939 14.0717 26.2651 12.8862 28.5868L10.6315 32.8819L10.0343 34.0167L11.187 34.59L15.5326 36.7271C17.8499 37.9081 19.8709 37.5179 21.2603 36.8909C21.0906 38.4085 21.3408 40.4592 23.183 42.3044L26.571 45.7759L27.4661 46.6947L28.3671 45.7759L31.7432 42.3044C33.5825 40.4652 33.8356 38.4234 33.6688 36.9073C35.0598 37.5373 37.0882 37.9334 39.4114 36.7524L39.4099 36.7509ZM40.9171 29.2004L42.7593 32.7046L36.6235 30.7105L35.4559 28.493C35.1566 27.9062 34.7768 27.4892 34.3747 27.1929C35.0211 26.9516 35.6287 26.6419 36.1767 26.2725C36.1916 26.2636 36.2065 26.2517 36.2214 26.2412C37.5975 26.2859 39.6869 26.7952 40.9171 29.2004ZM30.7841 28.0432C30.9867 27.9569 31.1937 27.8884 31.4022 27.8377L32.1021 27.7439C32.6993 27.729 33.7537 27.8928 34.3494 29.0619L35.3309 30.922L33.4425 31.8557C32.2764 32.4455 31.3277 31.96 30.8526 31.5981L30.3061 31.0754C30.1974 30.9443 30.0931 30.8058 29.9978 30.6539C29.9904 30.639 29.9829 30.6241 29.9725 30.6137L29.1594 28.916L30.7826 28.0418L30.7841 28.0432ZM28.5264 26.9293L28.1958 25.1154C28.175 24.8964 28.175 24.6775 28.1913 24.4646L28.3194 23.7676C28.4892 23.1957 28.9717 22.2441 30.2674 22.0386L32.3389 21.6796L32.6427 23.7646C32.8438 25.0573 32.0887 25.8094 31.5958 26.1474L30.9316 26.5048C30.7737 26.5689 30.6084 26.624 30.4357 26.6672C30.4193 26.6702 30.4014 26.6731 30.3895 26.6791L28.5234 26.9278L28.5264 26.9293ZM37.3026 15.873L37.8715 19.7913C38.293 22.4734 36.8856 24.1161 35.7955 24.9575C35.7746 24.9575 35.7523 24.9575 35.733 24.959C35.0821 24.9798 34.4194 25.0841 33.7641 25.2643C33.9161 24.7877 33.9771 24.2278 33.8744 23.577L33.511 21.0929L37.3026 15.8745V15.873ZM32.4298 15.8373L36.3316 15.1671L32.54 20.3855L30.0708 20.8114C29.4215 20.9142 28.9062 21.1465 28.4996 21.4384C28.4698 20.7489 28.3641 20.0757 28.1809 19.4398C28.1764 19.4234 28.1705 19.4055 28.166 19.3877C28.6337 18.092 29.764 16.2617 32.4313 15.8358L32.4298 15.8373ZM27.4676 28.35H27.4825V28.3485L27.4854 28.3649H27.4899L27.475 28.3724V28.3754L27.4646 28.3649L27.4616 28.3679L27.469 28.353H27.4661L27.4676 28.35ZM22.5381 15.8254C25.2188 16.2543 26.3461 18.0995 26.8108 19.3966C26.8048 19.416 26.7989 19.4368 26.7929 19.4562C26.6127 20.0817 26.507 20.7444 26.4742 21.4235C26.0691 21.1316 25.5539 20.9008 24.9031 20.798L22.4279 20.3765L18.6363 15.1582L22.5381 15.8283V15.8254ZM24.6126 26.6716C24.3982 26.624 24.1927 26.557 23.9961 26.4765L23.3661 26.137C22.8747 25.7974 22.1226 25.0454 22.3266 23.7512L22.626 21.6707L24.702 22.0252C25.9932 22.2337 26.4757 23.1838 26.6455 23.7572L26.781 24.4988C26.7929 24.6686 26.7944 24.8428 26.7825 25.0201C26.7795 25.0364 26.7766 25.0543 26.7795 25.0662L26.4385 26.9174L24.6112 26.6716H24.6126ZM25.7847 28.8981L24.9865 30.5601C24.8733 30.7492 24.7467 30.9265 24.6082 31.0888L24.0959 31.5758C23.6223 31.9391 22.6721 32.4261 21.5031 31.8304L19.6162 30.9026L20.5946 29.0366C21.1903 27.8765 22.2388 27.7097 22.8375 27.7231L23.594 27.8258C23.7578 27.8675 23.9231 27.9181 24.0869 27.9837C24.1018 27.9911 24.1167 27.9986 24.1301 28.0015L25.7847 28.8981ZM17.0964 19.7793L17.6653 15.8611L21.4569 21.0795L21.098 23.5591C20.9952 24.2084 21.0578 24.7699 21.2082 25.2464C20.5425 25.0617 19.8694 24.9545 19.2096 24.9322C19.1918 24.9322 19.1724 24.9322 19.1545 24.9322C18.0674 24.0863 16.6764 22.4466 17.0949 19.7793H17.0964ZM14.0285 29.181C15.2646 26.764 17.3674 26.2621 18.7435 26.2219C18.7614 26.2338 18.7792 26.2457 18.7956 26.2576C19.3347 26.6225 19.9319 26.9278 20.5678 27.1676C20.1657 27.4639 19.786 27.8809 19.4881 28.4677L18.322 30.6911L12.1863 32.6853L14.0285 29.181ZM21.646 35.2125C20.5053 35.9855 18.5171 36.8016 16.109 35.5789L12.5586 33.8275L18.6943 31.8334L20.9431 32.9414C21.5299 33.2408 22.0824 33.3539 22.5828 33.3569C22.2015 33.9333 21.8918 34.5394 21.6654 35.1619C21.6595 35.1783 21.6535 35.1962 21.6475 35.2125H21.646ZM26.8644 44.2374L24.1018 41.4019C22.1852 39.4793 22.3579 37.3228 22.7451 36.0018C22.7615 35.9884 22.7794 35.9765 22.7943 35.9631C23.3081 35.5625 23.7831 35.0904 24.2076 34.5602C24.3639 35.0338 24.6439 35.5238 25.1101 35.9899L26.8644 37.786V44.2374ZM25.9947 35.1142C25.0743 34.1879 25.2411 33.1365 25.4407 32.5721L25.7683 31.89C25.8592 31.7455 25.9589 31.6041 26.0736 31.4671C26.0855 31.4551 26.0974 31.4432 26.1034 31.4313L27.4676 30.1342L28.8004 31.4075C28.9464 31.5728 29.0745 31.7485 29.1862 31.9302L29.493 32.5691C29.6925 33.132 29.8608 34.1849 28.933 35.1128L27.4676 36.6199L25.9962 35.1128L25.9947 35.1142ZM30.8288 41.4034L28.0662 44.2389V37.7875L29.8146 35.9914C30.2793 35.5268 30.5593 35.0353 30.7171 34.5602C31.1475 35.1008 31.6286 35.5834 32.1498 35.9899C32.1632 36.0004 32.1781 36.0123 32.193 36.0227C32.5757 37.3452 32.738 39.4897 30.8303 41.4034H30.8288ZM33.2623 35.1619C33.0404 34.5498 32.7366 33.9511 32.3643 33.3837C32.8632 33.3808 33.4157 33.2661 34.0039 32.9667L36.2542 31.8543L42.3899 33.8484L38.8395 35.5997C36.4195 36.8284 34.4224 35.9989 33.2846 35.2215C33.2772 35.2021 33.2712 35.1813 33.2638 35.1619H33.2623Z" fill="#EDE7D3" stroke="#EDE7D3" stroke-width="0.1152" stroke-miterlimit="10"/>
<path d="M23.3299 11.2823L24.493 11.8631C25.0544 12.1431 25.5891 12.4767 26.0865 12.8594L26.9294 13.5058V10.1624C26.9279 9.65157 26.8132 9.14671 26.5973 8.70291C26.4156 8.33059 26.1341 7.997 25.808 7.61128C25.4982 7.24493 25.1468 6.82942 24.8132 6.30669C24.7089 6.13096 24.4632 5.82417 24.3351 5.30442C24.1772 4.66702 24.2934 3.98047 24.2934 3.98047L22.9858 5.10337C21.2777 6.70432 21.2166 8.22932 21.5174 9.19138C21.7929 10.073 22.4363 10.8147 23.3313 11.2838L23.3299 11.2823ZM23.3686 6.45413C23.4564 6.61497 23.5592 6.79666 23.6813 7.00218C24.0745 7.62022 24.4736 8.09082 24.7938 8.47058C25.0619 8.7878 25.2942 9.06182 25.4029 9.28521C25.531 9.54881 25.598 9.85113 25.598 10.1624V10.9696L23.9464 10.1043C23.376 9.80496 22.9531 9.32691 22.7863 8.79376C22.5495 8.0387 22.749 7.24939 23.3686 6.45413Z" fill="#EDE7D3" stroke="#EDE7D3" stroke-width="0.1152" stroke-miterlimit="10"/>
<path d="M26.6269 7.07757C26.9396 7.48264 27.2852 7.91602 27.4788 8.1543C27.6649 7.91453 28.0104 7.48264 28.3232 7.07757C28.6225 6.69185 28.8891 6.33889 28.9948 6.17954C29.3537 5.63447 30.4245 3.97842 28.5227 2.06919L28.3827 1.92324L27.4788 0.946289L26.5673 1.92324L26.4273 2.06919C24.5256 3.97842 25.5963 5.63298 25.9552 6.17954C26.061 6.33889 26.3276 6.69185 26.6269 7.07757ZM27.3849 2.99402L27.4773 2.9002L27.5636 2.99402C28.7208 4.15713 28.2159 4.94197 27.863 5.48108C27.8094 5.56746 27.6634 5.76106 27.4773 6.00679C27.2851 5.76106 27.1377 5.56746 27.0856 5.48108C26.7326 4.94197 26.2278 4.15713 27.3849 2.99402Z" fill="#EDE7D3" stroke="#EDE7D3" stroke-width="0.1152" stroke-miterlimit="10"/>
<path d="M28.3485 8.70244C28.1326 9.14624 28.0179 9.64961 28.0179 10.1619V13.5053L28.8593 12.859C29.3582 12.4777 29.8914 12.1441 30.4528 11.8627L31.6159 11.2818C32.5095 10.8142 33.1543 10.0711 33.4299 9.18943C33.7307 8.22737 33.6696 6.70237 31.9614 5.10142L30.6539 3.97852C30.6539 3.97852 30.77 4.66506 30.6122 5.30247C30.4826 5.82222 30.2369 6.129 30.1341 6.30474C29.8005 6.82747 29.4491 7.24297 29.1393 7.60933C28.8132 7.99505 28.5317 8.32864 28.35 8.70096L28.3485 8.70244ZM29.3493 10.1619C29.3493 9.85066 29.4178 9.54834 29.5444 9.28474C29.6531 9.06136 29.8839 8.78733 30.1535 8.47012C30.4737 8.09185 30.8728 7.61975 31.266 7.00171C31.3881 6.79619 31.4908 6.6145 31.5787 6.45366C32.1967 7.24893 32.3978 8.03824 32.161 8.79329C31.9942 9.32793 31.5713 9.8045 31.0009 10.1038L29.3493 10.9691V10.1619Z" fill="#EDE7D3" stroke="#EDE7D3" stroke-width="0.1152" stroke-miterlimit="10"/>
<path d="M46.3006 21.7435C46.5984 21.4561 46.8278 21.0852 47.0943 20.6563C47.346 20.2483 47.6335 19.7866 48.0281 19.3071C48.1621 19.1552 48.3781 18.826 48.8323 18.5416C49.3908 18.1931 50.0788 18.0918 50.0788 18.0918L48.6059 17.1953C46.5552 16.0664 45.0868 16.479 44.2648 17.0613C43.5127 17.5959 43.0048 18.4373 42.8351 19.4322L42.6415 20.7174C42.5476 21.3384 42.3957 21.949 42.1872 22.5417L41.8343 23.5425L45.0139 22.5075C45.5008 22.3496 45.9446 22.0845 46.2991 21.7435H46.3006ZM43.8344 21.4933L44.1471 19.6555C44.2558 19.0196 44.579 18.4701 45.0347 18.1469C45.6796 17.6882 46.4927 17.6346 47.4398 17.9771C47.3147 18.1097 47.1733 18.2646 47.0154 18.4433C46.5493 19.0092 46.2246 19.5334 45.964 19.9549C45.7451 20.3078 45.5559 20.6131 45.3772 20.7859C45.1672 20.9884 44.8992 21.1478 44.6043 21.2431L43.8358 21.4933H43.8344Z" fill="#EDE7D3" stroke="#EDE7D3" stroke-width="0.1152" stroke-miterlimit="10"/>
<path d="M52.7365 19.6198L52.5548 19.532C50.1526 18.3123 48.9076 19.8432 48.501 20.3525C48.3819 20.503 48.1287 20.8649 47.8547 21.2684C47.5658 21.6914 47.262 22.1531 47.0937 22.4107C47.3796 22.5135 47.8964 22.7086 48.3789 22.8813C48.8376 23.0466 49.2561 23.1911 49.4408 23.2432C50.0707 23.416 51.9755 23.9223 53.2041 21.5246L53.2994 21.3459L53.9502 20.1843L52.7395 19.6198H52.7365ZM52.0261 20.8991C51.277 22.3586 50.3745 22.1218 49.7535 21.952C49.6552 21.9282 49.4259 21.8493 49.134 21.748C49.3082 21.4889 49.4467 21.2893 49.5122 21.2119C49.9158 20.71 50.5056 19.9877 51.9695 20.7278L52.0872 20.7874L52.0246 20.8991H52.0261Z" fill="#EDE7D3" stroke="#EDE7D3" stroke-width="0.1152" stroke-miterlimit="10"/>
<path d="M49.6708 24.3684C49.0692 24.212 48.5658 24.0065 48.122 23.8248C47.6544 23.6342 47.2508 23.4689 46.8398 23.4123C46.3513 23.3438 45.836 23.3914 45.3505 23.5493L42.1694 24.5814L43.0436 25.183C43.5604 25.539 44.0429 25.944 44.4837 26.3908L45.3952 27.3171C46.1175 28.023 47.0214 28.4058 47.9448 28.3954C48.953 28.3849 50.3827 27.8547 51.379 25.7355L52.0432 24.145C52.0432 24.145 51.4267 24.4682 50.7699 24.5143C50.2353 24.5516 49.8674 24.4131 49.6694 24.3684H49.6708ZM47.9314 27.0654C47.3714 27.0714 46.7876 26.8167 46.326 26.367L44.9931 25.0639L45.7615 24.8137C46.0564 24.7184 46.3662 24.6886 46.6566 24.7288C46.9023 24.763 47.2344 24.8986 47.6201 25.0564C48.0788 25.2441 48.6507 25.4779 49.3596 25.6611C49.5934 25.7132 49.7974 25.7549 49.9776 25.7891C49.4132 26.6231 48.7237 27.0565 47.9329 27.0654H47.9314Z" fill="#EDE7D3" stroke="#EDE7D3" stroke-width="0.1152" stroke-miterlimit="10"/>
<path d="M43.8098 41.1326C43.0696 40.5816 42.112 40.3597 41.1127 40.5057L39.8305 40.7186C39.211 40.8214 38.5825 40.8661 37.9555 40.8497L36.8937 40.8229L38.861 43.5274C39.1618 43.9414 39.5505 44.2824 39.9854 44.5147C40.3502 44.7098 40.7747 44.8126 41.2646 44.9332C41.7308 45.0479 42.258 45.1775 42.8358 45.4038C43.022 45.4842 43.4017 45.5885 43.8113 45.9325C44.3146 46.3555 44.6244 46.9795 44.6244 46.9795L45.022 45.3026C45.4629 43.0031 44.617 41.7343 43.8068 41.1326H43.8098ZM43.3451 44.1752C42.6631 43.9071 42.0644 43.7597 41.5819 43.642C41.1783 43.5422 40.8298 43.4574 40.6109 43.3412C40.3532 43.2042 40.1194 42.9987 39.9362 42.747L39.4612 42.0932L41.3049 41.8222C41.9423 41.7283 42.5648 41.8668 43.0145 42.2004C43.6504 42.6725 43.9513 43.4276 43.9185 44.4358C43.7532 44.3569 43.5626 44.272 43.3437 44.1767L43.3451 44.1752Z" fill="#EDE7D3" stroke="#EDE7D3" stroke-width="0.1152" stroke-miterlimit="10"/>
<path d="M41.9886 46.1766C41.8084 46.1095 41.387 45.9815 40.9179 45.8445C40.4264 45.7 39.8932 45.5541 39.5954 45.4736C39.585 45.7774 39.5597 46.33 39.5448 46.8423C39.5299 47.3307 39.5209 47.7716 39.5284 47.9637C39.5582 48.616 39.6654 50.5848 42.3267 51.0107L42.5262 51.0464L43.8323 51.3056L43.9947 49.9786L44.0215 49.7776C44.4385 47.1163 42.5992 46.4059 41.9871 46.1751L41.9886 46.1766ZM42.705 49.5944L42.6841 49.724L42.559 49.7001C40.9387 49.438 40.8866 48.5073 40.8553 47.8639C40.8479 47.7626 40.8523 47.5214 40.8583 47.2116C41.1591 47.298 41.3899 47.368 41.4838 47.4067C42.0854 47.636 42.9552 47.9726 42.7035 49.5944H42.705Z" fill="#EDE7D3" stroke="#EDE7D3" stroke-width="0.1152" stroke-miterlimit="10"/>
<path d="M38.7331 49.624C38.5321 49.1281 38.5514 48.7349 38.5321 48.5324C38.4948 47.9128 38.535 47.3707 38.5708 46.8927C38.608 46.3893 38.6393 45.953 38.5678 45.5464C38.4814 45.0609 38.2774 44.5858 37.9766 44.1718L36.0122 41.4658L35.7099 42.4845C35.5312 43.0861 35.2959 43.6699 35.0055 44.2269L34.4068 45.3796C33.9586 46.2836 33.8751 47.2635 34.17 48.1377C34.4917 49.0923 35.4374 50.2897 37.7606 50.5816L39.4792 50.7216C39.4792 50.7216 38.9818 50.2346 38.7346 49.6255L38.7331 49.624ZM37.2051 48.6351C37.2275 48.8734 37.2513 49.0804 37.2737 49.2621C36.3056 48.9821 35.6801 48.4624 35.4284 47.7118C35.2497 47.1816 35.3108 46.5472 35.5967 45.9693L36.4248 44.2999L36.8998 44.9537C37.083 45.2053 37.2051 45.4898 37.2573 45.7787C37.3004 46.023 37.2736 46.3804 37.2439 46.7959C37.2081 47.2903 37.1619 47.9054 37.2066 48.6366L37.2051 48.6351Z" fill="#EDE7D3" stroke="#EDE7D3" stroke-width="0.1152" stroke-miterlimit="10"/>
<path d="M19.9393 44.225C19.6504 43.668 19.4136 43.0842 19.2349 42.4825L18.9326 41.4639L16.9683 44.1698C16.6674 44.5839 16.4634 45.0589 16.377 45.5444C16.3056 45.9525 16.3368 46.3874 16.3741 46.8907C16.4098 47.3688 16.45 47.9109 16.4128 48.5304C16.3934 48.7329 16.4128 49.1261 16.2117 49.622C15.9645 50.2311 15.4671 50.7181 15.4671 50.7181L17.1857 50.5781C19.5089 50.2862 20.4546 49.0889 20.7763 48.1343C21.0712 47.2601 20.9863 46.2801 20.5395 45.3761L19.9408 44.2235L19.9393 44.225ZM19.5149 47.7113C19.2617 48.4619 18.6362 48.9816 17.6697 49.2616C17.6935 49.0799 17.7159 48.8729 17.7382 48.6346C17.7829 47.9034 17.7382 47.2884 17.701 46.7939C17.6697 46.3799 17.6444 46.021 17.6876 45.7768C17.7382 45.4893 17.8618 45.2034 18.045 44.9517L18.5201 44.2979L19.3481 45.9674C19.634 46.5452 19.6951 47.1796 19.5164 47.7098L19.5149 47.7113Z" fill="#EDE7D3" stroke="#EDE7D3" stroke-width="0.1152" stroke-miterlimit="10"/>
<path d="M15.3437 45.4717C15.0518 45.5566 14.5187 45.7025 14.0272 45.847C13.5581 45.9825 13.1367 46.1121 12.9565 46.1791C12.3459 46.4084 10.5066 47.1188 10.9221 49.7816L10.9489 49.9826L11.1053 51.3051L12.4173 51.0504L12.6169 51.0147C15.2767 50.5888 15.3839 48.62 15.4152 47.9677C15.4227 47.7756 15.4152 47.3347 15.3988 46.8463C15.3839 46.334 15.3586 45.7814 15.3437 45.4747V45.4717ZM14.0898 47.8649C14.0585 48.5083 14.0064 49.4391 12.3861 49.7012L12.2565 49.722L12.2416 49.5954C11.9899 47.9736 12.8596 47.6356 13.4613 47.4077C13.5551 47.369 13.7875 47.299 14.0823 47.2096C14.0943 47.5224 14.0987 47.7637 14.0913 47.8649H14.0898Z" fill="#EDE7D3" stroke="#EDE7D3" stroke-width="0.1152" stroke-miterlimit="10"/>
<path d="M11.1317 45.9345C11.5412 45.5904 11.921 45.4862 12.1071 45.4058C12.685 45.1794 13.2136 45.0484 13.6783 44.9352C14.1683 44.8145 14.5927 44.7103 14.9576 44.5167C15.3924 44.2844 15.7811 43.9433 16.082 43.5293L18.0493 40.8248L16.9874 40.8516C16.359 40.868 15.732 40.8233 15.1124 40.7206L13.8302 40.5076C12.8324 40.3617 11.8748 40.5836 11.1331 41.1346C10.3245 41.7362 9.47858 43.0051 9.91791 45.3045L10.3155 46.9814C10.3155 46.9814 10.6253 46.3574 11.1287 45.9345H11.1317ZM11.9299 42.2009C12.3782 41.8673 13.0022 41.7288 13.6396 41.8226L15.4833 42.0937L15.0082 42.7475C14.825 42.9991 14.5927 43.2047 14.3336 43.3417C14.1146 43.4578 13.7662 43.5442 13.3626 43.6425C12.8815 43.7601 12.2814 43.9076 11.5993 44.1756C11.3804 44.271 11.1897 44.3573 11.0244 44.4348C10.9917 43.428 11.2925 42.6715 11.9284 42.1994L11.9299 42.2009Z" fill="#EDE7D3" stroke="#EDE7D3" stroke-width="0.1152" stroke-miterlimit="10"/>
<path d="M11.8963 25.183L12.7705 24.5814L9.58948 23.5493C9.1025 23.3914 8.58721 23.3438 8.10022 23.4123C7.69068 23.4689 7.28709 23.6342 6.81798 23.8248C6.37418 24.0065 5.8708 24.212 5.26914 24.3684C5.07107 24.4131 4.70323 24.5516 4.16859 24.5143C3.51331 24.4682 2.89526 24.145 2.89526 24.145L3.55948 25.7355C4.5543 27.8547 5.98548 28.3849 6.99371 28.3954C7.91705 28.4058 8.82252 28.023 9.54332 27.3171L10.4547 26.3908C10.8956 25.9425 11.3766 25.539 11.8949 25.183H11.8963ZM8.61551 26.367C8.15533 26.8167 7.57005 27.0714 7.01009 27.0654C6.2178 27.0565 5.52977 26.6231 4.96534 25.7891C5.14554 25.7549 5.34957 25.7132 5.58338 25.6611C6.29227 25.4779 6.86414 25.2441 7.32284 25.0564C7.70855 24.8986 8.04065 24.763 8.28638 24.7288C8.57679 24.6886 8.88507 24.7169 9.18143 24.8137L9.94988 25.0639L8.617 26.367H8.61551Z" fill="#EDE7D3" stroke="#EDE7D3" stroke-width="0.1152" stroke-miterlimit="10"/>
<path d="M5.50647 23.2432C5.69114 23.1911 6.10813 23.0466 6.56832 22.8813C7.05084 22.71 7.5691 22.5135 7.85653 22.4047C7.68675 22.1531 7.38145 21.6914 7.09254 21.2684C6.81851 20.8649 6.56534 20.503 6.44619 20.3525C6.03814 19.8432 4.79461 18.3123 2.39244 19.532L2.21074 19.6198L1.00146 20.1783L1.6493 21.3474L1.7446 21.5261C2.97175 23.9253 4.87801 23.4174 5.50796 23.2447L5.50647 23.2432ZM2.91963 20.8991L2.86006 20.7815L2.97473 20.7278C4.43867 19.9877 5.02991 20.71 5.43201 21.2119C5.49754 21.2893 5.63604 21.4874 5.81177 21.7405C5.51838 21.8478 5.28904 21.9282 5.19075 21.952C4.56973 22.1203 3.66724 22.3586 2.91814 20.8991H2.91963Z" fill="#EDE7D3" stroke="#EDE7D3" stroke-width="0.1152" stroke-miterlimit="10"/>
<path d="M6.91621 19.3072C7.31086 19.7867 7.5968 20.2484 7.84998 20.6565C8.11655 21.0854 8.3459 21.4562 8.64375 21.7436C8.9982 22.0861 9.44349 22.3497 9.92898 22.5076L13.1085 23.5426L12.7556 22.5419C12.5471 21.9491 12.3937 21.3385 12.3014 20.7175L12.1078 19.4323C11.938 18.4375 11.4316 17.596 10.6781 17.0614C9.85601 16.4776 8.3876 16.0651 6.33689 17.1954L4.86401 18.092C4.86401 18.092 5.55205 18.1932 6.11052 18.5417C6.56475 18.8247 6.78069 19.1538 6.91473 19.3072H6.91621ZM9.90962 18.1471C10.3653 18.4702 10.69 19.0213 10.7972 19.6557L11.11 21.4934L10.3415 21.2432C10.0466 21.1479 9.77857 20.9886 9.56859 20.786C9.38988 20.6148 9.20074 20.3095 8.98182 19.955C8.7212 19.5336 8.39505 19.0093 7.9304 18.4434C7.77254 18.2647 7.63106 18.1098 7.50596 17.9773C8.45313 17.6347 9.26478 17.6884 9.91111 18.1471H9.90962Z" fill="#EDE7D3" stroke="#EDE7D3" stroke-width="0.1152" stroke-miterlimit="10"/>
</svg>
