<svg xmlns="http://www.w3.org/2000/svg" width="46" height="46" viewBox="0 0 46 46" fill="none">
  <g clip-path="url(#clip0_268_194)">
    <path d="M7.29004 1.21509H38.6857C39.4835 1.21509 40.2735 1.37222 41.0105 1.67752C41.7476 1.98282 42.4173 2.4303 42.9814 2.99442C43.5455 3.55853 43.993 4.22824 44.2983 4.96529C44.6036 5.70235 44.7607 6.49232 44.7607 7.2901V38.6858C44.7607 40.297 44.1207 41.8422 42.9814 42.9814C41.8421 44.1207 40.2969 44.7608 38.6857 44.7608H7.29004C6.49226 44.7608 5.70229 44.6036 4.96523 44.2983C4.22818 43.993 3.55847 43.5456 2.99436 42.9814C1.85507 41.8422 1.21503 40.297 1.21503 38.6858V7.2901C1.21503 5.67891 1.85507 4.1337 2.99436 2.99442C4.13364 1.85513 5.67885 1.21509 7.29004 1.21509Z" stroke="#194A5B" stroke-miterlimit="10"/>
    <path d="M23.0838 14.2035H14.5787C14.5105 14.2041 14.4431 14.2184 14.3805 14.2455C14.3179 14.2727 14.2614 14.3121 14.2142 14.3614C14.2054 14.4219 14.2118 14.4837 14.2331 14.541C14.2543 14.5983 14.2896 14.6494 14.3357 14.6895C14.927 15.0382 15.5854 15.2576 16.2676 15.3334C20.4837 15.3334 24.7726 15.3334 28.9401 15.3334C29.7858 15.3891 30.6297 15.1993 31.3701 14.7867C31.5176 14.6671 31.6484 14.5281 31.7589 14.3736C31.6071 14.2885 31.4432 14.2271 31.2729 14.1913H23.0838M14.275 33.3276H31.285C31.3458 33.3276 31.4308 33.3276 31.4673 33.3276C31.5037 33.3276 31.7589 33.1697 31.7589 33.0846C31.7589 32.9996 31.6738 32.6837 31.5766 32.6594C30.9498 32.4293 30.2968 32.2783 29.6326 32.2098C25.3437 32.2098 21.1276 32.2098 16.7779 32.2098C16.0463 32.2052 15.3192 32.3243 14.6273 32.5622C14.2142 32.6958 14.0806 32.8902 14.2507 33.3519M36.1207 33.1454C36.1521 33.0963 36.1766 33.0431 36.1936 32.9874C36.1936 30.2658 36.1936 27.5402 36.1936 24.8105C36.1936 24.7133 35.9749 24.531 35.8534 24.531C34.2982 24.531 32.7309 24.531 31.1757 24.531C30.8962 24.531 30.799 24.6161 30.799 24.8955C30.799 26.961 30.799 29.0387 30.799 31.1042C30.799 31.4079 30.957 31.4808 31.2 31.5537L34.845 32.7687L36.1572 33.2061M9.84024 24.5067V33.1332C11.5655 32.5622 13.2301 32.0033 14.9068 31.4687C15.2105 31.3715 15.1862 31.1649 15.1862 30.9341V24.9684C15.1862 24.8226 15.1862 24.6768 15.1862 24.5067H9.84024ZM15.1498 23.5347C15.1559 23.4417 15.1559 23.3483 15.1498 23.2553C15.1498 20.9954 15.1498 18.7233 15.1498 16.4634C15.1498 16.1353 14.9675 16.0503 14.7367 15.9531L10.2533 13.9362C10.1318 13.8754 9.98604 13.839 9.82809 13.7782C9.82809 13.8997 9.82809 13.9605 9.82809 14.0091C9.82809 17.0709 9.82809 20.1327 9.82809 23.1945C9.82809 23.4861 9.94958 23.559 10.2169 23.559C10.9216 23.559 11.6263 23.559 12.331 23.559C13.2787 23.559 14.2264 23.559 15.1984 23.559M36.2665 13.839C36.1818 13.8295 36.0962 13.8295 36.0114 13.839C34.3833 14.568 32.743 15.2848 31.1514 16.0381C31.0772 16.0884 31.0155 16.1551 30.9713 16.2331C30.927 16.3111 30.9013 16.3982 30.8962 16.4877C30.8962 18.699 30.8962 20.8982 30.8962 23.1095C30.8962 23.4254 31.0056 23.5226 31.3215 23.5226C32.7916 23.5226 34.2496 23.5226 35.7198 23.5226C36.1815 23.5226 36.3273 23.4254 36.3151 22.9394C36.3151 20.0477 36.3151 17.1559 36.3151 14.2642L36.2665 13.839ZM29.8392 31.2378V16.3054H16.7171C16.1218 16.3054 16.1218 16.3054 16.1218 16.9008C16.1218 21.4935 16.1218 26.0862 16.1218 30.6789C16.1218 31.1285 16.2433 31.25 16.6928 31.2378C20.8968 31.2378 25.1128 31.2378 29.3167 31.2378H29.8392ZM32.8038 14.2278L34.1403 13.6446L36.3273 12.6726C36.874 12.4417 37.1413 12.6726 37.1413 13.2193V33.5706C37.1413 34.2146 36.9105 34.3725 36.3151 34.1903L33.3141 33.194L32.7309 33.0239V33.5342C32.7309 34.166 32.6215 34.2753 31.9776 34.2753H13.9712C13.4002 34.2753 13.2665 34.1417 13.2665 33.5828C13.2665 33.4248 13.2665 33.2547 13.2665 33.0239L12.2581 33.3276C11.3833 33.6192 10.5206 33.923 9.64583 34.2024C9.09908 34.3725 8.84393 34.2024 8.84393 33.6192C8.84393 26.7909 8.84393 19.9667 8.84393 13.1464C8.84393 12.5875 9.13553 12.4053 9.64583 12.6361L12.5861 13.9362L13.2058 14.2035C13.2152 14.07 13.2152 13.936 13.2058 13.8025C13.2058 13.438 13.4123 13.2801 13.7647 13.2679H31.5888C32.5729 13.2679 32.5729 13.2679 32.8038 14.1913" fill="#194A5B"/>
  </g>
  <defs>
    <clipPath id="clip0_268_194">
      <rect width="46" height="46" fill="white"/>
    </clipPath>
  </defs>
</svg>