<svg width="22" height="22" viewBox="0 0 22 22" fill="none" xmlns="http://www.w3.org/2000/svg">
<g clip-path="url(#clip0_268_92)">
<path d="M16.1893 21.3934H5.81068C4.43093 21.3919 3.10813 20.8431 2.13249 19.8675C1.15685 18.8919 0.608042 17.5691 0.606468 16.1893V5.81071C0.608042 4.43096 1.15685 3.10818 2.13249 2.13256C3.10813 1.15694 4.43093 0.608168 5.81068 0.606628H16.1894C17.5691 0.608168 18.8919 1.15694 19.8675 2.13256C20.8432 3.10818 21.392 4.43096 21.3936 5.81071V16.1894C21.392 17.5691 20.8432 18.8919 19.8675 19.8675C18.8919 20.8431 17.5691 21.3919 16.1893 21.3934ZM5.81068 1.46956C4.65973 1.47086 3.55628 1.92864 2.74243 2.74248C1.92857 3.55632 1.47077 4.65976 1.46945 5.81071V16.1894C1.47078 17.3403 1.92859 18.4438 2.74244 19.2576C3.55629 20.0714 4.65973 20.5292 5.81068 20.5305H16.1894C17.3403 20.5292 18.4438 20.0714 19.2576 19.2576C20.0715 18.4437 20.5293 17.3403 20.5306 16.1893V5.81071C20.5293 4.65975 20.0715 3.55631 19.2576 2.74247C18.4437 1.92863 17.3403 1.47085 16.1893 1.46956H5.81068Z" fill="url(#paint0_linear_268_92)"/>
<path d="M11 16.3149C9.94882 16.3149 8.92125 16.0031 8.04723 15.4191C7.17321 14.8351 6.49199 14.0051 6.08972 13.0339C5.68744 12.0628 5.58219 10.9941 5.78725 9.96314C5.99232 8.93216 6.49851 7.98514 7.24179 7.24184C7.98508 6.49854 8.93209 5.99234 9.96307 5.78726C10.994 5.58217 12.0627 5.68741 13.0339 6.08967C14.005 6.49192 14.8351 7.17313 15.4191 8.04714C16.0031 8.92116 16.3148 9.94872 16.3149 10.9999C16.3133 12.409 15.7528 13.76 14.7564 14.7564C13.7601 15.7528 12.4091 16.3132 11 16.3149ZM11 6.54805C10.1195 6.54804 9.25872 6.80913 8.52659 7.29831C7.79445 7.78749 7.22382 8.48279 6.88685 9.29629C6.54988 10.1098 6.46171 11.0049 6.63349 11.8685C6.80527 12.7321 7.22928 13.5254 7.8519 14.148C8.47452 14.7707 9.2678 15.1947 10.1314 15.3664C10.995 15.5382 11.8902 15.4501 12.7036 15.1131C13.5171 14.7761 14.2124 14.2055 14.7016 13.4733C15.1908 12.7412 15.4519 11.8805 15.4519 10.9999C15.4506 9.81963 14.9811 8.68804 14.1465 7.85343C13.3119 7.01882 12.1803 6.54939 11 6.54805Z" fill="url(#paint1_linear_268_92)"/>
<path d="M16.5076 6.53262C16.2015 6.5326 15.9024 6.44184 15.648 6.27181C15.3935 6.10179 15.1952 5.86013 15.0781 5.5774C14.961 5.29468 14.9304 4.98357 14.9901 4.68344C15.0498 4.38331 15.1972 4.10762 15.4136 3.89125C15.63 3.67487 15.9057 3.52752 16.2058 3.46783C16.506 3.40814 16.8171 3.43879 17.0998 3.55591C17.3825 3.67303 17.6242 3.87135 17.7942 4.1258C17.9642 4.38025 18.0549 4.67939 18.0549 4.98541C18.0544 5.39563 17.8912 5.78891 17.6012 6.07897C17.3111 6.36903 16.9178 6.53218 16.5076 6.53262ZM16.5076 4.30101C16.3722 4.30101 16.2399 4.34115 16.1274 4.41634C16.0148 4.49154 15.9271 4.59842 15.8753 4.72346C15.8235 4.84851 15.8099 4.98611 15.8363 5.11886C15.8628 5.25161 15.9279 5.37355 16.0236 5.46926C16.1193 5.56497 16.2413 5.63015 16.374 5.65656C16.5068 5.68298 16.6444 5.66943 16.7694 5.61764C16.8945 5.56585 17.0014 5.47814 17.0766 5.3656C17.1518 5.25307 17.1919 5.12076 17.1919 4.98541C17.1917 4.80397 17.1195 4.63001 16.9912 4.50171C16.8629 4.37341 16.689 4.30123 16.5076 4.30101Z" fill="url(#paint2_linear_268_92)"/>
</g>
<defs>
<linearGradient id="paint0_linear_268_92" x1="11" y1="0.606628" x2="11" y2="21.3934" gradientUnits="userSpaceOnUse">
<stop stop-color="#fff"/>
<stop offset="1" stop-color="#fff"/>
</linearGradient>
<linearGradient id="paint1_linear_268_92" x1="11" y1="5.68512" x2="11" y2="16.3149" gradientUnits="userSpaceOnUse">
<stop stop-color="#fff"/>
<stop offset="1" stop-color="#fff"/>
</linearGradient>
<linearGradient id="paint2_linear_268_92" x1="16.5076" y1="3.43811" x2="16.5076" y2="6.53262" gradientUnits="userSpaceOnUse">
<stop stop-color="#fff"/>
<stop offset="1" stop-color="#fff"/>
</linearGradient>
<clipPath id="clip0_268_92">
<rect width="22" height="22" fill="#fff"/>
</clipPath>
</defs>
</svg>
