<svg width="43" height="40" viewBox="0 0 43 40" fill="none" xmlns="http://www.w3.org/2000/svg">
<path d="M30.9675 28.4393L34.4166 26.7319L35.3286 26.2821L34.856 25.3765L33.0651 21.9734C32.1296 20.133 30.6492 19.4387 29.4657 19.1942C30.282 18.2985 31.0769 16.8629 30.7566 14.8172L30.202 11.0053L30.0555 9.99611L29.0497 10.1663L25.2647 10.8215C23.2277 11.1442 22.1125 12.3392 21.513 13.3914C20.9153 12.3372 19.7982 11.1363 17.7553 10.8097L13.9626 10.1604L12.9607 9.98828L12.8103 10.9994L12.2634 14.8074C11.9412 16.8473 12.7302 18.2789 13.5446 19.1747C12.3591 19.4192 10.8729 20.1115 9.93153 21.9558L8.14256 25.3668L7.66797 26.2684L8.58199 26.7241L12.0291 28.4217C13.8669 29.3586 15.4703 29.0495 16.5718 28.5528C16.437 29.7575 16.6363 31.3867 18.0971 32.8536L20.7845 35.6113L21.4934 36.3408L22.2082 35.6113L24.8858 32.8536C26.3447 31.3926 26.5459 29.7712 26.4131 28.5665C27.5165 29.0671 29.1239 29.3801 30.9675 28.4432V28.4393ZM32.1628 22.4428L33.6236 25.2259L28.7567 23.6417L27.831 21.8796C27.5947 21.4141 27.2919 21.0816 26.9736 20.8469C27.4872 20.6552 27.9696 20.4108 28.4032 20.1154C28.4149 20.1076 28.4267 20.0998 28.4384 20.092C29.5301 20.1272 31.1882 20.532 32.1628 22.4428ZM24.1261 21.5236C24.2862 21.4552 24.4503 21.4004 24.6163 21.3613L25.171 21.287C25.6436 21.2752 26.4814 21.4043 26.9541 22.3353L27.7314 23.8119L26.2334 24.5532C25.3077 25.0206 24.5558 24.6372 24.1788 24.3478L23.7453 23.9332C23.6593 23.8295 23.5753 23.718 23.5011 23.5987C23.4953 23.587 23.4894 23.5752 23.4816 23.5674L22.8371 22.2199L24.1241 21.5256L24.1261 21.5236ZM22.3352 20.6376L22.0735 19.1962C22.0578 19.0221 22.0559 18.8481 22.0696 18.6799L22.1711 18.1264C22.3059 17.6726 22.6887 16.9157 23.716 16.7534L25.3585 16.4698L25.6006 18.1264C25.7588 19.1532 25.1612 19.7497 24.7706 20.0196L24.2433 20.3032C24.1183 20.354 23.9874 20.399 23.8507 20.4323C23.837 20.4342 23.8234 20.4362 23.8156 20.4421L22.3352 20.6396V20.6376ZM29.2957 11.8561L29.7469 14.9678C30.0809 17.0976 28.9637 18.4041 28.1005 19.071C28.0849 19.071 28.0673 19.071 28.0517 19.071C27.5361 19.0886 27.0107 19.1708 26.4893 19.3135C26.6103 18.9361 26.6592 18.4902 26.5771 17.9738L26.2881 16.0004L29.2957 11.8541V11.8561ZM25.4307 11.8267L28.5263 11.2948L25.5186 15.4411L23.5597 15.7794C23.0441 15.8616 22.6359 16.0454 22.3137 16.2781C22.2903 15.7305 22.2063 15.1946 22.0598 14.69C22.0559 14.6763 22.052 14.6627 22.0481 14.649C22.4192 13.6202 23.3156 12.167 25.4307 11.8287V11.8267ZM21.4954 21.7661H21.5071V21.7779H21.513L21.5012 21.7837L21.4915 21.7779H21.4895L21.4954 21.7681V21.7661ZM17.5854 11.817C19.7123 12.1573 20.6067 13.6241 20.9739 14.6529C20.97 14.6685 20.9641 14.6842 20.9602 14.6998C20.8177 15.1966 20.7337 15.7227 20.7083 16.2625C20.3861 16.0317 19.9779 15.8479 19.4623 15.7657L17.4995 15.4313L14.4918 11.285L17.5874 11.817H17.5854ZM19.2318 20.4342C19.0619 20.3951 18.8979 20.3443 18.7436 20.2797L18.2436 20.0098C17.853 19.7399 17.2573 19.1434 17.4194 18.1146L17.6577 16.462L19.3041 16.7436C20.3275 16.9099 20.7103 17.6648 20.845 18.1186L20.9524 18.7073C20.9622 18.8422 20.9642 18.9811 20.9524 19.1219C20.9505 19.1356 20.9485 19.1493 20.9505 19.159L20.681 20.6298L19.2318 20.4342ZM20.1595 22.2023L19.5267 23.5224C19.4369 23.673 19.3353 23.8138 19.226 23.9429L18.8197 24.3302C18.4448 24.6177 17.6909 25.0049 16.7632 24.5316L15.2672 23.7943L16.0445 22.3118C16.5171 21.3906 17.3491 21.2576 17.8237 21.2694L18.4233 21.3495C18.5541 21.3828 18.685 21.4239 18.8139 21.4747C18.8256 21.4806 18.8373 21.4864 18.849 21.4884L20.1615 22.2003L20.1595 22.2023ZM13.2692 14.958L13.7204 11.8463L16.728 15.9926L16.4429 17.9621C16.3609 18.4784 16.4097 18.9243 16.5308 19.3018C16.0035 19.1551 15.4703 19.0691 14.9449 19.0515C14.9313 19.0515 14.9156 19.0515 14.902 19.0515C14.0387 18.3806 12.9372 17.0781 13.2692 14.958ZM10.8358 22.4272C11.8162 20.5085 13.4841 20.1076 14.5758 20.0763C14.5895 20.0861 14.6032 20.0959 14.6168 20.1056C15.0445 20.3951 15.5172 20.6376 16.023 20.8293C15.7047 21.064 15.4039 21.3965 15.1656 21.862L14.2399 23.628L9.37296 25.2123L10.8338 22.4291L10.8358 22.4272ZM16.8765 27.2189C15.9722 27.833 14.3942 28.4804 12.4841 27.5103L9.66787 26.1197L14.5348 24.5355L16.3179 25.4157C16.7827 25.6523 17.2222 25.7442 17.6186 25.7462C17.3159 26.2038 17.0698 26.685 16.8921 27.1798C16.8882 27.1935 16.8823 27.2072 16.8784 27.2209L16.8765 27.2189ZM21.0169 34.3869L18.8256 32.1358C17.3042 30.6083 17.4429 28.897 17.7495 27.8467C17.7632 27.8369 17.7768 27.8272 17.7885 27.8174C18.1967 27.5005 18.5717 27.1231 18.9096 26.7026C19.0346 27.08 19.2553 27.4673 19.6263 27.8389L21.0169 29.2647V34.3889V34.3869ZM20.3255 27.1387C19.5951 26.4033 19.7279 25.5682 19.8861 25.1203L20.1458 24.5786C20.2181 24.4632 20.2962 24.3517 20.388 24.2441C20.3978 24.2344 20.4075 24.2246 20.4114 24.2148L21.4934 23.1841L22.552 24.1952C22.6672 24.3263 22.7687 24.4671 22.8586 24.6099L23.1008 25.1164C23.259 25.5643 23.3937 26.3994 22.6574 27.1368L21.4954 28.3337L20.3275 27.1368L20.3255 27.1387ZM24.1613 32.1358L21.97 34.3869V29.2627L23.3566 27.8369C23.7257 27.4673 23.9484 27.0781 24.0714 26.7006C24.4132 27.1309 24.794 27.5142 25.2081 27.835C25.2198 27.8428 25.2315 27.8526 25.2432 27.8604C25.5479 28.9107 25.6748 30.6142 24.1613 32.1338V32.1358ZM26.0908 27.1778C25.9151 26.6908 25.6748 26.2175 25.378 25.7657C25.7745 25.7638 26.2119 25.6719 26.6787 25.4352L28.4638 24.5512L33.3307 26.1354L30.5144 27.526C28.5946 28.5019 27.0107 27.8428 26.1084 27.2267C26.1026 27.2111 26.0967 27.1954 26.0928 27.1798L26.0908 27.1778Z" fill="#235162"/>
<path d="M18.211 8.20863L19.1328 8.6702C19.5781 8.89316 20.0019 9.15719 20.3964 9.46034L21.0644 9.97276V7.31678C21.0644 6.90997 20.9726 6.50904 20.8007 6.15699C20.6562 5.86166 20.4335 5.59763 20.1757 5.29057C19.9297 4.99916 19.6523 4.67058 19.3867 4.25399C19.3047 4.11513 19.1094 3.87066 19.0078 3.45798C18.8828 2.95143 18.9746 2.40576 18.9746 2.40576L17.9376 3.29761C16.5822 4.56888 16.5334 5.77952 16.7736 6.54424C16.9923 7.24442 17.5021 7.83312 18.211 8.20667V8.20863ZM18.2403 4.3733C18.3106 4.50043 18.3926 4.64516 18.4883 4.80749C18.8008 5.29839 19.1172 5.67195 19.3711 5.97314C19.584 6.22544 19.7676 6.44254 19.8535 6.62052C19.9551 6.82979 20.0097 7.07035 20.0097 7.31678V7.95828L18.6993 7.2718C18.2462 7.03515 17.9102 6.65572 17.7794 6.23131C17.5919 5.63088 17.7501 5.00502 18.2403 4.3733Z" fill="#235162"/>
<path d="M20.8278 4.86995C21.0758 5.19266 21.3493 5.53492 21.5035 5.72659C21.652 5.53688 21.9254 5.19266 22.1734 4.86995C22.4117 4.56289 22.6226 4.28321 22.7066 4.15608C22.9917 3.72385 23.8413 2.40759 22.3316 0.891846L22.2203 0.776454L21.5035 0L20.7809 0.776454L20.6696 0.891846C19.1619 2.40759 20.0095 3.72385 20.2946 4.15608C20.3786 4.28321 20.5895 4.56289 20.8278 4.86995ZM21.4274 1.62527L21.5016 1.55096L21.5699 1.62527C22.4879 2.55037 22.0875 3.17231 21.8082 3.60063C21.7653 3.66909 21.65 3.82164 21.5016 4.01722C21.3493 3.82164 21.2321 3.66909 21.1911 3.60063C20.9118 3.17231 20.5114 2.55037 21.4293 1.62527H21.4274Z" fill="#235162"/>
<path d="M22.1933 6.15894C22.0215 6.51099 21.9316 6.91193 21.9316 7.31873V9.97471L22.5996 9.46229C22.9941 9.15914 23.4179 8.89315 23.8632 8.67215L24.785 8.21058C25.494 7.83898 26.0056 7.24832 26.2224 6.54815C26.4607 5.78343 26.4119 4.57279 25.0584 3.30151L24.0214 2.40967C24.0214 2.40967 24.1132 2.95534 23.9882 3.46189C23.8866 3.87457 23.6913 4.11904 23.6093 4.2579C23.3437 4.67449 23.0664 5.00306 22.8203 5.29448C22.5625 5.60154 22.3379 5.86557 22.1953 6.1609L22.1933 6.15894ZM22.9863 7.31873C22.9863 7.0723 23.041 6.83174 23.1425 6.62247C23.2285 6.44645 23.412 6.2274 23.6249 5.9751C23.8788 5.67391 24.1952 5.30034 24.5077 4.80944C24.6034 4.64515 24.6854 4.50237 24.7557 4.37525C25.2459 5.00697 25.4041 5.63283 25.2166 6.23326C25.0838 6.65767 24.7499 7.0371 24.2968 7.27375L22.9863 7.96024V7.31873Z" fill="#235162"/>
<path d="M36.4315 16.5188C36.6678 16.29 36.8494 15.9966 37.0623 15.6544C37.2615 15.3297 37.49 14.964 37.8025 14.5826C37.9099 14.4613 38.0798 14.2012 38.4411 13.9743C38.8844 13.6986 39.4293 13.6164 39.4293 13.6164L38.2614 12.9045C36.6346 12.0068 35.4706 12.3354 34.8183 12.7989C34.2206 13.2233 33.8183 13.8922 33.6855 14.6823L33.5332 15.7033C33.459 16.1961 33.3379 16.6812 33.1719 17.1525L32.8906 17.9485L35.412 17.1271C35.7987 17.0019 36.1502 16.7907 36.4315 16.5188ZM34.4765 16.3213L34.7245 14.8623C34.8104 14.3577 35.0663 13.9215 35.4296 13.6634C35.9412 13.2996 36.5857 13.2566 37.3377 13.5284C37.2381 13.634 37.1267 13.7572 37.0017 13.9C36.6326 14.3499 36.3748 14.7664 36.1678 15.1009C35.994 15.3825 35.8436 15.625 35.703 15.76C35.535 15.9204 35.3241 16.0475 35.0897 16.1238L34.4804 16.3213H34.4765Z" fill="#235162"/>
<path d="M41.5388 14.8331L41.3943 14.7627C39.4882 13.7946 38.5019 15.0092 38.1777 15.414C38.0839 15.5333 37.8828 15.8208 37.666 16.1416C37.4375 16.478 37.1953 16.8437 37.0625 17.0491C37.2891 17.1312 37.6992 17.2857 38.082 17.4226C38.4472 17.5537 38.7773 17.6691 38.9237 17.7101C39.4237 17.847 40.9353 18.2499 41.9079 16.345L41.9841 16.2042L42.4997 15.281L41.5388 14.8331ZM40.9744 15.8482C40.3807 17.008 39.6639 16.8183 39.1718 16.6853C39.0936 16.6657 38.912 16.6031 38.6816 16.523C38.8202 16.3176 38.9296 16.1592 38.9823 16.0985C39.3026 15.6996 39.7694 15.1265 40.9314 15.7133L41.0252 15.7602L40.9764 15.8482H40.9744Z" fill="#235162"/>
<path d="M39.1071 18.6033C38.6306 18.4801 38.2302 18.3158 37.8787 18.1711C37.5076 18.0205 37.1873 17.8875 36.8611 17.8425C36.4744 17.7878 36.0643 17.8269 35.6796 17.952L33.1562 18.7715L33.8496 19.2507C34.2597 19.5343 34.6425 19.855 34.9921 20.211L35.7147 20.9464C36.2869 21.5077 37.0057 21.8108 37.738 21.803C38.5368 21.7952 39.6715 21.3727 40.4625 19.6907L40.9898 18.4273C40.9898 18.4273 40.4996 18.6835 39.9801 18.7207C39.5563 18.75 39.2653 18.6405 39.1071 18.6053V18.6033ZM37.7283 20.7449C37.2849 20.7508 36.8201 20.5474 36.4549 20.1895L35.3983 19.1549L36.0077 18.9573C36.242 18.881 36.4881 18.8576 36.7166 18.8908C36.9119 18.9182 37.1756 19.0258 37.4802 19.1509C37.8435 19.2996 38.2966 19.4854 38.861 19.6301C39.0466 19.6712 39.2087 19.7044 39.3512 19.7318C38.902 20.3948 38.3572 20.7391 37.7283 20.7449Z" fill="#235162"/>
<path d="M34.4567 31.9209C33.8689 31.4828 33.1092 31.3068 32.3182 31.4241L31.3007 31.5943C30.8085 31.6764 30.3105 31.7116 29.8125 31.6979L28.9707 31.6764L30.5312 33.8239C30.7694 34.1525 31.078 34.4243 31.4237 34.6082C31.7127 34.7627 32.0506 34.8448 32.4393 34.9407C32.8084 35.0306 33.2283 35.1343 33.6853 35.3142C33.8337 35.3788 34.1345 35.4609 34.4587 35.7347C34.8571 36.0711 35.1032 36.5659 35.1032 36.5659L35.4196 35.234C35.7692 33.4073 35.0973 32.4001 34.4567 31.9209ZM34.0876 34.3363C33.5466 34.1231 33.0721 34.0058 32.6893 33.9119C32.369 33.8337 32.0916 33.7652 31.9178 33.6733C31.7127 33.5638 31.5272 33.4015 31.3827 33.202L31.0057 32.6837L32.4686 32.4685C32.9744 32.3942 33.4685 32.5037 33.824 32.7697C34.3278 33.1452 34.5681 33.7457 34.5407 34.5456C34.4099 34.483 34.2595 34.4146 34.0837 34.3402L34.0876 34.3363Z" fill="#235162"/>
<path d="M33.0128 35.9261C32.8702 35.8732 32.5343 35.7716 32.1632 35.662C31.7726 35.5466 31.3508 35.4312 31.1145 35.3667C31.1067 35.6073 31.0871 36.0473 31.0754 36.4541C31.0637 36.8414 31.0559 37.1915 31.0637 37.344C31.0871 37.8623 31.1731 39.4269 33.2823 39.7653L33.4405 39.7946L34.4776 40L34.6065 38.9458L34.628 38.7874C34.958 36.6732 33.4991 36.1079 33.0148 35.9261H33.0128ZM33.5811 38.6407L33.5655 38.7444L33.4659 38.7248C32.1808 38.5175 32.1398 37.7763 32.1144 37.2658C32.1086 37.1856 32.1125 36.9939 32.1164 36.7475C32.3546 36.8159 32.5382 36.8707 32.6124 36.902C33.089 37.0839 33.7803 37.3518 33.5792 38.6407H33.5811Z" fill="#235162"/>
<path d="M30.4306 38.6646C30.2705 38.2696 30.2861 37.9586 30.2705 37.7982C30.2412 37.3054 30.2724 36.8751 30.2998 36.4957C30.3291 36.0947 30.3545 35.7505 30.2978 35.4258C30.2295 35.0405 30.0674 34.6631 29.8291 34.3345L28.2706 32.1851L28.0304 32.9928C27.8878 33.47 27.7023 33.9336 27.4718 34.3775L26.9972 35.2928C26.6418 36.0106 26.5754 36.789 26.8097 37.4833C27.0656 38.2422 27.8155 39.1927 29.6572 39.4254L31.0204 39.5369C31.0204 39.5369 30.6259 39.1497 30.4306 38.6666V38.6646ZM29.2198 37.8804C29.2373 38.0701 29.2569 38.2344 29.2744 38.3791C28.5069 38.1561 28.0108 37.7435 27.8097 37.1469C27.6671 36.7264 27.7159 36.2218 27.9425 35.7622L28.5987 34.4362L28.9756 34.9545C29.1202 35.154 29.2178 35.3808 29.2588 35.6097C29.294 35.8033 29.2725 36.0888 29.2471 36.4174C29.2178 36.8105 29.1827 37.2995 29.2178 37.8804H29.2198Z" fill="#235162"/>
<path d="M15.5252 34.3775C15.2948 33.9355 15.1092 33.472 14.9666 32.9928L14.7264 32.1851L13.1679 34.3345C12.9296 34.6631 12.7675 35.0405 12.6992 35.4258C12.6425 35.7505 12.6679 36.0947 12.6972 36.4957C12.7246 36.8751 12.7578 37.3054 12.7265 37.7982C12.7109 37.9586 12.7265 38.2715 12.5664 38.6646C12.3711 39.1477 11.9766 39.535 11.9766 39.535L13.3398 39.4235C15.1815 39.1927 15.9334 38.2402 16.1873 37.4814C16.4216 36.7871 16.3552 36.0087 15.9998 35.2909L15.5252 34.3756V34.3775ZM15.1873 37.1469C14.9862 37.7435 14.4901 38.1561 13.7226 38.3791C13.7401 38.2344 13.7597 38.0701 13.7773 37.8804C13.8124 37.2995 13.7773 36.8105 13.748 36.4174C13.7245 36.0888 13.703 35.8033 13.7362 35.6097C13.7773 35.3808 13.8749 35.154 14.0194 34.9545L14.3964 34.4362L15.0526 35.7622C15.2791 36.2218 15.328 36.7245 15.1854 37.1469H15.1873Z" fill="#235162"/>
<path d="M11.88 35.3648C11.6495 35.4312 11.2257 35.5486 10.8351 35.662C10.464 35.7696 10.1281 35.8733 9.98553 35.9261C9.50118 36.108 8.04227 36.6732 8.37233 38.7874L8.39382 38.9458L8.51881 39.9961L9.55977 39.7927L9.71797 39.7634C11.8292 39.425 11.9132 37.8604 11.9366 37.3421C11.9425 37.1895 11.9366 36.8394 11.9249 36.4522C11.9132 36.0454 11.8936 35.6073 11.88 35.3628V35.3648ZM10.8859 37.2658C10.8605 37.7763 10.8195 38.5175 9.53438 38.7248L9.43087 38.7405L9.41915 38.6407C9.21995 37.3518 9.90936 37.0839 10.3859 36.902C10.4601 36.8707 10.6437 36.816 10.8781 36.7436C10.8878 36.992 10.8917 37.1837 10.8839 37.2638L10.8859 37.2658Z" fill="#235162"/>
<path d="M8.53941 35.7326C8.86557 35.4588 9.16633 35.3766 9.31281 35.3121C9.77177 35.1321 10.1897 35.0285 10.5588 34.9385C10.9475 34.8427 11.2834 34.7605 11.5744 34.606C11.9201 34.4222 12.2287 34.1503 12.4669 33.8218L14.0274 31.6743L13.1856 31.6958C12.6876 31.7075 12.1896 31.6743 11.6974 31.5921L10.6799 31.422C9.88895 31.3046 9.12922 31.4826 8.54136 31.9188C7.89881 32.396 7.22893 33.4052 7.57852 35.2319L7.89491 36.5638C7.89491 36.5638 8.14099 36.069 8.53941 35.7326ZM9.17219 32.7676C9.52764 32.5016 10.0218 32.3921 10.5276 32.4664L11.9904 32.6815L11.6135 33.1998C11.4689 33.3993 11.2834 33.5636 11.0783 33.6712C10.9045 33.7631 10.6291 33.8315 10.3069 33.9098C9.9241 34.0036 9.44952 34.121 8.90853 34.3342C8.73471 34.4104 8.58433 34.4789 8.45152 34.5395C8.42613 33.7396 8.6644 33.1392 9.16828 32.7637L9.17219 32.7676Z" fill="#235162"/>
<path d="M9.14807 19.2511L9.84139 18.7719L7.31808 17.9524C6.93138 17.8272 6.5232 17.7901 6.1365 17.8429C5.8123 17.8879 5.49005 18.0189 5.11898 18.1715C4.76744 18.3162 4.36706 18.4785 3.89053 18.6037C3.73233 18.6389 3.44133 18.7504 3.01753 18.7191C2.49802 18.6819 2.00781 18.4257 2.00781 18.4257L2.53513 19.6892C3.32415 21.3731 4.45886 21.7936 5.2596 21.8014C5.99198 21.8093 6.70874 21.5061 7.28293 20.9448L8.00555 20.2094C8.35514 19.8534 8.73793 19.5327 9.14807 19.2491V19.2511ZM6.54468 20.1918C6.17947 20.5497 5.71465 20.7512 5.27132 20.7472C4.64244 20.7414 4.09755 20.3952 3.64835 19.7341C3.79092 19.7068 3.95302 19.6735 4.13856 19.6324C4.70103 19.4858 5.15413 19.3019 5.51935 19.1513C5.82402 19.0261 6.08768 18.9186 6.28298 18.8912C6.51344 18.8599 6.75757 18.8814 6.99193 18.9577L7.60127 19.1552L6.54468 20.1898V20.1918Z" fill="#235162"/>
<path d="M4.07403 17.7098C4.22051 17.6687 4.55252 17.5533 4.91579 17.4223C5.29858 17.2853 5.70871 17.1308 5.93722 17.0428C5.80246 16.8433 5.56028 16.4756 5.33178 16.1412C5.11499 15.8205 4.91383 15.5329 4.82009 15.4136C4.49588 15.0088 3.50961 13.7923 1.60346 14.7624L1.45893 14.8328L0.5 15.2767L1.01364 16.2057L1.08981 16.3466C2.06437 18.2515 3.57406 17.8486 4.07403 17.7117V17.7098ZM2.0214 15.8478L1.97453 15.7539L2.06632 15.7109C3.22837 15.1222 3.69515 15.6972 4.01544 16.0962C4.06817 16.1568 4.17754 16.3153 4.31816 16.5167C4.08575 16.6028 3.90412 16.6654 3.826 16.6849C3.33384 16.8199 2.61707 17.0076 2.02336 15.8478H2.0214Z" fill="#235162"/>
<path d="M5.19523 14.5843C5.50771 14.9657 5.73621 15.3314 5.93542 15.6561C6.14635 15.9964 6.32994 16.2917 6.56625 16.5206C6.84749 16.7924 7.20098 17.0017 7.58573 17.1288L10.1071 17.9502L9.82585 17.1542C9.65984 16.6848 9.53875 16.1998 9.46454 15.705L9.3122 14.684C9.17744 13.8939 8.77512 13.225 8.17945 12.8006C7.52714 12.3371 6.36313 12.0085 4.73627 12.9062L3.56836 13.6181C3.56836 13.6181 4.11521 13.6983 4.55659 13.976C4.9179 14.201 5.08781 14.463 5.19523 14.5843ZM7.56815 13.6631C7.92946 13.9213 8.18726 14.3574 8.27319 14.862L8.52123 16.3211L7.91188 16.1235C7.67752 16.0472 7.46464 15.9221 7.29864 15.7597C7.15802 15.6228 7.00763 15.3803 6.83381 15.1006C6.62679 14.7662 6.36899 14.3496 5.99987 13.8998C5.87488 13.757 5.76356 13.6338 5.66395 13.5282C6.41587 13.2563 7.06036 13.2993 7.57206 13.6631H7.56815Z" fill="#235162"/>
</svg>
