<svg xmlns="http://www.w3.org/2000/svg" width="46" height="46" viewBox="0 0 46 46" fill="none">
  <g clip-path="url(#clip0_268_201)">
    <path d="M38.6979 1.21509H7.30219C3.94034 1.21509 1.21503 3.9404 1.21503 7.30225V38.6979C1.21503 42.0598 3.94034 44.7851 7.30219 44.7851H38.6979C42.0597 44.7851 44.785 42.0598 44.785 38.6979V7.30225C44.785 3.9404 42.0597 1.21509 38.6979 1.21509Z" stroke="#194A5B" stroke-miterlimit="10"/>
    <path d="M19.0884 22.174C19.0825 22.2346 19.0825 22.2956 19.0884 22.3562L22.9399 24.3002C22.9399 23.8871 23.0007 23.632 23.0371 23.3039H25.7709V23.146L21.9193 21.1777C21.9193 21.5665 21.8464 21.8459 21.7978 22.1861L19.0884 22.174ZM34.7862 28.4556C33.5105 28.6257 33.5105 28.6257 32.8908 29.6706C31.8992 31.2386 30.5476 32.5472 28.9482 33.4875C27.3489 34.4278 25.5482 34.9726 23.6958 35.0765C21.8435 35.1805 19.9931 34.8407 18.2986 34.0853C16.6041 33.3299 15.1145 32.1808 13.9536 30.7336C12.7928 29.2864 11.9943 27.5829 11.6246 25.7648C11.2549 23.9468 11.3247 22.0667 11.8281 20.2811C12.3316 18.4955 13.2541 16.8559 14.5191 15.4987C15.784 14.1415 17.3547 13.106 19.1005 12.4783C19.4529 12.3568 19.7323 12.2596 20.0361 12.6362C20.2508 12.856 20.5241 13.0094 20.8235 13.0784C21.1229 13.1473 21.4358 13.1288 21.7249 13.025V9.72021C21.0081 10.0604 20.4492 10.2791 19.9146 10.5829C19.5316 10.8713 19.1252 11.1274 18.6996 11.3483C16.693 12.0622 14.8959 13.2649 13.4707 14.8476C12.0455 16.4304 11.0372 18.3433 10.5368 20.4135C10.0364 22.4837 10.0598 24.646 10.6048 26.7049C11.1497 28.7638 12.1991 30.6545 13.6582 32.2061C15.1172 33.7576 16.9398 34.9212 18.9614 35.5917C20.9829 36.2621 23.1397 36.4182 25.2367 36.046C27.3337 35.6737 29.305 34.7848 30.9723 33.4596C32.6396 32.1343 33.9504 30.4145 34.7862 28.4556ZM33.0731 24.4946C33.0552 23.6122 32.7178 22.7663 32.1234 22.1138C31.529 21.4613 30.7181 21.0467 29.8412 20.9468C28.526 20.684 27.2828 20.1412 26.1961 19.3552C25.4342 18.8275 24.5816 18.4445 23.6811 18.2252C21.1915 17.7253 18.6333 17.6677 16.1238 18.0551C15.5854 18.1238 15.07 18.315 14.6172 18.614C14.3742 18.772 14.277 19.2337 14.2284 19.5739C14.2529 19.9785 14.2529 20.3843 14.2284 20.7889C13.9854 21.7123 13.5844 22.5871 13.3414 23.5105C13.1697 24.131 13.0999 24.7752 13.1349 25.418C13.2078 26.4387 13.6209 26.7424 14.6536 26.7424C14.8394 26.7154 15.0289 26.7464 15.1964 26.8313C15.3639 26.9161 15.501 27.0505 15.5892 27.2163C15.7867 27.5733 16.0763 27.8709 16.4278 28.0781C16.7793 28.2853 17.1798 28.3946 17.5879 28.3946C17.9959 28.3946 18.3965 28.2853 18.748 28.0781C19.0994 27.8709 19.389 27.5733 19.5865 27.2163C19.6743 27.0495 19.8109 26.9135 19.9781 26.8266C20.1454 26.7397 20.3352 26.7061 20.5221 26.7303C22.3567 26.7303 24.1671 26.7303 26.0261 26.7303C26.1966 26.7086 26.3695 26.7431 26.5186 26.8286C26.6677 26.9141 26.7849 27.046 26.8523 27.2041C27.02 27.5352 27.2676 27.8193 27.5727 28.0308C27.8777 28.2423 28.2306 28.3745 28.5996 28.4155C28.9685 28.4565 29.3418 28.405 29.6858 28.2656C30.0299 28.1262 30.3338 27.9034 30.5702 27.6172C30.7842 27.2658 31.0994 26.9873 31.4745 26.8181C31.8496 26.649 32.2671 26.5972 32.6721 26.6695C32.93 26.6766 33.1876 26.648 33.4376 26.5844C34.1106 26.4998 34.7274 26.1658 35.1661 25.6483C35.6048 25.1309 35.8334 24.4678 35.8068 23.7899C35.8845 21.2031 35.1744 18.6538 33.7705 16.4796C32.3667 14.3055 30.3354 12.6093 27.9458 11.6156C27.5213 11.4574 27.1648 11.1568 26.9373 10.7651C26.6088 10.4023 26.1894 10.1338 25.7223 9.98752C25.3776 9.89408 25.0224 9.84509 24.6652 9.84172C24.6652 10.0604 24.6652 10.3034 24.5802 10.5586L23.511 10.7165C23.511 10.7165 23.511 10.838 23.511 10.9109L24.568 11.0324V12.0652L23.4867 12.2353V12.4297L24.5559 12.539C24.5559 12.8063 24.5559 13.0372 24.6531 13.3774C25.4429 13.0736 26.1597 12.7942 26.8887 12.539C27.0102 12.539 27.1925 12.539 27.3383 12.6241C29.5125 13.5017 31.3715 15.0148 32.6721 16.9657C33.9727 18.9166 34.6544 21.2145 34.6283 23.5591C34.6455 23.8057 34.6106 24.0531 34.5259 24.2853C34.4413 24.5175 34.3087 24.7293 34.1368 24.907C33.9649 25.0846 33.7576 25.224 33.5282 25.3163C33.2989 25.4085 33.0528 25.4515 32.8058 25.4423C32.2104 25.4423 31.5908 25.4423 31.0197 25.4423C30.4487 25.4423 30.1571 25.576 30.0599 26.1835C30.0322 26.4595 29.8994 26.7144 29.6891 26.8953C29.4788 27.0762 29.207 27.1694 28.9299 27.1555C28.6512 27.1826 28.3732 27.0981 28.1568 26.9204C27.9404 26.7427 27.8033 26.4864 27.7757 26.2078C27.6785 25.6124 27.3383 25.4788 26.8037 25.4909H19.5865C19.1491 25.4909 18.8575 25.6003 18.7725 26.1106C18.7451 26.3866 18.615 26.6422 18.4079 26.8268C18.2009 27.0113 17.932 27.1113 17.6547 27.1069C17.5097 27.1255 17.3625 27.1144 17.2219 27.0745C17.0814 27.0346 16.9503 26.9666 16.8368 26.8746C16.7232 26.7826 16.6295 26.6686 16.5612 26.5393C16.493 26.4101 16.4516 26.2684 16.4397 26.1228C16.4336 26.0251 16.4062 25.93 16.3593 25.8442C16.3125 25.7583 16.2474 25.6838 16.1686 25.6259C16.0898 25.5679 15.9992 25.528 15.9033 25.5089C15.8074 25.4898 15.7085 25.4919 15.6135 25.5152C15.3826 25.5152 15.1518 25.5152 14.9209 25.5152C14.3985 25.5881 14.1798 25.3208 14.2648 24.847C14.3799 24.2514 14.5301 23.6632 14.7144 23.0852C15.0667 21.8702 15.4555 20.6552 15.8322 19.4402C15.9075 19.3314 16.0098 19.2439 16.1291 19.1864C16.2484 19.1289 16.3805 19.1034 16.5126 19.1122C18.5295 19.1122 20.5342 19.1122 22.5876 19.1122C23.8265 19.2387 25.0052 19.7101 25.9896 20.473C26.8279 21.1128 27.7804 21.5871 28.7963 21.8702C30.3879 22.2226 31.7487 22.6843 32.016 24.5554L33.0731 24.4946Z" fill="#194A5B"/>
    <path d="M33.0718 24.4946L32.0148 24.5553C31.7475 22.6842 30.3745 22.2225 28.795 21.8702C27.7726 21.6172 26.8078 21.1718 25.9519 20.558C24.9675 19.7951 23.7889 19.3237 22.5499 19.1972C20.533 19.1121 18.5283 19.1972 16.4749 19.1972C16.3502 19.1785 16.2229 19.191 16.1042 19.2334C15.9855 19.2758 15.8791 19.3468 15.7945 19.4402C15.4178 20.6552 15.029 21.8702 14.6767 23.0852C14.4992 23.6756 14.3572 24.276 14.2514 24.8834C14.1664 25.3573 14.3851 25.6246 14.9075 25.5517C15.1384 25.5517 15.3692 25.5517 15.6001 25.5517C15.6951 25.5283 15.794 25.5262 15.8899 25.5453C15.9859 25.5644 16.0764 25.6043 16.1552 25.6623C16.234 25.7202 16.2991 25.7947 16.346 25.8806C16.3928 25.9664 16.4202 26.0615 16.4263 26.1592C16.4383 26.3048 16.4796 26.4465 16.5479 26.5757C16.6161 26.705 16.7098 26.819 16.8234 26.911C16.937 27.003 17.068 27.071 17.2086 27.1109C17.3491 27.1508 17.4963 27.1619 17.6413 27.1433C17.9186 27.1477 18.1875 27.0477 18.3945 26.8632C18.6016 26.6786 18.7317 26.423 18.7591 26.147C18.8442 25.6367 19.1358 25.5274 19.5732 25.5274H26.7903C27.3249 25.5274 27.6651 25.6489 27.7623 26.2442C27.7899 26.5228 27.927 26.7791 28.1434 26.9568C28.3598 27.1345 28.6378 27.219 28.9165 27.1919C29.1936 27.2058 29.4654 27.1126 29.6757 26.9317C29.886 26.7508 30.0188 26.4959 30.0465 26.2199C30.1437 25.6124 30.4717 25.4788 31.0063 25.4788C31.5409 25.4788 32.2213 25.4788 32.7924 25.4788C33.0392 25.4911 33.2859 25.4513 33.5163 25.3621C33.7468 25.2729 33.9559 25.1362 34.1301 24.9608C34.3042 24.7855 34.4396 24.5755 34.5273 24.3445C34.615 24.1134 34.6531 23.8665 34.6392 23.6198C34.6654 21.2752 33.9836 18.9773 32.683 17.0264C31.3824 15.0755 29.5234 13.5624 27.3492 12.6848C27.2034 12.6848 27.0211 12.5511 26.8996 12.5997C26.1706 12.8549 25.4538 13.1343 24.664 13.4381C24.664 13.0979 24.5911 12.867 24.5668 12.5997L23.4976 12.4904V12.296L24.579 12.1259V11.0324L23.4733 10.9352C23.4733 10.8623 23.4733 10.8015 23.4733 10.7408L24.5425 10.5828C24.5425 10.3277 24.5425 10.0847 24.6276 9.86597C24.9847 9.86934 25.3399 9.91833 25.6846 10.0118C26.1517 10.1581 26.5712 10.4265 26.8996 10.7894C27.1272 11.1811 27.4836 11.4817 27.9081 11.6399C30.3051 12.6225 32.3466 14.3109 33.7615 16.481C35.1764 18.6511 35.8978 21.2002 35.8299 23.7899C35.8565 24.4677 35.6279 25.1309 35.1892 25.6483C34.7505 26.1657 34.1337 26.4998 33.4606 26.5844C33.2106 26.6479 32.953 26.6766 32.6952 26.6695C32.2901 26.5972 31.8727 26.649 31.4976 26.8181C31.1225 26.9872 30.8073 27.2657 30.5932 27.6172C30.3569 27.9034 30.0529 28.1262 29.7089 28.2656C29.3649 28.4049 28.9915 28.4565 28.6226 28.4155C28.2537 28.3745 27.9008 28.2423 27.5957 28.0308C27.2907 27.8193 27.0431 27.5352 26.8753 27.2041C26.8079 27.0459 26.6908 26.9141 26.5417 26.8286C26.3926 26.743 26.2196 26.7085 26.0491 26.7302C24.2145 26.7302 22.4041 26.7302 20.5452 26.7302C20.3583 26.7061 20.1684 26.7397 20.0012 26.8266C19.834 26.9134 19.6973 27.0494 19.6096 27.2162C19.4121 27.5732 19.1225 27.8708 18.771 28.0781C18.4195 28.2853 18.019 28.3946 17.6109 28.3946C17.2029 28.3946 16.8023 28.2853 16.4508 28.0781C16.0993 27.8708 15.8098 27.5732 15.6122 27.2162C15.5241 27.0505 15.3869 26.916 15.2195 26.8312C15.052 26.7464 14.8625 26.7154 14.6767 26.7424C13.6439 26.7424 13.2308 26.4386 13.1579 25.418C13.1217 24.7711 13.1914 24.1227 13.3645 23.4983C13.6075 22.5749 14.0084 21.7001 14.2514 20.7767C14.276 20.3721 14.276 19.9663 14.2514 19.5617C14.2514 19.2215 14.3972 18.7598 14.6402 18.6018C15.0931 18.3028 15.6085 18.1116 16.1468 18.0429C18.6564 17.6555 21.2146 17.7131 23.7042 18.213C24.6047 18.4323 25.4573 18.8153 26.2192 19.343C27.3059 20.129 28.5491 20.6718 29.8642 20.9346C30.7412 21.0345 31.5521 21.4491 32.1465 22.1016C32.7408 22.7541 33.0783 23.6 33.0961 24.4824" fill="#194A5B"/>
    <path d="M34.7841 28.4556C33.9467 30.4138 32.6342 32.1323 30.9652 33.4554C29.2963 34.7785 27.3238 35.6645 25.2261 36.0332C23.1285 36.4018 20.972 36.2415 18.952 35.5667C16.9319 34.8919 15.1121 33.724 13.6572 32.1686C12.2023 30.6132 11.1582 28.7196 10.6196 26.659C10.081 24.5985 10.0648 22.4361 10.5725 20.3677C11.0801 18.2994 12.0957 16.3903 13.5271 14.8133C14.9585 13.2362 16.7607 12.0412 18.7704 11.3362C19.1693 11.1093 19.5511 10.8535 19.9125 10.5707C20.4471 10.267 21.006 10.0483 21.7229 9.72021V13.025C21.4337 13.1288 21.1208 13.1473 20.8214 13.0784C20.522 13.0094 20.2487 12.856 20.034 12.6362C19.7303 12.2596 19.4508 12.3568 19.0985 12.4783C17.3475 13.1025 15.7712 14.1366 14.5014 15.4942C13.2316 16.8519 12.305 18.4936 11.7991 20.2824C11.2932 22.0711 11.2226 23.955 11.5932 25.7766C11.9638 27.5982 12.7649 29.3047 13.9295 30.7536C15.0941 32.2025 16.5885 33.3517 18.2879 34.1052C19.9873 34.8587 21.8422 35.1948 23.6979 35.0852C25.5536 34.9756 27.3562 34.4236 28.9551 33.4753C30.5539 32.5271 31.9027 31.21 32.8887 29.6341C33.5084 28.6257 33.5084 28.6257 34.7841 28.4191" fill="#194A5B"/>
    <path d="M19.0875 22.174H21.8699C21.8699 21.8338 21.9428 21.5543 21.9914 21.1655L25.8186 23.0852C25.8186 23.0852 25.8186 23.1824 25.8186 23.2432H23.0849C23.0849 23.5712 23.0241 23.8264 22.9877 24.2395L19.0632 22.3562C19.0573 22.2956 19.0573 22.2346 19.0632 22.174" fill="#194A5B"/>
  </g>
  <defs>
    <clipPath id="clip0_268_201">
      <rect width="46" height="46" fill="white"/>
    </clipPath>
  </defs>
</svg>