<svg width="1440" height="995" viewBox="0 0 1440 995" fill="none" xmlns="http://www.w3.org/2000/svg">
<g opacity="0.08" clip-path="url(#clip0_268_440)">
<mask id="mask0_268_440" style="mask-type:luminance" maskUnits="userSpaceOnUse" x="-23" y="235" width="1770" height="376">
<path d="M-23 267.411C54.5117 281.873 126.031 333.125 208.678 444.05C240.331 486.535 276.449 519.791 315.363 544.928C397.884 598.233 493.015 615.049 584.894 605.995C676.772 596.942 765.453 562.002 834.988 511.809C874.435 483.336 907.725 449.951 931.959 413.603C997.126 315.86 1056.13 247.125 1123.04 237.171C1189.95 227.217 1264.58 276.086 1360.82 413.586C1403.74 474.912 1455.65 513.33 1511.12 534.041C1570.4 556.183 1633.78 558.096 1694.62 546.155C1712.02 542.722 1729.18 538.218 1746 532.67V534.489C1729.29 539.977 1712.24 544.439 1694.96 547.849C1633.82 559.85 1570.1 557.912 1510.5 535.658C1454.71 514.827 1402.51 476.198 1359.38 414.566C1263.58 277.703 1189.53 229.025 1123.31 238.88C1057.08 248.734 998.337 317.203 933.417 414.556C909.067 451.075 875.628 484.612 836.014 513.208C766.239 563.572 677.285 598.631 585.055 607.717C492.826 616.803 397.273 599.917 314.392 546.381C275.319 521.134 239.049 487.739 207.258 445.08C125.151 334.867 54.0416 283.811 -23 269.299V267.411Z" fill="white"/>
</mask>
<g mask="url(#mask0_268_440)">
<path d="M1746 227.219H-23V616.807H1746V227.219Z" fill="#EDE7D3"/>
</g>
<mask id="mask1_268_440" style="mask-type:luminance" maskUnits="userSpaceOnUse" x="-23" y="242" width="1769" height="395">
<path d="M-23 311.427C57.565 321.448 132.552 369.949 221.485 481.281C254.568 522.697 291.799 554.743 331.549 578.579C415.84 629.128 511.489 642.791 603.006 630.708C694.523 618.624 781.955 580.774 849.748 528.314C888.202 498.549 920.342 464.085 943.32 426.958C1005.12 327.12 1061.74 256.477 1128.27 244.316C1194.8 232.155 1271.08 278.534 1371.93 412.775C1416.92 472.651 1470.1 509.332 1526.25 528.2C1586.25 548.352 1649.66 548.19 1710.06 534.245C1722.18 531.447 1734.16 528.114 1745.99 524.244V526.06C1734.3 529.855 1722.45 533.144 1710.46 535.927C1649.76 549.941 1586.02 550.108 1525.7 529.832C1469.23 510.859 1415.75 473.982 1370.53 413.803C1270.13 280.179 1194.46 233.974 1128.59 246.01C1062.73 258.047 1006.37 328.399 944.814 427.857C921.727 465.175 889.448 499.783 850.83 529.67C782.814 582.309 695.101 620.286 603.238 632.419C511.375 644.553 415.296 630.825 330.637 580.055C290.702 556.114 253.325 523.936 220.105 482.348C131.71 371.688 57.1227 323.383 -23 313.31V311.427Z" fill="white"/>
</mask>
<g mask="url(#mask1_268_440)">
<path d="M1746 232.153H-23V644.548H1746V232.153Z" fill="#EDE7D3"/>
</g>
<mask id="mask2_268_440" style="mask-type:luminance" maskUnits="userSpaceOnUse" x="-24" y="249" width="1770" height="415">
<path d="M-23.0009 356.224C60.6805 361.339 139.155 406.768 234.726 518.473C269.204 558.777 307.519 589.572 348.045 612.082C434.009 659.817 530.073 670.313 621.13 655.212C712.186 640.11 798.289 599.396 864.245 544.728C901.665 513.711 932.607 478.204 954.309 440.339C1012.67 338.513 1066.85 266.039 1132.93 251.691C1199 237.343 1276.81 281.172 1382.19 412.005C1429.21 470.363 1483.61 505.267 1540.36 522.27C1601.02 540.431 1664.38 538.172 1724.28 522.237C1731.57 520.297 1738.81 518.157 1746 515.819V517.635C1738.97 519.912 1731.88 522.003 1724.73 523.907C1664.54 539.916 1600.85 542.188 1539.86 523.907C1482.77 506.807 1428.06 471.718 1380.82 413.069C1275.93 282.837 1198.72 239.167 1133.3 253.363C1067.89 267.559 1013.96 339.747 955.83 441.175C934.025 479.222 902.947 514.888 865.37 546.034C799.184 600.894 712.813 641.747 621.42 656.903C530.028 672.059 433.534 661.516 347.183 613.57C306.465 590.96 268.001 560.035 233.384 519.573C138.349 408.482 60.2483 363.24 -23.006 358.072L-23.0009 356.224Z" fill="white"/>
</mask>
<g mask="url(#mask2_268_440)">
<path d="M1746 237.333H-23.0018V672.071H1746V237.333Z" fill="#EDE7D3"/>
</g>
<mask id="mask3_268_440" style="mask-type:luminance" maskUnits="userSpaceOnUse" x="-23" y="255" width="1769" height="436">
<path d="M-23 401.868C63.8585 401.565 145.816 443.545 248.416 555.619C284.246 594.756 323.577 624.269 364.862 645.431C452.41 690.3 548.778 697.619 639.263 679.515C729.749 661.411 814.421 617.878 878.471 561.06C914.809 528.827 944.523 492.318 964.912 453.756C1019.76 350.061 1071.45 275.838 1137 259.316C1202.56 242.794 1281.81 284.025 1391.6 411.307C1440.56 468.076 1496.13 501.162 1553.44 516.281C1614.68 532.437 1677.93 528.081 1737.24 510.178C1740.17 509.294 1743.08 508.382 1745.99 507.441V509.257C1743.25 510.145 1740.51 511.004 1737.76 511.835C1678.15 529.827 1614.57 534.203 1552.99 517.958C1495.37 502.754 1439.48 469.491 1390.27 412.432C1280.99 285.732 1202.35 244.625 1137.45 260.978C1072.55 277.33 1021.12 351.263 966.479 454.554C945.986 493.298 916.139 529.972 879.644 562.344C815.369 619.358 730.439 663.04 639.607 681.207C548.775 699.373 451.981 692.027 364.053 646.961C322.602 625.71 283.091 596.072 247.114 556.771C145.045 445.282 63.4642 403.471 -23 403.722V401.868Z" fill="white"/>
</mask>
<g mask="url(#mask3_268_440)">
<path d="M1746 242.784H-23V699.379H1746V242.784Z" fill="#EDE7D3"/>
</g>
<mask id="mask4_268_440" style="mask-type:luminance" maskUnits="userSpaceOnUse" x="-23" y="262" width="1769" height="456">
<path d="M-23 448.474C67.0887 442.184 152.494 480.319 262.543 592.703C299.697 630.638 340.004 658.838 381.983 678.619C471.006 720.57 567.567 724.697 657.391 703.62C747.214 682.543 830.344 636.234 892.426 577.333C927.649 543.916 956.104 506.446 975.174 467.235C1026.46 361.784 1075.59 285.896 1140.54 267.21C1205.49 248.523 1286.1 287.125 1400.17 410.705C1451.04 465.827 1507.7 497.062 1565.49 510.278C1626.2 524.16 1688.18 518.169 1746 499.104V500.923C1688.05 519.938 1625.94 525.874 1565.1 511.959C1506.97 498.667 1450 467.267 1398.87 411.867C1285.33 288.854 1205.33 250.369 1141.02 268.862C1076.72 287.354 1027.84 362.941 976.751 467.969C957.585 507.374 929.009 545.013 893.641 578.57C831.34 637.674 747.949 684.138 657.795 705.294C567.641 726.451 470.649 722.302 381.228 680.167C339.061 660.296 298.578 631.979 261.279 593.892C151.758 482.055 66.7273 444.085 -23 450.325V448.474Z" fill="white"/>
</mask>
<g mask="url(#mask4_268_440)">
<path d="M1746 248.528H-23V726.464H1746V248.528Z" fill="#EDE7D3"/>
</g>
<mask id="mask5_268_440" style="mask-type:luminance" maskUnits="userSpaceOnUse" x="-23" y="269" width="1770" height="477">
<path d="M-23 496.2C70.3669 483.288 159.149 517.083 277.101 629.714C315.52 666.4 356.771 693.249 399.403 711.635C489.81 750.622 586.458 751.562 675.511 727.53C764.563 703.497 846.068 654.468 906.11 593.548C940.171 558.986 967.331 520.598 985.055 480.777C1032.72 373.692 1079.23 296.222 1143.5 275.408C1207.78 254.595 1289.66 290.505 1407.88 410.251C1460.61 463.658 1518.31 493.003 1576.51 504.293C1633.92 515.438 1691.85 509.037 1746 490.858V492.682C1691.74 510.801 1633.71 517.15 1576.18 505.982C1517.64 494.617 1459.62 465.119 1406.63 411.443C1288.96 292.251 1207.69 256.431 1144.06 277.038C1080.42 297.645 1034.14 374.794 986.662 481.457C968.853 521.469 941.573 560.031 907.366 594.737C847.12 655.876 765.359 705.064 675.971 729.196C586.582 753.329 489.505 752.378 398.701 713.219C355.879 694.754 314.45 667.788 275.875 630.955C158.451 518.819 70.0131 485.178 -23 498.056V496.2Z" fill="white"/>
</mask>
<g mask="url(#mask5_268_440)">
<path d="M1746 254.585H-23V753.321H1746V254.585Z" fill="#EDE7D3"/>
</g>
<mask id="mask6_268_440" style="mask-type:luminance" maskUnits="userSpaceOnUse" x="-23" y="277" width="1770" height="497">
<path d="M-23 545.144C73.6932 524.895 165.738 553.832 292.094 666.634C331.739 702.029 373.885 727.503 417.121 744.47C508.805 780.449 605.422 778.193 693.615 751.232C781.808 724.271 861.587 672.578 919.516 609.712C952.374 574.046 978.215 534.779 994.583 494.396C1038.56 385.796 1082.42 306.833 1145.94 283.922C1209.46 261.011 1292.54 294.18 1414.77 409.955C1469.28 461.591 1527.95 489.015 1586.51 498.387C1640.89 507.094 1695.19 500.228 1746.01 482.746V484.569C1695.09 501.984 1640.71 508.804 1586.23 500.086C1527.34 490.662 1468.34 463.096 1413.55 411.197C1291.89 295.961 1209.44 262.845 1146.55 285.542C1083.65 308.239 1040.02 386.873 996.209 495.043C979.78 535.62 953.824 575.063 920.82 610.878C862.687 673.966 782.653 725.818 694.141 752.891C605.629 779.964 508.572 782.221 416.487 746.082C373.064 729.04 330.738 703.46 290.929 667.923C165.081 555.566 73.3772 526.783 -23 547.015V545.144Z" fill="white"/>
</mask>
<g mask="url(#mask6_268_440)">
<path d="M1746 260.972H-23V782.208H1746V260.972Z" fill="#EDE7D3"/>
</g>
<mask id="mask7_268_440" style="mask-type:luminance" maskUnits="userSpaceOnUse" x="-23" y="284" width="1769" height="518">
<path d="M-23 595.448C77.075 567.059 172.216 590.569 307.52 703.451C348.355 737.52 391.343 761.588 435.13 777.115C527.986 810.044 624.482 804.601 711.695 774.744C798.907 744.887 876.891 690.584 932.644 625.837C964.276 589.101 988.755 549.007 1003.73 508.109C1043.99 398.117 1085.11 317.751 1147.82 292.741C1210.54 267.73 1294.69 298.152 1420.8 409.825C1477.04 459.632 1536.61 485.103 1595.45 492.532C1647.08 499.053 1698.17 491.689 1745.99 474.701V476.533C1698.1 493.45 1646.94 500.769 1595.23 494.239C1536.04 486.775 1476.15 461.165 1419.62 411.106C1294.1 299.953 1210.57 269.579 1148.48 294.341C1086.4 319.102 1045.47 399.135 1005.38 508.691C990.332 549.793 965.742 590.069 933.983 626.952C878.036 691.92 799.812 746.4 712.271 776.368C624.73 806.337 527.804 811.811 434.538 778.737C390.559 763.138 347.382 738.971 306.393 704.767C171.589 592.308 76.7843 568.954 -23 597.339V595.448Z" fill="white"/>
</mask>
<g mask="url(#mask7_268_440)">
<path d="M1746 267.718H-23V811.811H1746V267.718Z" fill="#EDE7D3"/>
</g>
<mask id="mask8_268_440" style="mask-type:luminance" maskUnits="userSpaceOnUse" x="-23" y="292" width="1769" height="538">
<path d="M-23 647.345C80.5175 609.917 178.52 627.297 323.368 740.142C365.324 772.838 409.122 795.473 453.419 809.554C547.35 839.408 643.603 830.768 729.749 798.048C815.894 765.327 891.986 708.484 945.499 641.928C975.859 604.173 998.958 563.292 1012.53 521.916C1049.01 410.658 1087.38 328.981 1149.2 301.913C1211.02 274.845 1296.17 302.471 1426.01 409.914C1483.92 457.833 1544.32 481.316 1603.39 486.805C1652.58 491.37 1700.85 483.456 1746 466.775V468.611C1700.79 485.225 1652.47 493.089 1603.23 488.514C1543.83 483.001 1483.09 459.391 1424.88 411.226C1295.64 304.279 1211.12 276.681 1149.91 303.481C1088.71 330.28 1050.54 411.619 1014.18 522.441C1000.55 564.008 977.348 605.076 946.858 642.991C893.158 709.773 816.837 766.807 730.368 799.65C643.899 832.492 547.213 841.165 452.873 811.188C408.389 797.055 364.41 774.326 322.273 741.493C177.939 629.041 80.2571 611.828 -23 649.278V647.345Z" fill="white"/>
</mask>
<g mask="url(#mask8_268_440)">
<path d="M1746 274.838H-23V841.175H1746V274.838Z" fill="#EDE7D3"/>
</g>
<mask id="mask9_268_440" style="mask-type:luminance" maskUnits="userSpaceOnUse" x="-24" y="300" width="1771" height="559">
<path d="M-22.9999 701.01C84.0435 653.521 184.591 664.045 339.643 776.713C382.699 808.001 427.231 829.175 471.984 841.779C566.878 868.506 662.785 856.706 747.765 821.154C832.746 785.602 906.856 726.277 958.071 657.994C987.125 619.261 1008.82 577.636 1020.97 535.84C1053.64 423.44 1089.2 340.542 1150.07 311.434C1210.94 282.326 1296.97 307.135 1430.4 410.23C1489.91 456.21 1551.08 477.688 1610.3 481.219C1657.36 484.022 1703.19 475.496 1746 458.93V460.783C1703.15 477.273 1657.28 485.747 1610.2 482.94C1550.64 479.39 1489.13 457.813 1429.32 411.585C1296.5 308.968 1211.09 284.181 1150.83 312.986C1090.57 341.791 1055.2 424.343 1022.66 536.303C1010.45 578.298 988.659 620.107 959.469 659.012C908.076 727.528 833.742 787.05 748.44 822.731C663.138 858.412 566.804 870.275 471.494 843.431C426.552 830.772 381.829 809.508 338.589 778.087C184.022 665.762 83.8135 655.434 -23.01 702.953L-22.9999 701.01Z" fill="white"/>
</mask>
<g mask="url(#mask9_268_440)">
<path d="M1746 282.343H-22.9999V870.292H1746V282.343Z" fill="#EDE7D3"/>
</g>
<mask id="mask10_268_440" style="mask-type:luminance" maskUnits="userSpaceOnUse" x="-23" y="308" width="1769" height="579">
<path d="M-23 756.717C87.683 698.003 190.351 700.8 356.329 813.147C400.429 843.002 445.659 862.688 490.819 873.806C586.569 897.384 682.019 882.419 765.741 844.081C849.463 805.743 921.505 744.004 970.364 674.07C998.081 634.408 1018.34 592.082 1029.06 549.905C1057.88 436.488 1090.6 352.463 1150.44 321.369C1210.28 290.276 1297.11 312.224 1433.98 410.853C1495.03 454.841 1556.9 474.294 1616.2 475.859C1661.44 477.058 1705.21 467.855 1746 451.214V453.075C1705.19 469.634 1661.41 478.779 1616.16 477.58C1556.51 476 1494.3 456.456 1432.95 412.244C1296.71 314.072 1210.5 292.117 1151.25 322.897C1092.01 353.677 1059.47 437.351 1030.76 550.318C1019.99 592.692 999.641 635.197 971.803 675.043C922.768 745.221 850.514 807.161 766.476 845.644C682.438 884.126 586.564 899.16 490.394 875.483C445.045 864.32 399.623 844.544 355.336 814.568C189.818 702.534 87.4909 699.941 -23 758.737V756.717Z" fill="white"/>
</mask>
<g mask="url(#mask10_268_440)">
<path d="M1746 290.266H-23V899.16H1746V290.266Z" fill="#EDE7D3"/>
</g>
<mask id="mask11_268_440" style="mask-type:luminance" maskUnits="userSpaceOnUse" x="-23" y="316" width="1769" height="600">
<path d="M-23 814.759C91.4971 743.511 195.725 737.58 373.43 849.41C418.521 877.787 464.399 895.973 509.917 905.594C606.42 925.994 701.306 907.885 783.674 866.805C866.041 825.725 935.945 761.64 982.378 690.136C1008.73 649.569 1027.54 606.611 1036.81 564.103C1061.75 449.798 1091.58 364.735 1150.32 331.686C1209.07 298.637 1296.6 317.702 1436.76 411.743C1499.28 453.694 1561.77 471.084 1621.1 470.706C1664.86 470.42 1706.92 460.456 1746 443.536V445.422C1706.91 462.242 1664.87 472.141 1621.11 472.427C1561.44 472.818 1498.6 455.338 1435.77 413.179C1296.27 319.563 1209.35 300.478 1151.19 333.186C1093.03 365.894 1063.37 450.614 1038.53 564.461C1029.21 607.171 1010.31 650.32 983.854 691.064C937.244 762.822 867.133 827.121 784.454 868.353C701.776 909.584 606.471 927.773 509.55 907.283C463.843 897.625 417.773 879.359 372.49 850.853C195.234 739.314 91.3353 745.467 -23 816.844V814.759Z" fill="white"/>
</mask>
<g mask="url(#mask11_268_440)">
<path d="M1746 298.617H-23V927.773H1746V298.617Z" fill="#EDE7D3"/>
</g>
<mask id="mask12_268_440" style="mask-type:luminance" maskUnits="userSpaceOnUse" x="-23" y="325" width="1769" height="620">
<path d="M-23 875.458C95.5411 790.161 200.621 774.408 390.938 885.501C436.98 912.37 483.446 929.039 529.255 937.149C626.396 954.348 720.612 933.117 801.536 889.337C882.459 845.558 950.129 779.199 994.11 706.198C1019.07 664.777 1036.4 621.219 1044.22 578.435C1065.25 463.371 1092.16 377.375 1149.75 342.406C1207.33 307.436 1295.46 323.593 1438.75 412.959C1502.66 452.82 1565.71 468.138 1624.99 465.789C1667.63 464.103 1708.33 453.275 1746 435.868V437.769C1708.34 455.067 1667.67 465.824 1625.06 467.511C1565.44 469.875 1502.04 454.48 1437.81 414.417C1295.19 325.463 1207.68 309.243 1150.66 343.869C1093.65 378.495 1066.89 464.128 1045.94 578.739C1038.08 621.737 1020.66 665.489 995.62 707.076C951.484 780.331 883.602 846.894 802.377 890.85C721.153 934.806 626.519 956.119 528.947 938.844C482.946 930.696 436.267 913.965 390.046 886.986C200.161 776.144 95.4198 792.169 -23 877.642V875.458Z" fill="white"/>
</mask>
<g mask="url(#mask12_268_440)">
<path d="M1746 307.416H-23V956.119H1746V307.416Z" fill="#EDE7D3"/>
</g>
<mask id="mask13_268_440" style="mask-type:luminance" maskUnits="userSpaceOnUse" x="-23" y="334" width="1769" height="641">
<path d="M-23 939.255C99.9137 838.183 204.945 811.319 408.846 921.407C455.777 946.746 502.787 961.863 548.846 968.455C646.522 982.437 739.96 958.106 819.342 911.68C898.724 865.253 964.096 796.698 1005.57 722.283C1029.09 680.064 1044.93 635.954 1051.29 592.938C1068.38 477.252 1092.35 390.406 1148.71 353.553C1205.07 316.7 1293.7 329.94 1439.95 414.525C1505.18 452.249 1568.72 465.477 1627.9 461.171C1669.76 458.123 1709.44 446.301 1746 428.171V430.105C1709.46 448.112 1669.83 459.85 1628.02 462.892C1568.52 467.221 1504.63 453.936 1439.07 416.011C1293.48 331.816 1205.48 318.504 1149.67 354.988C1093.86 391.473 1070.05 477.944 1053.01 593.182C1046.62 636.414 1030.72 680.718 1007.09 723.114C965.479 797.782 899.907 866.565 820.224 913.165C740.541 959.765 646.702 984.204 548.598 970.165C502.344 963.542 455.125 948.361 408.004 922.92C204.518 813.053 99.8607 840.223 -23 941.532V939.255Z" fill="white"/>
</mask>
<g mask="url(#mask13_268_440)">
<path d="M1746 316.68H-23V984.206H1746V316.68Z" fill="#EDE7D3"/>
</g>
<mask id="mask14_268_440" style="mask-type:luminance" maskUnits="userSpaceOnUse" x="-11" y="343" width="1758" height="653">
<path d="M683.951 995.001C738.955 984.661 790.658 963.104 837.084 933.834C914.864 884.795 977.837 814.135 1016.75 738.391C1038.82 695.418 1053.14 650.818 1058.03 607.609C1071.18 491.425 1092.15 403.835 1147.24 365.138C1202.32 326.442 1291.34 336.752 1440.4 416.47C1506.87 452.02 1570.83 463.138 1629.82 456.883C1671.27 452.487 1710.28 439.508 1746 420.396V422.357C1710.32 441.327 1671.38 454.202 1630.01 458.598C1570.68 464.889 1506.38 453.714 1439.56 417.983C1291.19 338.645 1202.78 328.248 1148.25 366.556C1093.73 404.865 1072.86 492.06 1059.77 607.788C1054.86 651.201 1040.47 696.005 1018.31 739.148C979.265 815.152 916.074 886.062 838.029 935.264C793.825 963.128 744.85 984.042 692.795 994.973L683.951 995.001ZM-10.361 995.001C111.807 885.285 215.853 851.948 427.154 957.115C464.562 975.735 501.81 988.084 538.426 995.001H529.63C495.592 987.811 461.046 975.916 426.368 958.655C216.947 854.428 113.288 886.858 -7.73495 995.001H-10.361Z" fill="white"/>
</mask>
<g mask="url(#mask14_268_440)">
<path d="M1746 326.427H-10.3569V995H1746V326.427Z" fill="#EDE7D3"/>
</g>
<mask id="mask15_268_440" style="mask-type:luminance" maskUnits="userSpaceOnUse" x="68" y="352" width="1678" height="643">
<path d="M784.701 995C809.168 983.973 832.606 970.857 854.746 955.801C930.807 904.222 991.339 831.519 1027.64 754.532C1048.24 710.857 1061.04 665.805 1064.45 622.461C1073.62 505.896 1091.61 417.671 1145.33 377.179C1199.04 336.686 1288.39 344.048 1440.07 418.786C1507.72 452.124 1572.02 461.12 1630.77 452.917C1672.19 447.135 1710.85 432.798 1745.99 412.412V414.402C1710.91 434.631 1672.33 448.859 1631.02 454.629C1571.94 462.876 1507.29 453.833 1439.3 420.329C1288.31 345.941 1199.59 338.463 1146.4 378.552C1093.21 418.642 1075.33 506.486 1066.19 622.59C1062.77 666.143 1049.91 711.407 1029.23 755.256C992.802 832.507 932.063 905.464 855.737 957.219C834.556 971.617 812.193 984.255 788.881 995H784.701ZM68.0174 995C165.391 922.752 266.659 910.743 445.835 992.609C447.609 993.42 449.379 994.217 451.143 995H446.904L445.089 994.174C268.087 913.298 167.397 924.494 71.0606 995H68.0174Z" fill="white"/>
</mask>
<g mask="url(#mask15_268_440)">
<path d="M1746 336.672H68.0174V995H1746V336.672Z" fill="#EDE7D3"/>
</g>
<mask id="mask16_268_440" style="mask-type:luminance" maskUnits="userSpaceOnUse" x="168" y="362" width="1579" height="633">
<path d="M846.694 995C855.435 989.47 863.979 983.665 872.329 977.585C946.59 923.521 1004.61 848.857 1038.27 770.718C1057.36 726.389 1068.62 680.938 1070.55 637.503C1075.74 520.704 1090.72 431.935 1143.03 389.693C1195.34 347.451 1284.88 351.852 1439.03 421.538C1507.77 452.619 1572.35 459.49 1630.78 449.352C1672.55 442.105 1711.2 426.16 1746 404.15V406.2C1711.26 428.019 1672.72 443.837 1631.08 451.051C1572.32 461.252 1507.4 454.343 1438.3 423.105C1284.86 353.741 1195.93 349.2 1144.14 391.012C1092.35 432.823 1077.47 521.224 1072.3 637.56C1070.36 681.202 1059.06 726.854 1039.88 771.37C1006.1 849.783 947.879 924.703 873.37 978.951C865.722 984.518 857.903 989.862 849.915 994.98L846.694 995ZM168.053 995C224.258 973.196 288.262 971.564 371.969 995H365.415C287.446 974.102 226.79 975.505 173.366 995H168.053Z" fill="white"/>
</mask>
<g mask="url(#mask16_268_440)">
<path d="M1746 347.432H168.057V995H1746V347.432Z" fill="#EDE7D3"/>
</g>
<mask id="mask17_268_440" style="mask-type:luminance" maskUnits="userSpaceOnUse" x="895" y="372" width="852" height="624">
<path d="M895.108 995C964.901 938.949 1018.4 864.228 1048.62 786.965C1066.19 742.024 1075.89 696.229 1076.34 652.756C1077.55 535.851 1089.48 446.636 1140.33 402.688C1191.18 358.739 1280.81 360.185 1437.24 424.738C1507.02 453.532 1571.79 458.267 1629.84 446.203C1672.38 437.366 1711.33 419.503 1746 395.478V397.58C1711.39 421.384 1672.57 439.088 1630.2 447.892C1571.81 460.023 1506.7 455.269 1436.57 426.332C1280.85 362.073 1191.82 360.476 1141.48 403.984C1091.15 447.492 1079.31 536.324 1078.09 652.771C1077.64 696.453 1067.9 742.454 1050.25 787.579C1020.17 864.507 967.095 938.914 897.881 995.003L895.108 995Z" fill="white"/>
</mask>
<g mask="url(#mask17_268_440)">
<path d="M1746 358.72H895.108V994.998H1746V358.72Z" fill="#EDE7D3"/>
</g>
<mask id="mask18_268_440" style="mask-type:luminance" maskUnits="userSpaceOnUse" x="935" y="382" width="811" height="613">
<path d="M935.541 995C991.84 939.963 1034.37 872.303 1058.69 803.262C1074.72 757.771 1082.86 711.678 1081.82 668.213C1079.04 551.335 1087.94 461.776 1137.25 416.176C1186.57 370.576 1276.2 369.056 1434.74 428.407C1505.46 454.878 1570.35 457.472 1627.96 443.498C1671.7 432.887 1711.26 412.718 1745.99 386.2V388.382C1711.34 414.639 1671.94 434.611 1628.38 445.172C1570.44 459.226 1505.2 456.617 1434.12 430.021C1276.31 370.944 1187.27 372.288 1138.44 417.435C1089.62 462.582 1080.8 551.755 1083.56 668.178C1084.6 711.845 1076.44 758.139 1060.34 803.822C1036.1 872.596 993.879 939.998 938.006 995H935.541Z" fill="white"/>
</mask>
<g mask="url(#mask18_268_440)">
<path d="M1746 369.056H935.541V995H1746V369.056Z" fill="#EDE7D3"/>
</g>
<mask id="mask19_268_440" style="mask-type:luminance" maskUnits="userSpaceOnUse" x="970" y="376" width="776" height="619">
<path d="M970.355 995C1015.45 942.389 1049.09 881.305 1068.5 819.635C1082.97 773.639 1089.53 727.305 1087.01 683.897C1080.25 567.178 1086.08 477.379 1133.82 430.174C1181.55 382.969 1271.08 378.488 1431.56 432.569C1503.14 456.702 1568.08 457.137 1625.18 441.277C1670.61 428.654 1711.09 405.7 1746 376.117V378.386C1711.16 407.661 1670.85 430.383 1625.66 442.939C1568.24 458.896 1502.94 458.453 1431 434.209C1271.26 380.379 1182.31 384.661 1135.05 431.395C1087.8 478.13 1082.04 567.539 1088.76 683.802C1091.29 727.412 1084.7 773.953 1070.17 820.138C1050.83 881.601 1017.41 942.457 972.645 994.995L970.355 995Z" fill="white"/>
</mask>
<g mask="url(#mask19_268_440)">
<path d="M1746 376.11H970.355V994.999H1746V376.11Z" fill="#EDE7D3"/>
</g>
<mask id="mask20_268_440" style="mask-type:luminance" maskUnits="userSpaceOnUse" x="1000" y="364" width="747" height="632">
<path d="M1000.85 995C1036.49 945.757 1062.8 890.977 1078.04 836.087C1090.93 789.636 1095.91 743.113 1091.91 699.816C1081.18 583.384 1083.95 493.44 1130.04 444.685C1176.13 395.93 1265.46 388.496 1427.7 437.246C1500.06 458.99 1564.99 457.293 1621.52 439.547C1669.15 424.593 1710.84 398.234 1746 364.911V367.302C1710.91 400.264 1669.42 426.329 1622.04 441.192C1565.2 459.04 1499.92 460.751 1427.2 438.898C1265.71 390.384 1176.97 397.599 1131.32 445.864C1085.67 494.129 1082.96 583.692 1093.66 699.664C1097.67 743.17 1092.68 789.9 1079.73 836.545C1064.54 891.253 1038.4 945.852 1003 995.005L1000.85 995Z" fill="white"/>
</mask>
<g mask="url(#mask20_268_440)">
<path d="M1746 364.901H1000.85V995H1746V364.901Z" fill="#EDE7D3"/>
</g>
<mask id="mask21_268_440" style="mask-type:luminance" maskUnits="userSpaceOnUse" x="1027" y="352" width="719" height="643">
<path d="M1027.78 995C1055.42 949.8 1075.61 901.115 1087.31 852.626C1098.61 805.777 1102 759.114 1096.53 715.972C1081.83 599.96 1081.53 509.976 1125.94 459.721C1170.35 409.466 1259.37 399.092 1423.18 442.453C1496.24 461.794 1561.07 457.955 1616.96 438.353C1667.42 420.657 1710.6 390.108 1746 352.173V354.705C1710.66 392.205 1667.68 422.396 1617.54 439.977C1561.33 459.691 1496.15 463.56 1422.73 444.122C1259.67 400.96 1171.22 411.106 1127.26 460.856C1083.29 510.606 1083.63 600.204 1098.27 715.761C1103.76 759.107 1100.37 805.976 1089.02 853.022C1077.35 901.361 1057.28 949.892 1029.82 994.997L1027.78 995Z" fill="white"/>
</mask>
<g mask="url(#mask21_268_440)">
<path d="M1746 352.178H1027.78V994.999H1746V352.178Z" fill="#EDE7D3"/>
</g>
<mask id="mask22_268_440" style="mask-type:luminance" maskUnits="userSpaceOnUse" x="1051" y="337" width="695" height="659">
<path d="M1051.67 994.999C1072.53 954.342 1087.62 911.626 1096.32 869.265C1106.02 822.067 1107.82 775.318 1100.88 732.382C1082.23 616.922 1078.87 526.998 1121.54 475.31C1164.21 423.622 1252.83 410.304 1418.02 448.232C1491.7 465.15 1556.36 459.179 1611.55 437.733C1665.56 416.75 1710.52 380.957 1746 337.33V340.092C1710.55 383.184 1665.81 418.519 1612.19 439.358C1556.68 460.915 1491.67 466.933 1417.62 449.931C1253.19 412.18 1165.13 425.242 1122.89 476.415C1080.64 527.588 1084.03 617.121 1102.6 732.131C1109.57 775.27 1107.77 822.226 1098.03 869.618C1089.35 911.857 1074.35 954.454 1053.63 995.007L1051.67 994.999Z" fill="white"/>
</mask>
<g mask="url(#mask22_268_440)">
<path d="M1746 337.33H1051.67V994.999H1746V337.33Z" fill="#EDE7D3"/>
</g>
<mask id="mask23_268_440" style="mask-type:luminance" maskUnits="userSpaceOnUse" x="1072" y="319" width="674" height="677">
<path d="M1072.86 995.001C1088.02 959.27 1098.87 922.429 1105.07 886.007C1113.16 838.516 1113.36 791.736 1104.96 749.052C1082.39 634.274 1075.96 544.514 1116.84 491.443C1157.72 438.371 1245.84 422.138 1412.23 454.587C1486.45 469.062 1550.87 460.951 1605.3 437.702C1663.46 412.858 1710.23 370.724 1745.37 320.391L1746 319.483V322.519C1710.78 372.592 1664.03 414.493 1605.99 439.282C1551.25 462.668 1486.48 470.826 1411.9 456.282C1246.27 423.982 1158.71 439.944 1118.23 492.483C1077.76 545.022 1084.19 634.393 1106.68 748.734C1115.11 791.62 1114.92 838.608 1106.8 886.298C1100.61 922.621 1089.82 959.359 1074.75 995.018L1072.86 995.001Z" fill="white"/>
</mask>
<g mask="url(#mask23_268_440)">
<path d="M1746 319.483H1072.86V994.998H1746V319.483Z" fill="#EDE7D3"/>
</g>
<mask id="mask24_268_440" style="mask-type:luminance" maskUnits="userSpaceOnUse" x="1085" y="297" width="661" height="698">
<path d="M1091.59 995C1102.04 964.486 1109.43 933.477 1113.58 902.864C1120.04 855.136 1118.63 808.374 1108.79 765.991C1082.32 652.021 1072.83 562.523 1111.88 508.133C1150.94 453.743 1238.45 434.609 1405.86 461.542C1480.53 473.556 1544.62 463.319 1598.24 438.286C1655.52 411.536 1700.83 367.879 1734.22 316.417C1738.33 310.093 1742.25 303.656 1745.99 297.106V300.589C1742.69 306.254 1739.26 311.838 1735.69 317.343C1702.13 369.066 1656.58 412.947 1598.98 439.846C1545.07 465.02 1480.62 475.318 1405.57 463.232C1238.94 436.422 1151.97 455.27 1113.31 509.116C1074.65 562.961 1084.13 652.074 1110.49 765.595C1120.39 808.178 1121.79 855.144 1115.3 903.075C1111.16 933.614 1103.82 964.548 1093.42 994.99L1091.59 995Z" fill="white"/>
</mask>
<g mask="url(#mask24_268_440)">
<path d="M1746 297.106H1072.83V995H1746V297.106Z" fill="#EDE7D3"/>
</g>
<mask id="mask25_268_440" style="mask-type:luminance" maskUnits="userSpaceOnUse" x="1083" y="267" width="664" height="728">
<path d="M1108.03 995C1114.62 970.34 1119.23 945.21 1121.82 919.841C1126.65 871.927 1123.66 825.24 1112.38 783.205C1082.05 670.176 1069.5 581.043 1106.68 525.391C1143.85 469.74 1230.66 447.727 1398.89 469.116C1473.93 478.657 1537.66 466.309 1590.37 439.51C1646.71 410.884 1690.51 365.754 1722.13 313.218C1731.04 298.376 1739.02 283.005 1746 267.192V271.459C1739.38 286.084 1731.92 300.323 1723.64 314.104C1691.86 366.904 1647.83 412.265 1591.18 441.05C1538.16 467.994 1474.09 480.413 1398.67 470.825C1231.22 449.534 1144.94 471.243 1108.14 526.337C1071.33 581.431 1083.85 670.176 1114.07 782.767C1125.41 824.996 1128.42 871.892 1123.56 920.01C1120.98 945.32 1116.39 970.392 1109.84 995H1108.03Z" fill="white"/>
</mask>
<g mask="url(#mask25_268_440)">
<path d="M1746 267.192H1069.5V995H1746V267.192Z" fill="#EDE7D3"/>
</g>
</g>
<defs>
<clipPath id="clip0_268_440">
<rect width="1769" height="995" fill="white" transform="translate(-23)"/>
</clipPath>
</defs>
</svg>
