<svg width="26" height="21" viewBox="0 0 26 21" fill="none" xmlns="http://www.w3.org/2000/svg">
<path d="M0.585 2.16207L11.6788 13.2571C12.0069 13.5855 12.4453 13.7805 12.909 13.8042C13.3727 13.828 13.8287 13.6789 14.1888 13.3858L14.3312 13.2571L25.4175 2.16957C25.4533 2.30707 25.4775 2.44749 25.49 2.59082L25.5 2.80957V17.8096C25.5002 18.4403 25.262 19.0478 24.8331 19.5103C24.4043 19.9727 23.8164 20.256 23.1875 20.3033L23 20.3096H3C2.36928 20.3098 1.76179 20.0716 1.29931 19.6427C0.836838 19.2138 0.553554 18.626 0.50625 17.9971L0.5 17.8096V2.80957C0.5 2.65957 0.5125 2.51374 0.5375 2.37207L0.585 2.16207ZM23 0.30957C23.1517 0.30957 23.2996 0.322487 23.4437 0.34832L23.6562 0.397071L13.0063 11.0471L2.3525 0.39457C2.49083 0.35707 2.6325 0.33207 2.7775 0.31957L3 0.30957H23Z" fill="#1A4A5B"/>
</svg>
