<svg width="21" height="21" viewBox="0 0 21 21" fill="none" xmlns="http://www.w3.org/2000/svg">
<path d="M19.4 14.0651C18.0333 14.0651 16.7111 13.8429 15.4778 13.4429C15.2845 13.3778 15.0769 13.3683 14.8785 13.4154C14.6801 13.4626 14.4989 13.5645 14.3556 13.7096L12.6111 15.8985C9.46667 14.3985 6.52222 11.5651 4.95556 8.30957L7.12222 6.46513C7.42222 6.15402 7.51111 5.72068 7.38889 5.33179C6.97778 4.09846 6.76667 2.77624 6.76667 1.40957C6.76667 0.80957 6.26667 0.30957 5.66667 0.30957H1.82222C1.22222 0.30957 0.5 0.576237 0.5 1.40957C0.5 11.7318 9.08889 20.3096 19.4 20.3096C20.1889 20.3096 20.5 19.6096 20.5 18.9985V15.1651C20.5 14.5651 20 14.0651 19.4 14.0651Z" fill="#1A4A5B"/>
</svg>
